M48
; DRILL file {KiCad (5.1.10-1-10_14)} date Sunday, August 01, 2021 at 11:27:58 PM
; FORMAT={-:-/ absolute / inch / decimal}
; #@! TF.CreationDate,2021-08-01T23:27:58+01:00
; #@! TF.GenerationSoftware,Kicad,Pcbnew,(5.1.10-1-10_14)
; #@! TF.FileFunction,Plated,1,2,PTH
FMAT,2
INCH
T1C0.0157
T2C0.0354
T3C0.0394
T4C0.0430
T5C0.0433
T6C0.0591
T7C0.1260
%
G90
G05
T1
X1.38Y-2.6
X1.4Y-3.36
X1.47Y-2.48
X1.47Y-2.6
X1.57Y-2.59
X1.698Y-2.887
X1.698Y-3.0317
X1.8661Y-2.9461
X1.9579Y-3.0593
X2.3902Y-2.9413
X2.5947Y-3.2965
X2.9146Y-2.9677
X3.5809Y-2.9894
X5.1636Y-2.1638
X5.7Y-3.35
X6.71Y-2.54
X6.73Y-2.38
X8.11Y-2.3
X8.31Y-2.3
X8.59Y-4.39
X8.63Y-4.14
X9.38Y-4.47
X9.3886Y-3.6594
X9.4209Y-3.3102
X10.76Y-3.02
X10.9814Y-2.6892
T3
X1.2555Y-3.6366
X1.2563Y-3.0835
X1.5143Y-5.3886
X1.5626Y-3.6366
X1.5634Y-3.0835
X1.7802Y-5.235
X2.0143Y-6.2177
X2.1386Y-2.8591
X2.1492Y-3.824
X2.1714Y-5.0181
X2.2802Y-6.0642
X2.4373Y-4.8646
X2.4457Y-2.8591
X2.4563Y-3.824
X2.6631Y-5.8516
X2.6695Y-3.7896
X2.6695Y-3.8896
X2.6695Y-3.9896
X2.8921Y-2.4732
X2.8965Y-4.7311
X2.9098Y-3.2248
X2.9106Y-3.9724
X2.929Y-5.698
X3.1992Y-2.4732
X3.2035Y-4.7311
X3.2169Y-3.2248
X3.2177Y-3.9724
X3.6433Y-3.1626
X3.6567Y-2.4083
X3.6575Y-3.9087
X3.663Y-4.6618
X3.9481Y-4.9408
X3.9504Y-3.1626
X3.9638Y-2.4083
X3.9646Y-3.9087
X3.9701Y-4.6618
X4.0276Y-5.2374
X4.3996Y-3.8311
X4.4008Y-3.0807
X4.4012Y-2.3339
X4.4028Y-4.5819
X4.7067Y-3.8311
X4.7079Y-3.0807
X4.7083Y-2.3339
X4.7098Y-4.5819
X4.9248Y-4.8724
X4.9248Y-5.1795
X5.1484Y-2.4126
X5.1543Y-3.1626
X5.1571Y-3.9102
X5.1594Y-4.6606
X5.4555Y-2.4126
X5.4614Y-3.1626
X5.4642Y-3.9102
X5.4665Y-4.6606
X5.6854Y-4.9323
X5.6854Y-5.2394
X5.9126Y-3.361
X5.9157Y-4.1181
X5.9193Y-2.6157
X5.9228Y-4.8618
X6.2197Y-3.361
X6.2228Y-4.1181
X6.2264Y-2.6157
X6.2299Y-4.8618
X6.4441Y-5.1197
X6.4441Y-5.4268
X6.6646Y-4.8622
X6.6677Y-2.6134
X6.6717Y-3.365
X6.672Y-4.1134
X6.9717Y-4.8622
X6.9748Y-2.6134
X6.9787Y-3.365
X6.9791Y-4.1134
X7.2882Y-5.1207
X7.2882Y-5.4278
X7.9313Y-3.3327
X7.9519Y-4.5512
X8.2178Y-4.3976
X8.2384Y-3.3327
X8.4386Y-5.3863
X8.6742Y-3.4331
X8.6765Y-2.8
X8.6985Y-4.3
X8.7046Y-5.2328
X8.9813Y-3.4331
X8.9835Y-2.8
X9.0056Y-4.3
X9.1587Y-5.0772
X9.4328Y-2.7881
X9.4328Y-3.5281
X9.4328Y-4.2781
X9.4657Y-5.0772
X9.7398Y-2.7881
X9.7398Y-3.5281
X9.7398Y-4.2781
X10.1758Y-2.6256
X10.1828Y-3.3681
X10.1828Y-4.1129
X10.3265Y-5.25
X10.4829Y-2.6256
X10.4898Y-3.3681
X10.4898Y-4.1129
X10.6335Y-5.25
X11.0265Y-2.93
X11.0265Y-3.68
X11.0841Y-4.7285
X11.0841Y-5.4864
X11.3335Y-2.93
X11.3335Y-3.68
X11.3911Y-4.7285
X11.3911Y-5.4864
X11.8265Y-5.29
X12.1335Y-5.29
T4
X1.15Y-1.7
X1.15Y-1.8
X1.15Y-1.9
X1.15Y-2.0
X1.15Y-2.1
X1.15Y-2.2
X1.15Y-2.3
X1.15Y-2.4
X1.15Y-2.5
X1.15Y-2.6
X1.15Y-2.7
X1.15Y-2.8
X1.75Y-1.7
X1.75Y-1.8
X1.75Y-1.9
X1.75Y-2.0
X1.75Y-2.1
X1.75Y-2.2
X1.75Y-2.3
X1.75Y-2.4
X1.75Y-2.5
X1.75Y-2.6
X1.75Y-2.7
X1.75Y-2.8
T5
X5.7539Y-1.6705
X5.7539Y-1.8476
X6.0098Y-1.6705
X6.0098Y-1.8476
T7
X1.1807Y-4.5823
X2.2906Y-1.6823
X7.6827Y-1.6823
X7.6827Y-5.5024
X7.685Y-3.6961
X11.9839Y-2.0268
X11.9996Y-5.4976
T2
G00X1.1827Y-3.3579
M15
G01X1.2063Y-3.3579
M16
G05
G00X1.3008Y-3.3579
M15
G01X1.3244Y-3.3579
M16
G05
G00X1.4583Y-3.3579
M15
G01X1.4819Y-3.3579
M16
G05
G00X1.5016Y-3.1768
M15
G01X1.5252Y-3.1768
M16
G05
G00X1.5016Y-3.539
M15
G01X1.5252Y-3.539
M16
G05
T6
G00X1.3139Y-4.9506
M15
G01X1.315Y-5.0164
M16
G05
G00X1.3083Y-4.9048
M15
G01X1.321Y-4.9237
M16
G05
G00X1.4815Y-4.8048
M15
G01X1.4915Y-4.8253
M16
G05
G00X1.5184Y-4.8325
M15
G01X1.5748Y-4.8663
M16
G05
G00X1.9639Y-4.5754
M15
G01X1.965Y-4.6412
M16
G05
G00X1.9583Y-4.5296
M15
G01X1.971Y-4.5485
M16
G05
G00X2.0411Y-5.6558
M15
G01X1.9754Y-5.6569
M16
G05
G00X2.087Y-5.6502
M15
G01X2.068Y-5.663
M16
G05
G00X2.1315Y-4.4296
M15
G01X2.1415Y-4.4501
M16
G05
G00X2.1592Y-5.8603
M15
G01X2.1254Y-5.9167
M16
G05
G00X2.1725Y-2.3835
M15
G01X2.1405Y-2.4409
M16
G05
G00X2.187Y-5.8234
M15
G01X2.1665Y-5.8335
M16
G05
G00X2.1906Y-2.341
M15
G01X2.1921Y-2.3638
M16
G05
G00X2.1684Y-4.4573
M15
G01X2.2248Y-4.4911
M16
G05
G00X2.3905Y-2.341
M15
G01X2.389Y-2.3638
M16
G05
G00X2.448Y-3.3729
M15
G01X2.3906Y-3.3409
M16
G05
G00X2.448Y-3.609
M15
G01X2.3906Y-3.641
M16
G05
G00X2.4086Y-2.3835
M15
G01X2.4406Y-2.4409
M16
G05
G00X2.4905Y-3.391
M15
G01X2.4677Y-3.3925
M16
G05
G00X2.4905Y-3.5909
M15
G01X2.4677Y-3.5894
M16
G05
G00X2.6917Y-5.2818
M15
G01X2.626Y-5.2829
M16
G05
G00X2.7376Y-5.2762
M15
G01X2.7186Y-5.289
M16
G05
G00X2.8098Y-5.4863
M15
G01X2.776Y-5.5427
M16
G05
G00X2.8375Y-5.4494
M15
G01X2.817Y-5.4594
M16
G05
G00X2.9319Y-1.9925
M15
G01X2.9Y-2.05
M16
G05
G00X2.9319Y-2.7425
M15
G01X2.9Y-2.8
M16
G05
G00X2.9319Y-3.4925
M15
G01X2.9Y-3.55
M16
G05
G00X2.9319Y-4.2425
M15
G01X2.9Y-4.3
M16
G05
G00X2.95Y-1.95
M15
G01X2.9516Y-1.9728
M16
G05
G00X2.95Y-2.7
M15
G01X2.9516Y-2.7228
M16
G05
G00X2.95Y-3.45
M15
G01X2.9516Y-3.4728
M16
G05
G00X2.95Y-4.2
M15
G01X2.9516Y-4.2228
M16
G05
G00X3.15Y-1.95
M15
G01X3.1484Y-1.9728
M16
G05
G00X3.15Y-2.7
M15
G01X3.1484Y-2.7228
M16
G05
G00X3.15Y-3.45
M15
G01X3.1484Y-3.4728
M16
G05
G00X3.15Y-4.2
M15
G01X3.1484Y-4.2228
M16
G05
G00X3.1681Y-1.9925
M15
G01X3.2Y-2.05
M16
G05
G00X3.1681Y-2.7425
M15
G01X3.2Y-2.8
M16
G05
G00X3.1681Y-3.4925
M15
G01X3.2Y-3.55
M16
G05
G00X3.1681Y-4.2425
M15
G01X3.2Y-4.3
M16
G05
G00X3.3889Y-5.082
M15
G01X3.3729Y-5.1458
M16
G05
G00X3.3954Y-5.0363
M15
G01X3.4028Y-5.0579
M16
G05
G00X3.5885Y-4.9845
M15
G01X3.5929Y-5.0069
M16
G05
G00X3.617Y-5.0209
M15
G01X3.6627Y-5.0681
M16
G05
G00X3.6819Y-1.9264
M15
G01X3.65Y-1.9839
M16
G05
G00X3.6819Y-2.6764
M15
G01X3.65Y-2.7339
M16
G05
G00X3.6819Y-3.4264
M15
G01X3.65Y-3.4839
M16
G05
G00X3.6819Y-4.1764
M15
G01X3.65Y-4.2339
M16
G05
G00X3.7Y-1.8839
M15
G01X3.7016Y-1.9067
M16
G05
G00X3.7Y-2.6339
M15
G01X3.7016Y-2.6567
M16
G05
G00X3.7Y-3.3839
M15
G01X3.7016Y-3.4067
M16
G05
G00X3.7Y-4.1339
M15
G01X3.7016Y-4.1567
M16
G05
G00X3.9Y-1.8839
M15
G01X3.8984Y-1.9067
M16
G05
G00X3.9Y-2.6339
M15
G01X3.8984Y-2.6567
M16
G05
G00X3.9Y-3.3839
M15
G01X3.8984Y-3.4067
M16
G05
G00X3.9Y-4.1339
M15
G01X3.8984Y-4.1567
M16
G05
G00X3.9181Y-1.9264
M15
G01X3.95Y-1.9839
M16
G05
G00X3.9181Y-2.6764
M15
G01X3.95Y-2.7339
M16
G05
G00X3.9181Y-3.4264
M15
G01X3.95Y-3.4839
M16
G05
G00X3.9181Y-4.1764
M15
G01X3.95Y-4.2339
M16
G05
G00X4.4319Y-1.8512
M15
G01X4.4Y-1.9087
M16
G05
G00X4.4319Y-2.6012
M15
G01X4.4Y-2.6587
M16
G05
G00X4.4319Y-3.3512
M15
G01X4.4Y-3.4087
M16
G05
G00X4.4319Y-4.1012
M15
G01X4.4Y-4.1587
M16
G05
G00X4.4319Y-4.8512
M15
G01X4.4Y-4.9087
M16
G05
G00X4.45Y-1.8087
M15
G01X4.4516Y-1.8315
M16
G05
G00X4.45Y-2.5587
M15
G01X4.4516Y-2.5815
M16
G05
G00X4.45Y-3.3087
M15
G01X4.4516Y-3.3315
M16
G05
G00X4.45Y-4.0587
M15
G01X4.4516Y-4.0815
M16
G05
G00X4.45Y-4.8087
M15
G01X4.4516Y-4.8315
M16
G05
G00X4.65Y-1.8087
M15
G01X4.6484Y-1.8315
M16
G05
G00X4.65Y-2.5587
M15
G01X4.6484Y-2.5815
M16
G05
G00X4.65Y-3.3087
M15
G01X4.6484Y-3.3315
M16
G05
G00X4.65Y-4.0587
M15
G01X4.6484Y-4.0815
M16
G05
G00X4.65Y-4.8087
M15
G01X4.6484Y-4.8315
M16
G05
G00X4.6681Y-1.8512
M15
G01X4.7Y-1.9087
M16
G05
G00X4.6681Y-2.6012
M15
G01X4.7Y-2.6587
M16
G05
G00X4.6681Y-3.3512
M15
G01X4.7Y-3.4087
M16
G05
G00X4.6681Y-4.1012
M15
G01X4.7Y-4.1587
M16
G05
G00X4.6681Y-4.8512
M15
G01X4.7Y-4.9087
M16
G05
G00X5.1839Y-1.9283
M15
G01X5.152Y-1.9858
M16
G05
G00X5.1839Y-2.6783
M15
G01X5.152Y-2.7358
M16
G05
G00X5.1839Y-3.4283
M15
G01X5.152Y-3.4858
M16
G05
G00X5.1839Y-4.1783
M15
G01X5.152Y-4.2358
M16
G05
G00X5.1839Y-4.9283
M15
G01X5.152Y-4.9858
M16
G05
G00X5.202Y-1.8859
M15
G01X5.2035Y-1.9086
M16
G05
G00X5.202Y-2.6359
M15
G01X5.2035Y-2.6586
M16
G05
G00X5.202Y-3.3859
M15
G01X5.2035Y-3.4086
M16
G05
G00X5.202Y-4.1359
M15
G01X5.2035Y-4.1586
M16
G05
G00X5.202Y-4.8859
M15
G01X5.2035Y-4.9086
M16
G05
G00X5.402Y-1.8859
M15
G01X5.4004Y-1.9086
M16
G05
G00X5.402Y-2.6359
M15
G01X5.4004Y-2.6586
M16
G05
G00X5.402Y-3.3859
M15
G01X5.4004Y-3.4086
M16
G05
G00X5.402Y-4.1359
M15
G01X5.4004Y-4.1586
M16
G05
G00X5.402Y-4.8859
M15
G01X5.4004Y-4.9086
M16
G05
G00X5.4201Y-1.9283
M15
G01X5.452Y-1.9858
M16
G05
G00X5.4201Y-2.6783
M15
G01X5.452Y-2.7358
M16
G05
G00X5.4201Y-3.4283
M15
G01X5.452Y-3.4858
M16
G05
G00X5.4201Y-4.1783
M15
G01X5.452Y-4.2358
M16
G05
G00X5.4201Y-4.9283
M15
G01X5.452Y-4.9858
M16
G05
G00X5.9488Y-2.1319
M15
G01X5.9169Y-2.1894
M16
G05
G00X5.9488Y-2.8819
M15
G01X5.9169Y-2.9394
M16
G05
G00X5.9488Y-3.6319
M15
G01X5.9169Y-3.6894
M16
G05
G00X5.9488Y-4.3819
M15
G01X5.9169Y-4.4394
M16
G05
G00X5.9488Y-5.1319
M15
G01X5.9169Y-5.1894
M16
G05
G00X5.9669Y-2.0894
M15
G01X5.9685Y-2.1122
M16
G05
G00X5.9669Y-2.8394
M15
G01X5.9685Y-2.8622
M16
G05
G00X5.9669Y-3.5894
M15
G01X5.9685Y-3.6122
M16
G05
G00X5.9669Y-4.3394
M15
G01X5.9685Y-4.3622
M16
G05
G00X5.9669Y-5.0894
M15
G01X5.9685Y-5.1122
M16
G05
G00X6.1669Y-2.0894
M15
G01X6.1654Y-2.1122
M16
G05
G00X6.1669Y-2.8394
M15
G01X6.1654Y-2.8622
M16
G05
G00X6.1669Y-3.5894
M15
G01X6.1654Y-3.6122
M16
G05
G00X6.1669Y-4.3394
M15
G01X6.1654Y-4.3622
M16
G05
G00X6.1669Y-5.0894
M15
G01X6.1654Y-5.1122
M16
G05
G00X6.185Y-2.1319
M15
G01X6.2169Y-2.1894
M16
G05
G00X6.185Y-2.8819
M15
G01X6.2169Y-2.9394
M16
G05
G00X6.185Y-3.6319
M15
G01X6.2169Y-3.6894
M16
G05
G00X6.185Y-4.3819
M15
G01X6.2169Y-4.4394
M16
G05
G00X6.185Y-5.1319
M15
G01X6.2169Y-5.1894
M16
G05
G00X6.6988Y-2.1319
M15
G01X6.6669Y-2.1894
M16
G05
G00X6.6988Y-2.8819
M15
G01X6.6669Y-2.9394
M16
G05
G00X6.7169Y-2.0894
M15
G01X6.7185Y-2.1122
M16
G05
G00X6.7169Y-2.8394
M15
G01X6.7185Y-2.8622
M16
G05
G00X6.7973Y-3.627
M15
G01X6.7653Y-3.6844
M16
G05
G00X6.7973Y-4.377
M15
G01X6.7653Y-4.4344
M16
G05
G00X6.7973Y-5.127
M15
G01X6.7653Y-5.1844
M16
G05
G00X6.8154Y-3.5845
M15
G01X6.8169Y-3.6073
M16
G05
G00X6.8154Y-4.3345
M15
G01X6.8169Y-4.3573
M16
G05
G00X6.8154Y-5.0845
M15
G01X6.8169Y-5.1073
M16
G05
G00X6.9169Y-2.0894
M15
G01X6.9154Y-2.1122
M16
G05
G00X6.9169Y-2.8394
M15
G01X6.9154Y-2.8622
M16
G05
G00X6.935Y-2.1319
M15
G01X6.9669Y-2.1894
M16
G05
G00X6.935Y-2.8819
M15
G01X6.9669Y-2.9394
M16
G05
G00X7.0153Y-3.5845
M15
G01X7.0138Y-3.6073
M16
G05
G00X7.0153Y-4.3345
M15
G01X7.0138Y-4.3573
M16
G05
G00X7.0153Y-5.0845
M15
G01X7.0138Y-5.1073
M16
G05
G00X7.0334Y-3.627
M15
G01X7.0654Y-3.6844
M16
G05
G00X7.0334Y-4.377
M15
G01X7.0654Y-4.4344
M16
G05
G00X7.0334Y-5.127
M15
G01X7.0654Y-5.1844
M16
G05
G00X7.7345Y-4.0988
M15
G01X7.7356Y-4.1646
M16
G05
G00X7.729Y-4.053
M15
G01X7.7417Y-4.0719
M16
G05
G00X7.9022Y-3.953
M15
G01X7.9122Y-3.9735
M16
G05
G00X7.9391Y-3.9808
M15
G01X7.9955Y-4.0146
M16
G05
G00X8.2297Y-2.8516
M15
G01X8.1722Y-2.8197
M16
G05
G00X8.2297Y-3.0878
M15
G01X8.1722Y-3.1197
M16
G05
G00X8.2722Y-2.8697
M15
G01X8.2494Y-2.8712
M16
G05
G00X8.2722Y-3.0697
M15
G01X8.2494Y-3.0681
M16
G05
G00X8.464Y-4.8086
M15
G01X8.3982Y-4.8097
M16
G05
G00X8.5098Y-4.803
M15
G01X8.4909Y-4.8158
M16
G05
G00X8.5821Y-5.0131
M15
G01X8.5483Y-5.0695
M16
G05
G00X8.6098Y-4.9762
M15
G01X8.5893Y-4.9863
M16
G05
G00X8.7019Y-3.8025
M15
G01X8.67Y-3.86
M16
G05
G00X8.7069Y-3.0571
M15
G01X8.675Y-3.1146
M16
G05
G00X8.7119Y-2.3025
M15
G01X8.68Y-2.36
M16
G05
G00X8.72Y-3.76
M15
G01X8.7216Y-3.7828
M16
G05
G00X8.725Y-3.0146
M15
G01X8.7266Y-3.0374
M16
G05
G00X8.73Y-2.26
M15
G01X8.7316Y-2.2828
M16
G05
G00X8.92Y-3.76
M15
G01X8.9184Y-3.7828
M16
G05
G00X8.925Y-3.0146
M15
G01X8.9234Y-3.0374
M16
G05
G00X8.93Y-2.26
M15
G01X8.9284Y-2.2828
M16
G05
G00X8.9381Y-3.8025
M15
G01X8.97Y-3.86
M16
G05
G00X8.9431Y-3.0571
M15
G01X8.975Y-3.1146
M16
G05
G00X8.9481Y-2.3025
M15
G01X8.98Y-2.36
M16
G05
G00X9.1796Y-4.584
M15
G01X9.1476Y-4.6414
M16
G05
G00X9.1977Y-4.5415
M15
G01X9.1992Y-4.5642
M16
G05
G00X9.3976Y-4.5415
M15
G01X9.3961Y-4.5642
M16
G05
G00X9.4157Y-4.584
M15
G01X9.4477Y-4.6414
M16
G05
G00X9.4612Y-3.037
M15
G01X9.4293Y-3.0945
M16
G05
G00X9.4632Y-3.787
M15
G01X9.4313Y-3.8445
M16
G05
G00X9.4652Y-2.3008
M15
G01X9.4332Y-2.3583
M16
G05
G00X9.4793Y-2.9945
M15
G01X9.4809Y-3.0173
M16
G05
G00X9.4813Y-3.7445
M15
G01X9.4829Y-3.7673
M16
G05
G00X9.4833Y-2.2583
M15
G01X9.4848Y-2.2811
M16
G05
G00X9.6793Y-2.9945
M15
G01X9.6778Y-3.0173
M16
G05
G00X9.6813Y-3.7445
M15
G01X9.6797Y-3.7673
M16
G05
G00X9.6833Y-2.2583
M15
G01X9.6817Y-2.2811
M16
G05
G00X9.6974Y-3.037
M15
G01X9.7293Y-3.0945
M16
G05
G00X9.6994Y-3.787
M15
G01X9.7313Y-3.8445
M16
G05
G00X9.7014Y-2.3008
M15
G01X9.7333Y-2.3583
M16
G05
G00X10.2112Y-2.1236
M15
G01X10.1793Y-2.1811
M16
G05
G00X10.2112Y-2.8717
M15
G01X10.1793Y-2.9291
M16
G05
G00X10.2112Y-3.6197
M15
G01X10.1793Y-3.6772
M16
G05
G00X10.2293Y-2.0811
M15
G01X10.2309Y-2.1039
M16
G05
G00X10.2293Y-2.8292
M15
G01X10.2309Y-2.8519
M16
G05
G00X10.2293Y-3.5772
M15
G01X10.2309Y-3.6
M16
G05
G00X10.3575Y-4.7614
M15
G01X10.3256Y-4.8189
M16
G05
G00X10.3756Y-4.7189
M15
G01X10.3772Y-4.7417
M16
G05
G00X10.4293Y-2.0811
M15
G01X10.4278Y-2.1039
M16
G05
G00X10.4293Y-2.8292
M15
G01X10.4278Y-2.8519
M16
G05
G00X10.4293Y-3.5772
M15
G01X10.4278Y-3.6
M16
G05
G00X10.4474Y-2.1236
M15
G01X10.4793Y-2.1811
M16
G05
G00X10.4474Y-2.8717
M15
G01X10.4793Y-2.9291
M16
G05
G00X10.4474Y-3.6197
M15
G01X10.4793Y-3.6772
M16
G05
G00X10.5756Y-4.7189
M15
G01X10.574Y-4.7417
M16
G05
G00X10.5937Y-4.7614
M15
G01X10.6256Y-4.8189
M16
G05
G00X11.0519Y-2.4325
M15
G01X11.02Y-2.49
M16
G05
G00X11.0519Y-3.1825
M15
G01X11.02Y-3.24
M16
G05
G00X11.07Y-2.39
M15
G01X11.0716Y-2.4128
M16
G05
G00X11.07Y-3.14
M15
G01X11.0716Y-3.1628
M16
G05
G00X11.1097Y-4.2463
M15
G01X11.0777Y-4.3037
M16
G05
G00X11.1116Y-4.9982
M15
G01X11.0797Y-5.0557
M16
G05
G00X11.1278Y-4.2038
M15
G01X11.1293Y-4.2265
M16
G05
G00X11.1297Y-4.9557
M15
G01X11.1313Y-4.9785
M16
G05
G00X11.27Y-2.39
M15
G01X11.2684Y-2.4128
M16
G05
G00X11.27Y-3.14
M15
G01X11.2684Y-3.1628
M16
G05
G00X11.2881Y-2.4325
M15
G01X11.32Y-2.49
M16
G05
G00X11.2881Y-3.1825
M15
G01X11.32Y-3.24
M16
G05
G00X11.3277Y-4.2038
M15
G01X11.3262Y-4.2265
M16
G05
G00X11.3297Y-4.9557
M15
G01X11.3282Y-4.9785
M16
G05
G00X11.3458Y-4.2463
M15
G01X11.3778Y-4.3037
M16
G05
G00X11.3478Y-4.9982
M15
G01X11.3797Y-5.0557
M16
G05
G00X11.8591Y-4.7965
M15
G01X11.8271Y-4.8539
M16
G05
G00X11.8772Y-4.754
M15
G01X11.8787Y-4.7767
M16
G05
G00X12.0772Y-4.754
M15
G01X12.0756Y-4.7767
M16
G05
G00X12.0953Y-4.7965
M15
G01X12.1272Y-4.8539
M16
G05
T0
M30
