M48
; DRILL file {KiCad (5.1.10-1-10_14)} date Sunday, August 01, 2021 at 11:27:58 PM
; FORMAT={-:-/ absolute / inch / decimal}
; #@! TF.CreationDate,2021-08-01T23:27:58+01:00
; #@! TF.GenerationSoftware,Kicad,Pcbnew,(5.1.10-1-10_14)
; #@! TF.FileFunction,NonPlated,1,2,NPTH
FMAT,2
INCH
T1C0.0591
T2C0.0670
T3C0.1570
%
G90
G05
T1
X1.1315Y-3.2673
X1.1315Y-3.4484
X1.4071Y-3.2673
X1.4071Y-3.4484
T2
X1.3217Y-5.128
X1.6681Y-4.928
X1.8638Y-5.6636
X1.9717Y-4.7528
X2.0638Y-6.01
X2.0906Y-2.5409
X2.2906Y-3.2909
X2.2906Y-3.6909
X2.3181Y-4.5528
X2.4906Y-2.5409
X2.5144Y-5.2896
X2.7144Y-5.636
X2.85Y-2.15
X2.85Y-2.9
X2.85Y-3.65
X2.85Y-4.4
X3.25Y-2.15
X3.25Y-2.9
X3.25Y-3.65
X3.25Y-4.4
X3.3505Y-5.2553
X3.6Y-2.0839
X3.6Y-2.8339
X3.6Y-3.5839
X3.6Y-4.3339
X3.7369Y-5.1518
X4.0Y-2.0839
X4.0Y-2.8339
X4.0Y-3.5839
X4.0Y-4.3339
X4.35Y-2.0087
X4.35Y-2.7587
X4.35Y-3.5087
X4.35Y-4.2587
X4.35Y-5.0087
X4.75Y-2.0087
X4.75Y-2.7587
X4.75Y-3.5087
X4.75Y-4.2587
X4.75Y-5.0087
X5.102Y-2.0858
X5.102Y-2.8358
X5.102Y-3.5858
X5.102Y-4.3358
X5.102Y-5.0858
X5.502Y-2.0858
X5.502Y-2.8358
X5.502Y-3.5858
X5.502Y-4.3358
X5.502Y-5.0858
X5.8669Y-2.2894
X5.8669Y-3.0394
X5.8669Y-3.7894
X5.8669Y-4.5394
X5.8669Y-5.2894
X6.2669Y-2.2894
X6.2669Y-3.0394
X6.2669Y-3.7894
X6.2669Y-4.5394
X6.2669Y-5.2894
X6.6169Y-2.2894
X6.6169Y-3.0394
X6.7154Y-3.7844
X6.7154Y-4.5344
X6.7154Y-5.2844
X7.0169Y-2.2894
X7.0169Y-3.0394
X7.1154Y-3.7844
X7.1154Y-4.5344
X7.1154Y-5.2844
X7.7423Y-4.2762
X8.0722Y-2.7697
X8.0722Y-3.1697
X8.0888Y-4.0762
X8.2866Y-4.8164
X8.4866Y-5.1628
X8.62Y-3.96
X8.625Y-3.2146
X8.63Y-2.46
X9.02Y-3.96
X9.025Y-3.2146
X9.03Y-2.46
X9.0977Y-4.7414
X9.3793Y-3.1945
X9.3813Y-3.9445
X9.3833Y-2.4583
X9.4977Y-4.7414
X9.7793Y-3.1945
X9.7813Y-3.9445
X9.7833Y-2.4583
X10.1293Y-2.2811
X10.1293Y-3.0291
X10.1293Y-3.7772
X10.2756Y-4.9189
X10.5293Y-2.2811
X10.5293Y-3.0291
X10.5293Y-3.7772
X10.6756Y-4.9189
X10.97Y-2.59
X10.97Y-3.34
X11.0278Y-4.4037
X11.0297Y-5.1557
X11.37Y-2.59
X11.37Y-3.34
X11.4278Y-4.4037
X11.4297Y-5.1557
X11.7772Y-4.9539
X12.1772Y-4.9539
T3
X1.4949Y-5.028
X1.9638Y-5.8368
X2.1449Y-4.6528
X2.2906Y-2.5409
X2.2906Y-3.4909
X2.6144Y-5.4628
X3.05Y-2.15
X3.05Y-2.9
X3.05Y-3.65
X3.05Y-4.4
X3.5437Y-5.2035
X3.8Y-2.0839
X3.8Y-2.8339
X3.8Y-3.5839
X3.8Y-4.3339
X4.55Y-2.0087
X4.55Y-2.7587
X4.55Y-3.5087
X4.55Y-4.2587
X4.55Y-5.0087
X5.302Y-2.0858
X5.302Y-2.8358
X5.302Y-3.5858
X5.302Y-4.3358
X5.302Y-5.0858
X6.0669Y-2.2894
X6.0669Y-3.0394
X6.0669Y-3.7894
X6.0669Y-4.5394
X6.0669Y-5.2894
X6.8169Y-2.2894
X6.8169Y-3.0394
X6.9154Y-3.7844
X6.9154Y-4.5344
X6.9154Y-5.2844
X7.9156Y-4.1762
X8.0722Y-2.9697
X8.3866Y-4.9896
X8.82Y-3.96
X8.825Y-3.2146
X8.83Y-2.46
X9.2977Y-4.7414
X9.5793Y-3.1945
X9.5813Y-3.9445
X9.5833Y-2.4583
X10.3293Y-2.2811
X10.3293Y-3.0291
X10.3293Y-3.7772
X10.4756Y-4.9189
X11.17Y-2.59
X11.17Y-3.34
X11.2278Y-4.4037
X11.2297Y-5.1557
X11.9772Y-4.9539
T0
M30
