%TF.GenerationSoftware,KiCad,Pcbnew,(5.1.10-1-10_14)*%
%TF.CreationDate,2021-08-01T23:27:55+01:00*%
%TF.ProjectId,AsymRight,4173796d-5269-4676-9874-2e6b69636164,v1*%
%TF.SameCoordinates,Original*%
%TF.FileFunction,Legend,Bot*%
%TF.FilePolarity,Positive*%
%FSLAX46Y46*%
G04 Gerber Fmt 4.6, Leading zero omitted, Abs format (unit mm)*
G04 Created by KiCad (PCBNEW (5.1.10-1-10_14)) date 2021-08-01 23:27:55*
%MOMM*%
%LPD*%
G01*
G04 APERTURE LIST*
%ADD10C,0.150000*%
%ADD11C,0.381000*%
G04 APERTURE END LIST*
D10*
X46133333Y-78485714D02*
X46133333Y-79438095D01*
X46704761Y-78295238D02*
X44704761Y-78961904D01*
X46704761Y-79628571D01*
X46609523Y-80200000D02*
X46704761Y-80390476D01*
X46704761Y-80771428D01*
X46609523Y-80961904D01*
X46419047Y-81057142D01*
X46323809Y-81057142D01*
X46133333Y-80961904D01*
X46038095Y-80771428D01*
X46038095Y-80485714D01*
X45942857Y-80295238D01*
X45752380Y-80200000D01*
X45657142Y-80200000D01*
X45466666Y-80295238D01*
X45371428Y-80485714D01*
X45371428Y-80771428D01*
X45466666Y-80961904D01*
X45371428Y-81723809D02*
X46704761Y-82200000D01*
X45371428Y-82676190D02*
X46704761Y-82200000D01*
X47180952Y-82009523D01*
X47276190Y-81914285D01*
X47371428Y-81723809D01*
X46704761Y-83438095D02*
X45371428Y-83438095D01*
X45561904Y-83438095D02*
X45466666Y-83533333D01*
X45371428Y-83723809D01*
X45371428Y-84009523D01*
X45466666Y-84200000D01*
X45657142Y-84295238D01*
X46704761Y-84295238D01*
X45657142Y-84295238D02*
X45466666Y-84390476D01*
X45371428Y-84580952D01*
X45371428Y-84866666D01*
X45466666Y-85057142D01*
X45657142Y-85152380D01*
X46704761Y-85152380D01*
X45371428Y-87438095D02*
X46704761Y-87914285D01*
X45371428Y-88390476D01*
X46704761Y-90200000D02*
X46704761Y-89057142D01*
X46704761Y-89628571D02*
X44704761Y-89628571D01*
X44990476Y-89438095D01*
X45180952Y-89247619D01*
X45276190Y-89057142D01*
X46514285Y-91057142D02*
X46609523Y-91152380D01*
X46704761Y-91057142D01*
X46609523Y-90961904D01*
X46514285Y-91057142D01*
X46704761Y-91057142D01*
X44704761Y-92390476D02*
X44704761Y-92580952D01*
X44800000Y-92771428D01*
X44895238Y-92866666D01*
X45085714Y-92961904D01*
X45466666Y-93057142D01*
X45942857Y-93057142D01*
X46323809Y-92961904D01*
X46514285Y-92866666D01*
X46609523Y-92771428D01*
X46704761Y-92580952D01*
X46704761Y-92390476D01*
X46609523Y-92200000D01*
X46514285Y-92104761D01*
X46323809Y-92009523D01*
X45942857Y-91914285D01*
X45466666Y-91914285D01*
X45085714Y-92009523D01*
X44895238Y-92104761D01*
X44800000Y-92200000D01*
X44704761Y-92390476D01*
X46704761Y-96580952D02*
X45752380Y-95914285D01*
X46704761Y-95438095D02*
X44704761Y-95438095D01*
X44704761Y-96200000D01*
X44800000Y-96390476D01*
X44895238Y-96485714D01*
X45085714Y-96580952D01*
X45371428Y-96580952D01*
X45561904Y-96485714D01*
X45657142Y-96390476D01*
X45752380Y-96200000D01*
X45752380Y-95438095D01*
X46704761Y-97438095D02*
X45371428Y-97438095D01*
X44704761Y-97438095D02*
X44800000Y-97342857D01*
X44895238Y-97438095D01*
X44800000Y-97533333D01*
X44704761Y-97438095D01*
X44895238Y-97438095D01*
X45371428Y-99247619D02*
X46990476Y-99247619D01*
X47180952Y-99152380D01*
X47276190Y-99057142D01*
X47371428Y-98866666D01*
X47371428Y-98580952D01*
X47276190Y-98390476D01*
X46609523Y-99247619D02*
X46704761Y-99057142D01*
X46704761Y-98676190D01*
X46609523Y-98485714D01*
X46514285Y-98390476D01*
X46323809Y-98295238D01*
X45752380Y-98295238D01*
X45561904Y-98390476D01*
X45466666Y-98485714D01*
X45371428Y-98676190D01*
X45371428Y-99057142D01*
X45466666Y-99247619D01*
X46704761Y-100200000D02*
X44704761Y-100200000D01*
X46704761Y-101057142D02*
X45657142Y-101057142D01*
X45466666Y-100961904D01*
X45371428Y-100771428D01*
X45371428Y-100485714D01*
X45466666Y-100295238D01*
X45561904Y-100200000D01*
X45371428Y-101723809D02*
X45371428Y-102485714D01*
X44704761Y-102009523D02*
X46419047Y-102009523D01*
X46609523Y-102104761D01*
X46704761Y-102295238D01*
X46704761Y-102485714D01*
X46704761Y-104676190D02*
X44704761Y-104676190D01*
X45657142Y-104676190D02*
X45657142Y-105819047D01*
X46704761Y-105819047D02*
X44704761Y-105819047D01*
X46704761Y-107628571D02*
X45657142Y-107628571D01*
X45466666Y-107533333D01*
X45371428Y-107342857D01*
X45371428Y-106961904D01*
X45466666Y-106771428D01*
X46609523Y-107628571D02*
X46704761Y-107438095D01*
X46704761Y-106961904D01*
X46609523Y-106771428D01*
X46419047Y-106676190D01*
X46228571Y-106676190D01*
X46038095Y-106771428D01*
X45942857Y-106961904D01*
X45942857Y-107438095D01*
X45847619Y-107628571D01*
X46704761Y-108866666D02*
X46609523Y-108676190D01*
X46419047Y-108580952D01*
X44704761Y-108580952D01*
X45371428Y-109342857D02*
X45371428Y-110104761D01*
X46704761Y-109628571D02*
X44990476Y-109628571D01*
X44800000Y-109723809D01*
X44704761Y-109914285D01*
X44704761Y-110104761D01*
X186170952Y-51482738D02*
X183670952Y-51482738D01*
X183670952Y-52077976D01*
X183790000Y-52435119D01*
X184028095Y-52673214D01*
X184266190Y-52792261D01*
X184742380Y-52911309D01*
X185099523Y-52911309D01*
X185575714Y-52792261D01*
X185813809Y-52673214D01*
X186051904Y-52435119D01*
X186170952Y-52077976D01*
X186170952Y-51482738D01*
X186051904Y-54935119D02*
X186170952Y-54697023D01*
X186170952Y-54220833D01*
X186051904Y-53982738D01*
X185813809Y-53863690D01*
X184861428Y-53863690D01*
X184623333Y-53982738D01*
X184504285Y-54220833D01*
X184504285Y-54697023D01*
X184623333Y-54935119D01*
X184861428Y-55054166D01*
X185099523Y-55054166D01*
X185337619Y-53863690D01*
X186051904Y-56006547D02*
X186170952Y-56244642D01*
X186170952Y-56720833D01*
X186051904Y-56958928D01*
X185813809Y-57077976D01*
X185694761Y-57077976D01*
X185456666Y-56958928D01*
X185337619Y-56720833D01*
X185337619Y-56363690D01*
X185218571Y-56125595D01*
X184980476Y-56006547D01*
X184861428Y-56006547D01*
X184623333Y-56125595D01*
X184504285Y-56363690D01*
X184504285Y-56720833D01*
X184623333Y-56958928D01*
X186170952Y-58149404D02*
X184504285Y-58149404D01*
X183670952Y-58149404D02*
X183790000Y-58030357D01*
X183909047Y-58149404D01*
X183790000Y-58268452D01*
X183670952Y-58149404D01*
X183909047Y-58149404D01*
X184504285Y-60411309D02*
X186528095Y-60411309D01*
X186766190Y-60292261D01*
X186885238Y-60173214D01*
X187004285Y-59935119D01*
X187004285Y-59577976D01*
X186885238Y-59339880D01*
X186051904Y-60411309D02*
X186170952Y-60173214D01*
X186170952Y-59697023D01*
X186051904Y-59458928D01*
X185932857Y-59339880D01*
X185694761Y-59220833D01*
X184980476Y-59220833D01*
X184742380Y-59339880D01*
X184623333Y-59458928D01*
X184504285Y-59697023D01*
X184504285Y-60173214D01*
X184623333Y-60411309D01*
X184504285Y-61601785D02*
X186170952Y-61601785D01*
X184742380Y-61601785D02*
X184623333Y-61720833D01*
X184504285Y-61958928D01*
X184504285Y-62316071D01*
X184623333Y-62554166D01*
X184861428Y-62673214D01*
X186170952Y-62673214D01*
X186051904Y-64816071D02*
X186170952Y-64577976D01*
X186170952Y-64101785D01*
X186051904Y-63863690D01*
X185813809Y-63744642D01*
X184861428Y-63744642D01*
X184623333Y-63863690D01*
X184504285Y-64101785D01*
X184504285Y-64577976D01*
X184623333Y-64816071D01*
X184861428Y-64935119D01*
X185099523Y-64935119D01*
X185337619Y-63744642D01*
X186170952Y-67077976D02*
X183670952Y-67077976D01*
X186051904Y-67077976D02*
X186170952Y-66839880D01*
X186170952Y-66363690D01*
X186051904Y-66125595D01*
X185932857Y-66006547D01*
X185694761Y-65887500D01*
X184980476Y-65887500D01*
X184742380Y-66006547D01*
X184623333Y-66125595D01*
X184504285Y-66363690D01*
X184504285Y-66839880D01*
X184623333Y-67077976D01*
X186170952Y-70173214D02*
X183670952Y-70173214D01*
X184623333Y-70173214D02*
X184504285Y-70411309D01*
X184504285Y-70887500D01*
X184623333Y-71125595D01*
X184742380Y-71244642D01*
X184980476Y-71363690D01*
X185694761Y-71363690D01*
X185932857Y-71244642D01*
X186051904Y-71125595D01*
X186170952Y-70887500D01*
X186170952Y-70411309D01*
X186051904Y-70173214D01*
X184504285Y-72197023D02*
X186170952Y-72792261D01*
X184504285Y-73387500D02*
X186170952Y-72792261D01*
X186766190Y-72554166D01*
X186885238Y-72435119D01*
X187004285Y-72197023D01*
X184861428Y-76244642D02*
X184861428Y-77077976D01*
X186170952Y-77435119D02*
X186170952Y-76244642D01*
X183670952Y-76244642D01*
X183670952Y-77435119D01*
X186170952Y-78506547D02*
X184504285Y-78506547D01*
X183670952Y-78506547D02*
X183790000Y-78387500D01*
X183909047Y-78506547D01*
X183790000Y-78625595D01*
X183670952Y-78506547D01*
X183909047Y-78506547D01*
X186170952Y-80054166D02*
X186051904Y-79816071D01*
X185813809Y-79697023D01*
X183670952Y-79697023D01*
X186170952Y-81006547D02*
X184504285Y-81006547D01*
X183670952Y-81006547D02*
X183790000Y-80887500D01*
X183909047Y-81006547D01*
X183790000Y-81125595D01*
X183670952Y-81006547D01*
X183909047Y-81006547D01*
X186170952Y-83268452D02*
X183670952Y-83268452D01*
X186051904Y-83268452D02*
X186170952Y-83030357D01*
X186170952Y-82554166D01*
X186051904Y-82316071D01*
X185932857Y-82197023D01*
X185694761Y-82077976D01*
X184980476Y-82077976D01*
X184742380Y-82197023D01*
X184623333Y-82316071D01*
X184504285Y-82554166D01*
X184504285Y-83030357D01*
X184623333Y-83268452D01*
X186170952Y-84458928D02*
X183670952Y-84458928D01*
X186170952Y-85530357D02*
X184861428Y-85530357D01*
X184623333Y-85411309D01*
X184504285Y-85173214D01*
X184504285Y-84816071D01*
X184623333Y-84577976D01*
X184742380Y-84458928D01*
X186051904Y-88506547D02*
X186170952Y-88863690D01*
X186170952Y-89458928D01*
X186051904Y-89697023D01*
X185932857Y-89816071D01*
X185694761Y-89935119D01*
X185456666Y-89935119D01*
X185218571Y-89816071D01*
X185099523Y-89697023D01*
X184980476Y-89458928D01*
X184861428Y-88982738D01*
X184742380Y-88744642D01*
X184623333Y-88625595D01*
X184385238Y-88506547D01*
X184147142Y-88506547D01*
X183909047Y-88625595D01*
X183790000Y-88744642D01*
X183670952Y-88982738D01*
X183670952Y-89577976D01*
X183790000Y-89935119D01*
X186170952Y-91363690D02*
X186051904Y-91125595D01*
X185932857Y-91006547D01*
X185694761Y-90887500D01*
X184980476Y-90887500D01*
X184742380Y-91006547D01*
X184623333Y-91125595D01*
X184504285Y-91363690D01*
X184504285Y-91720833D01*
X184623333Y-91958928D01*
X184742380Y-92077976D01*
X184980476Y-92197023D01*
X185694761Y-92197023D01*
X185932857Y-92077976D01*
X186051904Y-91958928D01*
X186170952Y-91720833D01*
X186170952Y-91363690D01*
X184504285Y-94339880D02*
X186170952Y-94339880D01*
X184504285Y-93268452D02*
X185813809Y-93268452D01*
X186051904Y-93387500D01*
X186170952Y-93625595D01*
X186170952Y-93982738D01*
X186051904Y-94220833D01*
X185932857Y-94339880D01*
X184504285Y-95173214D02*
X184504285Y-96125595D01*
X183670952Y-95530357D02*
X185813809Y-95530357D01*
X186051904Y-95649404D01*
X186170952Y-95887500D01*
X186170952Y-96125595D01*
X186170952Y-96958928D02*
X183670952Y-96958928D01*
X186170952Y-98030357D02*
X184861428Y-98030357D01*
X184623333Y-97911309D01*
X184504285Y-97673214D01*
X184504285Y-97316071D01*
X184623333Y-97077976D01*
X184742380Y-96958928D01*
X186170952Y-99220833D02*
X184504285Y-99220833D01*
X184980476Y-99220833D02*
X184742380Y-99339880D01*
X184623333Y-99458928D01*
X184504285Y-99697023D01*
X184504285Y-99935119D01*
X186051904Y-101720833D02*
X186170952Y-101482738D01*
X186170952Y-101006547D01*
X186051904Y-100768452D01*
X185813809Y-100649404D01*
X184861428Y-100649404D01*
X184623333Y-100768452D01*
X184504285Y-101006547D01*
X184504285Y-101482738D01*
X184623333Y-101720833D01*
X184861428Y-101839880D01*
X185099523Y-101839880D01*
X185337619Y-100649404D01*
X184504285Y-102911309D02*
X186170952Y-102911309D01*
X184742380Y-102911309D02*
X184623333Y-103030357D01*
X184504285Y-103268452D01*
X184504285Y-103625595D01*
X184623333Y-103863690D01*
X184861428Y-103982738D01*
X186170952Y-103982738D01*
X190070952Y-51482738D02*
X187570952Y-51482738D01*
X190070952Y-52554166D02*
X188761428Y-52554166D01*
X188523333Y-52435119D01*
X188404285Y-52197023D01*
X188404285Y-51839880D01*
X188523333Y-51601785D01*
X188642380Y-51482738D01*
X188404285Y-53387500D02*
X188404285Y-54339880D01*
X187570952Y-53744642D02*
X189713809Y-53744642D01*
X189951904Y-53863690D01*
X190070952Y-54101785D01*
X190070952Y-54339880D01*
X188404285Y-54816071D02*
X188404285Y-55768452D01*
X187570952Y-55173214D02*
X189713809Y-55173214D01*
X189951904Y-55292261D01*
X190070952Y-55530357D01*
X190070952Y-55768452D01*
X188404285Y-56601785D02*
X190904285Y-56601785D01*
X188523333Y-56601785D02*
X188404285Y-56839880D01*
X188404285Y-57316071D01*
X188523333Y-57554166D01*
X188642380Y-57673214D01*
X188880476Y-57792261D01*
X189594761Y-57792261D01*
X189832857Y-57673214D01*
X189951904Y-57554166D01*
X190070952Y-57316071D01*
X190070952Y-56839880D01*
X189951904Y-56601785D01*
X189951904Y-58744642D02*
X190070952Y-58982738D01*
X190070952Y-59458928D01*
X189951904Y-59697023D01*
X189713809Y-59816071D01*
X189594761Y-59816071D01*
X189356666Y-59697023D01*
X189237619Y-59458928D01*
X189237619Y-59101785D01*
X189118571Y-58863690D01*
X188880476Y-58744642D01*
X188761428Y-58744642D01*
X188523333Y-58863690D01*
X188404285Y-59101785D01*
X188404285Y-59458928D01*
X188523333Y-59697023D01*
X189832857Y-60887500D02*
X189951904Y-61006547D01*
X190070952Y-60887500D01*
X189951904Y-60768452D01*
X189832857Y-60887500D01*
X190070952Y-60887500D01*
X188523333Y-60887500D02*
X188642380Y-61006547D01*
X188761428Y-60887500D01*
X188642380Y-60768452D01*
X188523333Y-60887500D01*
X188761428Y-60887500D01*
X187451904Y-63863690D02*
X190666190Y-61720833D01*
X187451904Y-66482738D02*
X190666190Y-64339880D01*
X188404285Y-67077976D02*
X190070952Y-67554166D01*
X188880476Y-68030357D01*
X190070952Y-68506547D01*
X188404285Y-68982738D01*
X188404285Y-69697023D02*
X190070952Y-70173214D01*
X188880476Y-70649404D01*
X190070952Y-71125595D01*
X188404285Y-71601785D01*
X188404285Y-72316071D02*
X190070952Y-72792261D01*
X188880476Y-73268452D01*
X190070952Y-73744642D01*
X188404285Y-74220833D01*
X189832857Y-75173214D02*
X189951904Y-75292261D01*
X190070952Y-75173214D01*
X189951904Y-75054166D01*
X189832857Y-75173214D01*
X190070952Y-75173214D01*
X188404285Y-77435119D02*
X190428095Y-77435119D01*
X190666190Y-77316071D01*
X190785238Y-77197023D01*
X190904285Y-76958928D01*
X190904285Y-76601785D01*
X190785238Y-76363690D01*
X189951904Y-77435119D02*
X190070952Y-77197023D01*
X190070952Y-76720833D01*
X189951904Y-76482738D01*
X189832857Y-76363690D01*
X189594761Y-76244642D01*
X188880476Y-76244642D01*
X188642380Y-76363690D01*
X188523333Y-76482738D01*
X188404285Y-76720833D01*
X188404285Y-77197023D01*
X188523333Y-77435119D01*
X190070952Y-78625595D02*
X188404285Y-78625595D01*
X187570952Y-78625595D02*
X187690000Y-78506547D01*
X187809047Y-78625595D01*
X187690000Y-78744642D01*
X187570952Y-78625595D01*
X187809047Y-78625595D01*
X188404285Y-79458928D02*
X188404285Y-80411309D01*
X187570952Y-79816071D02*
X189713809Y-79816071D01*
X189951904Y-79935119D01*
X190070952Y-80173214D01*
X190070952Y-80411309D01*
X190070952Y-81244642D02*
X187570952Y-81244642D01*
X190070952Y-82316071D02*
X188761428Y-82316071D01*
X188523333Y-82197023D01*
X188404285Y-81958928D01*
X188404285Y-81601785D01*
X188523333Y-81363690D01*
X188642380Y-81244642D01*
X188404285Y-84577976D02*
X190070952Y-84577976D01*
X188404285Y-83506547D02*
X189713809Y-83506547D01*
X189951904Y-83625595D01*
X190070952Y-83863690D01*
X190070952Y-84220833D01*
X189951904Y-84458928D01*
X189832857Y-84577976D01*
X190070952Y-85768452D02*
X187570952Y-85768452D01*
X188523333Y-85768452D02*
X188404285Y-86006547D01*
X188404285Y-86482738D01*
X188523333Y-86720833D01*
X188642380Y-86839880D01*
X188880476Y-86958928D01*
X189594761Y-86958928D01*
X189832857Y-86839880D01*
X189951904Y-86720833D01*
X190070952Y-86482738D01*
X190070952Y-86006547D01*
X189951904Y-85768452D01*
X189832857Y-88030357D02*
X189951904Y-88149404D01*
X190070952Y-88030357D01*
X189951904Y-87911309D01*
X189832857Y-88030357D01*
X190070952Y-88030357D01*
X189951904Y-90292261D02*
X190070952Y-90054166D01*
X190070952Y-89577976D01*
X189951904Y-89339880D01*
X189832857Y-89220833D01*
X189594761Y-89101785D01*
X188880476Y-89101785D01*
X188642380Y-89220833D01*
X188523333Y-89339880D01*
X188404285Y-89577976D01*
X188404285Y-90054166D01*
X188523333Y-90292261D01*
X190070952Y-91720833D02*
X189951904Y-91482738D01*
X189832857Y-91363690D01*
X189594761Y-91244642D01*
X188880476Y-91244642D01*
X188642380Y-91363690D01*
X188523333Y-91482738D01*
X188404285Y-91720833D01*
X188404285Y-92077976D01*
X188523333Y-92316071D01*
X188642380Y-92435119D01*
X188880476Y-92554166D01*
X189594761Y-92554166D01*
X189832857Y-92435119D01*
X189951904Y-92316071D01*
X190070952Y-92077976D01*
X190070952Y-91720833D01*
X190070952Y-93625595D02*
X188404285Y-93625595D01*
X188642380Y-93625595D02*
X188523333Y-93744642D01*
X188404285Y-93982738D01*
X188404285Y-94339880D01*
X188523333Y-94577976D01*
X188761428Y-94697023D01*
X190070952Y-94697023D01*
X188761428Y-94697023D02*
X188523333Y-94816071D01*
X188404285Y-95054166D01*
X188404285Y-95411309D01*
X188523333Y-95649404D01*
X188761428Y-95768452D01*
X190070952Y-95768452D01*
X187451904Y-98744642D02*
X190666190Y-96601785D01*
X189951904Y-100530357D02*
X190070952Y-100292261D01*
X190070952Y-99816071D01*
X189951904Y-99577976D01*
X189713809Y-99458928D01*
X188761428Y-99458928D01*
X188523333Y-99577976D01*
X188404285Y-99816071D01*
X188404285Y-100292261D01*
X188523333Y-100530357D01*
X188761428Y-100649404D01*
X188999523Y-100649404D01*
X189237619Y-99458928D01*
X189951904Y-101601785D02*
X190070952Y-101839880D01*
X190070952Y-102316071D01*
X189951904Y-102554166D01*
X189713809Y-102673214D01*
X189594761Y-102673214D01*
X189356666Y-102554166D01*
X189237619Y-102316071D01*
X189237619Y-101958928D01*
X189118571Y-101720833D01*
X188880476Y-101601785D01*
X188761428Y-101601785D01*
X188523333Y-101720833D01*
X188404285Y-101958928D01*
X188404285Y-102316071D01*
X188523333Y-102554166D01*
X190070952Y-104101785D02*
X189951904Y-103863690D01*
X189832857Y-103744642D01*
X189594761Y-103625595D01*
X188880476Y-103625595D01*
X188642380Y-103744642D01*
X188523333Y-103863690D01*
X188404285Y-104101785D01*
X188404285Y-104458928D01*
X188523333Y-104697023D01*
X188642380Y-104816071D01*
X188880476Y-104935119D01*
X189594761Y-104935119D01*
X189832857Y-104816071D01*
X189951904Y-104697023D01*
X190070952Y-104458928D01*
X190070952Y-104101785D01*
X188404285Y-107077976D02*
X190070952Y-107077976D01*
X188404285Y-106006547D02*
X189713809Y-106006547D01*
X189951904Y-106125595D01*
X190070952Y-106363690D01*
X190070952Y-106720833D01*
X189951904Y-106958928D01*
X189832857Y-107077976D01*
X188404285Y-107911309D02*
X188404285Y-108863690D01*
X187570952Y-108268452D02*
X189713809Y-108268452D01*
X189951904Y-108387500D01*
X190070952Y-108625595D01*
X190070952Y-108863690D01*
X190070952Y-109697023D02*
X187570952Y-109697023D01*
X190070952Y-110768452D02*
X188761428Y-110768452D01*
X188523333Y-110649404D01*
X188404285Y-110411309D01*
X188404285Y-110054166D01*
X188523333Y-109816071D01*
X188642380Y-109697023D01*
X190070952Y-111958928D02*
X188404285Y-111958928D01*
X188880476Y-111958928D02*
X188642380Y-112077976D01*
X188523333Y-112197023D01*
X188404285Y-112435119D01*
X188404285Y-112673214D01*
X189951904Y-114458928D02*
X190070952Y-114220833D01*
X190070952Y-113744642D01*
X189951904Y-113506547D01*
X189713809Y-113387500D01*
X188761428Y-113387500D01*
X188523333Y-113506547D01*
X188404285Y-113744642D01*
X188404285Y-114220833D01*
X188523333Y-114458928D01*
X188761428Y-114577976D01*
X188999523Y-114577976D01*
X189237619Y-113387500D01*
X188404285Y-115649404D02*
X190070952Y-115649404D01*
X188642380Y-115649404D02*
X188523333Y-115768452D01*
X188404285Y-116006547D01*
X188404285Y-116363690D01*
X188523333Y-116601785D01*
X188761428Y-116720833D01*
X190070952Y-116720833D01*
X187451904Y-119697023D02*
X190666190Y-117554166D01*
X190070952Y-121601785D02*
X188761428Y-121601785D01*
X188523333Y-121482738D01*
X188404285Y-121244642D01*
X188404285Y-120768452D01*
X188523333Y-120530357D01*
X189951904Y-121601785D02*
X190070952Y-121363690D01*
X190070952Y-120768452D01*
X189951904Y-120530357D01*
X189713809Y-120411309D01*
X189475714Y-120411309D01*
X189237619Y-120530357D01*
X189118571Y-120768452D01*
X189118571Y-121363690D01*
X188999523Y-121601785D01*
X189951904Y-122673214D02*
X190070952Y-122911309D01*
X190070952Y-123387500D01*
X189951904Y-123625595D01*
X189713809Y-123744642D01*
X189594761Y-123744642D01*
X189356666Y-123625595D01*
X189237619Y-123387500D01*
X189237619Y-123030357D01*
X189118571Y-122792261D01*
X188880476Y-122673214D01*
X188761428Y-122673214D01*
X188523333Y-122792261D01*
X188404285Y-123030357D01*
X188404285Y-123387500D01*
X188523333Y-123625595D01*
X188404285Y-124577976D02*
X190070952Y-125173214D01*
X188404285Y-125768452D02*
X190070952Y-125173214D01*
X190666190Y-124935119D01*
X190785238Y-124816071D01*
X190904285Y-124577976D01*
X190070952Y-126720833D02*
X188404285Y-126720833D01*
X188642380Y-126720833D02*
X188523333Y-126839880D01*
X188404285Y-127077976D01*
X188404285Y-127435119D01*
X188523333Y-127673214D01*
X188761428Y-127792261D01*
X190070952Y-127792261D01*
X188761428Y-127792261D02*
X188523333Y-127911309D01*
X188404285Y-128149404D01*
X188404285Y-128506547D01*
X188523333Y-128744642D01*
X188761428Y-128863690D01*
X190070952Y-128863690D01*
D11*
%TO.C,K41*%
X231588316Y-126782299D02*
X229810316Y-126782299D01*
X229810316Y-126782299D02*
X229810316Y-125004299D01*
X229810316Y-115860299D02*
X229810316Y-114082299D01*
X229810316Y-114082299D02*
X231588316Y-114082299D01*
X242510316Y-115860299D02*
X242510316Y-114082299D01*
X242510316Y-114082299D02*
X240732316Y-114082299D01*
X242510316Y-125004299D02*
X242510316Y-126782299D01*
X242510316Y-126782299D02*
X240732316Y-126782299D01*
%TO.C,K22*%
X53695532Y-125965261D02*
X52155739Y-126854261D01*
X52155739Y-126854261D02*
X51266739Y-125314468D01*
X46694739Y-117395532D02*
X45805739Y-115855739D01*
X45805739Y-115855739D02*
X47345532Y-114966739D01*
X57693261Y-111045532D02*
X56804261Y-109505739D01*
X56804261Y-109505739D02*
X55264468Y-110394739D01*
X62265261Y-118964468D02*
X63154261Y-120504261D01*
X63154261Y-120504261D02*
X61614468Y-121393261D01*
%TO.C,K52*%
X261508000Y-131290000D02*
X259730000Y-131290000D01*
X259730000Y-131290000D02*
X259730000Y-129512000D01*
X259730000Y-120368000D02*
X259730000Y-118590000D01*
X259730000Y-118590000D02*
X261508000Y-118590000D01*
X272430000Y-120368000D02*
X272430000Y-118590000D01*
X272430000Y-118590000D02*
X270652000Y-118590000D01*
X272430000Y-129512000D02*
X272430000Y-131290000D01*
X272430000Y-131290000D02*
X270652000Y-131290000D01*
%TO.C,K8*%
X219710000Y-68834000D02*
X217932000Y-68834000D01*
X217932000Y-68834000D02*
X217932000Y-67056000D01*
X217932000Y-57912000D02*
X217932000Y-56134000D01*
X217932000Y-56134000D02*
X219710000Y-56134000D01*
X230632000Y-57912000D02*
X230632000Y-56134000D01*
X230632000Y-56134000D02*
X228854000Y-56134000D01*
X230632000Y-67056000D02*
X230632000Y-68834000D01*
X230632000Y-68834000D02*
X228854000Y-68834000D01*
%TO.C,K23*%
X72898000Y-99060000D02*
X71120000Y-99060000D01*
X71120000Y-99060000D02*
X71120000Y-97282000D01*
X71120000Y-88138000D02*
X71120000Y-86360000D01*
X71120000Y-86360000D02*
X72898000Y-86360000D01*
X83820000Y-88138000D02*
X83820000Y-86360000D01*
X83820000Y-86360000D02*
X82042000Y-86360000D01*
X83820000Y-97282000D02*
X83820000Y-99060000D01*
X83820000Y-99060000D02*
X82042000Y-99060000D01*
%TO.C,K53*%
X280663000Y-137305000D02*
X278885000Y-137305000D01*
X278885000Y-137305000D02*
X278885000Y-135527000D01*
X278885000Y-126383000D02*
X278885000Y-124605000D01*
X278885000Y-124605000D02*
X280663000Y-124605000D01*
X291585000Y-126383000D02*
X291585000Y-124605000D01*
X291585000Y-124605000D02*
X289807000Y-124605000D01*
X291585000Y-135527000D02*
X291585000Y-137305000D01*
X291585000Y-137305000D02*
X289807000Y-137305000D01*
%TO.C,K28*%
X171078000Y-102475000D02*
X169300000Y-102475000D01*
X169300000Y-102475000D02*
X169300000Y-100697000D01*
X169300000Y-91553000D02*
X169300000Y-89775000D01*
X169300000Y-89775000D02*
X171078000Y-89775000D01*
X182000000Y-91553000D02*
X182000000Y-89775000D01*
X182000000Y-89775000D02*
X180222000Y-89775000D01*
X182000000Y-100697000D02*
X182000000Y-102475000D01*
X182000000Y-102475000D02*
X180222000Y-102475000D01*
%TO.C,K43*%
X280613000Y-118205000D02*
X278835000Y-118205000D01*
X278835000Y-118205000D02*
X278835000Y-116427000D01*
X278835000Y-107283000D02*
X278835000Y-105505000D01*
X278835000Y-105505000D02*
X280613000Y-105505000D01*
X291535000Y-107283000D02*
X291535000Y-105505000D01*
X291535000Y-105505000D02*
X289757000Y-105505000D01*
X291535000Y-116427000D02*
X291535000Y-118205000D01*
X291535000Y-118205000D02*
X289757000Y-118205000D01*
%TO.C,K29*%
X219456000Y-106934000D02*
X217678000Y-106934000D01*
X217678000Y-106934000D02*
X217678000Y-105156000D01*
X217678000Y-96012000D02*
X217678000Y-94234000D01*
X217678000Y-94234000D02*
X219456000Y-94234000D01*
X230378000Y-96012000D02*
X230378000Y-94234000D01*
X230378000Y-94234000D02*
X228600000Y-94234000D01*
X230378000Y-105156000D02*
X230378000Y-106934000D01*
X230378000Y-106934000D02*
X228600000Y-106934000D01*
%TO.C,K0*%
X53608000Y-70890000D02*
X51830000Y-70890000D01*
X51830000Y-70890000D02*
X51830000Y-69112000D01*
X51830000Y-59968000D02*
X51830000Y-58190000D01*
X51830000Y-58190000D02*
X53608000Y-58190000D01*
X64530000Y-59968000D02*
X64530000Y-58190000D01*
X64530000Y-58190000D02*
X62752000Y-58190000D01*
X64530000Y-69112000D02*
X64530000Y-70890000D01*
X64530000Y-70890000D02*
X62752000Y-70890000D01*
%TO.C,K1*%
X72898000Y-60960000D02*
X71120000Y-60960000D01*
X71120000Y-60960000D02*
X71120000Y-59182000D01*
X71120000Y-50038000D02*
X71120000Y-48260000D01*
X71120000Y-48260000D02*
X72898000Y-48260000D01*
X83820000Y-50038000D02*
X83820000Y-48260000D01*
X83820000Y-48260000D02*
X82042000Y-48260000D01*
X83820000Y-59182000D02*
X83820000Y-60960000D01*
X83820000Y-60960000D02*
X82042000Y-60960000D01*
%TO.C,K2*%
X91948000Y-59280000D02*
X90170000Y-59280000D01*
X90170000Y-59280000D02*
X90170000Y-57502000D01*
X90170000Y-48358000D02*
X90170000Y-46580000D01*
X90170000Y-46580000D02*
X91948000Y-46580000D01*
X102870000Y-48358000D02*
X102870000Y-46580000D01*
X102870000Y-46580000D02*
X101092000Y-46580000D01*
X102870000Y-57502000D02*
X102870000Y-59280000D01*
X102870000Y-59280000D02*
X101092000Y-59280000D01*
%TO.C,K3*%
X110998000Y-57370000D02*
X109220000Y-57370000D01*
X109220000Y-57370000D02*
X109220000Y-55592000D01*
X109220000Y-46448000D02*
X109220000Y-44670000D01*
X109220000Y-44670000D02*
X110998000Y-44670000D01*
X121920000Y-46448000D02*
X121920000Y-44670000D01*
X121920000Y-44670000D02*
X120142000Y-44670000D01*
X121920000Y-55592000D02*
X121920000Y-57370000D01*
X121920000Y-57370000D02*
X120142000Y-57370000D01*
%TO.C,K4*%
X130098000Y-59330000D02*
X128320000Y-59330000D01*
X128320000Y-59330000D02*
X128320000Y-57552000D01*
X128320000Y-48408000D02*
X128320000Y-46630000D01*
X128320000Y-46630000D02*
X130098000Y-46630000D01*
X141020000Y-48408000D02*
X141020000Y-46630000D01*
X141020000Y-46630000D02*
X139242000Y-46630000D01*
X141020000Y-57552000D02*
X141020000Y-59330000D01*
X141020000Y-59330000D02*
X139242000Y-59330000D01*
%TO.C,K5*%
X149528000Y-64500000D02*
X147750000Y-64500000D01*
X147750000Y-64500000D02*
X147750000Y-62722000D01*
X147750000Y-53578000D02*
X147750000Y-51800000D01*
X147750000Y-51800000D02*
X149528000Y-51800000D01*
X160450000Y-53578000D02*
X160450000Y-51800000D01*
X160450000Y-51800000D02*
X158672000Y-51800000D01*
X160450000Y-62722000D02*
X160450000Y-64500000D01*
X160450000Y-64500000D02*
X158672000Y-64500000D01*
%TO.C,K6*%
X168578000Y-64500000D02*
X166800000Y-64500000D01*
X166800000Y-64500000D02*
X166800000Y-62722000D01*
X166800000Y-53578000D02*
X166800000Y-51800000D01*
X166800000Y-51800000D02*
X168578000Y-51800000D01*
X179500000Y-53578000D02*
X179500000Y-51800000D01*
X179500000Y-51800000D02*
X177722000Y-51800000D01*
X179500000Y-62722000D02*
X179500000Y-64500000D01*
X179500000Y-64500000D02*
X177722000Y-64500000D01*
%TO.C,K9*%
X238843000Y-68790000D02*
X237065000Y-68790000D01*
X237065000Y-68790000D02*
X237065000Y-67012000D01*
X237065000Y-57868000D02*
X237065000Y-56090000D01*
X237065000Y-56090000D02*
X238843000Y-56090000D01*
X249765000Y-57868000D02*
X249765000Y-56090000D01*
X249765000Y-56090000D02*
X247987000Y-56090000D01*
X249765000Y-67012000D02*
X249765000Y-68790000D01*
X249765000Y-68790000D02*
X247987000Y-68790000D01*
%TO.C,K12*%
X72898000Y-80010000D02*
X71120000Y-80010000D01*
X71120000Y-80010000D02*
X71120000Y-78232000D01*
X71120000Y-69088000D02*
X71120000Y-67310000D01*
X71120000Y-67310000D02*
X72898000Y-67310000D01*
X83820000Y-69088000D02*
X83820000Y-67310000D01*
X83820000Y-67310000D02*
X82042000Y-67310000D01*
X83820000Y-78232000D02*
X83820000Y-80010000D01*
X83820000Y-80010000D02*
X82042000Y-80010000D01*
%TO.C,K13*%
X91948000Y-78330000D02*
X90170000Y-78330000D01*
X90170000Y-78330000D02*
X90170000Y-76552000D01*
X90170000Y-67408000D02*
X90170000Y-65630000D01*
X90170000Y-65630000D02*
X91948000Y-65630000D01*
X102870000Y-67408000D02*
X102870000Y-65630000D01*
X102870000Y-65630000D02*
X101092000Y-65630000D01*
X102870000Y-76552000D02*
X102870000Y-78330000D01*
X102870000Y-78330000D02*
X101092000Y-78330000D01*
%TO.C,K14*%
X110998000Y-76420000D02*
X109220000Y-76420000D01*
X109220000Y-76420000D02*
X109220000Y-74642000D01*
X109220000Y-65498000D02*
X109220000Y-63720000D01*
X109220000Y-63720000D02*
X110998000Y-63720000D01*
X121920000Y-65498000D02*
X121920000Y-63720000D01*
X121920000Y-63720000D02*
X120142000Y-63720000D01*
X121920000Y-74642000D02*
X121920000Y-76420000D01*
X121920000Y-76420000D02*
X120142000Y-76420000D01*
%TO.C,K15*%
X130098000Y-78380000D02*
X128320000Y-78380000D01*
X128320000Y-78380000D02*
X128320000Y-76602000D01*
X128320000Y-67458000D02*
X128320000Y-65680000D01*
X128320000Y-65680000D02*
X130098000Y-65680000D01*
X141020000Y-67458000D02*
X141020000Y-65680000D01*
X141020000Y-65680000D02*
X139242000Y-65680000D01*
X141020000Y-76602000D02*
X141020000Y-78380000D01*
X141020000Y-78380000D02*
X139242000Y-78380000D01*
%TO.C,K16*%
X149528000Y-83550000D02*
X147750000Y-83550000D01*
X147750000Y-83550000D02*
X147750000Y-81772000D01*
X147750000Y-72628000D02*
X147750000Y-70850000D01*
X147750000Y-70850000D02*
X149528000Y-70850000D01*
X160450000Y-72628000D02*
X160450000Y-70850000D01*
X160450000Y-70850000D02*
X158672000Y-70850000D01*
X160450000Y-81772000D02*
X160450000Y-83550000D01*
X160450000Y-83550000D02*
X158672000Y-83550000D01*
%TO.C,K17*%
X168578000Y-83550000D02*
X166800000Y-83550000D01*
X166800000Y-83550000D02*
X166800000Y-81772000D01*
X166800000Y-72628000D02*
X166800000Y-70850000D01*
X166800000Y-70850000D02*
X168578000Y-70850000D01*
X179500000Y-72628000D02*
X179500000Y-70850000D01*
X179500000Y-70850000D02*
X177722000Y-70850000D01*
X179500000Y-81772000D02*
X179500000Y-83550000D01*
X179500000Y-83550000D02*
X177722000Y-83550000D01*
%TO.C,K18*%
X219583000Y-88000000D02*
X217805000Y-88000000D01*
X217805000Y-88000000D02*
X217805000Y-86222000D01*
X217805000Y-77078000D02*
X217805000Y-75300000D01*
X217805000Y-75300000D02*
X219583000Y-75300000D01*
X230505000Y-77078000D02*
X230505000Y-75300000D01*
X230505000Y-75300000D02*
X228727000Y-75300000D01*
X230505000Y-86222000D02*
X230505000Y-88000000D01*
X230505000Y-88000000D02*
X228727000Y-88000000D01*
%TO.C,K19*%
X238743000Y-87490000D02*
X236965000Y-87490000D01*
X236965000Y-87490000D02*
X236965000Y-85712000D01*
X236965000Y-76568000D02*
X236965000Y-74790000D01*
X236965000Y-74790000D02*
X238743000Y-74790000D01*
X249665000Y-76568000D02*
X249665000Y-74790000D01*
X249665000Y-74790000D02*
X247887000Y-74790000D01*
X249665000Y-85712000D02*
X249665000Y-87490000D01*
X249665000Y-87490000D02*
X247887000Y-87490000D01*
%TO.C,K20*%
X257793000Y-83290000D02*
X256015000Y-83290000D01*
X256015000Y-83290000D02*
X256015000Y-81512000D01*
X256015000Y-72368000D02*
X256015000Y-70590000D01*
X256015000Y-70590000D02*
X257793000Y-70590000D01*
X268715000Y-72368000D02*
X268715000Y-70590000D01*
X268715000Y-70590000D02*
X266937000Y-70590000D01*
X268715000Y-81512000D02*
X268715000Y-83290000D01*
X268715000Y-83290000D02*
X266937000Y-83290000D01*
%TO.C,K21*%
X257793000Y-64290000D02*
X256015000Y-64290000D01*
X256015000Y-64290000D02*
X256015000Y-62512000D01*
X256015000Y-53368000D02*
X256015000Y-51590000D01*
X256015000Y-51590000D02*
X257793000Y-51590000D01*
X268715000Y-53368000D02*
X268715000Y-51590000D01*
X268715000Y-51590000D02*
X266937000Y-51590000D01*
X268715000Y-62512000D02*
X268715000Y-64290000D01*
X268715000Y-64290000D02*
X266937000Y-64290000D01*
%TO.C,K24*%
X91948000Y-97380000D02*
X90170000Y-97380000D01*
X90170000Y-97380000D02*
X90170000Y-95602000D01*
X90170000Y-86458000D02*
X90170000Y-84680000D01*
X90170000Y-84680000D02*
X91948000Y-84680000D01*
X102870000Y-86458000D02*
X102870000Y-84680000D01*
X102870000Y-84680000D02*
X101092000Y-84680000D01*
X102870000Y-95602000D02*
X102870000Y-97380000D01*
X102870000Y-97380000D02*
X101092000Y-97380000D01*
%TO.C,K25*%
X110998000Y-95470000D02*
X109220000Y-95470000D01*
X109220000Y-95470000D02*
X109220000Y-93692000D01*
X109220000Y-84548000D02*
X109220000Y-82770000D01*
X109220000Y-82770000D02*
X110998000Y-82770000D01*
X121920000Y-84548000D02*
X121920000Y-82770000D01*
X121920000Y-82770000D02*
X120142000Y-82770000D01*
X121920000Y-93692000D02*
X121920000Y-95470000D01*
X121920000Y-95470000D02*
X120142000Y-95470000D01*
%TO.C,K26*%
X130098000Y-97430000D02*
X128320000Y-97430000D01*
X128320000Y-97430000D02*
X128320000Y-95652000D01*
X128320000Y-86508000D02*
X128320000Y-84730000D01*
X128320000Y-84730000D02*
X130098000Y-84730000D01*
X141020000Y-86508000D02*
X141020000Y-84730000D01*
X141020000Y-84730000D02*
X139242000Y-84730000D01*
X141020000Y-95652000D02*
X141020000Y-97430000D01*
X141020000Y-97430000D02*
X139242000Y-97430000D01*
%TO.C,K27*%
X149528000Y-102600000D02*
X147750000Y-102600000D01*
X147750000Y-102600000D02*
X147750000Y-100822000D01*
X147750000Y-91678000D02*
X147750000Y-89900000D01*
X147750000Y-89900000D02*
X149528000Y-89900000D01*
X160450000Y-91678000D02*
X160450000Y-89900000D01*
X160450000Y-89900000D02*
X158672000Y-89900000D01*
X160450000Y-100822000D02*
X160450000Y-102600000D01*
X160450000Y-102600000D02*
X158672000Y-102600000D01*
%TO.C,K30*%
X238793000Y-106540000D02*
X237015000Y-106540000D01*
X237015000Y-106540000D02*
X237015000Y-104762000D01*
X237015000Y-95618000D02*
X237015000Y-93840000D01*
X237015000Y-93840000D02*
X238793000Y-93840000D01*
X249715000Y-95618000D02*
X249715000Y-93840000D01*
X249715000Y-93840000D02*
X247937000Y-93840000D01*
X249715000Y-104762000D02*
X249715000Y-106540000D01*
X249715000Y-106540000D02*
X247937000Y-106540000D01*
%TO.C,K31*%
X257793000Y-102290000D02*
X256015000Y-102290000D01*
X256015000Y-102290000D02*
X256015000Y-100512000D01*
X256015000Y-91368000D02*
X256015000Y-89590000D01*
X256015000Y-89590000D02*
X257793000Y-89590000D01*
X268715000Y-91368000D02*
X268715000Y-89590000D01*
X268715000Y-89590000D02*
X266937000Y-89590000D01*
X268715000Y-100512000D02*
X268715000Y-102290000D01*
X268715000Y-102290000D02*
X266937000Y-102290000D01*
%TO.C,K33*%
X37185532Y-135495261D02*
X35645739Y-136384261D01*
X35645739Y-136384261D02*
X34756739Y-134844468D01*
X30184739Y-126925532D02*
X29295739Y-125385739D01*
X29295739Y-125385739D02*
X30835532Y-124496739D01*
X41183261Y-120575532D02*
X40294261Y-119035739D01*
X40294261Y-119035739D02*
X38754468Y-119924739D01*
X45755261Y-128494468D02*
X46644261Y-130034261D01*
X46644261Y-130034261D02*
X45104468Y-130923261D01*
%TO.C,K34*%
X72898000Y-118110000D02*
X71120000Y-118110000D01*
X71120000Y-118110000D02*
X71120000Y-116332000D01*
X71120000Y-107188000D02*
X71120000Y-105410000D01*
X71120000Y-105410000D02*
X72898000Y-105410000D01*
X83820000Y-107188000D02*
X83820000Y-105410000D01*
X83820000Y-105410000D02*
X82042000Y-105410000D01*
X83820000Y-116332000D02*
X83820000Y-118110000D01*
X83820000Y-118110000D02*
X82042000Y-118110000D01*
%TO.C,K35*%
X91948000Y-116430000D02*
X90170000Y-116430000D01*
X90170000Y-116430000D02*
X90170000Y-114652000D01*
X90170000Y-105508000D02*
X90170000Y-103730000D01*
X90170000Y-103730000D02*
X91948000Y-103730000D01*
X102870000Y-105508000D02*
X102870000Y-103730000D01*
X102870000Y-103730000D02*
X101092000Y-103730000D01*
X102870000Y-114652000D02*
X102870000Y-116430000D01*
X102870000Y-116430000D02*
X101092000Y-116430000D01*
%TO.C,K36*%
X110998000Y-114520000D02*
X109220000Y-114520000D01*
X109220000Y-114520000D02*
X109220000Y-112742000D01*
X109220000Y-103598000D02*
X109220000Y-101820000D01*
X109220000Y-101820000D02*
X110998000Y-101820000D01*
X121920000Y-103598000D02*
X121920000Y-101820000D01*
X121920000Y-101820000D02*
X120142000Y-101820000D01*
X121920000Y-112742000D02*
X121920000Y-114520000D01*
X121920000Y-114520000D02*
X120142000Y-114520000D01*
%TO.C,K37*%
X130098000Y-116480000D02*
X128320000Y-116480000D01*
X128320000Y-116480000D02*
X128320000Y-114702000D01*
X128320000Y-105558000D02*
X128320000Y-103780000D01*
X128320000Y-103780000D02*
X130098000Y-103780000D01*
X141020000Y-105558000D02*
X141020000Y-103780000D01*
X141020000Y-103780000D02*
X139242000Y-103780000D01*
X141020000Y-114702000D02*
X141020000Y-116480000D01*
X141020000Y-116480000D02*
X139242000Y-116480000D01*
%TO.C,K38*%
X149528000Y-121650000D02*
X147750000Y-121650000D01*
X147750000Y-121650000D02*
X147750000Y-119872000D01*
X147750000Y-110728000D02*
X147750000Y-108950000D01*
X147750000Y-108950000D02*
X149528000Y-108950000D01*
X160450000Y-110728000D02*
X160450000Y-108950000D01*
X160450000Y-108950000D02*
X158672000Y-108950000D01*
X160450000Y-119872000D02*
X160450000Y-121650000D01*
X160450000Y-121650000D02*
X158672000Y-121650000D01*
%TO.C,K40*%
X200270532Y-113860261D02*
X198730739Y-114749261D01*
X198730739Y-114749261D02*
X197841739Y-113209468D01*
X193269739Y-105290532D02*
X192380739Y-103750739D01*
X192380739Y-103750739D02*
X193920532Y-102861739D01*
X204268261Y-98940532D02*
X203379261Y-97400739D01*
X203379261Y-97400739D02*
X201839468Y-98289739D01*
X208840261Y-106859468D02*
X209729261Y-108399261D01*
X209729261Y-108399261D02*
X208189468Y-109288261D01*
%TO.C,K47*%
X110998000Y-133570000D02*
X109220000Y-133570000D01*
X109220000Y-133570000D02*
X109220000Y-131792000D01*
X109220000Y-122648000D02*
X109220000Y-120870000D01*
X109220000Y-120870000D02*
X110998000Y-120870000D01*
X121920000Y-122648000D02*
X121920000Y-120870000D01*
X121920000Y-120870000D02*
X120142000Y-120870000D01*
X121920000Y-131792000D02*
X121920000Y-133570000D01*
X121920000Y-133570000D02*
X120142000Y-133570000D01*
%TO.C,K48*%
X130098000Y-135530000D02*
X128320000Y-135530000D01*
X128320000Y-135530000D02*
X128320000Y-133752000D01*
X128320000Y-124608000D02*
X128320000Y-122830000D01*
X128320000Y-122830000D02*
X130098000Y-122830000D01*
X141020000Y-124608000D02*
X141020000Y-122830000D01*
X141020000Y-122830000D02*
X139242000Y-122830000D01*
X141020000Y-133752000D02*
X141020000Y-135530000D01*
X141020000Y-135530000D02*
X139242000Y-135530000D01*
%TO.C,K49*%
X149528000Y-140700000D02*
X147750000Y-140700000D01*
X147750000Y-140700000D02*
X147750000Y-138922000D01*
X147750000Y-129778000D02*
X147750000Y-128000000D01*
X147750000Y-128000000D02*
X149528000Y-128000000D01*
X160450000Y-129778000D02*
X160450000Y-128000000D01*
X160450000Y-128000000D02*
X158672000Y-128000000D01*
X160450000Y-138922000D02*
X160450000Y-140700000D01*
X160450000Y-140700000D02*
X158672000Y-140700000D01*
%TO.C,K54*%
X299648000Y-132180000D02*
X297870000Y-132180000D01*
X297870000Y-132180000D02*
X297870000Y-130402000D01*
X297870000Y-121258000D02*
X297870000Y-119480000D01*
X297870000Y-119480000D02*
X299648000Y-119480000D01*
X310570000Y-121258000D02*
X310570000Y-119480000D01*
X310570000Y-119480000D02*
X308792000Y-119480000D01*
X310570000Y-130402000D02*
X310570000Y-132180000D01*
X310570000Y-132180000D02*
X308792000Y-132180000D01*
%TO.C,K32*%
X279146000Y-72136000D02*
X277368000Y-72136000D01*
X277368000Y-72136000D02*
X277368000Y-70358000D01*
X277368000Y-61214000D02*
X277368000Y-59436000D01*
X277368000Y-59436000D02*
X279146000Y-59436000D01*
X290068000Y-61214000D02*
X290068000Y-59436000D01*
X290068000Y-59436000D02*
X288290000Y-59436000D01*
X290068000Y-70358000D02*
X290068000Y-72136000D01*
X290068000Y-72136000D02*
X288290000Y-72136000D01*
%TO.C,K39*%
X171078000Y-121525000D02*
X169300000Y-121525000D01*
X169300000Y-121525000D02*
X169300000Y-119747000D01*
X169300000Y-110603000D02*
X169300000Y-108825000D01*
X169300000Y-108825000D02*
X171078000Y-108825000D01*
X182000000Y-110603000D02*
X182000000Y-108825000D01*
X182000000Y-108825000D02*
X180222000Y-108825000D01*
X182000000Y-119747000D02*
X182000000Y-121525000D01*
X182000000Y-121525000D02*
X180222000Y-121525000D01*
%TO.C,K11*%
X62752000Y-95020000D02*
X64530000Y-95020000D01*
X51830000Y-95020000D02*
X53608000Y-95020000D01*
X51830000Y-93242000D02*
X51830000Y-95020000D01*
X51830000Y-82320000D02*
X51830000Y-84098000D01*
X53608000Y-82320000D02*
X51830000Y-82320000D01*
X64530000Y-82320000D02*
X62752000Y-82320000D01*
X64530000Y-84098000D02*
X64530000Y-82320000D01*
X64530000Y-95020000D02*
X64530000Y-93242000D01*
%TO.C,K50*%
X171078000Y-140575000D02*
X169300000Y-140575000D01*
X169300000Y-140575000D02*
X169300000Y-138797000D01*
X169300000Y-129653000D02*
X169300000Y-127875000D01*
X169300000Y-127875000D02*
X171078000Y-127875000D01*
X182000000Y-129653000D02*
X182000000Y-127875000D01*
X182000000Y-127875000D02*
X180222000Y-127875000D01*
X182000000Y-138797000D02*
X182000000Y-140575000D01*
X182000000Y-140575000D02*
X180222000Y-140575000D01*
%TO.C,K42*%
X279146000Y-91186000D02*
X277368000Y-91186000D01*
X277368000Y-91186000D02*
X277368000Y-89408000D01*
X277368000Y-80264000D02*
X277368000Y-78486000D01*
X277368000Y-78486000D02*
X279146000Y-78486000D01*
X290068000Y-80264000D02*
X290068000Y-78486000D01*
X290068000Y-78486000D02*
X288290000Y-78486000D01*
X290068000Y-89408000D02*
X290068000Y-91186000D01*
X290068000Y-91186000D02*
X288290000Y-91186000D01*
%TO.C,K7*%
X209607000Y-81780000D02*
X211385000Y-81780000D01*
X198685000Y-81780000D02*
X200463000Y-81780000D01*
X198685000Y-80002000D02*
X198685000Y-81780000D01*
X198685000Y-69080000D02*
X198685000Y-70858000D01*
X200463000Y-69080000D02*
X198685000Y-69080000D01*
X211385000Y-69080000D02*
X209607000Y-69080000D01*
X211385000Y-70858000D02*
X211385000Y-69080000D01*
X211385000Y-81780000D02*
X211385000Y-80002000D01*
%TO.C,K46*%
X87237288Y-139486950D02*
X85519872Y-139947130D01*
X85519872Y-139947130D02*
X85059692Y-138229714D01*
X82693050Y-129397288D02*
X82232870Y-127679872D01*
X82232870Y-127679872D02*
X83950286Y-127219692D01*
X94960308Y-126110286D02*
X94500128Y-124392870D01*
X94500128Y-124392870D02*
X92782712Y-124853050D01*
X97326950Y-134942712D02*
X97787130Y-136660128D01*
X97787130Y-136660128D02*
X96069714Y-137120308D01*
%TO.C,K51*%
X221694858Y-129060445D02*
X220805858Y-127520652D01*
X216233858Y-119601716D02*
X215344858Y-118061923D01*
X215344858Y-118061923D02*
X213805065Y-118950923D01*
X205886129Y-123522923D02*
X204346336Y-124411923D01*
X204346336Y-124411923D02*
X205235336Y-125951716D01*
X209807336Y-133870652D02*
X210696336Y-135410445D01*
X210696336Y-135410445D02*
X212236129Y-134521445D01*
X220155065Y-129949445D02*
X221694858Y-129060445D01*
%TO.C,K44*%
X57014468Y-151468261D02*
X58554261Y-150579261D01*
X47555739Y-156929261D02*
X49095532Y-156040261D01*
X46666739Y-155389468D02*
X47555739Y-156929261D01*
X41205739Y-145930739D02*
X42094739Y-147470532D01*
X42745532Y-145041739D02*
X41205739Y-145930739D01*
X52204261Y-139580739D02*
X50664468Y-140469739D01*
X53093261Y-141120532D02*
X52204261Y-139580739D01*
X58554261Y-150579261D02*
X57665261Y-149039468D01*
%TO.C,K45*%
X73539468Y-141968261D02*
X75079261Y-141079261D01*
X64080739Y-147429261D02*
X65620532Y-146540261D01*
X63191739Y-145889468D02*
X64080739Y-147429261D01*
X57730739Y-136430739D02*
X58619739Y-137970532D01*
X59270532Y-135541739D02*
X57730739Y-136430739D01*
X68729261Y-130080739D02*
X67189468Y-130969739D01*
X69618261Y-131620532D02*
X68729261Y-130080739D01*
X75079261Y-141079261D02*
X74190261Y-139539468D01*
%TO.C,U1*%
X30480000Y-41910000D02*
X30480000Y-44450000D01*
X30480000Y-44450000D02*
X27940000Y-44450000D01*
D10*
%TO.C,TRRS1*%
X27140000Y-86040000D02*
X39240000Y-86040000D01*
X27140000Y-86040000D02*
X27140000Y-79940000D01*
X27140000Y-79940000D02*
X39240000Y-79940000D01*
X39240000Y-86040000D02*
X39240000Y-79940000D01*
X27140000Y-85790000D02*
X25140000Y-85790000D01*
X25140000Y-85790000D02*
X25140000Y-80190000D01*
X27140000Y-80190000D02*
X25140000Y-80190000D01*
%TO.C,R1*%
X33016000Y-78320000D02*
X32508000Y-78320000D01*
X38604000Y-77558000D02*
X38604000Y-78320000D01*
X38350000Y-77304000D02*
X38604000Y-77558000D01*
X38096000Y-77304000D02*
X38350000Y-77304000D01*
X37842000Y-77558000D02*
X38096000Y-77304000D01*
X33778000Y-77558000D02*
X37842000Y-77558000D01*
X33524000Y-77304000D02*
X33778000Y-77558000D01*
X33270000Y-77304000D02*
X33524000Y-77304000D01*
X33016000Y-77558000D02*
X33270000Y-77304000D01*
X33016000Y-79082000D02*
X33016000Y-77558000D01*
X33270000Y-79336000D02*
X33016000Y-79082000D01*
X33524000Y-79336000D02*
X33270000Y-79336000D01*
X33778000Y-79082000D02*
X33524000Y-79336000D01*
X37842000Y-79082000D02*
X33778000Y-79082000D01*
X38096000Y-79336000D02*
X37842000Y-79082000D01*
X38350000Y-79336000D02*
X38096000Y-79336000D01*
X38604000Y-79082000D02*
X38350000Y-79336000D01*
X38604000Y-78320000D02*
X38604000Y-79082000D01*
X39112000Y-78320000D02*
X38604000Y-78320000D01*
%TO.C,R2*%
X39092000Y-92370000D02*
X38584000Y-92370000D01*
X38584000Y-92370000D02*
X38584000Y-93132000D01*
X38584000Y-93132000D02*
X38330000Y-93386000D01*
X38330000Y-93386000D02*
X38076000Y-93386000D01*
X38076000Y-93386000D02*
X37822000Y-93132000D01*
X37822000Y-93132000D02*
X33758000Y-93132000D01*
X33758000Y-93132000D02*
X33504000Y-93386000D01*
X33504000Y-93386000D02*
X33250000Y-93386000D01*
X33250000Y-93386000D02*
X32996000Y-93132000D01*
X32996000Y-93132000D02*
X32996000Y-91608000D01*
X32996000Y-91608000D02*
X33250000Y-91354000D01*
X33250000Y-91354000D02*
X33504000Y-91354000D01*
X33504000Y-91354000D02*
X33758000Y-91608000D01*
X33758000Y-91608000D02*
X37822000Y-91608000D01*
X37822000Y-91608000D02*
X38076000Y-91354000D01*
X38076000Y-91354000D02*
X38330000Y-91354000D01*
X38330000Y-91354000D02*
X38584000Y-91608000D01*
X38584000Y-91608000D02*
X38584000Y-92370000D01*
X32996000Y-92370000D02*
X32488000Y-92370000D01*
%TO.C,U1*%
X32994476Y-42741904D02*
X32537333Y-42741904D01*
X32765904Y-43541904D02*
X32765904Y-42741904D01*
X32346857Y-42741904D02*
X31813523Y-43541904D01*
X31813523Y-42741904D02*
X32346857Y-43541904D01*
X31356380Y-42741904D02*
X31280190Y-42741904D01*
X31204000Y-42780000D01*
X31165904Y-42818095D01*
X31127809Y-42894285D01*
X31089714Y-43046666D01*
X31089714Y-43237142D01*
X31127809Y-43389523D01*
X31165904Y-43465714D01*
X31204000Y-43503809D01*
X31280190Y-43541904D01*
X31356380Y-43541904D01*
X31432571Y-43503809D01*
X31470666Y-43465714D01*
X31508761Y-43389523D01*
X31546857Y-43237142D01*
X31546857Y-43046666D01*
X31508761Y-42894285D01*
X31470666Y-42818095D01*
X31432571Y-42780000D01*
X31356380Y-42741904D01*
X42614809Y-68522857D02*
X42500523Y-68560952D01*
X42462428Y-68599047D01*
X42424333Y-68675238D01*
X42424333Y-68789523D01*
X42462428Y-68865714D01*
X42500523Y-68903809D01*
X42576714Y-68941904D01*
X42881476Y-68941904D01*
X42881476Y-68141904D01*
X42614809Y-68141904D01*
X42538619Y-68180000D01*
X42500523Y-68218095D01*
X42462428Y-68294285D01*
X42462428Y-68370476D01*
X42500523Y-68446666D01*
X42538619Y-68484761D01*
X42614809Y-68522857D01*
X42881476Y-68522857D01*
X42119571Y-68218095D02*
X42081476Y-68180000D01*
X42005285Y-68141904D01*
X41814809Y-68141904D01*
X41738619Y-68180000D01*
X41700523Y-68218095D01*
X41662428Y-68294285D01*
X41662428Y-68370476D01*
X41700523Y-68484761D01*
X42157666Y-68941904D01*
X41662428Y-68941904D01*
X42557666Y-60902857D02*
X42824333Y-60902857D01*
X42824333Y-61321904D02*
X42824333Y-60521904D01*
X42443380Y-60521904D01*
X42214809Y-60521904D02*
X41681476Y-60521904D01*
X42024333Y-61321904D01*
X42557666Y-58362857D02*
X42824333Y-58362857D01*
X42824333Y-58781904D02*
X42824333Y-57981904D01*
X42443380Y-57981904D01*
X41795761Y-57981904D02*
X41948142Y-57981904D01*
X42024333Y-58020000D01*
X42062428Y-58058095D01*
X42138619Y-58172380D01*
X42176714Y-58324761D01*
X42176714Y-58629523D01*
X42138619Y-58705714D01*
X42100523Y-58743809D01*
X42024333Y-58781904D01*
X41871952Y-58781904D01*
X41795761Y-58743809D01*
X41757666Y-58705714D01*
X41719571Y-58629523D01*
X41719571Y-58439047D01*
X41757666Y-58362857D01*
X41795761Y-58324761D01*
X41871952Y-58286666D01*
X42024333Y-58286666D01*
X42100523Y-58324761D01*
X42138619Y-58362857D01*
X42176714Y-58439047D01*
X42557666Y-55822857D02*
X42824333Y-55822857D01*
X42824333Y-56241904D02*
X42824333Y-55441904D01*
X42443380Y-55441904D01*
X41757666Y-55441904D02*
X42138619Y-55441904D01*
X42176714Y-55822857D01*
X42138619Y-55784761D01*
X42062428Y-55746666D01*
X41871952Y-55746666D01*
X41795761Y-55784761D01*
X41757666Y-55822857D01*
X41719571Y-55899047D01*
X41719571Y-56089523D01*
X41757666Y-56165714D01*
X41795761Y-56203809D01*
X41871952Y-56241904D01*
X42062428Y-56241904D01*
X42138619Y-56203809D01*
X42176714Y-56165714D01*
X42843380Y-43541904D02*
X43110047Y-43160952D01*
X43300523Y-43541904D02*
X43300523Y-42741904D01*
X42995761Y-42741904D01*
X42919571Y-42780000D01*
X42881476Y-42818095D01*
X42843380Y-42894285D01*
X42843380Y-43008571D01*
X42881476Y-43084761D01*
X42919571Y-43122857D01*
X42995761Y-43160952D01*
X43300523Y-43160952D01*
X42538619Y-43313333D02*
X42157666Y-43313333D01*
X42614809Y-43541904D02*
X42348142Y-42741904D01*
X42081476Y-43541904D01*
X41891000Y-42741904D02*
X41700523Y-43541904D01*
X41548142Y-42970476D01*
X41395761Y-43541904D01*
X41205285Y-42741904D01*
X42900523Y-45320000D02*
X42976714Y-45281904D01*
X43091000Y-45281904D01*
X43205285Y-45320000D01*
X43281476Y-45396190D01*
X43319571Y-45472380D01*
X43357666Y-45624761D01*
X43357666Y-45739047D01*
X43319571Y-45891428D01*
X43281476Y-45967619D01*
X43205285Y-46043809D01*
X43091000Y-46081904D01*
X43014809Y-46081904D01*
X42900523Y-46043809D01*
X42862428Y-46005714D01*
X42862428Y-45739047D01*
X43014809Y-45739047D01*
X42519571Y-46081904D02*
X42519571Y-45281904D01*
X42062428Y-46081904D01*
X42062428Y-45281904D01*
X41681476Y-46081904D02*
X41681476Y-45281904D01*
X41491000Y-45281904D01*
X41376714Y-45320000D01*
X41300523Y-45396190D01*
X41262428Y-45472380D01*
X41224333Y-45624761D01*
X41224333Y-45739047D01*
X41262428Y-45891428D01*
X41300523Y-45967619D01*
X41376714Y-46043809D01*
X41491000Y-46081904D01*
X41681476Y-46081904D01*
X42729095Y-48621904D02*
X42995761Y-48240952D01*
X43186238Y-48621904D02*
X43186238Y-47821904D01*
X42881476Y-47821904D01*
X42805285Y-47860000D01*
X42767190Y-47898095D01*
X42729095Y-47974285D01*
X42729095Y-48088571D01*
X42767190Y-48164761D01*
X42805285Y-48202857D01*
X42881476Y-48240952D01*
X43186238Y-48240952D01*
X42424333Y-48583809D02*
X42310047Y-48621904D01*
X42119571Y-48621904D01*
X42043380Y-48583809D01*
X42005285Y-48545714D01*
X41967190Y-48469523D01*
X41967190Y-48393333D01*
X42005285Y-48317142D01*
X42043380Y-48279047D01*
X42119571Y-48240952D01*
X42271952Y-48202857D01*
X42348142Y-48164761D01*
X42386238Y-48126666D01*
X42424333Y-48050476D01*
X42424333Y-47974285D01*
X42386238Y-47898095D01*
X42348142Y-47860000D01*
X42271952Y-47821904D01*
X42081476Y-47821904D01*
X41967190Y-47860000D01*
X41738619Y-47821904D02*
X41281476Y-47821904D01*
X41510047Y-48621904D02*
X41510047Y-47821904D01*
X43357666Y-50361904D02*
X43091000Y-51161904D01*
X42824333Y-50361904D01*
X42100523Y-51085714D02*
X42138619Y-51123809D01*
X42252904Y-51161904D01*
X42329095Y-51161904D01*
X42443380Y-51123809D01*
X42519571Y-51047619D01*
X42557666Y-50971428D01*
X42595761Y-50819047D01*
X42595761Y-50704761D01*
X42557666Y-50552380D01*
X42519571Y-50476190D01*
X42443380Y-50400000D01*
X42329095Y-50361904D01*
X42252904Y-50361904D01*
X42138619Y-50400000D01*
X42100523Y-50438095D01*
X41300523Y-51085714D02*
X41338619Y-51123809D01*
X41452904Y-51161904D01*
X41529095Y-51161904D01*
X41643380Y-51123809D01*
X41719571Y-51047619D01*
X41757666Y-50971428D01*
X41795761Y-50819047D01*
X41795761Y-50704761D01*
X41757666Y-50552380D01*
X41719571Y-50476190D01*
X41643380Y-50400000D01*
X41529095Y-50361904D01*
X41452904Y-50361904D01*
X41338619Y-50400000D01*
X41300523Y-50438095D01*
X42557666Y-53282857D02*
X42824333Y-53282857D01*
X42824333Y-53701904D02*
X42824333Y-52901904D01*
X42443380Y-52901904D01*
X41795761Y-53168571D02*
X41795761Y-53701904D01*
X41986238Y-52863809D02*
X42176714Y-53435238D01*
X41681476Y-53435238D01*
X42614809Y-63442857D02*
X42500523Y-63480952D01*
X42462428Y-63519047D01*
X42424333Y-63595238D01*
X42424333Y-63709523D01*
X42462428Y-63785714D01*
X42500523Y-63823809D01*
X42576714Y-63861904D01*
X42881476Y-63861904D01*
X42881476Y-63061904D01*
X42614809Y-63061904D01*
X42538619Y-63100000D01*
X42500523Y-63138095D01*
X42462428Y-63214285D01*
X42462428Y-63290476D01*
X42500523Y-63366666D01*
X42538619Y-63404761D01*
X42614809Y-63442857D01*
X42881476Y-63442857D01*
X41662428Y-63861904D02*
X42119571Y-63861904D01*
X41891000Y-63861904D02*
X41891000Y-63061904D01*
X41967190Y-63176190D01*
X42043380Y-63252380D01*
X42119571Y-63290476D01*
X42614809Y-65982857D02*
X42500523Y-66020952D01*
X42462428Y-66059047D01*
X42424333Y-66135238D01*
X42424333Y-66249523D01*
X42462428Y-66325714D01*
X42500523Y-66363809D01*
X42576714Y-66401904D01*
X42881476Y-66401904D01*
X42881476Y-65601904D01*
X42614809Y-65601904D01*
X42538619Y-65640000D01*
X42500523Y-65678095D01*
X42462428Y-65754285D01*
X42462428Y-65830476D01*
X42500523Y-65906666D01*
X42538619Y-65944761D01*
X42614809Y-65982857D01*
X42881476Y-65982857D01*
X42157666Y-65601904D02*
X41662428Y-65601904D01*
X41929095Y-65906666D01*
X41814809Y-65906666D01*
X41738619Y-65944761D01*
X41700523Y-65982857D01*
X41662428Y-66059047D01*
X41662428Y-66249523D01*
X41700523Y-66325714D01*
X41738619Y-66363809D01*
X41814809Y-66401904D01*
X42043380Y-66401904D01*
X42119571Y-66363809D01*
X42157666Y-66325714D01*
X42614809Y-71062857D02*
X42500523Y-71100952D01*
X42462428Y-71139047D01*
X42424333Y-71215238D01*
X42424333Y-71329523D01*
X42462428Y-71405714D01*
X42500523Y-71443809D01*
X42576714Y-71481904D01*
X42881476Y-71481904D01*
X42881476Y-70681904D01*
X42614809Y-70681904D01*
X42538619Y-70720000D01*
X42500523Y-70758095D01*
X42462428Y-70834285D01*
X42462428Y-70910476D01*
X42500523Y-70986666D01*
X42538619Y-71024761D01*
X42614809Y-71062857D01*
X42881476Y-71062857D01*
X41738619Y-70681904D02*
X41891000Y-70681904D01*
X41967190Y-70720000D01*
X42005285Y-70758095D01*
X42081476Y-70872380D01*
X42119571Y-71024761D01*
X42119571Y-71329523D01*
X42081476Y-71405714D01*
X42043380Y-71443809D01*
X41967190Y-71481904D01*
X41814809Y-71481904D01*
X41738619Y-71443809D01*
X41700523Y-71405714D01*
X41662428Y-71329523D01*
X41662428Y-71139047D01*
X41700523Y-71062857D01*
X41738619Y-71024761D01*
X41814809Y-70986666D01*
X41967190Y-70986666D01*
X42043380Y-71024761D01*
X42081476Y-71062857D01*
X42119571Y-71139047D01*
X31692809Y-71062857D02*
X31578523Y-71100952D01*
X31540428Y-71139047D01*
X31502333Y-71215238D01*
X31502333Y-71329523D01*
X31540428Y-71405714D01*
X31578523Y-71443809D01*
X31654714Y-71481904D01*
X31959476Y-71481904D01*
X31959476Y-70681904D01*
X31692809Y-70681904D01*
X31616619Y-70720000D01*
X31578523Y-70758095D01*
X31540428Y-70834285D01*
X31540428Y-70910476D01*
X31578523Y-70986666D01*
X31616619Y-71024761D01*
X31692809Y-71062857D01*
X31959476Y-71062857D01*
X30778523Y-70681904D02*
X31159476Y-70681904D01*
X31197571Y-71062857D01*
X31159476Y-71024761D01*
X31083285Y-70986666D01*
X30892809Y-70986666D01*
X30816619Y-71024761D01*
X30778523Y-71062857D01*
X30740428Y-71139047D01*
X30740428Y-71329523D01*
X30778523Y-71405714D01*
X30816619Y-71443809D01*
X30892809Y-71481904D01*
X31083285Y-71481904D01*
X31159476Y-71443809D01*
X31197571Y-71405714D01*
X31692809Y-68522857D02*
X31578523Y-68560952D01*
X31540428Y-68599047D01*
X31502333Y-68675238D01*
X31502333Y-68789523D01*
X31540428Y-68865714D01*
X31578523Y-68903809D01*
X31654714Y-68941904D01*
X31959476Y-68941904D01*
X31959476Y-68141904D01*
X31692809Y-68141904D01*
X31616619Y-68180000D01*
X31578523Y-68218095D01*
X31540428Y-68294285D01*
X31540428Y-68370476D01*
X31578523Y-68446666D01*
X31616619Y-68484761D01*
X31692809Y-68522857D01*
X31959476Y-68522857D01*
X30816619Y-68408571D02*
X30816619Y-68941904D01*
X31007095Y-68103809D02*
X31197571Y-68675238D01*
X30702333Y-68675238D01*
X31921380Y-65982857D02*
X31654714Y-65982857D01*
X31540428Y-66401904D02*
X31921380Y-66401904D01*
X31921380Y-65601904D01*
X31540428Y-65601904D01*
X30854714Y-65601904D02*
X31007095Y-65601904D01*
X31083285Y-65640000D01*
X31121380Y-65678095D01*
X31197571Y-65792380D01*
X31235666Y-65944761D01*
X31235666Y-66249523D01*
X31197571Y-66325714D01*
X31159476Y-66363809D01*
X31083285Y-66401904D01*
X30930904Y-66401904D01*
X30854714Y-66363809D01*
X30816619Y-66325714D01*
X30778523Y-66249523D01*
X30778523Y-66059047D01*
X30816619Y-65982857D01*
X30854714Y-65944761D01*
X30930904Y-65906666D01*
X31083285Y-65906666D01*
X31159476Y-65944761D01*
X31197571Y-65982857D01*
X31235666Y-66059047D01*
X31959476Y-63861904D02*
X31959476Y-63061904D01*
X31769000Y-63061904D01*
X31654714Y-63100000D01*
X31578523Y-63176190D01*
X31540428Y-63252380D01*
X31502333Y-63404761D01*
X31502333Y-63519047D01*
X31540428Y-63671428D01*
X31578523Y-63747619D01*
X31654714Y-63823809D01*
X31769000Y-63861904D01*
X31959476Y-63861904D01*
X31235666Y-63061904D02*
X30702333Y-63061904D01*
X31045190Y-63861904D01*
X31502333Y-61245714D02*
X31540428Y-61283809D01*
X31654714Y-61321904D01*
X31730904Y-61321904D01*
X31845190Y-61283809D01*
X31921380Y-61207619D01*
X31959476Y-61131428D01*
X31997571Y-60979047D01*
X31997571Y-60864761D01*
X31959476Y-60712380D01*
X31921380Y-60636190D01*
X31845190Y-60560000D01*
X31730904Y-60521904D01*
X31654714Y-60521904D01*
X31540428Y-60560000D01*
X31502333Y-60598095D01*
X30816619Y-60521904D02*
X30969000Y-60521904D01*
X31045190Y-60560000D01*
X31083285Y-60598095D01*
X31159476Y-60712380D01*
X31197571Y-60864761D01*
X31197571Y-61169523D01*
X31159476Y-61245714D01*
X31121380Y-61283809D01*
X31045190Y-61321904D01*
X30892809Y-61321904D01*
X30816619Y-61283809D01*
X30778523Y-61245714D01*
X30740428Y-61169523D01*
X30740428Y-60979047D01*
X30778523Y-60902857D01*
X30816619Y-60864761D01*
X30892809Y-60826666D01*
X31045190Y-60826666D01*
X31121380Y-60864761D01*
X31159476Y-60902857D01*
X31197571Y-60979047D01*
X31959476Y-58781904D02*
X31959476Y-57981904D01*
X31769000Y-57981904D01*
X31654714Y-58020000D01*
X31578523Y-58096190D01*
X31540428Y-58172380D01*
X31502333Y-58324761D01*
X31502333Y-58439047D01*
X31540428Y-58591428D01*
X31578523Y-58667619D01*
X31654714Y-58743809D01*
X31769000Y-58781904D01*
X31959476Y-58781904D01*
X30816619Y-58248571D02*
X30816619Y-58781904D01*
X31007095Y-57943809D02*
X31197571Y-58515238D01*
X30702333Y-58515238D01*
X31978523Y-47860000D02*
X32054714Y-47821904D01*
X32169000Y-47821904D01*
X32283285Y-47860000D01*
X32359476Y-47936190D01*
X32397571Y-48012380D01*
X32435666Y-48164761D01*
X32435666Y-48279047D01*
X32397571Y-48431428D01*
X32359476Y-48507619D01*
X32283285Y-48583809D01*
X32169000Y-48621904D01*
X32092809Y-48621904D01*
X31978523Y-48583809D01*
X31940428Y-48545714D01*
X31940428Y-48279047D01*
X32092809Y-48279047D01*
X31597571Y-48621904D02*
X31597571Y-47821904D01*
X31140428Y-48621904D01*
X31140428Y-47821904D01*
X30759476Y-48621904D02*
X30759476Y-47821904D01*
X30569000Y-47821904D01*
X30454714Y-47860000D01*
X30378523Y-47936190D01*
X30340428Y-48012380D01*
X30302333Y-48164761D01*
X30302333Y-48279047D01*
X30340428Y-48431428D01*
X30378523Y-48507619D01*
X30454714Y-48583809D01*
X30569000Y-48621904D01*
X30759476Y-48621904D01*
X31978523Y-50400000D02*
X32054714Y-50361904D01*
X32169000Y-50361904D01*
X32283285Y-50400000D01*
X32359476Y-50476190D01*
X32397571Y-50552380D01*
X32435666Y-50704761D01*
X32435666Y-50819047D01*
X32397571Y-50971428D01*
X32359476Y-51047619D01*
X32283285Y-51123809D01*
X32169000Y-51161904D01*
X32092809Y-51161904D01*
X31978523Y-51123809D01*
X31940428Y-51085714D01*
X31940428Y-50819047D01*
X32092809Y-50819047D01*
X31597571Y-51161904D02*
X31597571Y-50361904D01*
X31140428Y-51161904D01*
X31140428Y-50361904D01*
X30759476Y-51161904D02*
X30759476Y-50361904D01*
X30569000Y-50361904D01*
X30454714Y-50400000D01*
X30378523Y-50476190D01*
X30340428Y-50552380D01*
X30302333Y-50704761D01*
X30302333Y-50819047D01*
X30340428Y-50971428D01*
X30378523Y-51047619D01*
X30454714Y-51123809D01*
X30569000Y-51161904D01*
X30759476Y-51161904D01*
X31959476Y-53701904D02*
X31959476Y-52901904D01*
X31769000Y-52901904D01*
X31654714Y-52940000D01*
X31578523Y-53016190D01*
X31540428Y-53092380D01*
X31502333Y-53244761D01*
X31502333Y-53359047D01*
X31540428Y-53511428D01*
X31578523Y-53587619D01*
X31654714Y-53663809D01*
X31769000Y-53701904D01*
X31959476Y-53701904D01*
X30740428Y-53701904D02*
X31197571Y-53701904D01*
X30969000Y-53701904D02*
X30969000Y-52901904D01*
X31045190Y-53016190D01*
X31121380Y-53092380D01*
X31197571Y-53130476D01*
X31959476Y-56241904D02*
X31959476Y-55441904D01*
X31769000Y-55441904D01*
X31654714Y-55480000D01*
X31578523Y-55556190D01*
X31540428Y-55632380D01*
X31502333Y-55784761D01*
X31502333Y-55899047D01*
X31540428Y-56051428D01*
X31578523Y-56127619D01*
X31654714Y-56203809D01*
X31769000Y-56241904D01*
X31959476Y-56241904D01*
X31007095Y-55441904D02*
X30930904Y-55441904D01*
X30854714Y-55480000D01*
X30816619Y-55518095D01*
X30778523Y-55594285D01*
X30740428Y-55746666D01*
X30740428Y-55937142D01*
X30778523Y-56089523D01*
X30816619Y-56165714D01*
X30854714Y-56203809D01*
X30930904Y-56241904D01*
X31007095Y-56241904D01*
X31083285Y-56203809D01*
X31121380Y-56165714D01*
X31159476Y-56089523D01*
X31197571Y-55937142D01*
X31197571Y-55746666D01*
X31159476Y-55594285D01*
X31121380Y-55518095D01*
X31083285Y-55480000D01*
X31007095Y-55441904D01*
X31959476Y-46081904D02*
X31959476Y-45281904D01*
X31769000Y-45281904D01*
X31654714Y-45320000D01*
X31578523Y-45396190D01*
X31540428Y-45472380D01*
X31502333Y-45624761D01*
X31502333Y-45739047D01*
X31540428Y-45891428D01*
X31578523Y-45967619D01*
X31654714Y-46043809D01*
X31769000Y-46081904D01*
X31959476Y-46081904D01*
X31197571Y-45358095D02*
X31159476Y-45320000D01*
X31083285Y-45281904D01*
X30892809Y-45281904D01*
X30816619Y-45320000D01*
X30778523Y-45358095D01*
X30740428Y-45434285D01*
X30740428Y-45510476D01*
X30778523Y-45624761D01*
X31235666Y-46081904D01*
X30740428Y-46081904D01*
%TO.C,TRRS1*%
X35509047Y-81742380D02*
X35509047Y-80742380D01*
X35128095Y-80742380D01*
X35032857Y-80790000D01*
X34985238Y-80837619D01*
X34937619Y-80932857D01*
X34937619Y-81075714D01*
X34985238Y-81170952D01*
X35032857Y-81218571D01*
X35128095Y-81266190D01*
X35509047Y-81266190D01*
X34223333Y-80742380D02*
X34223333Y-81456666D01*
X34270952Y-81599523D01*
X34366190Y-81694761D01*
X34509047Y-81742380D01*
X34604285Y-81742380D01*
X33747142Y-81361428D02*
X32985238Y-81361428D01*
X32604285Y-80742380D02*
X31985238Y-80742380D01*
X32318571Y-81123333D01*
X32175714Y-81123333D01*
X32080476Y-81170952D01*
X32032857Y-81218571D01*
X31985238Y-81313809D01*
X31985238Y-81551904D01*
X32032857Y-81647142D01*
X32080476Y-81694761D01*
X32175714Y-81742380D01*
X32461428Y-81742380D01*
X32556666Y-81694761D01*
X32604285Y-81647142D01*
X31604285Y-80837619D02*
X31556666Y-80790000D01*
X31461428Y-80742380D01*
X31223333Y-80742380D01*
X31128095Y-80790000D01*
X31080476Y-80837619D01*
X31032857Y-80932857D01*
X31032857Y-81028095D01*
X31080476Y-81170952D01*
X31651904Y-81742380D01*
X31032857Y-81742380D01*
X30413809Y-80742380D02*
X30318571Y-80742380D01*
X30223333Y-80790000D01*
X30175714Y-80837619D01*
X30128095Y-80932857D01*
X30080476Y-81123333D01*
X30080476Y-81361428D01*
X30128095Y-81551904D01*
X30175714Y-81647142D01*
X30223333Y-81694761D01*
X30318571Y-81742380D01*
X30413809Y-81742380D01*
X30509047Y-81694761D01*
X30556666Y-81647142D01*
X30604285Y-81551904D01*
X30651904Y-81361428D01*
X30651904Y-81123333D01*
X30604285Y-80932857D01*
X30556666Y-80837619D01*
X30509047Y-80790000D01*
X30413809Y-80742380D01*
X29699523Y-81456666D02*
X29223333Y-81456666D01*
X29794761Y-81742380D02*
X29461428Y-80742380D01*
X29128095Y-81742380D01*
%TO.C,R1*%
X35943333Y-78681904D02*
X36210000Y-78300952D01*
X36400476Y-78681904D02*
X36400476Y-77881904D01*
X36095714Y-77881904D01*
X36019523Y-77920000D01*
X35981428Y-77958095D01*
X35943333Y-78034285D01*
X35943333Y-78148571D01*
X35981428Y-78224761D01*
X36019523Y-78262857D01*
X36095714Y-78300952D01*
X36400476Y-78300952D01*
X35181428Y-78681904D02*
X35638571Y-78681904D01*
X35410000Y-78681904D02*
X35410000Y-77881904D01*
X35486190Y-77996190D01*
X35562380Y-78072380D01*
X35638571Y-78110476D01*
%TO.C,R2*%
X35923333Y-92731904D02*
X36190000Y-92350952D01*
X36380476Y-92731904D02*
X36380476Y-91931904D01*
X36075714Y-91931904D01*
X35999523Y-91970000D01*
X35961428Y-92008095D01*
X35923333Y-92084285D01*
X35923333Y-92198571D01*
X35961428Y-92274761D01*
X35999523Y-92312857D01*
X36075714Y-92350952D01*
X36380476Y-92350952D01*
X35618571Y-92008095D02*
X35580476Y-91970000D01*
X35504285Y-91931904D01*
X35313809Y-91931904D01*
X35237619Y-91970000D01*
X35199523Y-92008095D01*
X35161428Y-92084285D01*
X35161428Y-92160476D01*
X35199523Y-92274761D01*
X35656666Y-92731904D01*
X35161428Y-92731904D01*
%TD*%
M02*
