%TF.GenerationSoftware,KiCad,Pcbnew,(5.1.10-1-10_14)*%
%TF.CreationDate,2021-08-01T23:27:55+01:00*%
%TF.ProjectId,AsymRight,4173796d-5269-4676-9874-2e6b69636164,v1*%
%TF.SameCoordinates,Original*%
%TF.FileFunction,Paste,Top*%
%TF.FilePolarity,Positive*%
%FSLAX46Y46*%
G04 Gerber Fmt 4.6, Leading zero omitted, Abs format (unit mm)*
G04 Created by KiCad (PCBNEW (5.1.10-1-10_14)) date 2021-08-01 23:27:55*
%MOMM*%
%LPD*%
G01*
G04 APERTURE LIST*
%ADD10R,1.200000X1.200000*%
%ADD11C,0.100000*%
G04 APERTURE END LIST*
D10*
%TO.C,D0*%
X59795000Y-72620000D03*
X56645000Y-72620000D03*
%TD*%
%TO.C,D1*%
X78935000Y-62820000D03*
X75785000Y-62820000D03*
%TD*%
%TO.C,D2*%
X98355000Y-61170000D03*
X95205000Y-61170000D03*
%TD*%
%TO.C,D3*%
X117265000Y-59280000D03*
X114115000Y-59280000D03*
%TD*%
%TO.C,D4*%
X136245000Y-61280000D03*
X133095000Y-61280000D03*
%TD*%
%TO.C,D5*%
X155825000Y-66440000D03*
X152675000Y-66440000D03*
%TD*%
%TO.C,D6*%
X171685000Y-66380000D03*
X174835000Y-66380000D03*
%TD*%
%TO.C,D7*%
X206930000Y-84650000D03*
X203780000Y-84650000D03*
%TD*%
%TO.C,D8*%
X225857000Y-71120000D03*
X222707000Y-71120000D03*
%TD*%
%TO.C,D9*%
X245067000Y-70818000D03*
X241917000Y-70818000D03*
%TD*%
%TO.C,D11*%
X56915000Y-97130000D03*
X60065000Y-97130000D03*
%TD*%
%TO.C,D12*%
X76235000Y-81910000D03*
X79385000Y-81910000D03*
%TD*%
%TO.C,D13*%
X94865000Y-80330000D03*
X98015000Y-80330000D03*
%TD*%
%TO.C,D14*%
X114105000Y-78250000D03*
X117255000Y-78250000D03*
%TD*%
%TO.C,D15*%
X133245000Y-80330000D03*
X136395000Y-80330000D03*
%TD*%
%TO.C,D16*%
X152505000Y-85370000D03*
X155655000Y-85370000D03*
%TD*%
%TO.C,D17*%
X174935000Y-85470000D03*
X171785000Y-85470000D03*
%TD*%
%TO.C,D18*%
X225800000Y-87200000D03*
X222650000Y-87200000D03*
%TD*%
%TO.C,D19*%
X245067000Y-89614000D03*
X241917000Y-89614000D03*
%TD*%
%TO.C,D20*%
X264117000Y-85550000D03*
X260967000Y-85550000D03*
%TD*%
%TO.C,D21*%
X263940000Y-66690000D03*
X260790000Y-66690000D03*
%TD*%
D11*
%TO.C,D22*%
G36*
X57385625Y-125477885D02*
G01*
X57985625Y-126517115D01*
X56946395Y-127117115D01*
X56346395Y-126077885D01*
X57385625Y-125477885D01*
G37*
G36*
X60113605Y-123902885D02*
G01*
X60713605Y-124942115D01*
X59674375Y-125542115D01*
X59074375Y-124502885D01*
X60113605Y-123902885D01*
G37*
%TD*%
D10*
%TO.C,D23*%
X76255000Y-100900000D03*
X79405000Y-100900000D03*
%TD*%
%TO.C,D24*%
X95225000Y-99280000D03*
X98375000Y-99280000D03*
%TD*%
%TO.C,D25*%
X114075000Y-97310000D03*
X117225000Y-97310000D03*
%TD*%
%TO.C,D26*%
X133315000Y-99320000D03*
X136465000Y-99320000D03*
%TD*%
%TO.C,D27*%
X152585000Y-104600000D03*
X155735000Y-104600000D03*
%TD*%
%TO.C,D28*%
X171795000Y-104480000D03*
X174945000Y-104480000D03*
%TD*%
%TO.C,D29*%
X226416000Y-109220000D03*
X223266000Y-109220000D03*
%TD*%
%TO.C,D30*%
X245067000Y-108664000D03*
X241917000Y-108664000D03*
%TD*%
%TO.C,D31*%
X264117000Y-104468000D03*
X260967000Y-104468000D03*
%TD*%
%TO.C,D32*%
X285547000Y-74422000D03*
X282397000Y-74422000D03*
%TD*%
D11*
%TO.C,D33*%
G36*
X43423605Y-133312885D02*
G01*
X44023605Y-134352115D01*
X42984375Y-134952115D01*
X42384375Y-133912885D01*
X43423605Y-133312885D01*
G37*
G36*
X40695625Y-134887885D02*
G01*
X41295625Y-135927115D01*
X40256395Y-136527115D01*
X39656395Y-135487885D01*
X40695625Y-134887885D01*
G37*
%TD*%
D10*
%TO.C,D34*%
X75895000Y-120170000D03*
X79045000Y-120170000D03*
%TD*%
%TO.C,D35*%
X98515000Y-118410000D03*
X95365000Y-118410000D03*
%TD*%
%TO.C,D36*%
X114155000Y-116380000D03*
X117305000Y-116380000D03*
%TD*%
%TO.C,D37*%
X133375000Y-118380000D03*
X136525000Y-118380000D03*
%TD*%
%TO.C,D38*%
X152765000Y-123490000D03*
X155915000Y-123490000D03*
%TD*%
%TO.C,D39*%
X174755000Y-123500000D03*
X171605000Y-123500000D03*
%TD*%
D11*
%TO.C,D40*%
G36*
X204210625Y-113617885D02*
G01*
X204810625Y-114657115D01*
X203771395Y-115257115D01*
X203171395Y-114217885D01*
X204210625Y-113617885D01*
G37*
G36*
X206938605Y-112042885D02*
G01*
X207538605Y-113082115D01*
X206499375Y-113682115D01*
X205899375Y-112642885D01*
X206938605Y-112042885D01*
G37*
%TD*%
D10*
%TO.C,D41*%
X234955000Y-128960000D03*
X238105000Y-128960000D03*
%TD*%
%TO.C,D42*%
X282397000Y-93472000D03*
X285547000Y-93472000D03*
%TD*%
%TO.C,D43*%
X287010000Y-120105000D03*
X283860000Y-120105000D03*
%TD*%
D11*
%TO.C,D44*%
G36*
X56123541Y-154372885D02*
G01*
X56723541Y-155412115D01*
X55684311Y-156012115D01*
X55084311Y-154972885D01*
X56123541Y-154372885D01*
G37*
G36*
X53395561Y-155947885D02*
G01*
X53995561Y-156987115D01*
X52956331Y-157587115D01*
X52356331Y-156547885D01*
X53395561Y-155947885D01*
G37*
%TD*%
%TO.C,D45*%
G36*
X72603669Y-145072885D02*
G01*
X73203669Y-146112115D01*
X72164439Y-146712115D01*
X71564439Y-145672885D01*
X72603669Y-145072885D01*
G37*
G36*
X69875689Y-146647885D02*
G01*
X70475689Y-147687115D01*
X69436459Y-148287115D01*
X68836459Y-147247885D01*
X69875689Y-146647885D01*
G37*
%TD*%
%TO.C,D46*%
G36*
X100965140Y-130359365D02*
G01*
X102124251Y-130048782D01*
X102434834Y-131207893D01*
X101275723Y-131518476D01*
X100965140Y-130359365D01*
G37*
G36*
X100149860Y-127316699D02*
G01*
X101308971Y-127006116D01*
X101619554Y-128165227D01*
X100460443Y-128475810D01*
X100149860Y-127316699D01*
G37*
%TD*%
D10*
%TO.C,D47*%
X125090000Y-126085000D03*
X125090000Y-129235000D03*
%TD*%
%TO.C,D48*%
X144410000Y-127605000D03*
X144410000Y-130755000D03*
%TD*%
%TO.C,D49*%
X163680000Y-135515000D03*
X163680000Y-132365000D03*
%TD*%
%TO.C,D50*%
X185120000Y-135540000D03*
X185120000Y-132390000D03*
%TD*%
D11*
%TO.C,D51*%
G36*
X216574615Y-134830385D02*
G01*
X217174615Y-135869615D01*
X216135385Y-136469615D01*
X215535385Y-135430385D01*
X216574615Y-134830385D01*
G37*
G36*
X219302595Y-133255385D02*
G01*
X219902595Y-134294615D01*
X218863365Y-134894615D01*
X218263365Y-133855385D01*
X219302595Y-133255385D01*
G37*
%TD*%
D10*
%TO.C,D52*%
X264617000Y-133350000D03*
X267767000Y-133350000D03*
%TD*%
%TO.C,D53*%
X283860000Y-139355000D03*
X287010000Y-139355000D03*
%TD*%
%TO.C,D54*%
X305867000Y-134366000D03*
X302717000Y-134366000D03*
%TD*%
M02*
