<?xml version="1.0" encoding="utf-8"?>
<!-- Generator: Adobe Illustrator 24.2.3, SVG Export Plug-In . SVG Version: 6.00 Build 0)  -->
<svg version="1.1" xmlns="http://www.w3.org/2000/svg" xmlns:xlink="http://www.w3.org/1999/xlink" x="0px" y="0px"
	 viewBox="0 0 468.8 364.4" style="enable-background:new 0 0 468.8 364.4;" xml:space="preserve">
<style type="text/css">
	.st0{fill:none;stroke:#000000;stroke-width:0.25;stroke-miterlimit:10;}
	.st1{fill:none;stroke:#000000;stroke-width:0.25;stroke-linecap:round;stroke-linejoin:round;stroke-miterlimit:10;}
	
		.st2{fill:#C2C200;fill-opacity:0;stroke:#000000;stroke-width:0.25;stroke-linecap:round;stroke-linejoin:round;stroke-miterlimit:10;}
</style>
<g id="Layer_1" xmlns:svg="http://www.w3.org/2000/svg">
	<desc>Picture generated by PCBNEW</desc>
	<g transform="translate(0 0) scale(1 1)">
	</g>
	<g>
		<g>
			<circle class="st0" cx="383.8" cy="274.6" r="5.7"/>
		</g>
		<g>
			<circle class="st0" cx="22" cy="18.7" r="5.7"/>
		</g>
		<g>
			<circle class="st0" cx="70.6" cy="231.1" r="5.7"/>
		</g>
		<g>
			<circle class="st0" cx="335.2" cy="13.3" r="5.7"/>
		</g>
		<path class="st1" d="M349.2,67.3v14.2h-2.8c-0.2,0-0.3,0.1-0.3,0.3v9.3c0,0.2,0.1,0.3,0.3,0.3h2.8v0.4c0,1.4,1.1,2.5,2.5,2.5h34.8
			c1.4,0,2.5-1.1,2.5-2.5v-0.4h2.8c0.2,0,0.3-0.1,0.3-0.3v-9.3c0-0.2-0.1-0.3-0.3-0.3H389V67.3h2.8c0.2,0,0.3-0.1,0.3-0.3v-9.3
			c0-0.2-0.1-0.3-0.3-0.3H389V57c0-1.4-1.1-2.5-2.5-2.5h-34.8c-1.4,0-2.5,1.1-2.5,2.5v0.4h-2.8c-0.2,0-0.3,0.1-0.3,0.3V67
			c0,0.2,0.1,0.3,0.3,0.3H349.2z"/>
		<path class="st1" d="M295.5,40.3v14.2h-2.8c-0.2,0-0.3,0.1-0.3,0.3v9.3c0,0.2,0.1,0.3,0.3,0.3h2.8v0.4c0,1.4,1.1,2.5,2.5,2.5h34.8
			c1.4,0,2.5-1.1,2.5-2.5v-0.4h2.8c0.2,0,0.3-0.1,0.3-0.3v-9.3c0-0.2-0.1-0.3-0.3-0.3h-2.8V40.3h2.8c0.2,0,0.3-0.1,0.3-0.3v-9.3
			c0-0.2-0.1-0.3-0.3-0.3h-2.8V30c0-1.4-1.1-2.5-2.5-2.5H298c-1.4,0-2.5,1.1-2.5,2.5v0.4h-2.8c-0.2,0-0.3,0.1-0.3,0.3V40
			c0,0.2,0.1,0.3,0.3,0.3H295.5z"/>
		<path class="st1" d="M295.5,94.1v14.2h-2.8c-0.2,0-0.3,0.1-0.3,0.3v9.3c0,0.2,0.1,0.3,0.3,0.3h2.8v0.4c0,1.4,1.1,2.5,2.5,2.5h34.8
			c1.4,0,2.5-1.1,2.5-2.5v-0.4h2.8c0.2,0,0.3-0.1,0.3-0.3v-9.3c0-0.2-0.1-0.3-0.3-0.3h-2.8V94.1h2.8c0.2,0,0.3-0.1,0.3-0.3v-9.3
			c0-0.2-0.1-0.3-0.3-0.3h-2.8v-0.4c0-1.4-1.1-2.5-2.5-2.5H298c-1.4,0-2.5,1.1-2.5,2.5v0.4h-2.8c-0.2,0-0.3,0.1-0.3,0.3v9.3
			c0,0.2,0.1,0.3,0.3,0.3H295.5z"/>
		<path class="st1" d="M241.5,34.9v14.2h-2.8c-0.2,0-0.3,0.1-0.3,0.3v9.3c0,0.2,0.1,0.3,0.3,0.3h2.8v0.4c0,1.4,1.1,2.5,2.5,2.5h34.8
			c1.4,0,2.5-1.1,2.5-2.5V59h2.8c0.2,0,0.3-0.1,0.3-0.3v-9.3c0-0.2-0.1-0.3-0.3-0.3h-2.8V34.9h2.8c0.2,0,0.3-0.1,0.3-0.3v-9.3
			c0-0.2-0.1-0.3-0.3-0.3h-2.8v-0.4c0-1.4-1.1-2.5-2.5-2.5H244c-1.4,0-2.5,1.1-2.5,2.5v0.4h-2.8c-0.2,0-0.3,0.1-0.3,0.3v9.3
			c0,0.2,0.1,0.3,0.3,0.3H241.5z"/>
		<path class="st1" d="M241.3,88.9v14.2h-2.8c-0.2,0-0.3,0.1-0.3,0.3v9.3c0,0.2,0.1,0.3,0.3,0.3h2.8v0.4c0,1.4,1.1,2.5,2.5,2.5h34.8
			c1.4,0,2.5-1.1,2.5-2.5V113h2.8c0.2,0,0.3-0.1,0.3-0.3v-9.3c0-0.2-0.1-0.3-0.3-0.3h-2.8V88.9h2.8c0.2,0,0.3-0.1,0.3-0.3v-9.3
			c0-0.2-0.1-0.3-0.3-0.3h-2.8v-0.4c0-1.4-1.1-2.5-2.5-2.5h-34.8c-1.4,0-2.5,1.1-2.5,2.5v0.4h-2.8c-0.2,0-0.3,0.1-0.3,0.3v9.3
			c0,0.2,0.1,0.3,0.3,0.3H241.3z"/>
		<path class="st1" d="M241.5,196.9v14.2h-2.8c-0.2,0-0.3,0.1-0.3,0.3v9.3c0,0.2,0.1,0.3,0.3,0.3h2.8v0.4c0,1.4,1.1,2.5,2.5,2.5
			h34.8c1.4,0,2.5-1.1,2.5-2.5V221h2.8c0.2,0,0.3-0.1,0.3-0.3v-9.3c0-0.2-0.1-0.3-0.3-0.3h-2.8v-14.2h2.8c0.2,0,0.3-0.1,0.3-0.3
			v-9.3c0-0.2-0.1-0.3-0.3-0.3h-2.8v-0.4c0-1.4-1.1-2.5-2.5-2.5H244c-1.4,0-2.5,1.1-2.5,2.5v0.4h-2.8c-0.2,0-0.3,0.1-0.3,0.3v9.3
			c0,0.2,0.1,0.3,0.3,0.3H241.5z"/>
		<path class="st1" d="M295.5,148.3v14.2h-2.8c-0.2,0-0.3,0.1-0.3,0.3v9.3c0,0.2,0.1,0.3,0.3,0.3h2.8v0.4c0,1.4,1.1,2.5,2.5,2.5
			h34.8c1.4,0,2.5-1.1,2.5-2.5v-0.4h2.8c0.2,0,0.3-0.1,0.3-0.3v-9.3c0-0.2-0.1-0.3-0.3-0.3h-2.8v-14.2h2.8c0.2,0,0.3-0.1,0.3-0.3
			v-9.3c0-0.2-0.1-0.3-0.3-0.3h-2.8V138c0-1.4-1.1-2.5-2.5-2.5H298c-1.4,0-2.5,1.1-2.5,2.5v0.4h-2.8c-0.2,0-0.3,0.1-0.3,0.3v9.3
			c0,0.2,0.1,0.3,0.3,0.3H295.5z"/>
		<path class="st1" d="M295.5,202.3v14.2h-2.8c-0.2,0-0.3,0.1-0.3,0.3v9.3c0,0.2,0.1,0.3,0.3,0.3h2.8v0.4c0,1.4,1.1,2.5,2.5,2.5
			h34.8c1.4,0,2.5-1.1,2.5-2.5v-0.4h2.8c0.2,0,0.3-0.1,0.3-0.3v-9.3c0-0.2-0.1-0.3-0.3-0.3h-2.8v-14.2h2.8c0.2,0,0.3-0.1,0.3-0.3
			v-9.3c0-0.2-0.1-0.3-0.3-0.3h-2.8V192c0-1.4-1.1-2.5-2.5-2.5H298c-1.4,0-2.5,1.1-2.5,2.5v0.4h-2.8c-0.2,0-0.3,0.1-0.3,0.3v9.3
			c0,0.2,0.1,0.3,0.3,0.3H295.5z"/>
		<path class="st1" d="M187.5,27.6v14.2h-2.8c-0.2,0-0.3,0.1-0.3,0.3v9.3c0,0.2,0.1,0.3,0.3,0.3h2.8v0.4c0,1.4,1.1,2.5,2.5,2.5h34.8
			c1.4,0,2.5-1.1,2.5-2.5v-0.4h2.8c0.2,0,0.3-0.1,0.3-0.3v-9.3c0-0.2-0.1-0.3-0.3-0.3h-2.8V27.6h2.8c0.2,0,0.3-0.1,0.3-0.3V18
			c0-0.2-0.1-0.3-0.3-0.3h-2.8v-0.4c0-1.4-1.1-2.5-2.5-2.5H190c-1.4,0-2.5,1.1-2.5,2.5v0.4h-2.8c-0.2,0-0.3,0.1-0.3,0.3v9.3
			c0,0.2,0.1,0.3,0.3,0.3H187.5z"/>
		<path class="st1" d="M187.5,81.6v14.2h-2.8c-0.2,0-0.3,0.1-0.3,0.3v9.3c0,0.2,0.1,0.3,0.3,0.3h2.8v0.4c0,1.4,1.1,2.5,2.5,2.5h34.8
			c1.4,0,2.5-1.1,2.5-2.5v-0.4h2.8c0.2,0,0.3-0.1,0.3-0.3v-9.3c0-0.2-0.1-0.3-0.3-0.3h-2.8V81.6h2.8c0.2,0,0.3-0.1,0.3-0.3V72
			c0-0.2-0.1-0.3-0.3-0.3h-2.8v-0.4c0-1.4-1.1-2.5-2.5-2.5H190c-1.4,0-2.5,1.1-2.5,2.5v0.4h-2.8c-0.2,0-0.3,0.1-0.3,0.3v9.3
			c0,0.2,0.1,0.3,0.3,0.3H187.5z"/>
		<path class="st1" d="M187.1,135.7V150h-2.8c-0.2,0-0.3,0.1-0.3,0.3v9.3c0,0.2,0.1,0.3,0.3,0.3h2.8v0.4c0,1.4,1.1,2.5,2.5,2.5h34.8
			c1.4,0,2.5-1.1,2.5-2.5v-0.4h2.8c0.2,0,0.3-0.1,0.3-0.3v-9.3c0-0.2-0.1-0.3-0.3-0.3h-2.8v-14.2h2.8c0.2,0,0.3-0.1,0.3-0.3v-9.3
			c0-0.2-0.1-0.3-0.3-0.3h-2.8v-0.4c0-1.4-1.1-2.5-2.5-2.5h-34.8c-1.4,0-2.5,1.1-2.5,2.5v0.4h-2.8c-0.2,0-0.3,0.1-0.3,0.3v9.3
			c0,0.2,0.1,0.3,0.3,0.3H187.1z"/>
		<path class="st1" d="M187.5,189.7V204h-2.8c-0.2,0-0.3,0.1-0.3,0.3v9.3c0,0.2,0.1,0.3,0.3,0.3h2.8v0.4c0,1.4,1.1,2.5,2.5,2.5h34.8
			c1.4,0,2.5-1.1,2.5-2.5v-0.4h2.8c0.2,0,0.3-0.1,0.3-0.3v-9.3c0-0.2-0.1-0.3-0.3-0.3h-2.8v-14.2h2.8c0.2,0,0.3-0.1,0.3-0.3v-9.3
			c0-0.2-0.1-0.3-0.3-0.3h-2.8v-0.4c0-1.4-1.1-2.5-2.5-2.5H190c-1.4,0-2.5,1.1-2.5,2.5v0.4h-2.8c-0.2,0-0.3,0.1-0.3,0.3v9.3
			c0,0.2,0.1,0.3,0.3,0.3H187.5z"/>
		<path class="st1" d="M133.5,34.9v14.2h-2.8c-0.2,0-0.3,0.1-0.3,0.3v9.3c0,0.2,0.1,0.3,0.3,0.3h2.8v0.4c0,1.4,1.1,2.5,2.5,2.5h34.8
			c1.4,0,2.5-1.1,2.5-2.5V59h2.8c0.2,0,0.3-0.1,0.3-0.3v-9.3c0-0.2-0.1-0.3-0.3-0.3h-2.8V34.9h2.8c0.2,0,0.3-0.1,0.3-0.3v-9.3
			c0-0.2-0.1-0.3-0.3-0.3h-2.8v-0.4c0-1.4-1.1-2.5-2.5-2.5H136c-1.4,0-2.5,1.1-2.5,2.5v0.4h-2.8c-0.2,0-0.3,0.1-0.3,0.3v9.3
			c0,0.2,0.1,0.3,0.3,0.3H133.5z"/>
		<path class="st1" d="M133.6,88.6v14.2h-2.8c-0.2,0-0.3,0.1-0.3,0.3v9.3c0,0.2,0.1,0.3,0.3,0.3h2.8v0.4c0,1.4,1.1,2.5,2.5,2.5H171
			c1.4,0,2.5-1.1,2.5-2.5v-0.4h2.8c0.2,0,0.3-0.1,0.3-0.3v-9.3c0-0.2-0.1-0.3-0.3-0.3h-2.8V88.6h2.8c0.2,0,0.3-0.1,0.3-0.3v-9.3
			c0-0.2-0.1-0.3-0.3-0.3h-2.8v-0.4c0-1.4-1.1-2.5-2.5-2.5h-34.8c-1.4,0-2.5,1.1-2.5,2.5v0.4h-2.8c-0.2,0-0.3,0.1-0.3,0.3v9.3
			c0,0.2,0.1,0.3,0.3,0.3H133.6z"/>
		<path class="st1" d="M133.5,142.9v14.2h-2.8c-0.2,0-0.3,0.1-0.3,0.3v9.3c0,0.2,0.1,0.3,0.3,0.3h2.8v0.4c0,1.4,1.1,2.5,2.5,2.5
			h34.8c1.4,0,2.5-1.1,2.5-2.5V167h2.8c0.2,0,0.3-0.1,0.3-0.3v-9.3c0-0.2-0.1-0.3-0.3-0.3h-2.8v-14.2h2.8c0.2,0,0.3-0.1,0.3-0.3
			v-9.3c0-0.2-0.1-0.3-0.3-0.3h-2.8v-0.4c0-1.4-1.1-2.5-2.5-2.5H136c-1.4,0-2.5,1.1-2.5,2.5v0.4h-2.8c-0.2,0-0.3,0.1-0.3,0.3v9.3
			c0,0.2,0.1,0.3,0.3,0.3H133.5z"/>
		<path class="st1" d="M133.5,196.9v14.2h-2.8c-0.2,0-0.3,0.1-0.3,0.3v9.3c0,0.2,0.1,0.3,0.3,0.3h2.8v0.4c0,1.4,1.1,2.5,2.5,2.5
			h34.8c1.4,0,2.5-1.1,2.5-2.5V221h2.8c0.2,0,0.3-0.1,0.3-0.3v-9.3c0-0.2-0.1-0.3-0.3-0.3h-2.8v-14.2h2.8c0.2,0,0.3-0.1,0.3-0.3
			v-9.3c0-0.2-0.1-0.3-0.3-0.3h-2.8v-0.4c0-1.4-1.1-2.5-2.5-2.5H136c-1.4,0-2.5,1.1-2.5,2.5v0.4h-2.8c-0.2,0-0.3,0.1-0.3,0.3v9.3
			c0,0.2,0.1,0.3,0.3,0.3H133.5z"/>
		<path class="st1" d="M79.5,47.5v14.2h-2.8c-0.2,0-0.3,0.1-0.3,0.3v9.3c0,0.2,0.1,0.3,0.3,0.3h2.8v0.4c0,1.4,1.1,2.5,2.5,2.5h34.8
			c1.4,0,2.5-1.1,2.5-2.5v-0.4h2.8c0.2,0,0.3-0.1,0.3-0.3v-9.3c0-0.2-0.1-0.3-0.3-0.3h-2.8V47.5h2.8c0.2,0,0.3-0.1,0.3-0.3V38
			c0-0.2-0.1-0.3-0.3-0.3h-2.8v-0.4c0-1.4-1.1-2.5-2.5-2.5H82c-1.4,0-2.5,1.1-2.5,2.5v0.4h-2.8c-0.2,0-0.3,0.1-0.3,0.3v9.3
			c0,0.2,0.1,0.3,0.3,0.3H79.5z"/>
		<path class="st1" d="M79.5,101.5v14.2h-2.8c-0.2,0-0.3,0.1-0.3,0.3v9.3c0,0.2,0.1,0.3,0.3,0.3h2.8v0.4c0,1.4,1.1,2.5,2.5,2.5h34.8
			c1.4,0,2.5-1.1,2.5-2.5v-0.4h2.8c0.2,0,0.3-0.1,0.3-0.3v-9.3c0-0.2-0.1-0.3-0.3-0.3h-2.8v-14.2h2.8c0.2,0,0.3-0.1,0.3-0.3V92
			c0-0.2-0.1-0.3-0.3-0.3h-2.8v-0.4c0-1.4-1.1-2.5-2.5-2.5H82c-1.4,0-2.5,1.1-2.5,2.5v0.4h-2.8c-0.2,0-0.3,0.1-0.3,0.3v9.3
			c0,0.2,0.1,0.3,0.3,0.3H79.5z"/>
		<path class="st1" d="M79.5,155.5v14.2h-2.8c-0.2,0-0.3,0.1-0.3,0.3v9.3c0,0.2,0.1,0.3,0.3,0.3h2.8v0.4c0,1.4,1.1,2.5,2.5,2.5h34.8
			c1.4,0,2.5-1.1,2.5-2.5v-0.4h2.8c0.2,0,0.3-0.1,0.3-0.3v-9.3c0-0.2-0.1-0.3-0.3-0.3h-2.8v-14.2h2.8c0.2,0,0.3-0.1,0.3-0.3V146
			c0-0.2-0.1-0.3-0.3-0.3h-2.8v-0.4c0-1.4-1.1-2.5-2.5-2.5H82c-1.4,0-2.5,1.1-2.5,2.5v0.4h-2.8c-0.2,0-0.3,0.1-0.3,0.3v9.3
			c0,0.2,0.1,0.3,0.3,0.3H79.5z"/>
		<path class="st1" d="M79.5,209.5v14.2l-1.4,0c-0.2,0-0.3,0.1-0.3,0.3v9.3c0,0.2,0.1,0.3,0.3,0.3l1.4,0v0.4c0,1.4,1.1,2.5,2.5,2.5
			h34.8c1.4,0,2.5-1.1,2.5-2.5v-0.4h2.8c0.2,0,0.3-0.1,0.3-0.3v-9.3c0-0.2-0.1-0.3-0.3-0.3h-2.8v-14.2h2.8c0.2,0,0.3-0.1,0.3-0.3
			V200c0-0.2-0.1-0.3-0.3-0.3h-2.8v-0.4c0-1.4-1.1-2.5-2.5-2.5H82c-1.4,0-2.5,1.1-2.5,2.5v0.4h-2.8c-0.2,0-0.3,0.1-0.3,0.3v9.3
			c0,0.2,0.1,0.3,0.3,0.3H79.5z"/>
		<path class="st1" d="M18.3,47.5v14.2h-2.8c-0.2,0-0.3,0.1-0.3,0.3v9.3c0,0.2,0.1,0.3,0.3,0.3h2.8v0.4c0,1.4,1.1,2.5,2.5,2.5h34.8
			c1.4,0,2.5-1.1,2.5-2.5v-0.4h2.8c0.2,0,0.3-0.1,0.3-0.3v-9.3c0-0.2-0.1-0.3-0.3-0.3h-2.8V47.5h2.8c0.2,0,0.3-0.1,0.3-0.3V38
			c0-0.2-0.1-0.3-0.3-0.3h-2.8v-0.4c0-1.4-1.1-2.5-2.5-2.5H20.8c-1.4,0-2.5,1.1-2.5,2.5v0.4h-2.8c-0.2,0-0.3,0.1-0.3,0.3v9.3
			c0,0.2,0.1,0.3,0.3,0.3H18.3z"/>
		<path class="st1" d="M18.1,101.5v14.2h-2.8c-0.2,0-0.3,0.1-0.3,0.3v9.3c0,0.2,0.1,0.3,0.3,0.3h2.8v0.4c0,1.4,1.1,2.5,2.5,2.5h34.8
			c1.4,0,2.5-1.1,2.5-2.5v-0.4h2.8c0.2,0,0.3-0.1,0.3-0.3v-9.3c0-0.2-0.1-0.3-0.3-0.3H58v-14.2h2.8c0.2,0,0.3-0.1,0.3-0.3V92
			c0-0.2-0.1-0.3-0.3-0.3H58v-0.4c0-1.4-1.1-2.5-2.5-2.5H20.6c-1.4,0-2.5,1.1-2.5,2.5v0.4h-2.8c-0.2,0-0.3,0.1-0.3,0.3v9.3
			c0,0.2,0.1,0.3,0.3,0.3H18.1z"/>
		<path class="st1" d="M18.1,155.5v14.2h-2.8c-0.2,0-0.3,0.1-0.3,0.3v9.3c0,0.2,0.1,0.3,0.3,0.3h2.8v0.4c0,1.4,1.1,2.5,2.5,2.5h34.8
			c1.4,0,2.5-1.1,2.5-2.5v-0.4h2.8c0.2,0,0.3-0.1,0.3-0.3v-9.3c0-0.2-0.1-0.3-0.3-0.3H58v-14.2h2.8c0.2,0,0.3-0.1,0.3-0.3V146
			c0-0.2-0.1-0.3-0.3-0.3H58v-0.4c0-1.4-1.1-2.5-2.5-2.5H20.6c-1.4,0-2.5,1.1-2.5,2.5v0.4h-2.8c-0.2,0-0.3,0.1-0.3,0.3v9.3
			c0,0.2,0.1,0.3,0.3,0.3H18.1z"/>
		<path class="st1" d="M18.1,209.9v14.2h-2.8c-0.2,0-0.3,0.1-0.3,0.3v9.3c0,0.2,0.1,0.3,0.3,0.3h2.8v0.4c0,1.4,1.1,2.5,2.5,2.5h34.8
			c1.4,0,2.5-1.1,2.5-2.5V234h2.8c0.2,0,0.3-0.1,0.3-0.3v-9.3c0-0.2-0.1-0.3-0.3-0.3H58v-14.2h2.8c0.2,0,0.3-0.1,0.3-0.3v-9.3
			c0-0.2-0.1-0.3-0.3-0.3H58v-0.4c0-1.4-1.1-2.5-2.5-2.5H20.6c-1.4,0-2.5,1.1-2.5,2.5v0.4h-2.8c-0.2,0-0.3,0.1-0.3,0.3v9.3
			c0,0.2,0.1,0.3,0.3,0.3H18.1z"/>
		<path class="st1" d="M79.5,263.5v14.2h-2.8c-0.2,0-0.3,0.1-0.3,0.3v9.3c0,0.2,0.1,0.3,0.3,0.3h2.8v0.4c0,1.4,1.1,2.5,2.5,2.5h34.8
			c1.4,0,2.5-1.1,2.5-2.5v-0.4h2.8c0.2,0,0.3-0.1,0.3-0.3v-9.3c0-0.2-0.1-0.3-0.3-0.3h-2.8v-14.2h2.8c0.2,0,0.3-0.1,0.3-0.3V254
			c0-0.2-0.1-0.3-0.3-0.3h-2.8v-0.4c0-1.4-1.1-2.5-2.5-2.5H82c-1.4,0-2.5,1.1-2.5,2.5v0.4h-2.8c-0.2,0-0.3,0.1-0.3,0.3v9.3
			c0,0.2,0.1,0.3,0.3,0.3H79.5z"/>
		<path class="st1" d="M25.5,263.7v14.2h-2.8c-0.2,0-0.3,0.1-0.3,0.3v9.3c0,0.2,0.1,0.3,0.3,0.3h2.8v0.4c0,1.4,1.1,2.5,2.5,2.5h34.8
			c1.4,0,2.5-1.1,2.5-2.5v-0.4h2.8c0.2,0,0.3-0.1,0.3-0.3v-9.3c0-0.2-0.1-0.3-0.3-0.3h-2.8v-14.2h2.8c0.2,0,0.3-0.1,0.3-0.3v-9.3
			c0-0.2-0.1-0.3-0.3-0.3h-2.8v-0.4c0-1.4-1.1-2.5-2.5-2.5H28c-1.4,0-2.5,1.1-2.5,2.5v0.4h-2.8c-0.2,0-0.3,0.1-0.3,0.3v9.3
			c0,0.2,0.1,0.3,0.3,0.3H25.5z"/>
		<path class="st1" d="M362.3,162.3h14.2v2.8c0,0.2,0.1,0.3,0.3,0.3h9.3c0.2,0,0.3-0.1,0.3-0.3v-2.8h0.4c1.4,0,2.5-1.1,2.5-2.5V125
			c0-1.4-1.1-2.5-2.5-2.5h-0.4v-2.8c0-0.2-0.1-0.3-0.3-0.3h-9.3c-0.2,0-0.3,0.1-0.3,0.3v2.8h-14.2v-2.8c0-0.2-0.1-0.3-0.3-0.3h-9.3
			c-0.2,0-0.3,0.1-0.3,0.3v2.8H352c-1.4,0-2.5,1.1-2.5,2.5v34.8c0,1.4,1.1,2.5,2.5,2.5h0.4v2.8c0,0.2,0.1,0.3,0.3,0.3h9.3
			c0.2,0,0.3-0.1,0.3-0.3V162.3z"/>
		<path class="st1" d="M187.1,243.7V258h-2.8c-0.2,0-0.3,0.1-0.3,0.3v9.3c0,0.2,0.1,0.3,0.3,0.3h2.8v0.4c0,1.4,1.1,2.5,2.5,2.5h34.8
			c1.4,0,2.5-1.1,2.5-2.5v-0.4h2.8c0.2,0,0.3-0.1,0.3-0.3v-9.3c0-0.2-0.1-0.3-0.3-0.3h-2.8v-14.2h2.8c0.2,0,0.3-0.1,0.3-0.3v-9.3
			c0-0.2-0.1-0.3-0.3-0.3h-2.8v-0.4c0-1.4-1.1-2.5-2.5-2.5h-34.8c-1.4,0-2.5,1.1-2.5,2.5v0.4h-2.8c-0.2,0-0.3,0.1-0.3,0.3v9.3
			c0,0.2,0.1,0.3,0.3,0.3H187.1z"/>
		<path class="st1" d="M133.5,250.8V265h-2.8c-0.2,0-0.3,0.1-0.3,0.3v9.3c0,0.2,0.1,0.3,0.3,0.3h2.8v0.4c0,1.4,1.1,2.5,2.5,2.5h34.8
			c1.4,0,2.5-1.1,2.5-2.5v-0.4h2.8c0.2,0,0.3-0.1,0.3-0.3v-9.3c0-0.2-0.1-0.3-0.3-0.3h-2.8v-14.2h2.8c0.2,0,0.3-0.1,0.3-0.3v-9.3
			c0-0.2-0.1-0.3-0.3-0.3h-2.8v-0.4c0-1.4-1.1-2.5-2.5-2.5H136c-1.4,0-2.5,1.1-2.5,2.5v0.4h-2.8c-0.2,0-0.3,0.1-0.3,0.3v9.3
			c0,0.2,0.1,0.3,0.3,0.3H133.5z"/>
		<path class="st1" d="M241.3,142.9v14.2h-2.8c-0.2,0-0.3,0.1-0.3,0.3v9.3c0,0.2,0.1,0.3,0.3,0.3h2.8v0.4c0,1.4,1.1,2.5,2.5,2.5
			h34.8c1.4,0,2.5-1.1,2.5-2.5V167h2.8c0.2,0,0.3-0.1,0.3-0.3v-9.3c0-0.2-0.1-0.3-0.3-0.3h-2.8v-14.2h2.8c0.2,0,0.3-0.1,0.3-0.3
			v-9.3c0-0.2-0.1-0.3-0.3-0.3h-2.8v-0.4c0-1.4-1.1-2.5-2.5-2.5h-34.8c-1.4,0-2.5,1.1-2.5,2.5v0.4h-2.8c-0.2,0-0.3,0.1-0.3,0.3v9.3
			c0,0.2,0.1,0.3,0.3,0.3H241.3z"/>
		<path class="st1" d="M376.5,327.7l12.3,7.2l-1.4,2.4c-0.1,0.1,0,0.3,0.1,0.4l8,4.7c0.1,0.1,0.3,0,0.4-0.1l1.4-2.4l0.4,0.2
			c1.2,0.7,2.7,0.3,3.4-0.9l17.6-30.1c0.7-1.2,0.3-2.7-0.9-3.4l-0.4-0.2l1.4-2.4c0.1-0.1,0-0.3-0.1-0.4l-8-4.7
			c-0.1-0.1-0.3,0-0.4,0.1l-1.4,2.4l-12.3-7.2l1.4-2.4c0.1-0.1,0-0.3-0.1-0.4l-8-4.7c-0.1-0.1-0.3,0-0.4,0.1l-1.4,2.4l-0.4-0.2
			c-1.2-0.7-2.7-0.3-3.4,0.9l-17.6,30.1c-0.7,1.2-0.3,2.7,0.9,3.4l0.4,0.2l-1.4,2.4c-0.1,0.1,0,0.3,0.1,0.4l8,4.7
			c0.1,0.1,0.3,0,0.4-0.1L376.5,327.7z"/>
		<path class="st1" d="M413.7,238.1l-7.2,12.3l-2.4-1.4c-0.1-0.1-0.3,0-0.4,0.1l-4.7,8c-0.1,0.1,0,0.3,0.1,0.4l2.4,1.4l-0.2,0.4
			c-0.7,1.2-0.3,2.7,0.9,3.4l30,17.7c1.2,0.7,2.7,0.3,3.4-0.9l0.2-0.4l2.4,1.4c0.1,0.1,0.3,0,0.4-0.1l4.7-8c0.1-0.1,0-0.3-0.1-0.4
			l-2.4-1.4l7.2-12.3l2.4,1.4c0.1,0.1,0.3,0,0.4-0.1l4.7-8c0.1-0.1,0-0.3-0.1-0.4l-2.4-1.4l0.2-0.4c0.7-1.2,0.3-2.7-0.9-3.4
			l-30-17.7c-1.2-0.7-2.7-0.3-3.4,0.9l-0.2,0.4l-2.4-1.4c-0.1-0.1-0.3,0-0.4,0.1l-4.7,8c-0.1,0.1,0,0.3,0.1,0.4L413.7,238.1z"/>
		<path class="st1" d="M329.8,300.7l12.3,7.2l-1.4,2.4c-0.1,0.1,0,0.3,0.1,0.4l8,4.7c0.1,0.1,0.3,0,0.4-0.1l1.4-2.4l0.4,0.2
			c1.2,0.7,2.7,0.3,3.4-0.9l17.6-30.1c0.7-1.2,0.3-2.7-0.9-3.4l-0.4-0.2l1.4-2.4c0.1-0.1,0-0.3-0.1-0.4l-8-4.7
			c-0.1-0.1-0.3,0-0.4,0.1l-1.4,2.4l-12.3-7.2l1.4-2.4c0.1-0.1,0-0.3-0.1-0.4l-8-4.7c-0.1-0.1-0.3,0-0.4,0.1l-1.4,2.4l-0.4-0.2
			c-1.2-0.7-2.7-0.3-3.4,0.9l-17.6,30.1c-0.7,1.2-0.3,2.7,0.9,3.4l0.4,0.2l-1.4,2.4c-0.1,0.1,0,0.3,0.1,0.4l8,4.7
			c0.1,0.1,0.3,0,0.4-0.1L329.8,300.7z"/>
		<path class="st1" d="M366.4,211.2l-7.2,12.3l-2.4-1.4c-0.1-0.1-0.3,0-0.4,0.1l-4.7,8c-0.1,0.1,0,0.3,0.1,0.4l2.4,1.4l-0.2,0.4
			c-0.7,1.2-0.3,2.7,0.9,3.4l30,17.7c1.2,0.7,2.7,0.3,3.4-0.9l0.2-0.4l2.4,1.4c0.1,0.1,0.3,0,0.4-0.1l4.7-8c0.1-0.1,0-0.3-0.1-0.4
			l-2.4-1.4l7.2-12.3l2.4,1.4c0.1,0.1,0.3,0,0.4-0.1l4.7-8c0.1-0.1,0-0.3-0.1-0.4l-2.4-1.4l0.2-0.4c0.7-1.2,0.3-2.7-0.9-3.4
			l-30-17.7c-1.2-0.7-2.7-0.3-3.4,0.9l-0.2,0.4l-2.4-1.4c-0.1-0.1-0.3,0-0.4,0.1l-4.7,8c-0.1,0.1,0,0.3,0.1,0.4L366.4,211.2z"/>
		<path class="st1" d="M262,254.9l-3.7,13.8l-2.7-0.7c-0.2,0-0.3,0-0.4,0.2l-2.4,8.9c0,0.2,0,0.3,0.2,0.4l2.7,0.7l-0.1,0.4
			c-0.4,1.3,0.4,2.7,1.8,3l33.7,9c1.3,0.4,2.7-0.4,3-1.8l0.1-0.4l2.7,0.7c0.2,0,0.3-0.1,0.4-0.2l2.4-8.9c0-0.2-0.1-0.3-0.2-0.4
			l-2.7-0.7l3.7-13.8l2.7,0.7c0.2,0,0.3,0,0.4-0.2l2.4-8.9c0-0.2-0.1-0.3-0.2-0.4l-2.7-0.7l0.1-0.4c0.4-1.3-0.4-2.7-1.8-3l-33.7-9
			c-1.3-0.4-2.7,0.4-3,1.8l-0.1,0.4l-2.7-0.7c-0.2,0-0.3,0.1-0.4,0.2l-2.4,8.9c0,0.2,0,0.3,0.2,0.4L262,254.9z"/>
		<path class="st2" d="M0.8,294c0.3,0.5-1.4,7,4.2,7.4c0.6,0,97.4,0.4,119.2,0c5.4-0.1,7.3-2.3,7.5-2.4c2.9-2,7.2-8.5,7.2-8.5
			c1.5-1.7,4.6-2.7,6.9-2.7l34.1,0.1c2.1,0,3.6-0.4,5.1-1.9l0,0c1.5-1.4,2.6-4.6,4.7-4.7c0,0,17.8-0.3,25.3-0.2
			c0.5,0,5.2,0.7,6.4,1.3c0.7,0.3,54.8,16,55.5,16.2l113.8,64.6c3.8,2.3,8.8,1,11-2.8l65.9-112.6c0.7-1.2,1.1-2.6,1.1-4.1V11.3V6
			c0-4.4-0.1-5.9-4.5-5.9L5.8,0.2c-2.1,0-5.7-0.5-5.7,3.7L0.8,294z"/>
	</g>
</g>
<g id="Layer_2">
</g>
</svg>
