<?xml version="1.0" encoding="utf-8"?>
<!-- Generator: Adobe Illustrator 24.2.3, SVG Export Plug-In . SVG Version: 6.00 Build 0)  -->
<svg version="1.1" id="Layer_1" xmlns="http://www.w3.org/2000/svg" xmlns:xlink="http://www.w3.org/1999/xlink" x="0px" y="0px"
	 width="832.4px" height="658.3px" viewBox="0 0 832.4 658.3" style="enable-background:new 0 0 832.4 658.3;" xml:space="preserve"
	>
<style type="text/css">
	.st0{fill:none;stroke:#000000;stroke-width:0.25;stroke-miterlimit:10;}
	
		.st1{fill:#C2C200;fill-opacity:0;stroke:#000000;stroke-width:0.25;stroke-linecap:round;stroke-linejoin:round;stroke-miterlimit:10;}
	.st2{fill:#C2C200;fill-opacity:0;}
	.st3{fill:none;stroke:#000000;stroke-width:0.25;stroke-linecap:round;stroke-linejoin:round;stroke-miterlimit:10;}
</style>
<g id="Layer_1_1_" xmlns:svg="http://www.w3.org/2000/svg">
	<desc>Picture generated by PCBNEW</desc>
	<g transform="translate(0 0) scale(1 1)">
	</g>
	<g>
		<circle class="st0" cx="253.3" cy="383.7" r="5.7"/>
	</g>
	<g>
		<circle class="st0" cx="615.1" cy="639.6" r="5.7"/>
	</g>
	<g>
		<circle class="st0" cx="566.5" cy="427.2" r="5.7"/>
	</g>
	<g>
		<circle class="st0" cx="301.9" cy="645" r="5.7"/>
	</g>
	<path class="st1" d="M636.3,364.3c-0.3-0.5,1.4-7-4.2-7.4c-0.6,0-97.4-0.4-119.2,0c-5.4,0.1-7.3,2.3-7.5,2.4
		c-2.9,2-7.2,8.5-7.2,8.5c-1.5,1.7-4.6,2.7-6.9,2.7l-34.1-0.1c-2.1,0-3.6,0.4-5.1,1.9l0,0c-1.5,1.4-2.6,4.6-4.7,4.7
		c0,0-17.8,0.3-25.3,0.2c-0.5,0-5.2-0.7-6.4-1.3c-0.7-0.3-54.8-16-55.5-16.2l-113.8-64.6c-3.8-2.3-8.8-1-11,2.8l-65.9,112.6
		c-0.7,1.2-1.1,2.6-1.1,4.1V647v5.2c0,4.4,0.1,5.9,4.5,5.9l458.4-0.1c2.1,0,5.7,0.5,5.7-3.7L636.3,364.3z"/>
	<g>
		<g>
			<circle class="st0" cx="488.1" cy="158.3" r="5.7"/>
		</g>
		<g>
			<circle class="st0" cx="488" cy="13.4" r="5.7"/>
		</g>
		<g>
			<circle class="st0" cx="798.8" cy="288.1" r="5.7"/>
		</g>
		<g>
			<circle class="st0" cx="488" cy="288.4" r="5.7"/>
		</g>
		<g>
			<circle class="st0" cx="797.7" cy="38.2" r="5.7"/>
		</g>
		<g>
			<circle class="st0" cx="99.7" cy="13.4" r="5.7"/>
		</g>
	</g>
	<g>
		<circle class="st0" cx="21.2" cy="223.6" r="5.7"/>
	</g>
	<g>
		<g>
			<g>
				<path class="st2" d="M824.3,305.8H346.4c-2.3,0-4.5-1-6-2.7l-9.4-10.6c-1.5-1.7-3.7-2.7-6-2.7h-33.5c-2.1,0-4.1-0.8-5.6-2.2
					l-1.1-1c-1.5-1.4-3.4-2.2-5.4-2.2l-31.8-0.5c-0.8,0-1.5,0.1-2.2,0.3L176,303c-2.3,0.6-4.2,2.2-5.2,4.4l-0.8,1.7
					c-0.7,1.5-1.8,2.7-3.2,3.6l-88.7,52.5c-3.8,2.3-8.8,1-11-2.8L1.2,249.8c-0.7-1.2-1.1-2.6-1.1-4.1v-187c0-24.9,0-47.7,0-50.6l0,0
					c0-4.4,3.6-8,8-8h684.7c2.1,0,4.2,0.8,5.7,2.3L715,19c1.5,1.5,3.5,2.3,5.7,2.3h82.8c2,0,3.9,0.8,5.4,2.1l20.9,19.1
					c1.7,1.5,2.6,3.7,2.6,5.9v249.3C832.3,302.2,828.7,305.8,824.3,305.8z"/>
				<path class="st3" d="M824.3,305.8H346.4c-2.3,0-4.5-1-6-2.7l-9.4-10.6c-1.5-1.7-3.7-2.7-6-2.7h-33.5c-2.1,0-4.1-0.8-5.6-2.2
					l-1.1-1c-1.5-1.4-3.4-2.2-5.4-2.2l-31.8-0.5c-0.8,0-1.5,0.1-2.2,0.3L176,303c-2.3,0.6-4.2,2.2-5.2,4.4l-0.8,1.7
					c-0.7,1.5-1.8,2.7-3.2,3.6l-88.7,52.5c-3.8,2.3-8.8,1-11-2.8L1.2,249.8c-0.7-1.2-1.1-2.6-1.1-4.1v-187c0-24.9,0-47.7,0-50.6l0,0
					c0-4.4,3.6-8,8-8h684.7c2.1,0,4.2,0.8,5.7,2.3L715,19c1.5,1.5,3.5,2.3,5.7,2.3h82.8c2,0,3.9,0.8,5.4,2.1l20.9,19.1
					c1.7,1.5,2.6,3.7,2.6,5.9v249.3C832.3,302.2,828.7,305.8,824.3,305.8z"/>
			</g>
		</g>
	</g>
</g>
<g id="Layer_2_1_">
</g>
</svg>
