<?xml version="1.0" encoding="utf-8"?>
<!-- Generator: Adobe Illustrator 24.2.3, SVG Export Plug-In . SVG Version: 6.00 Build 0)  -->
<svg version="1.1" id="Layer_1" xmlns="http://www.w3.org/2000/svg" xmlns:xlink="http://www.w3.org/1999/xlink" x="0px" y="0px"
	 viewBox="0 0 836.5 658.3" style="enable-background:new 0 0 836.5 658.3;" xml:space="preserve">
<style type="text/css">
	.st0{fill:none;stroke:#000000;stroke-width:0.25;stroke-miterlimit:10;}
	.st1{fill:none;stroke:#000000;stroke-width:0.25;stroke-linecap:round;stroke-linejoin:round;stroke-miterlimit:10;}
</style>
<g id="Layer_1_1_" xmlns:svg="http://www.w3.org/2000/svg">
	<desc>Picture generated by PCBNEW</desc>
	<g transform="translate(0 0) scale(1 1)">
	</g>
	<g>
		<g>
			<circle class="st0" cx="257.3" cy="383.7" r="5.7"/>
		</g>
		<g>
			<circle class="st0" cx="619.1" cy="639.6" r="5.7"/>
		</g>
		<g>
			<circle class="st0" cx="570.5" cy="427.2" r="5.7"/>
		</g>
		<g>
			<circle class="st0" cx="305.9" cy="645" r="5.7"/>
		</g>
		<path class="st1" d="M291.9,591v-14.2h2.8c0.2,0,0.3-0.1,0.3-0.3v-9.3c0-0.2-0.1-0.3-0.3-0.3h-2.8v-0.4c0-1.4-1.1-2.5-2.5-2.5
			h-34.8c-1.4,0-2.5,1.1-2.5,2.5v0.4h-2.8c-0.2,0-0.3,0.1-0.3,0.3v9.3c0,0.2,0.1,0.3,0.3,0.3h2.8V591h-2.8c-0.2,0-0.3,0.1-0.3,0.3
			v9.3c0,0.2,0.1,0.3,0.3,0.3h2.8v0.4c0,1.4,1.1,2.5,2.5,2.5h34.8c1.4,0,2.5-1.1,2.5-2.5v-0.4h2.8c0.2,0,0.3-0.1,0.3-0.3v-9.3
			c0-0.2-0.1-0.3-0.3-0.3H291.9z"/>
		<path class="st1" d="M345.6,618v-14.2h2.8c0.2,0,0.3-0.1,0.3-0.3v-9.3c0-0.2-0.1-0.3-0.3-0.3h-2.8v-0.4c0-1.4-1.1-2.5-2.5-2.5
			h-34.8c-1.4,0-2.5,1.1-2.5,2.5v0.4H303c-0.2,0-0.3,0.1-0.3,0.3v9.3c0,0.2,0.1,0.3,0.3,0.3h2.8V618H303c-0.2,0-0.3,0.1-0.3,0.3v9.3
			c0,0.2,0.1,0.3,0.3,0.3h2.8v0.4c0,1.4,1.1,2.5,2.5,2.5h34.8c1.4,0,2.5-1.1,2.5-2.5v-0.4h2.8c0.2,0,0.3-0.1,0.3-0.3v-9.3
			c0-0.2-0.1-0.3-0.3-0.3H345.6z"/>
		<path class="st1" d="M345.6,564.2V550h2.8c0.2,0,0.3-0.1,0.3-0.3v-9.3c0-0.2-0.1-0.3-0.3-0.3h-2.8v-0.4c0-1.4-1.1-2.5-2.5-2.5
			h-34.8c-1.4,0-2.5,1.1-2.5,2.5v0.4H303c-0.2,0-0.3,0.1-0.3,0.3v9.3c0,0.2,0.1,0.3,0.3,0.3h2.8v14.2H303c-0.2,0-0.3,0.1-0.3,0.3
			v9.3c0,0.2,0.1,0.3,0.3,0.3h2.8v0.4c0,1.4,1.1,2.5,2.5,2.5h34.8c1.4,0,2.5-1.1,2.5-2.5V574h2.8c0.2,0,0.3-0.1,0.3-0.3v-9.3
			c0-0.2-0.1-0.3-0.3-0.3L345.6,564.2L345.6,564.2z"/>
		<path class="st1" d="M399.6,623.4v-14.2h2.8c0.2,0,0.3-0.1,0.3-0.3v-9.3c0-0.2-0.1-0.3-0.3-0.3h-2.8v-0.4c0-1.4-1.1-2.5-2.5-2.5
			h-34.8c-1.4,0-2.5,1.1-2.5,2.5v0.4H357c-0.2,0-0.3,0.1-0.3,0.3v9.3c0,0.2,0.1,0.3,0.3,0.3h2.8v14.2H357c-0.2,0-0.3,0.1-0.3,0.3
			v9.3c0,0.2,0.1,0.3,0.3,0.3h2.8v0.4c0,1.4,1.1,2.5,2.5,2.5h34.8c1.4,0,2.5-1.1,2.5-2.5v-0.4h2.8c0.2,0,0.3-0.1,0.3-0.3v-9.3
			c0-0.2-0.1-0.3-0.3-0.3H399.6z"/>
		<path class="st1" d="M399.8,569.4v-14.2h2.8c0.2,0,0.3-0.1,0.3-0.3v-9.3c0-0.2-0.1-0.3-0.3-0.3h-2.8v-0.4c0-1.4-1.1-2.5-2.5-2.5
			h-34.8c-1.4,0-2.5,1.1-2.5,2.5v0.4h-2.8c-0.2,0-0.3,0.1-0.3,0.3v9.3c0,0.2,0.1,0.3,0.3,0.3h2.8v14.2h-2.8c-0.2,0-0.3,0.1-0.3,0.3
			v9.3c0,0.2,0.1,0.3,0.3,0.3h2.8v0.4c0,1.4,1.1,2.5,2.5,2.5h34.8c1.4,0,2.5-1.1,2.5-2.5v-0.4h2.8c0.2,0,0.3-0.1,0.3-0.3v-9.3
			c0-0.2-0.1-0.3-0.3-0.3H399.8z"/>
		<path class="st1" d="M399.6,461.4v-14.2h2.8c0.2,0,0.3-0.1,0.3-0.3v-9.3c0-0.2-0.1-0.3-0.3-0.3h-2.8v-0.4c0-1.4-1.1-2.5-2.5-2.5
			h-34.8c-1.4,0-2.5,1.1-2.5,2.5v0.4H357c-0.2,0-0.3,0.1-0.3,0.3v9.3c0,0.2,0.1,0.3,0.3,0.3h2.8v14.2H357c-0.2,0-0.3,0.1-0.3,0.3
			v9.3c0,0.2,0.1,0.3,0.3,0.3h2.8v0.4c0,1.4,1.1,2.5,2.5,2.5h34.8c1.4,0,2.5-1.1,2.5-2.5v-0.4h2.8c0.2,0,0.3-0.1,0.3-0.3v-9.3
			c0-0.2-0.1-0.3-0.3-0.3H399.6z"/>
		<path class="st1" d="M345.6,510v-14.2h2.8c0.2,0,0.3-0.1,0.3-0.3v-9.3c0-0.2-0.1-0.3-0.3-0.3h-2.8v-0.4c0-1.4-1.1-2.5-2.5-2.5
			h-34.8c-1.4,0-2.5,1.1-2.5,2.5v0.4H303c-0.2,0-0.3,0.1-0.3,0.3v9.3c0,0.2,0.1,0.3,0.3,0.3h2.8V510H303c-0.2,0-0.3,0.1-0.3,0.3v9.3
			c0,0.2,0.1,0.3,0.3,0.3h2.8v0.4c0,1.4,1.1,2.5,2.5,2.5h34.8c1.4,0,2.5-1.1,2.5-2.5v-0.4h2.8c0.2,0,0.3-0.1,0.3-0.3v-9.3
			c0-0.2-0.1-0.3-0.3-0.3H345.6z"/>
		<path class="st1" d="M345.6,456v-14.2h2.8c0.2,0,0.3-0.1,0.3-0.3v-9.3c0-0.2-0.1-0.3-0.3-0.3h-2.8v-0.4c0-1.4-1.1-2.5-2.5-2.5
			h-34.8c-1.4,0-2.5,1.1-2.5,2.5v0.4H303c-0.2,0-0.3,0.1-0.3,0.3v9.3c0,0.2,0.1,0.3,0.3,0.3h2.8V456H303c-0.2,0-0.3,0.1-0.3,0.3v9.3
			c0,0.2,0.1,0.3,0.3,0.3h2.8v0.4c0,1.4,1.1,2.5,2.5,2.5h34.8c1.4,0,2.5-1.1,2.5-2.5v-0.4h2.8c0.2,0,0.3-0.1,0.3-0.3v-9.3
			c0-0.2-0.1-0.3-0.3-0.3H345.6z"/>
		<path class="st1" d="M453.6,630.7v-14.2h2.8c0.2,0,0.3-0.1,0.3-0.3v-9.3c0-0.2-0.1-0.3-0.3-0.3h-2.8v-0.4c0-1.4-1.1-2.5-2.5-2.5
			h-34.8c-1.4,0-2.5,1.1-2.5,2.5v0.4H411c-0.2,0-0.3,0.1-0.3,0.3v9.3c0,0.2,0.1,0.3,0.3,0.3h2.8v14.2H411c-0.2,0-0.3,0.1-0.3,0.3
			v9.3c0,0.2,0.1,0.3,0.3,0.3h2.8v0.4c0,1.4,1.1,2.5,2.5,2.5h34.8c1.4,0,2.5-1.1,2.5-2.5v-0.4h2.8c0.2,0,0.3-0.1,0.3-0.3V631
			c0-0.2-0.1-0.3-0.3-0.3H453.6z"/>
		<path class="st1" d="M453.6,576.7v-14.2h2.8c0.2,0,0.3-0.1,0.3-0.3v-9.3c0-0.2-0.1-0.3-0.3-0.3h-2.8v-0.4c0-1.4-1.1-2.5-2.5-2.5
			h-34.8c-1.4,0-2.5,1.1-2.5,2.5v0.4H411c-0.2,0-0.3,0.1-0.3,0.3v9.3c0,0.2,0.1,0.3,0.3,0.3h2.8v14.2H411c-0.2,0-0.3,0.1-0.3,0.3
			v9.3c0,0.2,0.1,0.3,0.3,0.3h2.8v0.4c0,1.4,1.1,2.5,2.5,2.5h34.8c1.4,0,2.5-1.1,2.5-2.5v-0.4h2.8c0.2,0,0.3-0.1,0.3-0.3V577
			c0-0.2-0.1-0.3-0.3-0.3H453.6z"/>
		<path class="st1" d="M454.1,522.6v-14.2h2.8c0.2,0,0.3-0.1,0.3-0.3v-9.3c0-0.2-0.1-0.3-0.3-0.3h-2.8V498c0-1.4-1.1-2.5-2.5-2.5
			h-34.8c-1.4,0-2.5,1.1-2.5,2.5v0.4h-2.8c-0.2,0-0.3,0.1-0.3,0.3v9.3c0,0.2,0.1,0.3,0.3,0.3h2.8v14.2h-2.8c-0.2,0-0.3,0.1-0.3,0.3
			v9.3c0,0.2,0.1,0.3,0.3,0.3h2.8v0.4c0,1.4,1.1,2.5,2.5,2.5h34.8c1.4,0,2.5-1.1,2.5-2.5v-0.4h2.8c0.2,0,0.3-0.1,0.3-0.3v-9.3
			c0-0.2-0.1-0.3-0.3-0.3h-2.8V522.6z"/>
		<path class="st1" d="M453.6,468.6v-14.2h2.8c0.2,0,0.3-0.1,0.3-0.3v-9.3c0-0.2-0.1-0.3-0.3-0.3h-2.8V444c0-1.4-1.1-2.5-2.5-2.5
			h-34.8c-1.4,0-2.5,1.1-2.5,2.5v0.4H411c-0.2,0-0.3,0.1-0.3,0.3v9.3c0,0.2,0.1,0.3,0.3,0.3h2.8v14.2H411c-0.2,0-0.3,0.1-0.3,0.3
			v9.3c0,0.2,0.1,0.3,0.3,0.3h2.8v0.4c0,1.4,1.1,2.5,2.5,2.5h34.8c1.4,0,2.5-1.1,2.5-2.5v-0.4h2.8c0.2,0,0.3-0.1,0.3-0.3v-9.3
			c0-0.2-0.1-0.3-0.3-0.3h-2.8V468.6z"/>
		<path class="st1" d="M507.6,623.4v-14.2h2.8c0.2,0,0.3-0.1,0.3-0.3v-9.3c0-0.2-0.1-0.3-0.3-0.3h-2.8v-0.4c0-1.4-1.1-2.5-2.5-2.5
			h-34.8c-1.4,0-2.5,1.1-2.5,2.5v0.4H465c-0.2,0-0.3,0.1-0.3,0.3v9.3c0,0.2,0.1,0.3,0.3,0.3h2.8v14.2H465c-0.2,0-0.3,0.1-0.3,0.3
			v9.3c0,0.2,0.1,0.3,0.3,0.3h2.8v0.4c0,1.4,1.1,2.5,2.5,2.5h34.8c1.4,0,2.5-1.1,2.5-2.5v-0.4h2.8c0.2,0,0.3-0.1,0.3-0.3v-9.3
			c0-0.2-0.1-0.3-0.3-0.3H507.6z"/>
		<path class="st1" d="M507.5,569.7v-14.2h2.8c0.2,0,0.3-0.1,0.3-0.3v-9.3c0-0.2-0.1-0.3-0.3-0.3h-2.8v-0.4c0-1.4-1.1-2.5-2.5-2.5
			h-34.8c-1.4,0-2.5,1.1-2.5,2.5v0.4h-2.8c-0.2,0-0.3,0.1-0.3,0.3v9.3c0,0.2,0.1,0.3,0.3,0.3h2.8v14.2h-2.8c-0.2,0-0.3,0.1-0.3,0.3
			v9.3c0,0.2,0.1,0.3,0.3,0.3h2.8v0.4c0,1.4,1.1,2.5,2.5,2.5H505c1.4,0,2.5-1.1,2.5-2.5v-0.4h2.8c0.2,0,0.3-0.1,0.3-0.3V570
			c0-0.2-0.1-0.3-0.3-0.3H507.5z"/>
		<path class="st1" d="M507.6,515.4v-14.2h2.8c0.2,0,0.3-0.1,0.3-0.3v-9.3c0-0.2-0.1-0.3-0.3-0.3h-2.8v-0.4c0-1.4-1.1-2.5-2.5-2.5
			h-34.8c-1.4,0-2.5,1.1-2.5,2.5v0.4H465c-0.2,0-0.3,0.1-0.3,0.3v9.3c0,0.2,0.1,0.3,0.3,0.3h2.8v14.2H465c-0.2,0-0.3,0.1-0.3,0.3
			v9.3c0,0.2,0.1,0.3,0.3,0.3h2.8v0.4c0,1.4,1.1,2.5,2.5,2.5h34.8c1.4,0,2.5-1.1,2.5-2.5v-0.4h2.8c0.2,0,0.3-0.1,0.3-0.3v-9.3
			c0-0.2-0.1-0.3-0.3-0.3H507.6z"/>
		<path class="st1" d="M507.6,461.4v-14.2h2.8c0.2,0,0.3-0.1,0.3-0.3v-9.3c0-0.2-0.1-0.3-0.3-0.3h-2.8v-0.4c0-1.4-1.1-2.5-2.5-2.5
			h-34.8c-1.4,0-2.5,1.1-2.5,2.5v0.4H465c-0.2,0-0.3,0.1-0.3,0.3v9.3c0,0.2,0.1,0.3,0.3,0.3h2.8v14.2H465c-0.2,0-0.3,0.1-0.3,0.3
			v9.3c0,0.2,0.1,0.3,0.3,0.3h2.8v0.4c0,1.4,1.1,2.5,2.5,2.5h34.8c1.4,0,2.5-1.1,2.5-2.5v-0.4h2.8c0.2,0,0.3-0.1,0.3-0.3v-9.3
			c0-0.2-0.1-0.3-0.3-0.3H507.6z"/>
		<path class="st1" d="M561.6,610.8v-14.2h2.8c0.2,0,0.3-0.1,0.3-0.3V587c0-0.2-0.1-0.3-0.3-0.3h-2.8v-0.4c0-1.4-1.1-2.5-2.5-2.5
			h-34.8c-1.4,0-2.5,1.1-2.5,2.5v0.4H519c-0.2,0-0.3,0.1-0.3,0.3v9.3c0,0.2,0.1,0.3,0.3,0.3h2.8v14.2H519c-0.2,0-0.3,0.1-0.3,0.3
			v9.3c0,0.2,0.1,0.3,0.3,0.3h2.8v0.4c0,1.4,1.1,2.5,2.5,2.5h34.8c1.4,0,2.5-1.1,2.5-2.5v-0.4h2.8c0.2,0,0.3-0.1,0.3-0.3v-9.3
			c0-0.2-0.1-0.3-0.3-0.3H561.6z"/>
		<path class="st1" d="M561.6,556.8v-14.2h2.8c0.2,0,0.3-0.1,0.3-0.3V533c0-0.2-0.1-0.3-0.3-0.3h-2.8v-0.4c0-1.4-1.1-2.5-2.5-2.5
			h-34.8c-1.4,0-2.5,1.1-2.5,2.5v0.4H519c-0.2,0-0.3,0.1-0.3,0.3v9.3c0,0.2,0.1,0.3,0.3,0.3h2.8v14.2H519c-0.2,0-0.3,0.1-0.3,0.3
			v9.3c0,0.2,0.1,0.3,0.3,0.3h2.8v0.4c0,1.4,1.1,2.5,2.5,2.5h34.8c1.4,0,2.5-1.1,2.5-2.5v-0.4h2.8c0.2,0,0.3-0.1,0.3-0.3v-9.3
			c0-0.2-0.1-0.3-0.3-0.3H561.6z"/>
		<path class="st1" d="M561.6,502.8v-14.2h2.8c0.2,0,0.3-0.1,0.3-0.3V479c0-0.2-0.1-0.3-0.3-0.3h-2.8v-0.4c0-1.4-1.1-2.5-2.5-2.5
			h-34.8c-1.4,0-2.5,1.1-2.5,2.5v0.4H519c-0.2,0-0.3,0.1-0.3,0.3v9.3c0,0.2,0.1,0.3,0.3,0.3h2.8v14.2H519c-0.2,0-0.3,0.1-0.3,0.3
			v9.3c0,0.2,0.1,0.3,0.3,0.3h2.8v0.4c0,1.4,1.1,2.5,2.5,2.5h34.8c1.4,0,2.5-1.1,2.5-2.5v-0.4h2.8c0.2,0,0.3-0.1,0.3-0.3v-9.3
			c0-0.2-0.1-0.3-0.3-0.3H561.6z"/>
		<path class="st1" d="M561.6,448.8v-14.2l0.2,0c0.2,0,0.3-0.1,0.3-0.3V425c0-0.2-0.1-0.3-0.3-0.3l-0.2,0v-0.4
			c0-1.4-1.1-2.5-2.5-2.5h-34.8c-1.4,0-2.5,1.1-2.5,2.5v0.4H519c-0.2,0-0.3,0.1-0.3,0.3v9.3c0,0.2,0.1,0.3,0.3,0.3h2.8v14.2H519
			c-0.2,0-0.3,0.1-0.3,0.3v9.3c0,0.2,0.1,0.3,0.3,0.3h2.8v0.4c0,1.4,1.1,2.5,2.5,2.5h34.8c1.4,0,2.5-1.1,2.5-2.5v-0.4h2.8
			c0.2,0,0.3-0.1,0.3-0.3v-9.3c0-0.2-0.1-0.3-0.3-0.3H561.6z"/>
		<path class="st1" d="M622.8,610.8v-14.2h2.8c0.2,0,0.3-0.1,0.3-0.3V587c0-0.2-0.1-0.3-0.3-0.3h-2.8v-0.4c0-1.4-1.1-2.5-2.5-2.5
			h-34.8c-1.4,0-2.5,1.1-2.5,2.5v0.4h-2.8c-0.2,0-0.3,0.1-0.3,0.3v9.3c0,0.2,0.1,0.3,0.3,0.3h2.8v14.2h-2.8c-0.2,0-0.3,0.1-0.3,0.3
			v9.3c0,0.2,0.1,0.3,0.3,0.3h2.8v0.4c0,1.4,1.1,2.5,2.5,2.5h34.8c1.4,0,2.5-1.1,2.5-2.5v-0.4h2.8c0.2,0,0.3-0.1,0.3-0.3v-9.3
			c0-0.2-0.1-0.3-0.3-0.3H622.8z"/>
		<path class="st1" d="M623,556.8v-14.2h2.8c0.2,0,0.3-0.1,0.3-0.3V533c0-0.2-0.1-0.3-0.3-0.3H623v-0.4c0-1.4-1.1-2.5-2.5-2.5h-34.8
			c-1.4,0-2.5,1.1-2.5,2.5v0.4h-2.8c-0.2,0-0.3,0.1-0.3,0.3v9.3c0,0.2,0.1,0.3,0.3,0.3h2.8v14.2h-2.8c-0.2,0-0.3,0.1-0.3,0.3v9.3
			c0,0.2,0.1,0.3,0.3,0.3h2.8v0.4c0,1.4,1.1,2.5,2.5,2.5h34.8c1.4,0,2.5-1.1,2.5-2.5v-0.4h2.8c0.2,0,0.3-0.1,0.3-0.3v-9.3
			c0-0.2-0.1-0.3-0.3-0.3H623z"/>
		<path class="st1" d="M623,502.8v-14.2h2.8c0.2,0,0.3-0.1,0.3-0.3V479c0-0.2-0.1-0.3-0.3-0.3H623v-0.4c0-1.4-1.1-2.5-2.5-2.5h-34.8
			c-1.4,0-2.5,1.1-2.5,2.5v0.4h-2.8c-0.2,0-0.3,0.1-0.3,0.3v9.3c0,0.2,0.1,0.3,0.3,0.3h2.8v14.2h-2.8c-0.2,0-0.3,0.1-0.3,0.3v9.3
			c0,0.2,0.1,0.3,0.3,0.3h2.8v0.4c0,1.4,1.1,2.5,2.5,2.5h34.8c1.4,0,2.5-1.1,2.5-2.5v-0.4h2.8c0.2,0,0.3-0.1,0.3-0.3v-9.3
			c0-0.2-0.1-0.3-0.3-0.3H623z"/>
		<path class="st1" d="M623,448.5v-14.2h2.8c0.2,0,0.3-0.1,0.3-0.3v-9.3c0-0.2-0.1-0.3-0.3-0.3H623V424c0-1.4-1.1-2.5-2.5-2.5h-34.8
			c-1.4,0-2.5,1.1-2.5,2.5v0.4h-2.8c-0.2,0-0.3,0.1-0.3,0.3v9.3c0,0.2,0.1,0.3,0.3,0.3h2.8v14.2h-2.8c-0.2,0-0.3,0.1-0.3,0.3v9.3
			c0,0.2,0.1,0.3,0.3,0.3h2.8v0.4c0,1.4,1.1,2.5,2.5,2.5h34.8c1.4,0,2.5-1.1,2.5-2.5v-0.4h2.8c0.2,0,0.3-0.1,0.3-0.3v-9.3
			c0-0.2-0.1-0.3-0.3-0.3H623z"/>
		<path class="st1" d="M561.6,394.8v-14.2h2.8c0.2,0,0.3-0.1,0.3-0.3V371c0-0.2-0.1-0.3-0.3-0.3h-2.8v-0.4c0-1.4-1.1-2.5-2.5-2.5
			h-34.8c-1.4,0-2.5,1.1-2.5,2.5v0.4H519c-0.2,0-0.3,0.1-0.3,0.3v9.3c0,0.2,0.1,0.3,0.3,0.3h2.8v14.2H519c-0.2,0-0.3,0.1-0.3,0.3
			v9.3c0,0.2,0.1,0.3,0.3,0.3h2.8v0.4c0,1.4,1.1,2.5,2.5,2.5h34.8c1.4,0,2.5-1.1,2.5-2.5v-0.4h2.8c0.2,0,0.3-0.1,0.3-0.3v-9.3
			c0-0.2-0.1-0.3-0.3-0.3H561.6z"/>
		<path class="st1" d="M615.6,394.7v-14.2h2.8c0.2,0,0.3-0.1,0.3-0.3v-9.3c0-0.2-0.1-0.3-0.3-0.3h-2.8v-0.4c0-1.4-1.1-2.5-2.5-2.5
			h-34.8c-1.4,0-2.5,1.1-2.5,2.5v0.4H573c-0.2,0-0.3,0.1-0.3,0.3v9.3c0,0.2,0.1,0.3,0.3,0.3h2.8v14.2H573c-0.2,0-0.3,0.1-0.3,0.3
			v9.3c0,0.2,0.1,0.3,0.3,0.3h2.8v0.4c0,1.4,1.1,2.5,2.5,2.5h34.8c1.4,0,2.5-1.1,2.5-2.5v-0.4h2.8c0.2,0,0.3-0.1,0.3-0.3V395
			c0-0.2-0.1-0.3-0.3-0.3H615.6z"/>
		<path class="st1" d="M278.8,496h-14.2v-2.8c0-0.2-0.1-0.3-0.3-0.3H255c-0.2,0-0.3,0.1-0.3,0.3v2.8h-0.4c-1.4,0-2.5,1.1-2.5,2.5
			v34.8c0,1.4,1.1,2.5,2.5,2.5h0.4v2.8c0,0.2,0.1,0.3,0.3,0.3h9.3c0.2,0,0.3-0.1,0.3-0.3v-2.8h14.2v2.8c0,0.2,0.1,0.3,0.3,0.3h9.3
			c0.2,0,0.3-0.1,0.3-0.3v-2.8h0.4c1.4,0,2.5-1.1,2.5-2.5v-34.8c0-1.4-1.1-2.5-2.5-2.5h-0.4v-2.8c0-0.2-0.1-0.3-0.3-0.3h-9.3
			c-0.2,0-0.3,0.1-0.3,0.3V496z"/>
		<path class="st1" d="M454.1,414.6v-14.2h2.8c0.2,0,0.3-0.1,0.3-0.3v-9.3c0-0.2-0.1-0.3-0.3-0.3h-2.8V390c0-1.4-1.1-2.5-2.5-2.5
			h-34.8c-1.4,0-2.5,1.1-2.5,2.5v0.4h-2.8c-0.2,0-0.3,0.1-0.3,0.3v9.3c0,0.2,0.1,0.3,0.3,0.3h2.8v14.2h-2.8c-0.2,0-0.3,0.1-0.3,0.3
			v9.3c0,0.2,0.1,0.3,0.3,0.3h2.8v0.4c0,1.4,1.1,2.5,2.5,2.5h34.8c1.4,0,2.5-1.1,2.5-2.5v-0.4h2.8c0.2,0,0.3-0.1,0.3-0.3v-9.3
			c0-0.2-0.1-0.3-0.3-0.3h-2.8V414.6z"/>
		<path class="st1" d="M507.6,407.5v-14.2h2.8c0.2,0,0.3-0.1,0.3-0.3v-9.3c0-0.2-0.1-0.3-0.3-0.3h-2.8V383c0-1.4-1.1-2.5-2.5-2.5
			h-34.8c-1.4,0-2.5,1.1-2.5,2.5v0.4H465c-0.2,0-0.3,0.1-0.3,0.3v9.3c0,0.2,0.1,0.3,0.3,0.3h2.8v14.2H465c-0.2,0-0.3,0.1-0.3,0.3
			v9.3c0,0.2,0.1,0.3,0.3,0.3h2.8v0.4c0,1.4,1.1,2.5,2.5,2.5h34.8c1.4,0,2.5-1.1,2.5-2.5v-0.4h2.8c0.2,0,0.3-0.1,0.3-0.3v-9.3
			c0-0.2-0.1-0.3-0.3-0.3L507.6,407.5L507.6,407.5z"/>
		<path class="st1" d="M399.8,515.4v-14.2h2.8c0.2,0,0.3-0.1,0.3-0.3v-9.3c0-0.2-0.1-0.3-0.3-0.3h-2.8v-0.4c0-1.4-1.1-2.5-2.5-2.5
			h-34.8c-1.4,0-2.5,1.1-2.5,2.5v0.4h-2.8c-0.2,0-0.3,0.1-0.3,0.3v9.3c0,0.2,0.1,0.3,0.3,0.3h2.8v14.2h-2.8c-0.2,0-0.3,0.1-0.3,0.3
			v9.3c0,0.2,0.1,0.3,0.3,0.3h2.8v0.4c0,1.4,1.1,2.5,2.5,2.5h34.8c1.4,0,2.5-1.1,2.5-2.5v-0.4h2.8c0.2,0,0.3-0.1,0.3-0.3v-9.3
			c0-0.2-0.1-0.3-0.3-0.3H399.8z"/>
		<path class="st1" d="M264.6,330.6l-12.3-7.2l1.4-2.4c0.1-0.1,0-0.3-0.1-0.4l-8-4.7c-0.1-0.1-0.3,0-0.4,0.1l-1.4,2.4l-0.4-0.2
			c-1.2-0.7-2.7-0.3-3.4,0.9l-17.6,30.1c-0.7,1.2-0.3,2.7,0.9,3.4l0.4,0.2l-1.4,2.4c-0.1,0.1,0,0.3,0.1,0.4l8,4.7
			c0.1,0.1,0.3,0,0.4-0.1l1.4-2.4l12.3,7.2l-1.4,2.4c-0.1,0.1,0,0.3,0.1,0.4l8,4.7c0.1,0.1,0.3,0,0.4-0.1l1.4-2.4l0.4,0.2
			c1.2,0.7,2.7,0.3,3.4-0.9l17.6-30.1c0.7-1.2,0.3-2.7-0.9-3.4l-0.4-0.2l1.4-2.4c0.1-0.1,0-0.3-0.1-0.4l-8-4.7
			c-0.1-0.1-0.3,0-0.4,0.1L264.6,330.6z"/>
		<path class="st1" d="M227.4,420.2l7.2-12.3l2.4,1.4c0.1,0.1,0.3,0,0.4-0.1l4.7-8c0.1-0.1,0-0.3-0.1-0.4l-2.4-1.4l0.2-0.4
			c0.7-1.2,0.3-2.7-0.9-3.4L209,378c-1.2-0.7-2.7-0.3-3.4,0.9l-0.2,0.4l-2.4-1.4c-0.1-0.1-0.3,0-0.4,0.1l-4.7,8
			c-0.1,0.1,0,0.3,0.1,0.4l2.4,1.4l-7.2,12.3l-2.4-1.4c-0.1-0.1-0.3,0-0.4,0.1l-4.7,8c-0.1,0.1,0,0.3,0.1,0.4l2.4,1.4L188,409
			c-0.7,1.2-0.3,2.7,0.9,3.4l30,17.7c1.2,0.7,2.7,0.3,3.4-0.9l0.2-0.4l2.4,1.4c0.1,0.1,0.3,0,0.4-0.1l4.7-8c0.1-0.1,0-0.3-0.1-0.4
			L227.4,420.2z"/>
		<path class="st1" d="M311.3,357.6l-12.3-7.2l1.4-2.4c0.1-0.1,0-0.3-0.1-0.4l-8-4.7c-0.1-0.1-0.3,0-0.4,0.1l-1.4,2.4l-0.4-0.2
			c-1.2-0.7-2.7-0.3-3.4,0.9l-17.6,30.1c-0.7,1.2-0.3,2.7,0.9,3.4l0.4,0.2l-1.4,2.4c-0.1,0.1,0,0.3,0.1,0.4l8,4.7
			c0.1,0.1,0.3,0,0.4-0.1l1.4-2.4l12.3,7.2l-1.4,2.4c-0.1,0.1,0,0.3,0.1,0.4l8,4.7c0.1,0.1,0.3,0,0.4-0.1l1.4-2.4l0.4,0.2
			c1.2,0.7,2.7,0.3,3.4-0.9l17.6-30.1c0.7-1.2,0.3-2.7-0.9-3.4l-0.4-0.2l1.4-2.4c0.1-0.1,0-0.3-0.1-0.4l-8-4.7
			c-0.1-0.1-0.3,0-0.4,0.1L311.3,357.6z"/>
		<path class="st1" d="M274.7,447.1l7.2-12.3l2.4,1.4c0.1,0.1,0.3,0,0.4-0.1l4.7-8c0.1-0.1,0-0.3-0.1-0.4l-2.4-1.4l0.2-0.4
			c0.7-1.2,0.3-2.7-0.9-3.4l-30-17.7c-1.2-0.7-2.7-0.3-3.4,0.9l-0.2,0.4l-2.4-1.4c-0.1-0.1-0.3,0-0.4,0.1l-4.7,8
			c-0.1,0.1,0,0.3,0.1,0.4l2.4,1.4l-7.2,12.3l-2.4-1.4c-0.1-0.1-0.3,0-0.4,0.1l-4.7,8c-0.1,0.1,0,0.3,0.1,0.4l2.4,1.4l-0.2,0.4
			c-0.7,1.2-0.3,2.7,0.9,3.4l30,17.7c1.2,0.7,2.7,0.3,3.4-0.9l0.2-0.4l2.4,1.4c0.1,0.1,0.3,0,0.4-0.1l4.7-8c0.1-0.1,0-0.3-0.1-0.4
			L274.7,447.1z"/>
		<path class="st1" d="M379.1,403.4l3.7-13.8l2.7,0.7c0.2,0,0.3,0,0.4-0.2l2.4-8.9c0-0.2,0-0.3-0.2-0.4l-2.7-0.7l0.1-0.4
			c0.4-1.3-0.4-2.7-1.8-3l-33.7-9c-1.3-0.4-2.7,0.4-3,1.8l-0.1,0.4l-2.7-0.7c-0.2,0-0.3,0.1-0.4,0.2l-2.4,8.9c0,0.2,0.1,0.3,0.2,0.4
			l2.7,0.7l-3.7,13.8l-2.7-0.7c-0.2,0-0.3,0-0.4,0.2l-2.4,8.9c0,0.2,0.1,0.3,0.2,0.4l2.7,0.7l-0.1,0.4c-0.4,1.3,0.4,2.7,1.8,3
			l33.7,9c1.3,0.4,2.7-0.4,3-1.8l0.1-0.4l2.7,0.7c0.2,0,0.3-0.1,0.4-0.2l2.4-8.9c0-0.2,0-0.3-0.2-0.4L379.1,403.4z"/>
		<path class="st1" d="M639.5,365.8c-0.2-0.2,1.4-9.2-6.5-9.1c-0.6,0-95.1-0.4-116.9,0c-5.4,0.1-7.3,2.3-7.5,2.4
			c-2.9,2-7.2,8.4-7.2,8.5c0,0,0,0,0,0c-1.5,1.7-4.6,2.7-6.9,2.7l-34.1-0.1c-2.1,0-3.6,0.4-5.1,1.9l0,0c-1.5,1.4-2.6,4.6-4.7,4.7
			c0,0-17.8,0.3-25.3,0.2c-0.5,0-5.2-0.7-6.4-1.3c-0.7-0.3-54.7-16-55.5-16.2c0,0,0,0,0,0l-113.8-64.6c-3.8-2.3-8.8-1-11,2.8
			l-65.5,112c-0.7,1.2-3,4.3,1.7,6.6l58.7,35c0,0,0,0,0,0c0,0,7.5,3.6,7.8,11.6l-4.1,187.7c-0.2,3.5,1.5,7.4,5.9,7.4l389.5-0.1
			c5.2,0.1,7.6-1.8,7.6-6L639.5,365.8z"/>
	</g>
	<g>
		<path class="st1" d="M123.7,69v14.2h2.8c0.2,0,0.3,0.1,0.3,0.3v9.3c0,0.2-0.1,0.3-0.3,0.3h-2.8v0.4c0,1.4-1.1,2.5-2.5,2.5H86.3
			c-1.4,0-2.5-1.1-2.5-2.5v-0.4H81c-0.2,0-0.3-0.1-0.3-0.3v-9.3c0-0.2,0.1-0.3,0.3-0.3h2.8V69H81c-0.2,0-0.3-0.1-0.3-0.3v-9.3
			c0-0.2,0.1-0.3,0.3-0.3h2.8v-0.4c0-1.4,1.1-2.5,2.5-2.5h34.8c1.4,0,2.5,1.1,2.5,2.5v0.4h2.8c0.2,0,0.3,0.1,0.3,0.3v9.3
			c0,0.2-0.1,0.3-0.3,0.3H123.7z"/>
		<path class="st1" d="M178.4,40.8V55h2.8c0.2,0,0.3,0.1,0.3,0.3v9.3c0,0.2-0.1,0.3-0.3,0.3h-2.8v0.4c0,1.4-1.1,2.5-2.5,2.5H141
			c-1.4,0-2.5-1.1-2.5-2.5v-0.4h-2.8c-0.2,0-0.3-0.1-0.3-0.3v-9.3c0-0.2,0.1-0.3,0.3-0.3h2.8V40.8h-2.8c-0.2,0-0.3-0.1-0.3-0.3v-9.3
			c0-0.2,0.1-0.3,0.3-0.3h2.8v-0.4c0-1.4,1.1-2.5,2.5-2.5h34.8c1.4,0,2.5,1.1,2.5,2.5V31h2.8c0.2,0,0.3,0.1,0.3,0.3v9.3
			c0,0.2-0.1,0.3-0.3,0.3L178.4,40.8L178.4,40.8z"/>
		<path class="st1" d="M178.4,94.8V109h2.8c0.2,0,0.3,0.1,0.3,0.3v9.3c0,0.2-0.1,0.3-0.3,0.3h-2.8v0.4c0,1.4-1.1,2.5-2.5,2.5H141
			c-1.4,0-2.5-1.1-2.5-2.5v-0.4h-2.8c-0.2,0-0.3-0.1-0.3-0.3v-9.3c0-0.2,0.1-0.3,0.3-0.3h2.8V94.8h-2.8c-0.2,0-0.3-0.1-0.3-0.3v-9.3
			c0-0.2,0.1-0.3,0.3-0.3h2.8v-0.4c0-1.4,1.1-2.5,2.5-2.5h34.8c1.4,0,2.5,1.1,2.5,2.5V85h2.8c0.2,0,0.3,0.1,0.3,0.3v9.3
			c0,0.2-0.1,0.3-0.3,0.3h-2.7V94.8z"/>
		<path class="st1" d="M232.4,36.1v14.2h2.8c0.2,0,0.3,0.1,0.3,0.3v9.3c0,0.2-0.1,0.3-0.3,0.3h-2.8v0.4c0,1.4-1.1,2.5-2.5,2.5H195
			c-1.4,0-2.5-1.1-2.5-2.5v-0.4h-2.8c-0.2,0-0.3-0.1-0.3-0.3v-9.3c0-0.2,0.1-0.3,0.3-0.3h2.8V36.1h-2.8c-0.2,0-0.3-0.1-0.3-0.3v-9.3
			c0-0.2,0.1-0.3,0.3-0.3h2.8v-0.4c0-1.4,1.1-2.5,2.5-2.5h34.8c1.4,0,2.5,1.1,2.5,2.5v0.4h2.8c0.2,0,0.3,0.1,0.3,0.3v9.3
			c0,0.2-0.1,0.3-0.3,0.3H232.4z"/>
		<path class="st1" d="M232.4,89.9v14.2h2.8c0.2,0,0.3,0.1,0.3,0.3v9.3c0,0.2-0.1,0.3-0.3,0.3h-2.8v0.4c0,1.4-1.1,2.5-2.5,2.5H195
			c-1.4,0-2.5-1.1-2.5-2.5V114h-2.8c-0.2,0-0.3-0.1-0.3-0.3v-9.3c0-0.2,0.1-0.3,0.3-0.3h2.8V89.9h-2.8c-0.2,0-0.3-0.1-0.3-0.3v-9.3
			c0-0.2,0.1-0.3,0.3-0.3h2.8v-0.4c0-1.4,1.1-2.5,2.5-2.5h34.8c1.4,0,2.5,1.1,2.5,2.5V80h2.8c0.2,0,0.3,0.1,0.3,0.3v9.3
			c0,0.2-0.1,0.3-0.3,0.3C235.1,89.9,232.4,89.9,232.4,89.9z"/>
		<path class="st1" d="M232.4,198.1v14.2h2.8c0.2,0,0.3,0.1,0.3,0.3v9.3c0,0.2-0.1,0.3-0.3,0.3h-2.8v0.4c0,1.4-1.1,2.5-2.5,2.5H195
			c-1.4,0-2.5-1.1-2.5-2.5v-0.4h-2.8c-0.2,0-0.3-0.1-0.3-0.3v-9.3c0-0.2,0.1-0.3,0.3-0.3h2.8v-14.2h-2.8c-0.2,0-0.3-0.1-0.3-0.3
			v-9.3c0-0.2,0.1-0.3,0.3-0.3h2.8v-0.4c0-1.4,1.1-2.5,2.5-2.5h34.8c1.4,0,2.5,1.1,2.5,2.5v0.4h2.8c0.2,0,0.3,0.1,0.3,0.3v9.3
			c0,0.2-0.1,0.3-0.3,0.3H232.4z"/>
		<path class="st1" d="M178.4,148.8V163h2.8c0.2,0,0.3,0.1,0.3,0.3v9.3c0,0.2-0.1,0.3-0.3,0.3h-2.8v0.4c0,1.4-1.1,2.5-2.5,2.5H141
			c-1.4,0-2.5-1.1-2.5-2.5v-0.4h-2.8c-0.2,0-0.3-0.1-0.3-0.3v-9.3c0-0.2,0.1-0.3,0.3-0.3h2.8v-14.2h-2.8c-0.2,0-0.3-0.1-0.3-0.3
			v-9.3c0-0.2,0.1-0.3,0.3-0.3h2.8v-0.4c0-1.4,1.1-2.5,2.5-2.5h34.8c1.4,0,2.5,1.1,2.5,2.5v0.4h2.8c0.2,0,0.3,0.1,0.3,0.3v9.3
			c0,0.2-0.1,0.3-0.3,0.3H178.4z"/>
		<path class="st1" d="M178.4,202.8V217h2.8c0.2,0,0.3,0.1,0.3,0.3v9.3c0,0.2-0.1,0.3-0.3,0.3h-2.8v0.4c0,1.4-1.1,2.5-2.5,2.5H141
			c-1.4,0-2.5-1.1-2.5-2.5v-0.4h-2.8c-0.2,0-0.3-0.1-0.3-0.3v-9.3c0-0.2,0.1-0.3,0.3-0.3h2.8v-14.2h-2.8c-0.2,0-0.3-0.1-0.3-0.3
			v-9.3c0-0.2,0.1-0.3,0.3-0.3h2.8v-0.4c0-1.4,1.1-2.5,2.5-2.5h34.8c1.4,0,2.5,1.1,2.5,2.5v0.4h2.8c0.2,0,0.3,0.1,0.3,0.3v9.3
			c0,0.2-0.1,0.3-0.3,0.3H178.4z"/>
		<path class="st1" d="M286.4,31v14.2h2.8c0.2,0,0.3,0.1,0.3,0.3v9.3c0,0.2-0.1,0.3-0.3,0.3h-2.8v0.4c0,1.4-1.1,2.5-2.5,2.5H249
			c-1.4,0-2.5-1.1-2.5-2.5v-0.4h-2.8c-0.2,0-0.3-0.1-0.3-0.3v-9.3c0-0.2,0.1-0.3,0.3-0.3h2.8V31h-2.8c-0.2,0-0.3-0.1-0.3-0.3v-9.3
			c0-0.2,0.1-0.3,0.3-0.3h2.8v-0.4c0-1.4,1.1-2.5,2.5-2.5h34.8c1.4,0,2.5,1.1,2.5,2.5v0.4h2.8c0.2,0,0.3,0.1,0.3,0.3v9.3
			c0,0.2-0.1,0.3-0.3,0.3H286.4z"/>
		<path class="st1" d="M286.4,85v14.2h2.8c0.2,0,0.3,0.1,0.3,0.3v9.3c0,0.2-0.1,0.3-0.3,0.3h-2.8v0.4c0,1.4-1.1,2.5-2.5,2.5H249
			c-1.4,0-2.5-1.1-2.5-2.5v-0.4h-2.8c-0.2,0-0.3-0.1-0.3-0.3v-9.3c0-0.2,0.1-0.3,0.3-0.3h2.8V85h-2.8c-0.2,0-0.3-0.1-0.3-0.3v-9.3
			c0-0.2,0.1-0.3,0.3-0.3h2.8v-0.4c0-1.4,1.1-2.5,2.5-2.5h34.8c1.4,0,2.5,1.1,2.5,2.5v0.4h2.8c0.2,0,0.3,0.1,0.3,0.3v9.3
			c0,0.2-0.1,0.3-0.3,0.3H286.4z"/>
		<path class="st1" d="M286.4,139v14.2h2.8c0.2,0,0.3,0.1,0.3,0.3v9.3c0,0.2-0.1,0.3-0.3,0.3h-2.8v0.4c0,1.4-1.1,2.5-2.5,2.5H249
			c-1.4,0-2.5-1.1-2.5-2.5v-0.4h-2.8c-0.2,0-0.3-0.1-0.3-0.3v-9.3c0-0.2,0.1-0.3,0.3-0.3h2.8V139h-2.8c-0.2,0-0.3-0.1-0.3-0.3v-9.3
			c0-0.2,0.1-0.3,0.3-0.3h2.8v-0.4c0-1.4,1.1-2.5,2.5-2.5h34.8c1.4,0,2.5,1.1,2.5,2.5v0.4h2.8c0.2,0,0.3,0.1,0.3,0.3v9.3
			c0,0.2-0.1,0.3-0.3,0.3H286.4z"/>
		<path class="st1" d="M286.4,193v14.2h2.8c0.2,0,0.3,0.1,0.3,0.3v9.3c0,0.2-0.1,0.3-0.3,0.3h-2.8v0.4c0,1.4-1.1,2.5-2.5,2.5H249
			c-1.4,0-2.5-1.1-2.5-2.5v-0.4h-2.8c-0.2,0-0.3-0.1-0.3-0.3v-9.3c0-0.2,0.1-0.3,0.3-0.3h2.8V193h-2.8c-0.2,0-0.3-0.1-0.3-0.3v-9.3
			c0-0.2,0.1-0.3,0.3-0.3h2.8v-0.4c0-1.4,1.1-2.5,2.5-2.5h34.8c1.4,0,2.5,1.1,2.5,2.5v0.4h2.8c0.2,0,0.3,0.1,0.3,0.3v9.3
			c0,0.2-0.1,0.3-0.3,0.3H286.4z"/>
		<path class="st1" d="M340.5,36.1v14.2h2.8c0.2,0,0.3,0.1,0.3,0.3v9.3c0,0.2-0.1,0.3-0.3,0.3h-2.8v0.4c0,1.4-1.1,2.5-2.5,2.5h-34.8
			c-1.4,0-2.5-1.1-2.5-2.5v-0.4h-2.8c-0.2,0-0.3-0.1-0.3-0.3v-9.3c0-0.2,0.1-0.3,0.3-0.3h2.8V36.1h-2.8c-0.2,0-0.3-0.1-0.3-0.3v-9.3
			c0-0.2,0.1-0.3,0.3-0.3h2.8v-0.4c0-1.4,1.1-2.5,2.5-2.5H338c1.4,0,2.5,1.1,2.5,2.5v0.4h2.8c0.2,0,0.3,0.1,0.3,0.3v9.3
			c0,0.2-0.1,0.3-0.3,0.3H340.5z"/>
		<path class="st1" d="M340.5,90.1v14.2h2.8c0.2,0,0.3,0.1,0.3,0.3v9.3c0,0.2-0.1,0.3-0.3,0.3h-2.8v0.4c0,1.4-1.1,2.5-2.5,2.5h-34.8
			c-1.4,0-2.5-1.1-2.5-2.5v-0.4h-2.8c-0.2,0-0.3-0.1-0.3-0.3v-9.3c0-0.2,0.1-0.3,0.3-0.3h2.8V90.1h-2.8c-0.2,0-0.3-0.1-0.3-0.3v-9.3
			c0-0.2,0.1-0.3,0.3-0.3h2.8v-0.4c0-1.4,1.1-2.5,2.5-2.5H338c1.4,0,2.5,1.1,2.5,2.5v0.4h2.8c0.2,0,0.3,0.1,0.3,0.3v9.3
			c0,0.2-0.1,0.3-0.3,0.3H340.5z"/>
		<path class="st1" d="M340.5,144.1v14.2h2.8c0.2,0,0.3,0.1,0.3,0.3v9.3c0,0.2-0.1,0.3-0.3,0.3h-2.8v0.4c0,1.4-1.1,2.5-2.5,2.5
			h-34.8c-1.4,0-2.5-1.1-2.5-2.5v-0.4h-2.8c-0.2,0-0.3-0.1-0.3-0.3v-9.3c0-0.2,0.1-0.3,0.3-0.3h2.8v-14.2h-2.8
			c-0.2,0-0.3-0.1-0.3-0.3v-9.3c0-0.2,0.1-0.3,0.3-0.3h2.8v-0.4c0-1.4,1.1-2.5,2.5-2.5H338c1.4,0,2.5,1.1,2.5,2.5v0.4h2.8
			c0.2,0,0.3,0.1,0.3,0.3v9.3c0,0.2-0.1,0.3-0.3,0.3H340.5z"/>
		<path class="st1" d="M340.5,198.1v14.2h2.8c0.2,0,0.3,0.1,0.3,0.3v9.3c0,0.2-0.1,0.3-0.3,0.3h-2.8v0.4c0,1.4-1.1,2.5-2.5,2.5
			h-34.8c-1.4,0-2.5-1.1-2.5-2.5v-0.4h-2.8c-0.2,0-0.3-0.1-0.3-0.3v-9.3c0-0.2,0.1-0.3,0.3-0.3h2.8v-14.2h-2.8
			c-0.2,0-0.3-0.1-0.3-0.3v-9.3c0-0.2,0.1-0.3,0.3-0.3h2.8v-0.4c0-1.4,1.1-2.5,2.5-2.5H338c1.4,0,2.5,1.1,2.5,2.5v0.4h2.8
			c0.2,0,0.3,0.1,0.3,0.3v9.3c0,0.2-0.1,0.3-0.3,0.3H340.5z"/>
		<path class="st1" d="M395.6,50.9v14.2h2.8c0.2,0,0.3,0.1,0.3,0.3v9.3c0,0.2-0.1,0.3-0.3,0.3h-2.8v0.4c0,1.4-1.1,2.5-2.5,2.5h-34.8
			c-1.4,0-2.5-1.1-2.5-2.5V75H353c-0.2,0-0.3-0.1-0.3-0.3v-9.3c0-0.2,0.1-0.3,0.3-0.3h2.8V50.9H353c-0.2,0-0.3-0.1-0.3-0.3v-9.3
			c0-0.2,0.1-0.3,0.3-0.3h2.8v-0.4c0-1.4,1.1-2.5,2.5-2.5h34.8c1.4,0,2.5,1.1,2.5,2.5V41h2.8c0.2,0,0.3,0.1,0.3,0.3v9.3
			c0,0.2-0.1,0.3-0.3,0.3C398.4,50.9,395.6,50.9,395.6,50.9z"/>
		<path class="st1" d="M395.6,104.9v14.2h2.8c0.2,0,0.3,0.1,0.3,0.3v9.3c0,0.2-0.1,0.3-0.3,0.3h-2.8v0.4c0,1.4-1.1,2.5-2.5,2.5
			h-34.8c-1.4,0-2.5-1.1-2.5-2.5V129H353c-0.2,0-0.3-0.1-0.3-0.3v-9.3c0-0.2,0.1-0.3,0.3-0.3h2.8v-14.2H353c-0.2,0-0.3-0.1-0.3-0.3
			v-9.3c0-0.2,0.1-0.3,0.3-0.3h2.8v-0.4c0-1.4,1.1-2.5,2.5-2.5h34.8c1.4,0,2.5,1.1,2.5,2.5V95h2.8c0.2,0,0.3,0.1,0.3,0.3v9.3
			c0,0.2-0.1,0.3-0.3,0.3C398.4,104.9,395.6,104.9,395.6,104.9z"/>
		<path class="st1" d="M395.6,158.9v14.2h2.8c0.2,0,0.3,0.1,0.3,0.3v9.3c0,0.2-0.1,0.3-0.3,0.3h-2.8v0.4c0,1.4-1.1,2.5-2.5,2.5
			h-34.8c-1.4,0-2.5-1.1-2.5-2.5V183H353c-0.2,0-0.3-0.1-0.3-0.3v-9.3c0-0.2,0.1-0.3,0.3-0.3h2.8v-14.2H353c-0.2,0-0.3-0.1-0.3-0.3
			v-9.3c0-0.2,0.1-0.3,0.3-0.3h2.8v-0.4c0-1.4,1.1-2.5,2.5-2.5h34.8c1.4,0,2.5,1.1,2.5,2.5v0.4h2.8c0.2,0,0.3,0.1,0.3,0.3v9.3
			c0,0.2-0.1,0.3-0.3,0.3H395.6z"/>
		<path class="st1" d="M395.6,212.9v14.2h2.8c0.2,0,0.3,0.1,0.3,0.3v9.3c0,0.2-0.1,0.3-0.3,0.3h-2.8v0.4c0,1.4-1.1,2.5-2.5,2.5
			h-34.8c-1.4,0-2.5-1.1-2.5-2.5V237H353c-0.2,0-0.3-0.1-0.3-0.3v-9.3c0-0.2,0.1-0.3,0.3-0.3h2.8v-14.2H353c-0.2,0-0.3-0.1-0.3-0.3
			v-9.3c0-0.2,0.1-0.3,0.3-0.3h2.8v-0.4c0-1.4,1.1-2.5,2.5-2.5h34.8c1.4,0,2.5,1.1,2.5,2.5v0.4h2.8c0.2,0,0.3,0.1,0.3,0.3v9.3
			c0,0.2-0.1,0.3-0.3,0.3H395.6z"/>
		<path class="st1" d="M449.6,51v14.2h2.8c0.2,0,0.3,0.1,0.3,0.3v9.3c0,0.2-0.1,0.3-0.3,0.3h-2.8v0.4c0,1.4-1.1,2.5-2.5,2.5h-34.8
			c-1.4,0-2.5-1.1-2.5-2.5v-0.4H407c-0.2,0-0.3-0.1-0.3-0.3v-9.3c0-0.2,0.1-0.3,0.3-0.3h2.8V51H407c-0.2,0-0.3-0.1-0.3-0.3v-9.3
			c0-0.2,0.1-0.3,0.3-0.3h2.8v-0.4c0-1.4,1.1-2.5,2.5-2.5h34.8c1.4,0,2.5,1.1,2.5,2.5v0.4h2.8c0.2,0,0.3,0.1,0.3,0.3v9.3
			c0,0.2-0.1,0.3-0.3,0.3H449.6z"/>
		<path class="st1" d="M449.6,104.9v14.2h2.8c0.2,0,0.3,0.1,0.3,0.3v9.3c0,0.2-0.1,0.3-0.3,0.3h-2.8v0.4c0,1.4-1.1,2.5-2.5,2.5
			h-34.8c-1.4,0-2.5-1.1-2.5-2.5V129H407c-0.2,0-0.3-0.1-0.3-0.3v-9.3c0-0.2,0.1-0.3,0.3-0.3h2.8v-14.2H407c-0.2,0-0.3-0.1-0.3-0.3
			v-9.3c0-0.2,0.1-0.3,0.3-0.3h2.8v-0.4c0-1.4,1.1-2.5,2.5-2.5h34.8c1.4,0,2.5,1.1,2.5,2.5V95h2.8c0.2,0,0.3,0.1,0.3,0.3v9.3
			c0,0.2-0.1,0.3-0.3,0.3C452.4,104.9,449.6,104.9,449.6,104.9z"/>
		<path class="st1" d="M456.7,158.8V173h2.8c0.2,0,0.3,0.1,0.3,0.3v9.3c0,0.2-0.1,0.3-0.3,0.3h-2.8v0.4c0,1.4-1.1,2.5-2.5,2.5h-34.8
			c-1.4,0-2.5-1.1-2.5-2.5v-0.4h-2.8c-0.2,0-0.3-0.1-0.3-0.3v-9.3c0-0.2,0.1-0.3,0.3-0.3h2.8v-14.2h-2.8c-0.2,0-0.3-0.1-0.3-0.3
			v-9.3c0-0.2,0.1-0.3,0.3-0.3h2.8v-0.4c0-1.4,1.1-2.5,2.5-2.5h34.8c1.4,0,2.5,1.1,2.5,2.5v0.4h2.8c0.2,0,0.3,0.1,0.3,0.3v9.3
			c0,0.2-0.1,0.3-0.3,0.3H456.7z"/>
		<path class="st1" d="M456.7,212.8V227h2.8c0.2,0,0.3,0.1,0.3,0.3v9.3c0,0.2-0.1,0.3-0.3,0.3h-2.8v0.4c0,1.4-1.1,2.5-2.5,2.5h-34.8
			c-1.4,0-2.5-1.1-2.5-2.5v-0.4h-2.8c-0.2,0-0.3-0.1-0.3-0.3v-9.3c0-0.2,0.1-0.3,0.3-0.3h2.8v-14.2h-2.8c-0.2,0-0.3-0.1-0.3-0.3
			v-9.3c0-0.2,0.1-0.3,0.3-0.3h2.8v-0.4c0-1.4,1.1-2.5,2.5-2.5h34.8c1.4,0,2.5,1.1,2.5,2.5v0.4h2.8c0.2,0,0.3,0.1,0.3,0.3v9.3
			c0,0.2-0.1,0.3-0.3,0.3H456.7z"/>
		<path class="st1" d="M648.7,63v14.2h2.8c0.2,0,0.3,0.1,0.3,0.3v9.3c0,0.2-0.1,0.3-0.3,0.3h-2.8v0.4c0,1.4-1.1,2.5-2.5,2.5h-34.8
			c-1.4,0-2.5-1.1-2.5-2.5v-0.4h-2.8c-0.2,0-0.3-0.1-0.3-0.3v-9.3c0-0.2,0.1-0.3,0.3-0.3h2.8V63h-2.8c-0.2,0-0.3-0.1-0.3-0.3v-9.3
			c0-0.2,0.1-0.3,0.3-0.3h2.8v-0.4c0-1.4,1.1-2.5,2.5-2.5h34.8c1.4,0,2.5,1.1,2.5,2.5v0.4h2.8c0.2,0,0.3,0.1,0.3,0.3v9.3
			c0,0.2-0.1,0.3-0.3,0.3H648.7z"/>
		<path class="st1" d="M593.8,63.2v14.2h2.8c0.2,0,0.3,0.1,0.3,0.3V87c0,0.2-0.1,0.3-0.3,0.3h-2.8v0.4c0,1.4-1.1,2.5-2.5,2.5h-34.8
			c-1.4,0-2.5-1.1-2.5-2.5v-0.4h-2.8c-0.2,0-0.3-0.1-0.3-0.3v-9.3c0-0.2,0.1-0.3,0.3-0.3h2.8V63.2h-2.8c-0.2,0-0.3-0.1-0.3-0.3v-9.3
			c0-0.2,0.1-0.3,0.3-0.3h2.8v-0.4c0-1.4,1.1-2.5,2.5-2.5h34.8c1.4,0,2.5,1.1,2.5,2.5v0.4h2.8c0.2,0,0.3,0.1,0.3,0.3v9.3
			c0,0.2-0.1,0.3-0.3,0.3H593.8z"/>
		<path class="st1" d="M593.8,117.2v14.2h2.8c0.2,0,0.3,0.1,0.3,0.3v9.3c0,0.2-0.1,0.3-0.3,0.3h-2.8v0.4c0,1.4-1.1,2.5-2.5,2.5
			h-34.8c-1.4,0-2.5-1.1-2.5-2.5v-0.4h-2.8c-0.2,0-0.3-0.1-0.3-0.3v-9.3c0-0.2,0.1-0.3,0.3-0.3h2.8v-14.2h-2.8
			c-0.2,0-0.3-0.1-0.3-0.3v-9.3c0-0.2,0.1-0.3,0.3-0.3h2.8v-0.4c0-1.4,1.1-2.5,2.5-2.5h34.8c1.4,0,2.5,1.1,2.5,2.5v0.4h2.8
			c0.2,0,0.3,0.1,0.3,0.3v9.3c0,0.2-0.1,0.3-0.3,0.3H593.8z"/>
		<path class="st1" d="M593.8,171.2v14.2h2.8c0.2,0,0.3,0.1,0.3,0.3v9.3c0,0.2-0.1,0.3-0.3,0.3h-2.8v0.4c0,1.4-1.1,2.5-2.5,2.5
			h-34.8c-1.4,0-2.5-1.1-2.5-2.5v-0.4h-2.8c-0.2,0-0.3-0.1-0.3-0.3v-9.3c0-0.2,0.1-0.3,0.3-0.3h2.8v-14.2h-2.8
			c-0.2,0-0.3-0.1-0.3-0.3v-9.3c0-0.2,0.1-0.3,0.3-0.3h2.8v-0.4c0-1.4,1.1-2.5,2.5-2.5h34.8c1.4,0,2.5,1.1,2.5,2.5v0.4h2.8
			c0.2,0,0.3,0.1,0.3,0.3v9.3c0,0.2-0.1,0.3-0.3,0.3H593.8z"/>
		<path class="st1" d="M648.5,116v14.2h2.8c0.2,0,0.3,0.1,0.3,0.3v9.3c0,0.2-0.1,0.3-0.3,0.3h-2.8v0.4c0,1.4-1.1,2.5-2.5,2.5h-34.8
			c-1.4,0-2.5-1.1-2.5-2.5v-0.4h-2.8c-0.2,0-0.3-0.1-0.3-0.3v-9.3c0-0.2,0.1-0.3,0.3-0.3h2.8V116h-2.8c-0.2,0-0.3-0.1-0.3-0.3v-9.3
			c0-0.2,0.1-0.3,0.3-0.3h2.8v-0.4c0-1.4,1.1-2.5,2.5-2.5H646c1.4,0,2.5,1.1,2.5,2.5v0.4h2.8c0.2,0,0.3,0.1,0.3,0.3v9.3
			c0,0.2-0.1,0.3-0.3,0.3H648.5z"/>
		<path class="st1" d="M648.5,170v14.2h2.8c0.2,0,0.3,0.1,0.3,0.3v9.3c0,0.2-0.1,0.3-0.3,0.3h-2.8v0.4c0,1.4-1.1,2.5-2.5,2.5h-34.8
			c-1.4,0-2.5-1.1-2.5-2.5v-0.4h-2.8c-0.2,0-0.3-0.1-0.3-0.3v-9.3c0-0.2,0.1-0.3,0.3-0.3h2.8V170h-2.8c-0.2,0-0.3-0.1-0.3-0.3v-9.3
			c0-0.2,0.1-0.3,0.3-0.3h2.8v-0.4c0-1.4,1.1-2.5,2.5-2.5H646c1.4,0,2.5,1.1,2.5,2.5v0.4h2.8c0.2,0,0.3,0.1,0.3,0.3v9.3
			c0,0.2-0.1,0.3-0.3,0.3H648.5z"/>
		<path class="st1" d="M395.6,266.9v14.2h2.8c0.2,0,0.3,0.1,0.3,0.3v9.3c0,0.2-0.1,0.3-0.3,0.3h-2.8v0.4c0,1.4-1.1,2.5-2.5,2.5
			h-34.8c-1.4,0-2.5-1.1-2.5-2.5V291H353c-0.2,0-0.3-0.1-0.3-0.3v-9.3c0-0.2,0.1-0.3,0.3-0.3h2.8v-14.2H353c-0.2,0-0.3-0.1-0.3-0.3
			v-9.3c0-0.2,0.1-0.3,0.3-0.3h2.8v-0.4c0-1.4,1.1-2.5,2.5-2.5h34.8c1.4,0,2.5,1.1,2.5,2.5v0.4h2.8c0.2,0,0.3,0.1,0.3,0.3v9.3
			c0,0.2-0.1,0.3-0.3,0.3L395.6,266.9L395.6,266.9z"/>
		<path class="st1" d="M456.7,266.8V281h2.8c0.2,0,0.3,0.1,0.3,0.3v9.3c0,0.2-0.1,0.3-0.3,0.3h-2.8v0.4c0,1.4-1.1,2.5-2.5,2.5h-34.8
			c-1.4,0-2.5-1.1-2.5-2.5v-0.4h-2.8c-0.2,0-0.3-0.1-0.3-0.3v-9.3c0-0.2,0.1-0.3,0.3-0.3h2.8v-14.2h-2.8c-0.2,0-0.3-0.1-0.3-0.3
			v-9.3c0-0.2,0.1-0.3,0.3-0.3h2.8v-0.4c0-1.4,1.1-2.5,2.5-2.5h34.8c1.4,0,2.5,1.1,2.5,2.5v0.4h2.8c0.2,0,0.3,0.1,0.3,0.3v9.3
			c0,0.2-0.1,0.3-0.3,0.3H456.7z"/>
		<path class="st1" d="M527.2,126.9H513v2.8c0,0.2-0.1,0.3-0.3,0.3h-9.3c-0.2,0-0.3-0.1-0.3-0.3v-2.8h-0.4c-1.4,0-2.5-1.1-2.5-2.5
			V89.6c0-1.4,1.1-2.5,2.5-2.5h0.4v-2.8c0-0.2,0.1-0.3,0.3-0.3h9.3c0.2,0,0.3,0.1,0.3,0.3v2.8h14.2v-2.8c0-0.2,0.1-0.3,0.3-0.3h9.3
			c0.2,0,0.3,0.1,0.3,0.3v2.8h0.4c1.4,0,2.5,1.1,2.5,2.5v34.8c0,1.4-1.1,2.5-2.5,2.5H537v2.8c0,0.2-0.1,0.3-0.3,0.3h-9.3
			c-0.2,0-0.3-0.1-0.3-0.3L527.2,126.9L527.2,126.9z"/>
		<path class="st1" d="M110.9,164.4H96.6v2.8c0,0.2-0.1,0.3-0.3,0.3H87c-0.2,0-0.3-0.1-0.3-0.3v-2.8h-0.4c-1.4,0-2.5-1.1-2.5-2.5
			v-34.8c0-1.4,1.1-2.5,2.5-2.5h0.4v-2.8c0-0.2,0.1-0.3,0.3-0.3h9.3c0.2,0,0.3,0.1,0.3,0.3v2.8h14.2v-2.8c0-0.2,0.1-0.3,0.3-0.3h9.3
			c0.2,0,0.3,0.1,0.3,0.3v2.8h0.4c1.4,0,2.5,1.1,2.5,2.5v34.8c0,1.4-1.1,2.5-2.5,2.5h-0.4v2.8c0,0.2-0.1,0.3-0.3,0.3h-9.3
			c-0.2,0-0.3-0.1-0.3-0.3v-2.8H110.9z"/>
		<path class="st1" d="M558.7,266.1l-12.3,7.2l1.4,2.4c0.1,0.1,0,0.3-0.1,0.4l-8,4.7c-0.1,0.1-0.3,0-0.4-0.1l-1.4-2.4l-0.4,0.2
			c-1.2,0.7-2.7,0.3-3.4-0.9l-17.6-30.1c-0.7-1.2-0.3-2.7,0.9-3.4l0.4-0.2l-1.4-2.4c-0.1-0.1,0-0.3,0.1-0.4l8-4.7
			c0.1-0.1,0.3,0,0.4,0.1l1.4,2.4l12.3-7.2l-1.4-2.4c-0.1-0.1,0-0.3,0.1-0.4l8-4.7c0.1-0.1,0.3,0,0.4,0.1l1.4,2.4l0.4-0.2
			c1.2-0.7,2.7-0.3,3.4,0.9l17.6,30.1c0.7,1.2,0.3,2.7-0.9,3.4l-0.4,0.2l1.4,2.4c0.1,0.1,0,0.3-0.1,0.4l-8,4.7
			c-0.1,0.1-0.3,0-0.4-0.1L558.7,266.1z"/>
		<path class="st1" d="M522.1,177.8l7.2,12.3l2.4-1.4c0.1-0.1,0.3,0,0.4,0.1l4.7,8c0.1,0.1,0,0.3-0.1,0.4l-2.4,1.4l0.2,0.4
			c0.7,1.2,0.3,2.7-0.9,3.4l-30,17.7c-1.2,0.7-2.7,0.3-3.4-0.9l-0.2-0.4l-2.4,1.4c-0.1,0.1-0.3,0-0.4-0.1l-4.7-8
			c-0.1-0.1,0-0.3,0.1-0.4l2.4-1.4l-7.2-12.3l-2.4,1.4c-0.1,0.1-0.3,0-0.4-0.1l-4.7-8c-0.1-0.1,0-0.3,0.1-0.4l2.4-1.4l-0.2-0.4
			c-0.7-1.2-0.3-2.7,0.9-3.4l30-17.7c1.2-0.7,2.7-0.3,3.4,0.9l0.2,0.4l2.4-1.4c0.1-0.1,0.3,0,0.4,0.1l4.7,8c0.1,0.1,0,0.3-0.1,0.4
			L522.1,177.8z"/>
		<path class="st1" d="M702.6,50.6v14.2h2.8c0.2,0,0.3,0.1,0.3,0.3v9.3c0,0.2-0.1,0.3-0.3,0.3h-2.8v0.4c0,1.4-1.1,2.5-2.5,2.5h-34.8
			c-1.4,0-2.5-1.1-2.5-2.5v-0.4H660c-0.2,0-0.3-0.1-0.3-0.3v-9.3c0-0.2,0.1-0.3,0.3-0.3h2.8V50.6H660c-0.2,0-0.3-0.1-0.3-0.3V41
			c0-0.2,0.1-0.3,0.3-0.3h2.8v-0.4c0-1.4,1.1-2.5,2.5-2.5h34.8c1.4,0,2.5,1.1,2.5,2.5v0.4h2.8c0.2,0,0.3,0.1,0.3,0.3v9.3
			c0,0.2-0.1,0.3-0.3,0.3H702.6z"/>
		<path class="st1" d="M702.3,103.6v14.2h2.8c0.2,0,0.3,0.1,0.3,0.3v9.3c0,0.2-0.1,0.3-0.3,0.3h-2.8v0.4c0,1.4-1.1,2.5-2.5,2.5H665
			c-1.4,0-2.5-1.1-2.5-2.5v-0.4h-2.8c-0.2,0-0.3-0.1-0.3-0.3v-9.3c0-0.2,0.1-0.3,0.3-0.3h2.8v-14.2h-2.8c-0.2,0-0.3-0.1-0.3-0.3V94
			c0-0.2,0.1-0.3,0.3-0.3h2.8v-0.4c0-1.4,1.1-2.5,2.5-2.5h34.8c1.4,0,2.5,1.1,2.5,2.5v0.4h2.8c0.2,0,0.3,0.1,0.3,0.3v9.3
			c0,0.2-0.1,0.3-0.3,0.3H702.3z"/>
		<path class="st1" d="M702.3,157.6v14.2h2.8c0.2,0,0.3,0.1,0.3,0.3v9.3c0,0.2-0.1,0.3-0.3,0.3h-2.8v0.4c0,1.4-1.1,2.5-2.5,2.5H665
			c-1.4,0-2.5-1.1-2.5-2.5v-0.4h-2.8c-0.2,0-0.3-0.1-0.3-0.3v-9.3c0-0.2,0.1-0.3,0.3-0.3h2.8v-14.2h-2.8c-0.2,0-0.3-0.1-0.3-0.3V148
			c0-0.2,0.1-0.3,0.3-0.3h2.8v-0.4c0-1.4,1.1-2.5,2.5-2.5h34.8c1.4,0,2.5,1.1,2.5,2.5v0.4h2.8c0.2,0,0.3,0.1,0.3,0.3v9.3
			c0,0.2-0.1,0.3-0.3,0.3H702.3z"/>
		<path class="st1" d="M763,72.5v14.2h2.8c0.2,0,0.3,0.1,0.3,0.3v9.3c0,0.2-0.1,0.3-0.3,0.3H763V97c0,1.4-1.1,2.5-2.5,2.5h-34.8
			c-1.4,0-2.5-1.1-2.5-2.5v-0.4h-2.8c-0.2,0-0.3-0.1-0.3-0.3V87c0-0.2,0.1-0.3,0.3-0.3h2.8V72.5h-2.8c-0.2,0-0.3-0.1-0.3-0.3v-9.3
			c0-0.2,0.1-0.3,0.3-0.3h2.8v-0.4c0-1.4,1.1-2.5,2.5-2.5h34.8c1.4,0,2.5,1.1,2.5,2.5v0.4h2.8c0.2,0,0.3,0.1,0.3,0.3v9.3
			c0,0.2-0.1,0.3-0.3,0.3H763z"/>
		<path class="st1" d="M763,126.5v14.2h2.8c0.2,0,0.3,0.1,0.3,0.3v9.3c0,0.2-0.1,0.3-0.3,0.3H763v0.4c0,1.4-1.1,2.5-2.5,2.5h-34.8
			c-1.4,0-2.5-1.1-2.5-2.5v-0.4h-2.8c-0.2,0-0.3-0.1-0.3-0.3V141c0-0.2,0.1-0.3,0.3-0.3h2.8v-14.2h-2.8c-0.2,0-0.3-0.1-0.3-0.3v-9.3
			c0-0.2,0.1-0.3,0.3-0.3h2.8v-0.4c0-1.4,1.1-2.5,2.5-2.5h34.8c1.4,0,2.5,1.1,2.5,2.5v0.4h2.8c0.2,0,0.3,0.1,0.3,0.3v9.3
			c0,0.2-0.1,0.3-0.3,0.3H763z"/>
		<path class="st1" d="M767.1,203.1v14.2h2.8c0.2,0,0.3,0.1,0.3,0.3v9.3c0,0.2-0.1,0.3-0.3,0.3h-2.8v0.4c0,1.4-1.1,2.5-2.5,2.5
			h-34.8c-1.4,0-2.5-1.1-2.5-2.5v-0.4h-2.8c-0.2,0-0.3-0.1-0.3-0.3v-9.3c0-0.2,0.1-0.3,0.3-0.3h2.8v-14.2h-2.8
			c-0.2,0-0.3-0.1-0.3-0.3v-9.3c0-0.2,0.1-0.3,0.3-0.3h2.8v-0.4c0-1.4,1.1-2.5,2.5-2.5h34.8c1.4,0,2.5,1.1,2.5,2.5v0.4h2.8
			c0.2,0,0.3,0.1,0.3,0.3v9.3c0,0.2-0.1,0.3-0.3,0.3H767.1z"/>
		<path class="st1" d="M713,240.2v14.2h2.8c0.2,0,0.3,0.1,0.3,0.3v9.3c0,0.2-0.1,0.3-0.3,0.3H713v0.4c0,1.4-1.1,2.5-2.5,2.5h-34.8
			c-1.4,0-2.5-1.1-2.5-2.5v-0.4h-2.8c-0.2,0-0.3-0.1-0.3-0.3v-9.3c0-0.2,0.1-0.3,0.3-0.3h2.8v-14.2h-2.8c-0.2,0-0.3-0.1-0.3-0.3
			v-9.3c0-0.2,0.1-0.3,0.3-0.3h2.8v-0.4c0-1.4,1.1-2.5,2.5-2.5h34.8c1.4,0,2.5,1.1,2.5,2.5v0.4h2.8c0.2,0,0.3,0.1,0.3,0.3v9.3
			c0,0.2-0.1,0.3-0.3,0.3H713z"/>
		<path class="st1" d="M767.3,257.3v14.2h2.8c0.2,0,0.3,0.1,0.3,0.3v9.3c0,0.2-0.1,0.3-0.3,0.3h-2.8v0.4c0,1.4-1.1,2.5-2.5,2.5H730
			c-1.4,0-2.5-1.1-2.5-2.5v-0.4h-2.8c-0.2,0-0.3-0.1-0.3-0.3v-9.3c0-0.2,0.1-0.3,0.3-0.3h2.8v-14.2h-2.8c-0.2,0-0.3-0.1-0.3-0.3
			v-9.3c0-0.2,0.1-0.3,0.3-0.3h2.8V247c0-1.4,1.1-2.5,2.5-2.5h34.8c1.4,0,2.5,1.1,2.5,2.5v0.4h2.8c0.2,0,0.3,0.1,0.3,0.3v9.3
			c0,0.2-0.1,0.3-0.3,0.3H767.3z"/>
		<path class="st1" d="M821.1,242.7V257h2.8c0.2,0,0.3,0.1,0.3,0.3v9.3c0,0.2-0.1,0.3-0.3,0.3h-2.8v0.4c0,1.4-1.1,2.5-2.5,2.5h-34.8
			c-1.4,0-2.5-1.1-2.5-2.5v-0.4h-2.8c-0.2,0-0.3-0.1-0.3-0.3v-9.3c0-0.2,0.1-0.3,0.3-0.3h2.8v-14.2h-2.8c-0.2,0-0.3-0.1-0.3-0.3
			v-9.3c0-0.2,0.1-0.3,0.3-0.3h2.8v-0.4c0-1.4,1.1-2.5,2.5-2.5h34.8c1.4,0,2.5,1.1,2.5,2.5v0.4h2.8c0.2,0,0.3,0.1,0.3,0.3v9.3
			c0,0.2-0.1,0.3-0.3,0.3h-2.8V242.7z"/>
		<path class="st1" d="M628.2,227.4v14.2h2.8c0.2,0,0.3,0.1,0.3,0.3v9.3c0,0.2-0.1,0.3-0.3,0.3h-2.8v0.4c0,1.4-1.1,2.5-2.5,2.5
			h-34.8c-1.4,0-2.5-1.1-2.5-2.5v-0.4h-2.8c-0.2,0-0.3-0.1-0.3-0.3V242c0-0.2,0.1-0.3,0.3-0.3h2.8v-14.2h-2.8
			c-0.2,0-0.3-0.1-0.3-0.3v-9.3c0-0.2,0.1-0.3,0.3-0.3h2.8v-0.4c0-1.4,1.1-2.5,2.5-2.5h34.8c1.4,0,2.5,1.1,2.5,2.5v0.4h2.8
			c0.2,0,0.3,0.1,0.3,0.3v9.3c0,0.2-0.1,0.3-0.3,0.3h-2.8V227.4z"/>
		<path class="st1" d="M286.4,246.7v14.2h2.8c0.2,0,0.3,0.1,0.3,0.3v9.3c0,0.2-0.1,0.3-0.3,0.3h-2.8v0.4c0,1.4-1.1,2.5-2.5,2.5H249
			c-1.4,0-2.5-1.1-2.5-2.5v-0.4h-2.8c-0.2,0-0.3-0.1-0.3-0.3v-9.3c0-0.2,0.1-0.3,0.3-0.3h2.8v-14.2h-2.8c-0.2,0-0.3-0.1-0.3-0.3
			v-9.3c0-0.2,0.1-0.3,0.3-0.3h2.8v-0.4c0-1.4,1.1-2.5,2.5-2.5h34.8c1.4,0,2.5,1.1,2.5,2.5v0.4h2.8c0.2,0,0.3,0.1,0.3,0.3v9.3
			c0,0.2-0.1,0.3-0.3,0.3H286.4z"/>
		<path class="st1" d="M340.5,252.1v14.2h2.8c0.2,0,0.3,0.1,0.3,0.3v9.3c0,0.2-0.1,0.3-0.3,0.3h-2.8v0.4c0,1.4-1.1,2.5-2.5,2.5
			h-34.8c-1.4,0-2.5-1.1-2.5-2.5v-0.4h-2.8c-0.2,0-0.3-0.1-0.3-0.3v-9.3c0-0.2,0.1-0.3,0.3-0.3h2.8v-14.2h-2.8
			c-0.2,0-0.3-0.1-0.3-0.3v-9.3c0-0.2,0.1-0.3,0.3-0.3h2.8v-0.4c0-1.4,1.1-2.5,2.5-2.5H338c1.4,0,2.5,1.1,2.5,2.5v0.4h2.8
			c0.2,0,0.3,0.1,0.3,0.3v9.3c0,0.2-0.1,0.3-0.3,0.3L340.5,252.1L340.5,252.1z"/>
		<path class="st1" d="M234.3,144.5v14.2h2.8c0.2,0,0.3,0.1,0.3,0.3v9.3c0,0.2-0.1,0.3-0.3,0.3h-2.8v0.4c0,1.4-1.1,2.5-2.5,2.5H197
			c-1.4,0-2.5-1.1-2.5-2.5v-0.4h-2.8c-0.2,0-0.3-0.1-0.3-0.3V159c0-0.2,0.1-0.3,0.3-0.3h2.8v-14.2h-2.8c-0.2,0-0.3-0.1-0.3-0.3V135
			c0-0.2,0.1-0.3,0.3-0.3h2.8v-0.4c0-1.4,1.1-2.5,2.5-2.5h34.8c1.4,0,2.5,1.1,2.5,2.5v0.4h2.8c0.2,0,0.3,0.1,0.3,0.3v9.3
			c0,0.2-0.1,0.3-0.3,0.3h-2.8V144.5z"/>
		<path class="st1" d="M96.2,327.1l-12.3,7.2l1.4,2.4c0.1,0.1,0,0.3-0.1,0.4l-8,4.7c-0.1,0.1-0.3,0-0.4-0.1l-1.4-2.4l-0.4,0.2
			c-1.2,0.7-2.7,0.3-3.4-0.9L54,308.5c-0.7-1.2-0.3-2.7,0.9-3.4l0.4-0.2l-1.4-2.4c-0.1-0.1,0-0.3,0.1-0.4l8-4.7
			c0.1-0.1,0.3,0,0.4,0.1l1.4,2.4l12.3-7.2l-1.4-2.4c-0.1-0.1,0-0.3,0.1-0.4l8-4.7c0.1-0.1,0.3,0,0.4,0.1l1.4,2.4l0.4-0.2
			c1.2-0.7,2.7-0.3,3.4,0.9l17.6,30.1c0.7,1.2,0.3,2.7-0.9,3.4l-0.4,0.2l1.4,2.4c0.1,0.1,0,0.3-0.1,0.4l-8,4.7
			c-0.1,0.1-0.3,0-0.4-0.1L96.2,327.1z"/>
		<path class="st1" d="M59.6,238.7l7.2,12.3l2.4-1.4c0.1-0.1,0.3,0,0.4,0.1l4.7,8c0.1,0.1,0,0.3-0.1,0.4l-2.4,1.4l0.2,0.4
			c0.7,1.2,0.3,2.7-0.9,3.4l-30,17.7c-1.2,0.7-2.7,0.3-3.4-0.9l-0.2-0.4l-2.4,1.4c-0.1,0.1-0.3,0-0.4-0.1l-4.7-8
			c-0.1-0.1,0-0.3,0.1-0.4l2.4-1.4l-7.2-12.3l-2.4,1.4c-0.1,0.1-0.3,0-0.4-0.1l-4.7-8c-0.1-0.1,0-0.3,0.1-0.4l2.4-1.4l-0.2-0.4
			c-0.7-1.2-0.3-2.7,0.9-3.4L51,229c1.2-0.7,2.7-0.3,3.4,0.9l0.2,0.4l2.4-1.4c0.1-0.1,0.3,0,0.4,0.1l4.7,8c0.1,0.1,0,0.3-0.1,0.4
			L59.6,238.7z"/>
		<path class="st1" d="M143,300.5l-12.3,7.2l1.4,2.4c0.1,0.1,0,0.3-0.1,0.4l-8,4.7c-0.1,0.1-0.3,0-0.4-0.1l-1.4-2.4l-0.4,0.2
			c-1.2,0.7-2.7,0.3-3.4-0.9l-17.6-30.1c-0.7-1.2-0.3-2.7,0.9-3.4l0.4-0.2l-1.4-2.4c-0.1-0.1,0-0.3,0.1-0.4l8-4.7
			c0.1-0.1,0.3,0,0.4,0.1l1.4,2.4l12.3-7.2l-1.4-2.4c-0.1-0.1,0-0.3,0.1-0.4l8-4.7c0.1-0.1,0.3,0,0.4,0.1l1.4,2.4l0.4-0.2
			c1.2-0.7,2.7-0.3,3.4,0.9l17.6,30.1c0.7,1.2,0.3,2.7-0.9,3.4l-0.4,0.2l1.4,2.4c0.1,0.1,0,0.3-0.1,0.4l-8,4.7
			c-0.1,0.1-0.3,0-0.4-0.1L143,300.5z"/>
		<path class="st1" d="M106.4,212.1l7.2,12.3l2.4-1.4c0.1-0.1,0.3,0,0.4,0.1l4.7,8c0.1,0.1,0,0.3-0.1,0.4l-2.4,1.4l0.2,0.4
			c0.7,1.2,0.3,2.7-0.9,3.4l-30,17.7c-1.2,0.7-2.7,0.3-3.4-0.9l-0.2-0.4l-2.4,1.4c-0.1,0.1-0.3,0-0.4-0.1l-4.7-8
			c-0.1-0.1,0-0.3,0.1-0.4l2.4-1.4l-7.2-12.3l-2.4,1.4c-0.1,0.1-0.3,0-0.4-0.1l-4.7-8c-0.1-0.1,0-0.3,0.1-0.4l2.4-1.4l-0.2-0.4
			c-0.7-1.2-0.3-2.7,0.9-3.4l30-17.7c1.2-0.7,2.7-0.3,3.4,0.9l0.2,0.4l2.4-1.4c0.1-0.1,0.3,0,0.4,0.1l4.7,8c0.1,0.1,0,0.3-0.1,0.4
			L106.4,212.1z"/>
		<path class="st1" d="M211.8,255.8l3.7,13.8l2.7-0.7c0.2,0,0.3,0,0.4,0.2l2.4,8.9c0,0.2,0,0.3-0.2,0.4l-2.7,0.7l0.1,0.4
			c0.4,1.3-0.4,2.7-1.8,3l-33.7,9c-1.3,0.4-2.7-0.4-3-1.8l-0.1-0.4l-2.7,0.7c-0.2,0-0.3-0.1-0.4-0.2l-2.4-8.9c0-0.2,0.1-0.3,0.2-0.4
			l2.7-0.7l-3.7-13.8l-2.7,0.7c-0.2,0-0.3,0-0.4-0.2l-2.4-8.9c0-0.2,0.1-0.3,0.2-0.4l2.7-0.7l-0.1-0.4c-0.4-1.3,0.4-2.7,1.8-3
			l33.7-9c1.3-0.4,2.7,0.4,3,1.8l0.1,0.4l2.7-0.7c0.2,0,0.3,0.1,0.4,0.2l2.4,8.9c0,0.2,0,0.3-0.2,0.4L211.8,255.8z"/>
		<g>
			<g>
				<circle class="st0" cx="492.1" cy="158.3" r="5.7"/>
			</g>
			<g>
				<circle class="st0" cx="492" cy="13.4" r="5.7"/>
			</g>
			<g>
				<circle class="st0" cx="802.8" cy="288.1" r="5.7"/>
			</g>
			<g>
				<circle class="st0" cx="492" cy="288.4" r="5.7"/>
			</g>
			<g>
				<circle class="st0" cx="801.7" cy="38.2" r="5.7"/>
			</g>
			<g>
				<circle class="st0" cx="103.7" cy="13.4" r="5.7"/>
			</g>
		</g>
		<g>
			<circle class="st0" cx="25.2" cy="223.6" r="5.7"/>
		</g>
		<g>
			<g>
				<g>
					<path class="st1" d="M828.3,305.8H350.4c-2.3,0-4.5-1-6-2.7l-9.4-10.6c-1.5-1.7-3.7-2.7-6-2.7h-33.5c-2.1,0-4.1-0.8-5.6-2.2
						l-1.1-1c-1.5-1.4-3.4-2.2-5.4-2.2l-31.8-0.5c-0.8,0-1.5,0.1-2.2,0.3L180,303c-2.3,0.6-4.2,2.2-5.2,4.4l-0.8,1.7
						c-0.7,1.5-1.8,2.7-3.2,3.6l-88.7,52.5c-3.8,2.3-8.8,1-11-2.8L5.2,249.8c-12.8-20,2.7-29.4,2.7-29.4l56.7-37.2
						c5.3-3,3.6-7.4,4.2-11.7l1.6-112.8c0-24.9,0-47.7,0-50.6l0,0c0-4.4,3.6-8,8-8h618.5c2.1,0,4.2,0.8,5.7,2.3L719,19
						c1.5,1.5,3.5,2.3,5.7,2.3h82.8c2,0,3.9,0.8,5.4,2.1l20.9,19.1c1.7,1.5,2.6,3.7,2.6,5.9v249.3
						C836.3,302.2,832.7,305.8,828.3,305.8z"/>
				</g>
			</g>
		</g>
	</g>
</g>
<g id="Layer_2_1_">
</g>
</svg>
