  0
SECTION
  2
HEADER
  9
$ACADVER
  1
AC1024
  9
$ACADMAINTVER
 70
     6
  9
$DWGCODEPAGE
  3
UNDEFINED
  9
$INSBASE
 10
0.0
 20
0.0
 30
0.0
  9
$EXTMIN
 10
1.000000000000000E+20
 20
1.000000000000000E+20
 30
1.000000000000000E+20
  9
$EXTMAX
 10
-1.000000000000000E+20
 20
-1.000000000000000E+20
 30
-1.000000000000000E+20
  9
$LIMMIN
 10
0.0
 20
0.0
  9
$LIMMAX
 10
12.0
 20
9.0
  9
$ORTHOMODE
 70
     0
  9
$REGENMODE
 70
     1
  9
$FILLMODE
 70
     1
  9
$QTEXTMODE
 70
     0
  9
$MIRRTEXT
 70
     1
  9
$LTSCALE
 40
1.0
  9
$ATTMODE
 70
     1
  9
$TEXTSIZE
 40
0.2
  9
$TRACEWID
 40
0.05
  9
$TEXTSTYLE
  7
Standard
  9
$CLAYER
  8
0
  9
$CELTYPE
  6
ByLayer
  9
$CECOLOR
 62
   256
  9
$CELTSCALE
 40
1.0
  9
$DISPSILH
 70
     0
  9
$DIMSCALE
 40
1.0
  9
$DIMASZ
 40
0.18
  9
$DIMEXO
 40
0.0625
  9
$DIMDLI
 40
0.38
  9
$DIMRND
 40
0.0
  9
$DIMDLE
 40
0.0
  9
$DIMEXE
 40
0.18
  9
$DIMTP
 40
0.0
  9
$DIMTM
 40
0.0
  9
$DIMTXT
 40
0.18
  9
$DIMCEN
 40
0.09
  9
$DIMTSZ
 40
0.0
  9
$DIMTOL
 70
     0
  9
$DIMLIM
 70
     0
  9
$DIMTIH
 70
     1
  9
$DIMTOH
 70
     1
  9
$DIMSE1
 70
     0
  9
$DIMSE2
 70
     0
  9
$DIMTAD
 70
     0
  9
$DIMZIN
 70
     0
  9
$DIMBLK
  1

  9
$DIMASO
 70
     1
  9
$DIMSHO
 70
     1
  9
$DIMPOST
  1

  9
$DIMAPOST
  1

  9
$DIMALT
 70
     0
  9
$DIMALTD
 70
     2
  9
$DIMALTF
 40
25.4
  9
$DIMLFAC
 40
1.0
  9
$DIMTOFL
 70
     0
  9
$DIMTVP
 40
0.0
  9
$DIMTIX
 70
     0
  9
$DIMSOXD
 70
     0
  9
$DIMSAH
 70
     0
  9
$DIMBLK1
  1

  9
$DIMBLK2
  1

  9
$DIMSTYLE
  2
Standard
  9
$DIMCLRD
 70
     0
  9
$DIMCLRE
 70
     0
  9
$DIMCLRT
 70
     0
  9
$DIMTFAC
 40
1.0
  9
$DIMGAP
 40
0.09
  9
$DIMJUST
 70
     0
  9
$DIMSD1
 70
     0
  9
$DIMSD2
 70
     0
  9
$DIMTOLJ
 70
     1
  9
$DIMTZIN
 70
     0
  9
$DIMALTZ
 70
     0
  9
$DIMALTTZ
 70
     0
  9
$DIMUPT
 70
     0
  9
$DIMDEC
 70
     4
  9
$DIMTDEC
 70
     4
  9
$DIMALTU
 70
     2
  9
$DIMALTTD
 70
     2
  9
$DIMTXSTY
  7
Standard
  9
$DIMAUNIT
 70
     0
  9
$DIMADEC
 70
     0
  9
$DIMALTRND
 40
0.0
  9
$DIMAZIN
 70
     0
  9
$DIMDSEP
 70
    46
  9
$DIMATFIT
 70
     3
  9
$DIMFRAC
 70
     0
  9
$DIMLDRBLK
  1

  9
$DIMLUNIT
 70
     2
  9
$DIMLWD
 70
    -2
  9
$DIMLWE
 70
    -2
  9
$DIMTMOVE
 70
     0
  9
$DIMFXL
 40
1.0
  9
$DIMFXLON
 70
     0
  9
$DIMJOGANG
 40
0.7853981633974483
  9
$DIMTFILL
 70
     0
  9
$DIMTFILLCLR
 70
     0
  9
$DIMARCSYM
 70
     0
  9
$DIMLTYPE
  6

  9
$DIMLTEX1
  6

  9
$DIMLTEX2
  6

  9
$DIMTXTDIRECTION
 70
     0
  9
$LUNITS
 70
     2
  9
$LUPREC
 70
     4
  9
$SKETCHINC
 40
0.1
  9
$FILLETRAD
 40
0.5
  9
$AUNITS
 70
     0
  9
$AUPREC
 70
     0
  9
$MENU
  1
.
  9
$ELEVATION
 40
0.0
  9
$PELEVATION
 40
0.0
  9
$THICKNESS
 40
0.0
  9
$LIMCHECK
 70
     0
  9
$CHAMFERA
 40
0.5
  9
$CHAMFERB
 40
0.5
  9
$CHAMFERC
 40
1.0
  9
$CHAMFERD
 40
0.0
  9
$SKPOLY
 70
     0
  9
$TDCREATE
 40
2459466.479317118
  9
$TDUCREATE
 40
2459466.47931713
  9
$TDUPDATE
 40
2459466.479317118
  9
$TDUUPDATE
 40
2459466.47931713
  9
$TDINDWG
 40
0.0000000116
  9
$TDUSRTIMER
 40
0.0000000116
  9
$USRTIMER
 70
     1
  9
$ANGBASE
 50
0.0
  9
$ANGDIR
 70
     0
  9
$PDMODE
 70
     0
  9
$PDSIZE
 40
0.0
  9
$PLINEWID
 40
0.0
  9
$SPLFRAME
 70
     0
  9
$SPLINETYPE
 70
     6
  9
$SPLINESEGS
 70
     8
  9
$HANDSEED
  5
B1
  9
$SURFTAB1
 70
     6
  9
$SURFTAB2
 70
     6
  9
$SURFTYPE
 70
     6
  9
$SURFU
 70
     6
  9
$SURFV
 70
     6
  9
$UCSBASE
  2

  9
$UCSNAME
  2

  9
$UCSORG
 10
0.0
 20
0.0
 30
0.0
  9
$UCSXDIR
 10
1.0
 20
0.0
 30
0.0
  9
$UCSYDIR
 10
0.0
 20
1.0
 30
0.0
  9
$UCSORTHOREF
  2

  9
$UCSORTHOVIEW
 70
     0
  9
$UCSORGTOP
 10
0.0
 20
0.0
 30
0.0
  9
$UCSORGBOTTOM
 10
0.0
 20
0.0
 30
0.0
  9
$UCSORGLEFT
 10
0.0
 20
0.0
 30
0.0
  9
$UCSORGRIGHT
 10
0.0
 20
0.0
 30
0.0
  9
$UCSORGFRONT
 10
0.0
 20
0.0
 30
0.0
  9
$UCSORGBACK
 10
0.0
 20
0.0
 30
0.0
  9
$PUCSBASE
  2

  9
$PUCSNAME
  2

  9
$PUCSORG
 10
0.0
 20
0.0
 30
0.0
  9
$PUCSXDIR
 10
1.0
 20
0.0
 30
0.0
  9
$PUCSYDIR
 10
0.0
 20
1.0
 30
0.0
  9
$PUCSORTHOREF
  2

  9
$PUCSORTHOVIEW
 70
     0
  9
$PUCSORGTOP
 10
0.0
 20
0.0
 30
0.0
  9
$PUCSORGBOTTOM
 10
0.0
 20
0.0
 30
0.0
  9
$PUCSORGLEFT
 10
0.0
 20
0.0
 30
0.0
  9
$PUCSORGRIGHT
 10
0.0
 20
0.0
 30
0.0
  9
$PUCSORGFRONT
 10
0.0
 20
0.0
 30
0.0
  9
$PUCSORGBACK
 10
0.0
 20
0.0
 30
0.0
  9
$USERI1
 70
     0
  9
$USERI2
 70
     0
  9
$USERI3
 70
     0
  9
$USERI4
 70
     0
  9
$USERI5
 70
     0
  9
$USERR1
 40
0.0
  9
$USERR2
 40
0.0
  9
$USERR3
 40
0.0
  9
$USERR4
 40
0.0
  9
$USERR5
 40
0.0
  9
$WORLDVIEW
 70
     1
  9
$SHADEDGE
 70
     3
  9
$SHADEDIF
 70
    70
  9
$TILEMODE
 70
     1
  9
$MAXACTVP
 70
    64
  9
$PINSBASE
 10
0.0
 20
0.0
 30
0.0
  9
$PLIMCHECK
 70
     0
  9
$PEXTMIN
 10
1.000000000000000E+20
 20
1.000000000000000E+20
 30
1.000000000000000E+20
  9
$PEXTMAX
 10
-1.000000000000000E+20
 20
-1.000000000000000E+20
 30
-1.000000000000000E+20
  9
$PLIMMIN
 10
0.0
 20
0.0
  9
$PLIMMAX
 10
12.0
 20
9.0
  9
$UNITMODE
 70
     0
  9
$VISRETAIN
 70
     1
  9
$PLINEGEN
 70
     0
  9
$PSLTSCALE
 70
     1
  9
$TREEDEPTH
 70
  3020
  9
$CMLSTYLE
  2
Standard
  9
$CMLJUST
 70
     0
  9
$CMLSCALE
 40
1.0
  9
$PROXYGRAPHICS
 70
     1
  9
$MEASUREMENT
 70
     0
  9
$CELWEIGHT
370
    -1
  9
$ENDCAPS
280
     0
  9
$JOINSTYLE
280
     0
  9
$LWDISPLAY
290
     1
  9
$INSUNITS
 70
     4
  9
$HYPERLINKBASE
  1

  9
$STYLESHEET
  1

  9
$XEDIT
290
     1
  9
$CEPSNTYPE
380
     0
  9
$PSTYLEMODE
290
     1
  9
$FINGERPRINTGUID
  2
{78828D01-DB8E-41EB-BF01-7872CC7DF283}
  9
$VERSIONGUID
  2
{FAEB1C32-E019-11D5-929B-00C0DF256EC4}
  9
$EXTNAMES
290
     1
  9
$PSVPSCALE
 40
0.0
  9
$OLESTARTUP
290
     0
  9
$SORTENTS
280
   127
  9
$INDEXCTL
280
     0
  9
$HIDETEXT
280
     1
  9
$XCLIPFRAME
280
     2
  9
$HALOGAP
280
     0
  9
$OBSCOLOR
 70
   257
  9
$OBSLTYPE
280
     0
  9
$INTERSECTIONDISPLAY
280
     0
  9
$INTERSECTIONCOLOR
 70
   257
  9
$DIMASSOC
280
     2
  9
$PROJECTNAME
  1

  9
$CAMERADISPLAY
290
     0
  9
$LENSLENGTH
 40
50.0
  9
$CAMERAHEIGHT
 40
0.0
  9
$STEPSPERSEC
 40
2.0
  9
$STEPSIZE
 40
6.0
  9
$3DDWFPREC
 40
2.0
  9
$PSOLWIDTH
 40
0.25
  9
$PSOLHEIGHT
 40
4.0
  9
$LOFTANG1
 40
1.570796326794897
  9
$LOFTANG2
 40
1.570796326794897
  9
$LOFTMAG1
 40
0.0
  9
$LOFTMAG2
 40
0.0
  9
$LOFTPARAM
 70
     7
  9
$LOFTNORMALS
280
     1
  9
$LATITUDE
 40
37.795
  9
$LONGITUDE
 40
-122.394
  9
$NORTHDIRECTION
 40
0.0
  9
$TIMEZONE
 70
 -8000
  9
$LIGHTGLYPHDISPLAY
280
     1
  9
$TILEMODELIGHTSYNCH
280
     1
  9
$CMATERIAL
347
3C
  9
$SOLIDHIST
280
     1
  9
$SHOWHIST
280
     1
  9
$DWFFRAME
280
     2
  9
$DGNFRAME
280
     2
  9
$REALWORLDSCALE
290
     1
  9
$INTERFERECOLOR
 62
   256
  9
$CSHADOW
280
     0
  9
$SHADOWPLANELOCATION
 40
0.0
  0
ENDSEC
  0
SECTION
  2
CLASSES
  0
CLASS
  1
ACDBDICTIONARYWDFLT
  2
AcDbDictionaryWithDefault
  3
ObjectDBX Classes
 90
        0
 91
        4
280
     0
281
     0
  0
CLASS
  1
VISUALSTYLE
  2
AcDbVisualStyle
  3
ObjectDBX Classes
 90
     4095
 91
        4
280
     0
281
     0
  0
CLASS
  1
MATERIAL
  2
AcDbMaterial
  3
ObjectDBX Classes
 90
     1153
 91
        4
280
     0
281
     0
  0
CLASS
  1
SUN
  2
AcDbSun
  3
SCENEOE
 90
     1024
 91
        4
280
     0
281
     0
  0
ENDSEC
  0
SECTION
  2
TABLES
  0
TABLE
  2
VPORT
  5
8
330
0
100
AcDbSymbolTable
 70
     1
  0
VPORT
  5
29
330
8
100
AcDbSymbolTableRecord
100
AcDbViewportTableRecord
  2
*Active
 70
     0
 10
0.0
 20
0.0
 11
1.0
 21
1.0
 12
0.0
 22
0.0
 13
0.0
 23
0.0
 14
0.5
 24
0.5
 15
0.5
 25
0.5
 16
0.0
 26
0.0
 36
1.0
 17
146.826115380774
 27
116.1168033733417
 37
0.0
 40
232.2336067466834
 41
1.264469147576298
 42
50.0
 43
0.0
 44
0.0
 50
0.0
 51
0.0
 71
     0
 72
   100
 73
     1
 74
     3
 75
     0
 76
     0
 77
     0
 78
     0
281
     0
 65
     1
110
0.0
120
0.0
130
0.0
111
1.0
121
0.0
131
0.0
112
0.0
122
1.0
132
0.0
 79
     0
146
0.0
 60
     3
 61
     5
292
     1
282
     1
141
0.0
142
0.0
 63
   250
361
3F
  0
ENDTAB
  0
TABLE
  2
LTYPE
  5
5
330
0
100
AcDbSymbolTable
 70
     1
  0
LTYPE
  5
14
330
5
100
AcDbSymbolTableRecord
100
AcDbLinetypeTableRecord
  2
ByBlock
 70
     0
  3

 72
    65
 73
     0
 40
0.0
  0
LTYPE
  5
15
330
5
100
AcDbSymbolTableRecord
100
AcDbLinetypeTableRecord
  2
ByLayer
 70
     0
  3

 72
    65
 73
     0
 40
0.0
  0
LTYPE
  5
16
330
5
100
AcDbSymbolTableRecord
100
AcDbLinetypeTableRecord
  2
Continuous
 70
     0
  3
Solid line
 72
    65
 73
     0
 40
0.0
  0
ENDTAB
  0
TABLE
  2
LAYER
  5
2
330
0
100
AcDbSymbolTable
 70
     2
  0
LAYER
  5
10
330
2
100
AcDbSymbolTableRecord
100
AcDbLayerTableRecord
  2
0
 70
     0
 62
     7
  6
Continuous
370
    -3
390
F
347
3E
  0
LAYER
  5
40
330
2
100
AcDbSymbolTableRecord
100
AcDbLayerTableRecord
  2
Layer 1
 70
     0
 62
     7
  6
Continuous
370
    -3
390
F
347
3E
  0
ENDTAB
  0
TABLE
  2
STYLE
  5
3
330
0
100
AcDbSymbolTable
 70
     1
  0
STYLE
  5
11
330
3
100
AcDbSymbolTableRecord
100
AcDbTextStyleTableRecord
  2
Standard
 70
     0
 40
0.0
 41
1.0
 50
0.0
 71
     0
 42
0.2
  3
txt
  4

  0
ENDTAB
  0
TABLE
  2
VIEW
  5
6
330
0
100
AcDbSymbolTable
 70
     0
  0
ENDTAB
  0
TABLE
  2
UCS
  5
7
330
0
100
AcDbSymbolTable
 70
     0
  0
ENDTAB
  0
TABLE
  2
APPID
  5
9
330
0
100
AcDbSymbolTable
 70
     1
  0
APPID
  5
12
330
9
100
AcDbSymbolTableRecord
100
AcDbRegAppTableRecord
  2
ACAD
 70
     0
  0
ENDTAB
  0
TABLE
  2
DIMSTYLE
  5
A
330
0
100
AcDbSymbolTable
 70
     1
100
AcDbDimStyleTable
  0
DIMSTYLE
105
27
330
A
100
AcDbSymbolTableRecord
100
AcDbDimStyleTableRecord
  2
Standard
 70
     0
178
     0
340
11
  0
ENDTAB
  0
TABLE
  2
BLOCK_RECORD
  5
1
330
0
100
AcDbSymbolTable
 70
    24
  0
BLOCK_RECORD
  5
1F
330
1
100
AcDbSymbolTableRecord
100
AcDbBlockTableRecord
  2
*Model_Space
340
22
 70
     0
280
     1
281
     0
  0
BLOCK_RECORD
  5
1B
330
1
100
AcDbSymbolTableRecord
100
AcDbBlockTableRecord
  2
*Paper_Space
340
1E
 70
     0
280
     1
281
     0
  0
BLOCK_RECORD
  5
23
330
1
100
AcDbSymbolTableRecord
100
AcDbBlockTableRecord
  2
*Paper_Space0
340
26
 70
     0
280
     1
281
     0
  0
BLOCK_RECORD
  5
41
330
1
100
AcDbSymbolTableRecord
100
AcDbBlockTableRecord
  2
block 2
340
0
102
{BLKREFS
331
42
102
}
 70
     0
280
     1
281
     0
  0
BLOCK_RECORD
  5
45
330
1
100
AcDbSymbolTableRecord
100
AcDbBlockTableRecord
  2
block 3
340
0
102
{BLKREFS
331
46
102
}
 70
     0
280
     1
281
     0
  0
BLOCK_RECORD
  5
49
330
1
100
AcDbSymbolTableRecord
100
AcDbBlockTableRecord
  2
block 4
340
0
102
{BLKREFS
331
4A
102
}
 70
     0
280
     1
281
     0
  0
BLOCK_RECORD
  5
4D
330
1
100
AcDbSymbolTableRecord
100
AcDbBlockTableRecord
  2
block 5
340
0
102
{BLKREFS
331
4E
102
}
 70
     0
280
     1
281
     0
  0
BLOCK_RECORD
  5
51
330
1
100
AcDbSymbolTableRecord
100
AcDbBlockTableRecord
  2
block 6
340
0
102
{BLKREFS
331
52
102
}
 70
     0
280
     1
281
     0
  0
BLOCK_RECORD
  5
55
330
1
100
AcDbSymbolTableRecord
100
AcDbBlockTableRecord
  2
block 7
340
0
102
{BLKREFS
331
56
102
}
 70
     0
280
     1
281
     0
  0
BLOCK_RECORD
  5
5A
330
1
100
AcDbSymbolTableRecord
100
AcDbBlockTableRecord
  2
block 8
340
0
102
{BLKREFS
331
5B
102
}
 70
     0
280
     1
281
     0
  0
BLOCK_RECORD
  5
5F
330
1
100
AcDbSymbolTableRecord
100
AcDbBlockTableRecord
  2
block 9
340
0
102
{BLKREFS
331
60
102
}
 70
     0
280
     1
281
     0
  0
BLOCK_RECORD
  5
64
330
1
100
AcDbSymbolTableRecord
100
AcDbBlockTableRecord
  2
block 10
340
0
102
{BLKREFS
331
65
102
}
 70
     0
280
     1
281
     0
  0
BLOCK_RECORD
  5
6B
330
1
100
AcDbSymbolTableRecord
100
AcDbBlockTableRecord
  2
block 11
340
0
102
{BLKREFS
331
6C
102
}
 70
     0
280
     1
281
     0
  0
BLOCK_RECORD
  5
6F
330
1
100
AcDbSymbolTableRecord
100
AcDbBlockTableRecord
  2
block 12
340
0
102
{BLKREFS
331
70
102
}
 70
     0
280
     1
281
     0
  0
BLOCK_RECORD
  5
74
330
1
100
AcDbSymbolTableRecord
100
AcDbBlockTableRecord
  2
block 13
340
0
102
{BLKREFS
331
75
102
}
 70
     0
280
     1
281
     0
  0
BLOCK_RECORD
  5
79
330
1
100
AcDbSymbolTableRecord
100
AcDbBlockTableRecord
  2
block 14
340
0
102
{BLKREFS
331
7A
102
}
 70
     0
280
     1
281
     0
  0
BLOCK_RECORD
  5
7E
330
1
100
AcDbSymbolTableRecord
100
AcDbBlockTableRecord
  2
block 15
340
0
102
{BLKREFS
331
7F
102
}
 70
     0
280
     1
281
     0
  0
BLOCK_RECORD
  5
83
330
1
100
AcDbSymbolTableRecord
100
AcDbBlockTableRecord
  2
block 16
340
0
102
{BLKREFS
331
84
102
}
 70
     0
280
     1
281
     0
  0
BLOCK_RECORD
  5
88
330
1
100
AcDbSymbolTableRecord
100
AcDbBlockTableRecord
  2
block 17
340
0
102
{BLKREFS
331
89
102
}
 70
     0
280
     1
281
     0
  0
BLOCK_RECORD
  5
8D
330
1
100
AcDbSymbolTableRecord
100
AcDbBlockTableRecord
  2
block 18
340
0
102
{BLKREFS
331
8E
102
}
 70
     0
280
     1
281
     0
  0
BLOCK_RECORD
  5
92
330
1
100
AcDbSymbolTableRecord
100
AcDbBlockTableRecord
  2
block 19
340
0
102
{BLKREFS
331
93
102
}
 70
     0
280
     1
281
     0
  0
BLOCK_RECORD
  5
96
330
1
100
AcDbSymbolTableRecord
100
AcDbBlockTableRecord
  2
block 20
340
0
102
{BLKREFS
331
97
102
}
 70
     0
280
     1
281
     0
  0
BLOCK_RECORD
  5
9A
330
1
100
AcDbSymbolTableRecord
100
AcDbBlockTableRecord
  2
block 21
340
0
102
{BLKREFS
331
9B
102
}
 70
     0
280
     1
281
     0
  0
BLOCK_RECORD
  5
A1
330
1
100
AcDbSymbolTableRecord
100
AcDbBlockTableRecord
  2
block 22
340
0
102
{BLKREFS
331
A2
102
}
 70
     0
280
     1
281
     0
  0
BLOCK_RECORD
  5
A6
330
1
100
AcDbSymbolTableRecord
100
AcDbBlockTableRecord
  2
block 23
340
0
102
{BLKREFS
331
A7
102
}
 70
     0
280
     1
281
     0
  0
BLOCK_RECORD
  5
AA
330
1
100
AcDbSymbolTableRecord
100
AcDbBlockTableRecord
  2
block 24
340
0
102
{BLKREFS
331
AB
102
}
 70
     0
280
     1
281
     0
  0
ENDTAB
  0
ENDSEC
  0
SECTION
  2
BLOCKS
  0
BLOCK
  5
20
330
1F
100
AcDbEntity
  8
0
100
AcDbBlockBegin
  2
*Model_Space
 70
     0
 10
0.0
 20
0.0
 30
0.0
  3
*Model_Space
  1

  0
ENDBLK
  5
21
330
1F
100
AcDbEntity
  8
0
100
AcDbBlockEnd
  0
BLOCK
  5
1C
330
1B
100
AcDbEntity
 67
     1
  8
0
100
AcDbBlockBegin
  2
*Paper_Space
 70
     0
 10
0.0
 20
0.0
 30
0.0
  3
*Paper_Space
  1

  0
ENDBLK
  5
1D
330
1B
100
AcDbEntity
 67
     1
  8
0
100
AcDbBlockEnd
  0
BLOCK
  5
24
330
23
100
AcDbEntity
  8
0
100
AcDbBlockBegin
  2
*Paper_Space0
 70
     0
 10
0.0
 20
0.0
 30
0.0
  3
*Paper_Space0
  1

  0
ENDBLK
  5
25
330
23
100
AcDbEntity
  8
0
100
AcDbBlockEnd
  0
BLOCK
  5
43
330
41
100
AcDbEntity
  8
0
100
AcDbBlockBegin
  2
block 2
 70
     0
 10
0.0
 20
0.0
 30
0.0
  3
block 2
  1

  0
INSERT
  5
46
330
41
100
AcDbEntity
  8
Layer 1
100
AcDbBlockReference
  2
block 3
 10
0.0
 20
0.0
 30
0.0
  0
ENDBLK
  5
44
330
41
100
AcDbEntity
  8
0
100
AcDbBlockEnd
  0
BLOCK
  5
47
330
45
100
AcDbEntity
  8
0
100
AcDbBlockBegin
  2
block 3
 70
     0
 10
0.0
 20
0.0
 30
0.0
  3
block 3
  1

  0
INSERT
  5
4A
330
45
100
AcDbEntity
  8
Layer 1
100
AcDbBlockReference
  2
block 4
 10
0.0
 20
0.0
 30
0.0
  0
INSERT
  5
A2
330
45
100
AcDbEntity
  8
Layer 1
100
AcDbBlockReference
  2
block 22
 10
0.0
 20
0.0
 30
0.0
  0
SPLINE
  5
A5
330
45
100
AcDbEntity
  8
Layer 1
 62
     7
420
 16777215
370
     9
100
AcDbSpline
210
0.0
220
0.0
230
1.0
 70
    11
 71
     3
 72
    17
 73
    13
 74
     0
 42
0.0000000001
 43
0.0000000001
 12
1.0
 22
0.0
 32
0.0
 13
1.0
 23
0.0
 33
0.0
 40
0.0
 40
0.0
 40
0.0
 40
0.0
 40
1.0
 40
1.0
 40
1.0
 40
2.0
 40
2.0
 40
2.0
 40
3.0
 40
3.0
 40
3.0
 40
4.0
 40
4.0
 40
4.0
 40
4.0
 10
126.4002734398084
 20
226.730275653751
 30
0.0
 10
126.9652906312361
 20
226.730275653751
 30
0.0
 10
127.4233268419235
 20
226.2722380973232
 30
0.0
 10
127.4233268419235
 20
225.7072202330253
 30
0.0
 10
127.4233268419235
 20
225.1422023687273
 30
0.0
 10
126.9652906312361
 20
224.6841648122995
 30
0.0
 10
126.4002734398084
 20
224.6841648122995
 30
0.0
 10
125.8352562483806
 20
224.6841648122995
 30
0.0
 10
125.3772200376932
 20
225.1422023687273
 30
0.0
 10
125.3772200376932
 20
225.7072202330253
 30
0.0
 10
125.3772200376932
 20
226.2722380973232
 30
0.0
 10
125.8352562483806
 20
226.730275653751
 30
0.0
 10
126.4002734398084
 20
226.730275653751
 30
0.0
  0
ENDBLK
  5
48
330
45
100
AcDbEntity
  8
0
100
AcDbBlockEnd
  0
BLOCK
  5
4B
330
49
100
AcDbEntity
  8
0
100
AcDbBlockBegin
  2
block 4
 70
     0
 10
0.0
 20
0.0
 30
0.0
  3
block 4
  1

  0
INSERT
  5
4E
330
49
100
AcDbEntity
  8
Layer 1
100
AcDbBlockReference
  2
block 5
 10
0.0
 20
0.0
 30
0.0
  0
INSERT
  5
52
330
49
100
AcDbEntity
  8
Layer 1
100
AcDbBlockReference
  2
block 6
 10
0.0
 20
0.0
 30
0.0
  0
INSERT
  5
56
330
49
100
AcDbEntity
  8
Layer 1
100
AcDbBlockReference
  2
block 7
 10
0.0
 20
0.0
 30
0.0
  0
INSERT
  5
5B
330
49
100
AcDbEntity
  8
Layer 1
100
AcDbBlockReference
  2
block 8
 10
0.0
 20
0.0
 30
0.0
  0
INSERT
  5
60
330
49
100
AcDbEntity
  8
Layer 1
100
AcDbBlockReference
  2
block 9
 10
0.0
 20
0.0
 30
0.0
  0
INSERT
  5
65
330
49
100
AcDbEntity
  8
Layer 1
100
AcDbBlockReference
  2
block 10
 10
0.0
 20
0.0
 30
0.0
  0
SPLINE
  5
69
330
49
100
AcDbEntity
  8
Layer 1
 62
     7
420
 16777215
370
     9
100
AcDbSpline
210
0.0
220
0.0
230
1.0
 70
    11
 71
     3
 72
    71
 73
    67
 74
     0
 42
0.0000000001
 43
0.0000000001
 12
1.0
 22
0.0
 32
0.0
 13
1.0
 23
0.0
 33
0.0
 40
0.0
 40
0.0
 40
0.0
 40
0.0
 40
1.0
 40
1.0
 40
1.0
 40
2.0
 40
2.0
 40
2.0
 40
3.0
 40
3.0
 40
3.0
 40
4.0
 40
4.0
 40
4.0
 40
5.0
 40
5.0
 40
5.0
 40
6.0
 40
6.0
 40
6.0
 40
7.0
 40
7.0
 40
7.0
 40
8.0
 40
8.0
 40
8.0
 40
9.0
 40
9.0
 40
9.0
 40
10.0
 40
10.0
 40
10.0
 40
11.0
 40
11.0
 40
11.0
 40
12.0
 40
12.0
 40
12.0
 40
13.0
 40
13.0
 40
13.0
 40
14.0
 40
14.0
 40
14.0
 40
15.0
 40
15.0
 40
15.0
 40
16.0
 40
16.0
 40
16.0
 40
17.0
 40
17.0
 40
17.0
 40
18.0
 40
18.0
 40
18.0
 40
19.0
 40
19.0
 40
19.0
 40
20.0
 40
20.0
 40
20.0
 40
21.0
 40
21.0
 40
21.0
 40
22.0
 40
22.0
 40
22.0
 40
22.0
 10
224.4724956375125
 20
103.7166690143367
 30
0.0
 10
224.366666610575
 20
103.8930579031815
 30
0.0
 10
224.9663931390166
 20
106.1861134581638
 30
0.0
 10
222.9908246648469
 20
106.3272224160549
 30
0.0
 10
222.7791666109719
 20
106.3272224160549
 30
0.0
 10
188.6302605051428
 20
106.4683313739461
 30
0.0
 10
180.9397092578792
 20
106.3272224160549
 30
0.0
 10
179.0347114115402
 20
106.2919424851013
 30
0.0
 10
178.3644357871146
 20
105.5158378337382
 30
0.0
 10
178.2938759252073
 20
105.4805579027846
 30
0.0
 10
177.2708225230922
 20
104.7750023474054
 30
0.0
 10
175.753871619473
 20
102.4819467924231
 30
0.0
 10
175.753871619473
 20
102.4819467924231
 30
0.0
 10
175.2247049529386
 20
101.8822202639815
 30
0.0
 10
174.1310916889162
 20
101.5294424862919
 30
0.0
 10
173.3197071065996
 20
101.5294424862919
 30
0.0
 10
173.3197071065996
 20
101.5294424862919
 30
0.0
 10
161.2899827342001
 20
101.5647224172455
 30
0.0
 10
161.2899827342001
 20
101.5647224172455
 30
0.0
 10
160.5491472478673
 20
101.5647224172455
 30
0.0
 10
160.0199805813329
 20
101.4236134593544
 30
0.0
 10
159.4908139147985
 20
100.89444679282
 30
0.0
 10
159.4908139147985
 20
100.89444679282
 30
0.0
 10
159.4908139147985
 20
100.89444679282
 30
0.0
 10
159.4908139147985
 20
100.89444679282
 30
0.0
 10
158.9616472482641
 20
100.4005600572393
 30
0.0
 10
158.5735895396209
 20
99.27166686226326
 30
0.0
 10
157.8327540532881
 20
99.23638693130962
 30
0.0
 10
157.8327540532881
 20
99.23638693130962
 30
0.0
 10
151.5533139167829
 20
99.13055790437211
 30
0.0
 10
148.907480584111
 20
99.16582706940235
 30
0.0
 10
148.7310916952662
 20
99.16582706940235
 30
0.0
 10
147.0730318337558
 20
99.41277582015442
 30
0.0
 10
146.6497049600824
 20
99.62443387402945
 30
0.0
 10
146.4027562093303
 20
99.73026290096698
 30
0.0
 10
127.3174870490626
 20
105.2688783170628
 30
0.0
 10
127.0705382983105
 20
105.3394381789701
 30
0.0
 10
127.0705382983105
 20
105.3394381789701
 30
0.0
 10
86.92442612064357
 20
128.1288847709018
 30
0.0
 10
86.92442612064357
 20
128.1288847709018
 30
0.0
 10
85.58386948883081
 20
128.9402693532185
 30
0.0
 10
83.8199806003829
 20
128.4816625485914
 30
0.0
 10
83.04387056605816
 20
127.1411112997403
 30
0.0
 10
83.04387056605816
 20
127.1411112997403
 30
0.0
 10
59.7958117865376
 20
87.41833137870859
 30
0.0
 10
59.7958117865376
 20
87.41833137870859
 30
0.0
 10
59.54886841874723
 20
86.99499373911172
 30
0.0
 10
59.40775407789437
 20
86.50110700353099
 30
0.0
 10
59.40775407789437
 20
85.97194033699661
 30
0.0
 10
59.40775407789437
 20
85.97194033699661
 30
0.0
 10
59.40775407789437
 20
3.986386955122121
 30
0.0
 10
59.40775407789437
 20
3.986386955122121
 30
0.0
 10
59.40775407789437
 20
3.986386955122121
 30
0.0
 10
59.40775407789437
 20
2.151938204766931
 30
0.0
 10
59.40775407789437
 20
2.151938204766931
 30
0.0
 10
59.40775407789437
 20
0.5997073701940516
 30
0.0
 10
59.44303400884801
 20
0.0705407036596766
 30
0.0
 10
60.9952540774975
 20
0.0705407036596766
 30
0.0
 10
60.9952540774975
 20
0.0705407036596766
 30
0.0
 10
222.7085852172178
 20
0.1058098686899218
 30
0.0
 10
222.7085852172178
 20
0.1058098686899218
 30
0.0
 10
223.4494099376273
 20
0.1058098686899218
 30
0.0
 10
224.7194228564178
 20
-0.0705790201548698
 30
0.0
 10
224.7194228564178
 20
1.411091952510737
 30
0.0
 10
224.7194228564178
 20
1.411091952510737
 30
0.0
 10
224.4724956375125
 20
103.7166690143367
 30
0.0
 10
224.4724956375125
 20
103.7166690143367
 30
0.0
  0
HATCH
  5
6A
330
49
100
AcDbEntity
  8
Layer 1
 62
    52
420
 12763648
100
AcDbHatch
 10
0.0
 20
0.0
 30
0.0
210
0.0
220
0.0
230
1.0
  2
SOLID
 70
     1
 71
     0
 91
        1
 92
        1
 93
        1
 72
     4
 94
        3
 73
     0
 74
     1
 95
       71
 96
       67
 40
0.0
 40
0.0
 40
0.0
 40
0.0
 40
1.0
 40
1.0
 40
1.0
 40
2.0
 40
2.0
 40
2.0
 40
3.0
 40
3.0
 40
3.0
 40
4.0
 40
4.0
 40
4.0
 40
5.0
 40
5.0
 40
5.0
 40
6.0
 40
6.0
 40
6.0
 40
7.0
 40
7.0
 40
7.0
 40
8.0
 40
8.0
 40
8.0
 40
9.0
 40
9.0
 40
9.0
 40
10.0
 40
10.0
 40
10.0
 40
11.0
 40
11.0
 40
11.0
 40
12.0
 40
12.0
 40
12.0
 40
13.0
 40
13.0
 40
13.0
 40
14.0
 40
14.0
 40
14.0
 40
15.0
 40
15.0
 40
15.0
 40
16.0
 40
16.0
 40
16.0
 40
17.0
 40
17.0
 40
17.0
 40
18.0
 40
18.0
 40
18.0
 40
19.0
 40
19.0
 40
19.0
 40
20.0
 40
20.0
 40
20.0
 40
21.0
 40
21.0
 40
21.0
 40
22.0
 40
22.0
 40
22.0
 40
22.0
 10
224.4724956375125
 20
103.7166690143367
 10
224.366666610575
 20
103.8930579031815
 10
224.9663931390166
 20
106.1861134581638
 10
222.9908246648469
 20
106.3272224160549
 10
222.7791666109719
 20
106.3272224160549
 10
188.6302605051428
 20
106.4683313739461
 10
180.9397092578792
 20
106.3272224160549
 10
179.0347114115402
 20
106.2919424851013
 10
178.3644357871146
 20
105.5158378337382
 10
178.2938759252073
 20
105.4805579027846
 10
177.2708225230922
 20
104.7750023474054
 10
175.753871619473
 20
102.4819467924231
 10
175.753871619473
 20
102.4819467924231
 10
175.2247049529386
 20
101.8822202639815
 10
174.1310916889162
 20
101.5294424862919
 10
173.3197071065996
 20
101.5294424862919
 10
173.3197071065996
 20
101.5294424862919
 10
161.2899827342001
 20
101.5647224172455
 10
161.2899827342001
 20
101.5647224172455
 10
160.5491472478673
 20
101.5647224172455
 10
160.0199805813329
 20
101.4236134593544
 10
159.4908139147985
 20
100.89444679282
 10
159.4908139147985
 20
100.89444679282
 10
159.4908139147985
 20
100.89444679282
 10
159.4908139147985
 20
100.89444679282
 10
158.9616472482641
 20
100.4005600572393
 10
158.5735895396209
 20
99.27166686226326
 10
157.8327540532881
 20
99.23638693130962
 10
157.8327540532881
 20
99.23638693130962
 10
151.5533139167829
 20
99.13055790437211
 10
148.907480584111
 20
99.16582706940235
 10
148.7310916952662
 20
99.16582706940235
 10
147.0730318337558
 20
99.41277582015442
 10
146.6497049600824
 20
99.62443387402945
 10
146.4027562093303
 20
99.73026290096698
 10
127.3174870490626
 20
105.2688783170628
 10
127.0705382983105
 20
105.3394381789701
 10
127.0705382983105
 20
105.3394381789701
 10
86.92442612064357
 20
128.1288847709018
 10
86.92442612064357
 20
128.1288847709018
 10
85.58386948883081
 20
128.9402693532185
 10
83.8199806003829
 20
128.4816625485914
 10
83.04387056605816
 20
127.1411112997403
 10
83.04387056605816
 20
127.1411112997403
 10
59.7958117865376
 20
87.41833137870859
 10
59.7958117865376
 20
87.41833137870859
 10
59.54886841874723
 20
86.99499373911172
 10
59.40775407789437
 20
86.50110700353099
 10
59.40775407789437
 20
85.97194033699661
 10
59.40775407789437
 20
85.97194033699661
 10
59.40775407789437
 20
3.986386955122121
 10
59.40775407789437
 20
3.986386955122121
 10
59.40775407789437
 20
3.986386955122121
 10
59.40775407789437
 20
2.151938204766931
 10
59.40775407789437
 20
2.151938204766931
 10
59.40775407789437
 20
0.5997073701940516
 10
59.44303400884801
 20
0.0705407036596766
 10
60.9952540774975
 20
0.0705407036596766
 10
60.9952540774975
 20
0.0705407036596766
 10
222.7085852172178
 20
0.1058098686899218
 10
222.7085852172178
 20
0.1058098686899218
 10
223.4494099376273
 20
0.1058098686899218
 10
224.7194228564178
 20
-0.0705790201548698
 10
224.7194228564178
 20
1.411091952510737
 10
224.7194228564178
 20
1.411091952510737
 10
224.4724956375125
 20
103.7166690143367
 10
224.4724956375125
 20
103.7166690143367
 97
        0
 97
        0
 75
     2
 76
     1
 98
        0
  0
INSERT
  5
6C
330
49
100
AcDbEntity
  8
Layer 1
100
AcDbBlockReference
  2
block 11
 10
0.0
 20
0.0
 30
0.0
  0
INSERT
  5
8E
330
49
100
AcDbEntity
  8
Layer 1
100
AcDbBlockReference
  2
block 18
 10
0.0
 20
0.0
 30
0.0
  0
INSERT
  5
93
330
49
100
AcDbEntity
  8
Layer 1
100
AcDbBlockReference
  2
block 19
 10
0.0
 20
0.0
 30
0.0
  0
ENDBLK
  5
4C
330
49
100
AcDbEntity
  8
0
100
AcDbBlockEnd
  0
BLOCK
  5
4F
330
4D
100
AcDbEntity
  8
0
100
AcDbBlockBegin
  2
block 5
 70
     0
 10
0.0
 20
0.0
 30
0.0
  3
block 5
  1

  0
ENDBLK
  5
50
330
4D
100
AcDbEntity
  8
0
100
AcDbBlockEnd
  0
BLOCK
  5
53
330
51
100
AcDbEntity
  8
0
100
AcDbBlockBegin
  2
block 6
 70
     0
 10
0.0
 20
0.0
 30
0.0
  3
block 6
  1

  0
ENDBLK
  5
54
330
51
100
AcDbEntity
  8
0
100
AcDbBlockEnd
  0
BLOCK
  5
57
330
55
100
AcDbEntity
  8
0
100
AcDbBlockBegin
  2
block 7
 70
     0
 10
0.0
 20
0.0
 30
0.0
  3
block 7
  1

  0
SPLINE
  5
59
330
55
100
AcDbEntity
  8
Layer 1
 62
     7
420
 16777215
370
     9
100
AcDbSpline
210
0.0
220
0.0
230
1.0
 70
    11
 71
     3
 72
    17
 73
    13
 74
     0
 42
0.0000000001
 43
0.0000000001
 12
1.0
 22
0.0
 32
0.0
 13
1.0
 23
0.0
 33
0.0
 40
0.0
 40
0.0
 40
0.0
 40
0.0
 40
1.0
 40
1.0
 40
1.0
 40
2.0
 40
2.0
 40
2.0
 40
3.0
 40
3.0
 40
3.0
 40
4.0
 40
4.0
 40
4.0
 40
4.0
 10
89.3586121653638
 20
98.88360915362004
 30
0.0
 10
90.46916560984256
 20
98.88360915362004
 30
0.0
 10
91.36944442160208
 20
97.98331957593713
 30
0.0
 10
91.36944442160208
 20
96.87277151442007
 30
0.0
 10
91.36944442160208
 20
95.76222345290299
 30
0.0
 10
90.46916560984256
 20
94.86193387522007
 30
0.0
 10
89.3586121653638
 20
94.86193387522007
 30
0.0
 10
88.24805872088504
 20
94.86193387522007
 30
0.0
 10
87.34777990912552
 20
95.76222345290299
 30
0.0
 10
87.34777990912552
 20
96.87277151442007
 30
0.0
 10
87.34777990912552
 20
97.98331957593713
 30
0.0
 10
88.24805872088504
 20
98.88360915362004
 30
0.0
 10
89.3586121653638
 20
98.88360915362004
 30
0.0
  0
ENDBLK
  5
58
330
55
100
AcDbEntity
  8
0
100
AcDbBlockEnd
  0
BLOCK
  5
5C
330
5A
100
AcDbEntity
  8
0
100
AcDbBlockBegin
  2
block 8
 70
     0
 10
0.0
 20
0.0
 30
0.0
  3
block 8
  1

  0
SPLINE
  5
5E
330
5A
100
AcDbEntity
  8
Layer 1
 62
     7
420
 16777215
370
     9
100
AcDbSpline
210
0.0
220
0.0
230
1.0
 70
    11
 71
     3
 72
    17
 73
    13
 74
     0
 42
0.0000000001
 43
0.0000000001
 12
1.0
 22
0.0
 32
0.0
 13
1.0
 23
0.0
 33
0.0
 40
0.0
 40
0.0
 40
0.0
 40
0.0
 40
1.0
 40
1.0
 40
1.0
 40
2.0
 40
2.0
 40
2.0
 40
3.0
 40
3.0
 40
3.0
 40
4.0
 40
4.0
 40
4.0
 40
4.0
 10
216.993602444124
 20
8.607788761963732
 30
0.0
 10
218.1041505056411
 20
8.607788761963732
 30
0.0
 10
219.004440083324
 20
7.707499184280819
 30
0.0
 10
219.004440083324
 20
6.596951122763751
 30
0.0
 10
219.004440083324
 20
5.486403061246683
 30
0.0
 10
218.1041505056411
 20
4.58611348356377
 30
0.0
 10
216.993602444124
 20
4.58611348356377
 30
0.0
 10
215.8830543826069
 20
4.58611348356377
 30
0.0
 10
214.982764804924
 20
5.486403061246683
 30
0.0
 10
214.982764804924
 20
6.596951122763751
 30
0.0
 10
214.982764804924
 20
7.707499184280819
 30
0.0
 10
215.8830543826069
 20
8.607788761963732
 30
0.0
 10
216.993602444124
 20
8.607788761963732
 30
0.0
  0
ENDBLK
  5
5D
330
5A
100
AcDbEntity
  8
0
100
AcDbBlockEnd
  0
BLOCK
  5
61
330
5F
100
AcDbEntity
  8
0
100
AcDbBlockBegin
  2
block 9
 70
     0
 10
0.0
 20
0.0
 30
0.0
  3
block 9
  1

  0
SPLINE
  5
63
330
5F
100
AcDbEntity
  8
Layer 1
 62
     7
420
 16777215
370
     9
100
AcDbSpline
210
0.0
220
0.0
230
1.0
 70
    11
 71
     3
 72
    17
 73
    13
 74
     0
 42
0.0000000001
 43
0.0000000001
 12
1.0
 22
0.0
 32
0.0
 13
1.0
 23
0.0
 33
0.0
 40
0.0
 40
0.0
 40
0.0
 40
0.0
 40
1.0
 40
1.0
 40
1.0
 40
2.0
 40
2.0
 40
2.0
 40
3.0
 40
3.0
 40
3.0
 40
4.0
 40
4.0
 40
4.0
 40
4.0
 10
199.848611061149
 20
83.53777582412317
 30
0.0
 10
200.959159122666
 20
83.53777582412317
 30
0.0
 10
201.859448700349
 20
82.63748624644025
 30
0.0
 10
201.859448700349
 20
81.52693818492318
 30
0.0
 10
201.859448700349
 20
80.41639012340612
 30
0.0
 10
200.959159122666
 20
79.5161005457232
 30
0.0
 10
199.848611061149
 20
79.5161005457232
 30
0.0
 10
198.7380629996319
 20
79.5161005457232
 30
0.0
 10
197.837773421949
 20
80.41639012340612
 30
0.0
 10
197.837773421949
 20
81.52693818492318
 30
0.0
 10
197.837773421949
 20
82.63748624644025
 30
0.0
 10
198.7380629996319
 20
83.53777582412317
 30
0.0
 10
199.848611061149
 20
83.53777582412317
 30
0.0
  0
ENDBLK
  5
62
330
5F
100
AcDbEntity
  8
0
100
AcDbBlockEnd
  0
BLOCK
  5
66
330
64
100
AcDbEntity
  8
0
100
AcDbBlockBegin
  2
block 10
 70
     0
 10
0.0
 20
0.0
 30
0.0
  3
block 10
  1

  0
SPLINE
  5
68
330
64
100
AcDbEntity
  8
Layer 1
 62
     7
420
 16777215
370
     9
100
AcDbSpline
210
0.0
220
0.0
230
1.0
 70
    11
 71
     3
 72
    17
 73
    13
 74
     0
 42
0.0000000001
 43
0.0000000001
 12
1.0
 22
0.0
 32
0.0
 13
1.0
 23
0.0
 33
0.0
 40
0.0
 40
0.0
 40
0.0
 40
0.0
 40
1.0
 40
1.0
 40
1.0
 40
2.0
 40
2.0
 40
2.0
 40
3.0
 40
3.0
 40
3.0
 40
4.0
 40
4.0
 40
4.0
 40
4.0
 10
106.5036089313005
 20
6.70278014970127
 30
0.0
 10
107.6141569928176
 20
6.70278014970127
 30
0.0
 10
108.5144465705005
 20
5.802490572018356
 30
0.0
 10
108.5144465705005
 20
4.691942510501288
 30
0.0
 10
108.5144465705005
 20
3.58139444898422
 30
0.0
 10
107.6141569928176
 20
2.681104871301307
 30
0.0
 10
106.5036089313005
 20
2.681104871301307
 30
0.0
 10
105.3930608697835
 20
2.681104871301307
 30
0.0
 10
104.4927712921006
 20
3.58139444898422
 30
0.0
 10
104.4927712921006
 20
4.691942510501288
 30
0.0
 10
104.4927712921006
 20
5.802490572018356
 30
0.0
 10
105.3930608697835
 20
6.70278014970127
 30
0.0
 10
106.5036089313005
 20
6.70278014970127
 30
0.0
  0
ENDBLK
  5
67
330
64
100
AcDbEntity
  8
0
100
AcDbBlockEnd
  0
BLOCK
  5
6D
330
6B
100
AcDbEntity
  8
0
100
AcDbBlockBegin
  2
block 11
 70
     0
 10
0.0
 20
0.0
 30
0.0
  3
block 11
  1

  0
INSERT
  5
70
330
6B
100
AcDbEntity
  8
Layer 1
100
AcDbBlockReference
  2
block 12
 10
0.0
 20
0.0
 30
0.0
  0
INSERT
  5
75
330
6B
100
AcDbEntity
  8
Layer 1
100
AcDbBlockReference
  2
block 13
 10
0.0
 20
0.0
 30
0.0
  0
INSERT
  5
7A
330
6B
100
AcDbEntity
  8
Layer 1
100
AcDbBlockReference
  2
block 14
 10
0.0
 20
0.0
 30
0.0
  0
INSERT
  5
7F
330
6B
100
AcDbEntity
  8
Layer 1
100
AcDbBlockReference
  2
block 15
 10
0.0
 20
0.0
 30
0.0
  0
INSERT
  5
84
330
6B
100
AcDbEntity
  8
Layer 1
100
AcDbBlockReference
  2
block 16
 10
0.0
 20
0.0
 30
0.0
  0
INSERT
  5
89
330
6B
100
AcDbEntity
  8
Layer 1
100
AcDbBlockReference
  2
block 17
 10
0.0
 20
0.0
 30
0.0
  0
ENDBLK
  5
6E
330
6B
100
AcDbEntity
  8
0
100
AcDbBlockEnd
  0
BLOCK
  5
71
330
6F
100
AcDbEntity
  8
0
100
AcDbBlockBegin
  2
block 12
 70
     0
 10
0.0
 20
0.0
 30
0.0
  3
block 12
  1

  0
SPLINE
  5
73
330
6F
100
AcDbEntity
  8
Layer 1
 62
     7
420
 16777215
370
     9
100
AcDbSpline
210
0.0
220
0.0
230
1.0
 70
    11
 71
     3
 72
    17
 73
    13
 74
     0
 42
0.0000000001
 43
0.0000000001
 12
1.0
 22
0.0
 32
0.0
 13
1.0
 23
0.0
 33
0.0
 40
0.0
 40
0.0
 40
0.0
 40
0.0
 40
1.0
 40
1.0
 40
1.0
 40
2.0
 40
2.0
 40
2.0
 40
3.0
 40
3.0
 40
3.0
 40
4.0
 40
4.0
 40
4.0
 40
4.0
 10
172.1908354434703
 20
178.3997180916674
 30
0.0
 10
173.3013835049874
 20
178.3997180916674
 30
0.0
 10
174.2016730826703
 20
177.4994392799079
 30
0.0
 10
174.2016730826703
 20
176.3888858354292
 30
0.0
 10
174.2016730826703
 20
175.2783323909504
 30
0.0
 10
173.3013835049874
 20
174.3780535791909
 30
0.0
 10
172.1908354434703
 20
174.3780535791909
 30
0.0
 10
171.0802873819532
 20
174.3780535791909
 30
0.0
 10
170.1799978042703
 20
175.2783323909504
 30
0.0
 10
170.1799978042703
 20
176.3888858354292
 30
0.0
 10
170.1799978042703
 20
177.4994392799079
 30
0.0
 10
171.0802873819532
 20
178.3997180916674
 30
0.0
 10
172.1908354434703
 20
178.3997180916674
 30
0.0
  0
ENDBLK
  5
72
330
6F
100
AcDbEntity
  8
0
100
AcDbBlockEnd
  0
BLOCK
  5
76
330
74
100
AcDbEntity
  8
0
100
AcDbBlockBegin
  2
block 13
 70
     0
 10
0.0
 20
0.0
 30
0.0
  3
block 13
  1

  0
SPLINE
  5
78
330
74
100
AcDbEntity
  8
Layer 1
 62
     7
420
 16777215
370
     9
100
AcDbSpline
210
0.0
220
0.0
230
1.0
 70
    11
 71
     3
 72
    17
 73
    13
 74
     0
 42
0.0000000001
 43
0.0000000001
 12
1.0
 22
0.0
 32
0.0
 13
1.0
 23
0.0
 33
0.0
 40
0.0
 40
0.0
 40
0.0
 40
0.0
 40
1.0
 40
1.0
 40
1.0
 40
2.0
 40
2.0
 40
2.0
 40
3.0
 40
3.0
 40
3.0
 40
4.0
 40
4.0
 40
4.0
 40
4.0
 10
172.1555555125167
 20
229.5172202993598
 30
0.0
 10
173.2661035740337
 20
229.5172202993598
 30
0.0
 10
174.1663931517166
 20
228.6169394689896
 30
0.0
 10
174.1663931517166
 20
227.5063870338162
 30
0.0
 10
174.1663931517166
 20
226.3958342622076
 30
0.0
 10
173.2661035740337
 20
225.4955541047077
 30
0.0
 10
172.1555555125167
 20
225.4955541047077
 30
0.0
 10
171.0450074509996
 20
225.4955541047077
 30
0.0
 10
170.1447178733167
 20
226.3958342622076
 30
0.0
 10
170.1447178733167
 20
227.5063870338162
 30
0.0
 10
170.1447178733167
 20
228.6169394689896
 30
0.0
 10
171.0450074509996
 20
229.5172202993598
 30
0.0
 10
172.1555555125167
 20
229.5172202993598
 30
0.0
  0
ENDBLK
  5
77
330
74
100
AcDbEntity
  8
0
100
AcDbBlockEnd
  0
BLOCK
  5
7B
330
79
100
AcDbEntity
  8
0
100
AcDbBlockBegin
  2
block 14
 70
     0
 10
0.0
 20
0.0
 30
0.0
  3
block 14
  1

  0
SPLINE
  5
7D
330
79
100
AcDbEntity
  8
Layer 1
 62
     7
420
 16777215
370
     9
100
AcDbSpline
210
0.0
220
0.0
230
1.0
 70
    11
 71
     3
 72
    17
 73
    13
 74
     0
 42
0.0000000001
 43
0.0000000001
 12
1.0
 22
0.0
 32
0.0
 13
1.0
 23
0.0
 33
0.0
 40
0.0
 40
0.0
 40
0.0
 40
0.0
 40
1.0
 40
1.0
 40
1.0
 40
2.0
 40
2.0
 40
2.0
 40
3.0
 40
3.0
 40
3.0
 40
4.0
 40
4.0
 40
4.0
 40
4.0
 10
281.7988845120698
 20
132.6091668539289
 30
0.0
 10
282.9094325735869
 20
132.6091668539289
 30
0.0
 10
283.8097221512698
 20
131.708877276246
 30
0.0
 10
283.8097221512698
 20
130.5983292147289
 30
0.0
 10
283.8097221512698
 20
129.4877811532118
 30
0.0
 10
282.9094325735869
 20
128.5874915755289
 30
0.0
 10
281.7988845120698
 20
128.5874915755289
 30
0.0
 10
280.6883364505528
 20
128.5874915755289
 30
0.0
 10
279.7880468728698
 20
129.4877811532118
 30
0.0
 10
279.7880468728698
 20
130.5983292147289
 30
0.0
 10
279.7880468728698
 20
131.708877276246
 30
0.0
 10
280.6883364505528
 20
132.6091668539289
 30
0.0
 10
281.7988845120698
 20
132.6091668539289
 30
0.0
  0
ENDBLK
  5
7C
330
79
100
AcDbEntity
  8
0
100
AcDbBlockEnd
  0
BLOCK
  5
80
330
7E
100
AcDbEntity
  8
0
100
AcDbBlockBegin
  2
block 15
 70
     0
 10
0.0
 20
0.0
 30
0.0
  3
block 15
  1

  0
SPLINE
  5
82
330
7E
100
AcDbEntity
  8
Layer 1
 62
     7
420
 16777215
370
     9
100
AcDbSpline
210
0.0
220
0.0
230
1.0
 70
    11
 71
     3
 72
    17
 73
    13
 74
     0
 42
0.0000000001
 43
0.0000000001
 12
1.0
 22
0.0
 32
0.0
 13
1.0
 23
0.0
 33
0.0
 40
0.0
 40
0.0
 40
0.0
 40
0.0
 40
1.0
 40
1.0
 40
1.0
 40
2.0
 40
2.0
 40
2.0
 40
3.0
 40
3.0
 40
3.0
 40
4.0
 40
4.0
 40
4.0
 40
4.0
 10
172.1555555125167
 20
132.5033378269914
 30
0.0
 10
173.2661035740337
 20
132.5033378269914
 30
0.0
 10
174.1663931517166
 20
131.6030482493084
 30
0.0
 10
174.1663931517166
 20
130.4925001877914
 30
0.0
 10
174.1663931517166
 20
129.3819521262743
 30
0.0
 10
173.2661035740337
 20
128.4816625485914
 30
0.0
 10
172.1555555125167
 20
128.4816625485914
 30
0.0
 10
171.0450074509996
 20
128.4816625485914
 30
0.0
 10
170.1447178733167
 20
129.3819521262743
 30
0.0
 10
170.1447178733167
 20
130.4925001877914
 30
0.0
 10
170.1447178733167
 20
131.6030482493084
 30
0.0
 10
171.0450074509996
 20
132.5033378269914
 30
0.0
 10
172.1555555125167
 20
132.5033378269914
 30
0.0
  0
ENDBLK
  5
81
330
7E
100
AcDbEntity
  8
0
100
AcDbBlockEnd
  0
BLOCK
  5
85
330
83
100
AcDbEntity
  8
0
100
AcDbBlockBegin
  2
block 16
 70
     0
 10
0.0
 20
0.0
 30
0.0
  3
block 16
  1

  0
SPLINE
  5
87
330
83
100
AcDbEntity
  8
Layer 1
 62
     7
420
 16777215
370
     9
100
AcDbSpline
210
0.0
220
0.0
230
1.0
 70
    11
 71
     3
 72
    17
 73
    13
 74
     0
 42
0.0000000001
 43
0.0000000001
 12
1.0
 22
0.0
 32
0.0
 13
1.0
 23
0.0
 33
0.0
 40
0.0
 40
0.0
 40
0.0
 40
0.0
 40
1.0
 40
1.0
 40
1.0
 40
2.0
 40
2.0
 40
2.0
 40
3.0
 40
3.0
 40
3.0
 40
4.0
 40
4.0
 40
4.0
 40
4.0
 10
281.41083756935
 20
220.7683313453711
 30
0.0
 10
282.5213856308671
 20
220.7683313453711
 30
0.0
 10
283.42167520855
 20
219.8680498421307
 30
0.0
 10
283.42167520855
 20
218.7574977433924
 30
0.0
 10
283.42167520855
 20
217.646945644654
 30
0.0
 10
282.5213856308671
 20
216.7466641414137
 30
0.0
 10
281.41083756935
 20
216.7466641414137
 30
0.0
 10
280.3002895078329
 20
216.7466641414137
 30
0.0
 10
279.39999993015
 20
217.646945644654
 30
0.0
 10
279.39999993015
 20
218.7574977433924
 30
0.0
 10
279.39999993015
 20
219.8680498421307
 30
0.0
 10
280.3002895078329
 20
220.7683313453711
 30
0.0
 10
281.41083756935
 20
220.7683313453711
 30
0.0
  0
ENDBLK
  5
86
330
83
100
AcDbEntity
  8
0
100
AcDbBlockEnd
  0
BLOCK
  5
8A
330
88
100
AcDbEntity
  8
0
100
AcDbBlockBegin
  2
block 17
 70
     0
 10
0.0
 20
0.0
 30
0.0
  3
block 17
  1

  0
SPLINE
  5
8C
330
88
100
AcDbEntity
  8
Layer 1
 62
     7
420
 16777215
370
     9
100
AcDbSpline
210
0.0
220
0.0
230
1.0
 70
    11
 71
     3
 72
    17
 73
    13
 74
     0
 42
0.0000000001
 43
0.0000000001
 12
1.0
 22
0.0
 32
0.0
 13
1.0
 23
0.0
 33
0.0
 40
0.0
 40
0.0
 40
0.0
 40
0.0
 40
1.0
 40
1.0
 40
1.0
 40
2.0
 40
2.0
 40
2.0
 40
3.0
 40
3.0
 40
3.0
 40
4.0
 40
4.0
 40
4.0
 40
4.0
 10
35.17194335905912
 20
229.5172202993598
 30
0.0
 10
36.28249680353788
 20
229.5172202993598
 30
0.0
 10
37.18277561529741
 20
228.6169394689896
 30
0.0
 10
37.18277561529741
 20
227.5063870338162
 30
0.0
 10
37.18277561529741
 20
226.3958342622076
 30
0.0
 10
36.28249680353788
 20
225.4955541047077
 30
0.0
 10
35.17194335905912
 20
225.4955541047077
 30
0.0
 10
34.06138991458036
 20
225.4955541047077
 30
0.0
 10
33.16111110282083
 20
226.3958342622076
 30
0.0
 10
33.16111110282083
 20
227.5063870338162
 30
0.0
 10
33.16111110282083
 20
228.6169394689896
 30
0.0
 10
34.06138991458036
 20
229.5172202993598
 30
0.0
 10
35.17194335905912
 20
229.5172202993598
 30
0.0
  0
ENDBLK
  5
8B
330
88
100
AcDbEntity
  8
0
100
AcDbBlockEnd
  0
BLOCK
  5
8F
330
8D
100
AcDbEntity
  8
0
100
AcDbBlockBegin
  2
block 18
 70
     0
 10
0.0
 20
0.0
 30
0.0
  3
block 18
  1

  0
SPLINE
  5
91
330
8D
100
AcDbEntity
  8
Layer 1
 62
     7
420
 16777215
370
     9
100
AcDbSpline
210
0.0
220
0.0
230
1.0
 70
    11
 71
     3
 72
    17
 73
    13
 74
     0
 42
0.0000000001
 43
0.0000000001
 12
1.0
 22
0.0
 32
0.0
 13
1.0
 23
0.0
 33
0.0
 40
0.0
 40
0.0
 40
0.0
 40
0.0
 40
1.0
 40
1.0
 40
1.0
 40
2.0
 40
2.0
 40
2.0
 40
3.0
 40
3.0
 40
3.0
 40
4.0
 40
4.0
 40
4.0
 40
4.0
 10
7.478889156167252
 20
155.3633281319453
 30
0.0
 10
8.589441927775804
 20
155.3633281319453
 30
0.0
 10
9.489722758145962
 20
154.4630493201858
 30
0.0
 10
9.489722758145962
 20
153.352495875707
 30
0.0
 10
9.489722758145962
 20
152.2419424312283
 30
0.0
 10
8.589441927775804
 20
151.3416636194688
 30
0.0
 10
7.478889156167252
 20
151.3416636194688
 30
0.0
 10
6.3683363845587
 20
151.3416636194688
 30
0.0
 10
5.468055890623648
 20
152.2419424312283
 30
0.0
 10
5.468055890623648
 20
153.352495875707
 30
0.0
 10
5.468055890623648
 20
154.4630493201858
 30
0.0
 10
6.3683363845587
 20
155.3633281319453
 30
0.0
 10
7.478889156167252
 20
155.3633281319453
 30
0.0
  0
ENDBLK
  5
90
330
8D
100
AcDbEntity
  8
0
100
AcDbBlockEnd
  0
BLOCK
  5
94
330
92
100
AcDbEntity
  8
0
100
AcDbBlockBegin
  2
block 19
 70
     0
 10
0.0
 20
0.0
 30
0.0
  3
block 19
  1

  0
INSERT
  5
97
330
92
100
AcDbEntity
  8
Layer 1
100
AcDbBlockReference
  2
block 20
 10
0.0
 20
0.0
 30
0.0
  0
ENDBLK
  5
95
330
92
100
AcDbEntity
  8
0
100
AcDbBlockEnd
  0
BLOCK
  5
98
330
96
100
AcDbEntity
  8
0
100
AcDbBlockBegin
  2
block 20
 70
     0
 10
0.0
 20
0.0
 30
0.0
  3
block 20
  1

  0
INSERT
  5
9B
330
96
100
AcDbEntity
  8
Layer 1
100
AcDbBlockReference
  2
block 21
 10
0.0
 20
0.0
 30
0.0
  0
ENDBLK
  5
99
330
96
100
AcDbEntity
  8
0
100
AcDbBlockEnd
  0
BLOCK
  5
9C
330
9A
100
AcDbEntity
  8
0
100
AcDbBlockBegin
  2
block 21
 70
     0
 10
0.0
 20
0.0
 30
0.0
  3
block 21
  1

  0
SPLINE
  5
9E
330
9A
100
AcDbEntity
  8
Layer 1
370
     0
100
AcDbSpline
210
0.0
220
0.0
230
1.0
 70
    11
 71
     3
 72
   101
 73
    97
 74
     0
 42
0.0000000001
 43
0.0000000001
 12
1.0
 22
0.0
 32
0.0
 13
1.0
 23
0.0
 33
0.0
 40
0.0
 40
0.0
 40
0.0
 40
0.0
 40
1.0
 40
1.0
 40
1.0
 40
2.0
 40
2.0
 40
2.0
 40
3.0
 40
3.0
 40
3.0
 40
4.0
 40
4.0
 40
4.0
 40
5.0
 40
5.0
 40
5.0
 40
6.0
 40
6.0
 40
6.0
 40
7.0
 40
7.0
 40
7.0
 40
8.0
 40
8.0
 40
8.0
 40
9.0
 40
9.0
 40
9.0
 40
10.0
 40
10.0
 40
10.0
 40
11.0
 40
11.0
 40
11.0
 40
12.0
 40
12.0
 40
12.0
 40
13.0
 40
13.0
 40
13.0
 40
14.0
 40
14.0
 40
14.0
 40
15.0
 40
15.0
 40
15.0
 40
16.0
 40
16.0
 40
16.0
 40
17.0
 40
17.0
 40
17.0
 40
18.0
 40
18.0
 40
18.0
 40
19.0
 40
19.0
 40
19.0
 40
20.0
 40
20.0
 40
20.0
 40
21.0
 40
21.0
 40
21.0
 40
22.0
 40
22.0
 40
22.0
 40
23.0
 40
23.0
 40
23.0
 40
24.0
 40
24.0
 40
24.0
 40
25.0
 40
25.0
 40
25.0
 40
26.0
 40
26.0
 40
26.0
 40
27.0
 40
27.0
 40
27.0
 40
28.0
 40
28.0
 40
28.0
 40
29.0
 40
29.0
 40
29.0
 40
30.0
 40
30.0
 40
30.0
 40
31.0
 40
31.0
 40
31.0
 40
32.0
 40
32.0
 40
32.0
 40
32.0
 10
290.7947178431542
 20
124.3541690091773
 30
0.0
 10
290.7947178431542
 20
124.3541690091773
 30
0.0
 10
122.202220038487
 20
124.3541690091773
 30
0.0
 10
122.202220038487
 20
124.3541690091773
 30
0.0
 10
121.3908354561703
 20
124.3541690091773
 30
0.0
 10
120.6147200388839
 20
124.7069467868669
 30
0.0
 10
120.0855533723495
 20
125.3066733153085
 30
0.0
 10
120.0855533723495
 20
125.3066733153085
 30
0.0
 10
116.7694444152521
 20
129.0461199120028
 30
0.0
 10
116.7694444152521
 20
129.0461199120028
 30
0.0
 10
116.2402777487177
 20
129.6458464404445
 30
0.0
 10
115.4641623314313
 20
129.998624218134
 30
0.0
 10
114.6527777491146
 20
129.998624218134
 30
0.0
 10
114.6527777491146
 20
129.998624218134
 30
0.0
 10
102.8347221965136
 20
129.998624218134
 30
0.0
 10
102.8347221965136
 20
129.998624218134
 30
0.0
 10
102.0938867101807
 20
129.998624218134
 30
0.0
 10
101.3883311548016
 20
130.2808421339164
 30
0.0
 10
100.8591644882672
 20
130.7747396354205
 30
0.0
 10
100.8591644882672
 20
130.7747396354205
 30
0.0
 10
100.471106779624
 20
131.1275174131101
 30
0.0
 10
100.471106779624
 20
131.1275174131101
 30
0.0
 10
99.9419401130896
 20
131.6214041486908
 30
0.0
 10
99.27166448866407
 20
131.9036328303965
 30
0.0
 10
98.56610893328491
 20
131.9036328303965
 30
0.0
 10
98.56610893328491
 20
131.9036328303965
 30
0.0
 10
87.34777452616382
 20
132.0800217192413
 30
0.0
 10
87.34777452616382
 20
132.0800217192413
 30
0.0
 10
87.06555122741982
 20
132.0800217192413
 30
0.0
 10
86.81860785962944
 20
132.0447417882877
 30
0.0
 10
86.57166449183907
 20
131.9741926923038
 30
0.0
 10
86.57166449183907
 20
131.9741926923038
 30
0.0
 10
62.08888887336667
 20
125.3419424803388
 30
0.0
 10
62.08888887336667
 20
125.3419424803388
 30
0.0
 10
61.27749890808829
 20
125.1302736605404
 30
0.0
 10
60.60722328366276
 20
124.5658270630524
 30
0.0
 10
60.25444550597317
 20
123.7897224116893
 30
0.0
 10
60.25444550597317
 20
123.7897224116893
 30
0.0
 10
59.97222220722917
 20
123.1899958832477
 30
0.0
 10
59.97222220722917
 20
123.1899958832477
 30
0.0
 10
59.7252788394388
 20
122.6608292167133
 30
0.0
 10
59.33722113079558
 20
122.2374915771164
 30
0.0
 10
58.84333439521484
 20
121.9199937303805
 30
0.0
 10
58.84333439521484
 20
121.9199937303805
 30
0.0
 10
27.55194659074114
 20
103.3991604016773
 30
0.0
 10
27.55194659074114
 20
103.3991604016773
 30
0.0
 10
26.21138995892838
 20
102.5877758193607
 30
0.0
 10
24.44750107048047
 20
103.0463826239878
 30
0.0
 10
23.67139103615572
 20
104.3869338728388
 30
0.0
 10
23.67139103615572
 20
104.3869338728388
 30
0.0
 10
0.4233333500492553
 20
144.1097191768323
 30
0.0
 10
0.4233333500492553
 20
144.1097191768323
 30
0.0
 10
0.1763889098719858
 20
144.5330514334674
 30
0.0
 10
0.035277786179836
 20
145.0269435520099
 30
0.0
 10
0.035277786179836
 20
145.5561102185443
 30
0.0
 10
0.035277786179836
 20
145.5561102185443
 30
0.0
 10
0.035277786179836
 20
211.5255546464963
 30
0.0
 10
0.035277786179836
 20
211.5255546464963
 30
0.0
 10
0.035277786179836
 20
220.3097218492631
 30
0.0
 10
0.035277786179836
 20
228.3530549114376
 30
0.0
 10
0.035277786179836
 20
229.3761096592931
 30
0.0
 10
0.035277786179836
 20
229.3761096592931
 30
0.0
 10
0.035277786179836
 20
229.3761096592931
 30
0.0
 10
0.035277786179836
 20
229.3761096592931
 30
0.0
 10
0.035277786179836
 20
230.9283319147708
 30
0.0
 10
1.305277710164437
 20
232.1983318808097
 30
0.0
 10
2.857500133859668
 20
232.1983318808097
 30
0.0
 10
2.857500133859668
 20
232.1983318808097
 30
0.0
 10
244.404440076974
 20
232.1983318808097
 30
0.0
 10
244.404440076974
 20
232.1983318808097
 30
0.0
 10
245.1452647973834
 20
232.1983318808097
 30
0.0
 10
245.8861110496396
 20
231.9161096544526
 30
0.0
 10
246.415277716174
 20
231.3869430089455
 30
0.0
 10
246.415277716174
 20
231.3869430089455
 30
0.0
 10
252.2361110480521
 20
225.5308313441805
 30
0.0
 10
252.2361110480521
 20
225.5308313441805
 30
0.0
 10
252.7652777145865
 20
225.0016646776461
 30
0.0
 10
253.4708332699656
 20
224.7194427246425
 30
0.0
 10
254.2469486872521
 20
224.7194427246425
 30
0.0
 10
254.2469486872521
 20
224.7194427246425
 30
0.0
 10
283.4569443735802
 20
224.7194427246425
 30
0.0
 10
283.4569443735802
 20
224.7194427246425
 30
0.0
 10
284.1624999289594
 20
224.7194427246425
 30
0.0
 10
284.8327863193083
 20
224.4372207716389
 30
0.0
 10
285.3619529858427
 20
223.9786092569204
 30
0.0
 10
285.3619529858427
 20
223.9786092569204
 30
0.0
 10
292.7350171522937
 20
217.2405535684753
 30
0.0
 10
292.7350171522937
 20
217.2405535684753
 30
0.0
 10
293.3347436807354
 20
216.7113869019409
 30
0.0
 10
293.6522307615479
 20
215.9352755218757
 30
0.0
 10
293.6522307615479
 20
215.1591641418105
 30
0.0
 10
293.6522307615479
 20
215.1591641418105
 30
0.0
 10
293.6522307615479
 20
127.2116603957242
 30
0.0
 10
293.6522307615479
 20
127.2116603957242
 30
0.0
 10
293.6169400646709
 20
125.6241603961211
 30
0.0
 10
292.3469486777271
 20
124.3541690091773
 30
0.0
 10
290.7947178431542
 20
124.3541690091773
 30
0.0
  0
HATCH
  5
9F
330
9A
100
AcDbEntity
  8
Layer 1
 62
    52
420
 12763648
100
AcDbHatch
 10
0.0
 20
0.0
 30
0.0
210
0.0
220
0.0
230
1.0
  2
SOLID
 70
     1
 71
     0
 91
        1
 92
        1
 93
        1
 72
     4
 94
        3
 73
     0
 74
     1
 95
      101
 96
       97
 40
0.0
 40
0.0
 40
0.0
 40
0.0
 40
1.0
 40
1.0
 40
1.0
 40
2.0
 40
2.0
 40
2.0
 40
3.0
 40
3.0
 40
3.0
 40
4.0
 40
4.0
 40
4.0
 40
5.0
 40
5.0
 40
5.0
 40
6.0
 40
6.0
 40
6.0
 40
7.0
 40
7.0
 40
7.0
 40
8.0
 40
8.0
 40
8.0
 40
9.0
 40
9.0
 40
9.0
 40
10.0
 40
10.0
 40
10.0
 40
11.0
 40
11.0
 40
11.0
 40
12.0
 40
12.0
 40
12.0
 40
13.0
 40
13.0
 40
13.0
 40
14.0
 40
14.0
 40
14.0
 40
15.0
 40
15.0
 40
15.0
 40
16.0
 40
16.0
 40
16.0
 40
17.0
 40
17.0
 40
17.0
 40
18.0
 40
18.0
 40
18.0
 40
19.0
 40
19.0
 40
19.0
 40
20.0
 40
20.0
 40
20.0
 40
21.0
 40
21.0
 40
21.0
 40
22.0
 40
22.0
 40
22.0
 40
23.0
 40
23.0
 40
23.0
 40
24.0
 40
24.0
 40
24.0
 40
25.0
 40
25.0
 40
25.0
 40
26.0
 40
26.0
 40
26.0
 40
27.0
 40
27.0
 40
27.0
 40
28.0
 40
28.0
 40
28.0
 40
29.0
 40
29.0
 40
29.0
 40
30.0
 40
30.0
 40
30.0
 40
31.0
 40
31.0
 40
31.0
 40
32.0
 40
32.0
 40
32.0
 40
32.0
 10
290.7947178431542
 20
124.3541690091773
 10
290.7947178431542
 20
124.3541690091773
 10
122.202220038487
 20
124.3541690091773
 10
122.202220038487
 20
124.3541690091773
 10
121.3908354561703
 20
124.3541690091773
 10
120.6147200388839
 20
124.7069467868669
 10
120.0855533723495
 20
125.3066733153085
 10
120.0855533723495
 20
125.3066733153085
 10
116.7694444152521
 20
129.0461199120028
 10
116.7694444152521
 20
129.0461199120028
 10
116.2402777487177
 20
129.6458464404445
 10
115.4641623314313
 20
129.998624218134
 10
114.6527777491146
 20
129.998624218134
 10
114.6527777491146
 20
129.998624218134
 10
102.8347221965136
 20
129.998624218134
 10
102.8347221965136
 20
129.998624218134
 10
102.0938867101807
 20
129.998624218134
 10
101.3883311548016
 20
130.2808421339164
 10
100.8591644882672
 20
130.7747396354205
 10
100.8591644882672
 20
130.7747396354205
 10
100.471106779624
 20
131.1275174131101
 10
100.471106779624
 20
131.1275174131101
 10
99.9419401130896
 20
131.6214041486908
 10
99.27166448866407
 20
131.9036328303965
 10
98.56610893328491
 20
131.9036328303965
 10
98.56610893328491
 20
131.9036328303965
 10
87.34777452616382
 20
132.0800217192413
 10
87.34777452616382
 20
132.0800217192413
 10
87.06555122741982
 20
132.0800217192413
 10
86.81860785962944
 20
132.0447417882877
 10
86.57166449183907
 20
131.9741926923038
 10
86.57166449183907
 20
131.9741926923038
 10
62.08888887336667
 20
125.3419424803388
 10
62.08888887336667
 20
125.3419424803388
 10
61.27749890808829
 20
125.1302736605404
 10
60.60722328366276
 20
124.5658270630524
 10
60.25444550597317
 20
123.7897224116893
 10
60.25444550597317
 20
123.7897224116893
 10
59.97222220722917
 20
123.1899958832477
 10
59.97222220722917
 20
123.1899958832477
 10
59.7252788394388
 20
122.6608292167133
 10
59.33722113079558
 20
122.2374915771164
 10
58.84333439521484
 20
121.9199937303805
 10
58.84333439521484
 20
121.9199937303805
 10
27.55194659074114
 20
103.3991604016773
 10
27.55194659074114
 20
103.3991604016773
 10
26.21138995892838
 20
102.5877758193607
 10
24.44750107048047
 20
103.0463826239878
 10
23.67139103615572
 20
104.3869338728388
 10
23.67139103615572
 20
104.3869338728388
 10
0.4233333500492553
 20
144.1097191768323
 10
0.4233333500492553
 20
144.1097191768323
 10
0.1763889098719858
 20
144.5330514334674
 10
0.035277786179836
 20
145.0269435520099
 10
0.035277786179836
 20
145.5561102185443
 10
0.035277786179836
 20
145.5561102185443
 10
0.035277786179836
 20
211.5255546464963
 10
0.035277786179836
 20
211.5255546464963
 10
0.035277786179836
 20
220.3097218492631
 10
0.035277786179836
 20
228.3530549114376
 10
0.035277786179836
 20
229.3761096592931
 10
0.035277786179836
 20
229.3761096592931
 10
0.035277786179836
 20
229.3761096592931
 10
0.035277786179836
 20
229.3761096592931
 10
0.035277786179836
 20
230.9283319147708
 10
1.305277710164437
 20
232.1983318808097
 10
2.857500133859668
 20
232.1983318808097
 10
2.857500133859668
 20
232.1983318808097
 10
244.404440076974
 20
232.1983318808097
 10
244.404440076974
 20
232.1983318808097
 10
245.1452647973834
 20
232.1983318808097
 10
245.8861110496396
 20
231.9161096544526
 10
246.415277716174
 20
231.3869430089455
 10
246.415277716174
 20
231.3869430089455
 10
252.2361110480521
 20
225.5308313441805
 10
252.2361110480521
 20
225.5308313441805
 10
252.7652777145865
 20
225.0016646776461
 10
253.4708332699656
 20
224.7194427246425
 10
254.2469486872521
 20
224.7194427246425
 10
254.2469486872521
 20
224.7194427246425
 10
283.4569443735802
 20
224.7194427246425
 10
283.4569443735802
 20
224.7194427246425
 10
284.1624999289594
 20
224.7194427246425
 10
284.8327863193083
 20
224.4372207716389
 10
285.3619529858427
 20
223.9786092569204
 10
285.3619529858427
 20
223.9786092569204
 10
292.7350171522937
 20
217.2405535684753
 10
292.7350171522937
 20
217.2405535684753
 10
293.3347436807354
 20
216.7113869019409
 10
293.6522307615479
 20
215.9352755218757
 10
293.6522307615479
 20
215.1591641418105
 10
293.6522307615479
 20
215.1591641418105
 10
293.6522307615479
 20
127.2116603957242
 10
293.6522307615479
 20
127.2116603957242
 10
293.6169400646709
 20
125.6241603961211
 10
292.3469486777271
 20
124.3541690091773
 10
290.7947178431542
 20
124.3541690091773
 97
        0
 97
        0
 75
     2
 76
     1
 98
        0
  0
SPLINE
  5
A0
330
9A
100
AcDbEntity
  8
Layer 1
 62
     7
420
 16777215
370
     9
100
AcDbSpline
210
0.0
220
0.0
230
1.0
 70
    11
 71
     3
 72
   101
 73
    97
 74
     0
 42
0.0000000001
 43
0.0000000001
 12
1.0
 22
0.0
 32
0.0
 13
1.0
 23
0.0
 33
0.0
 40
0.0
 40
0.0
 40
0.0
 40
0.0
 40
1.0
 40
1.0
 40
1.0
 40
2.0
 40
2.0
 40
2.0
 40
3.0
 40
3.0
 40
3.0
 40
4.0
 40
4.0
 40
4.0
 40
5.0
 40
5.0
 40
5.0
 40
6.0
 40
6.0
 40
6.0
 40
7.0
 40
7.0
 40
7.0
 40
8.0
 40
8.0
 40
8.0
 40
9.0
 40
9.0
 40
9.0
 40
10.0
 40
10.0
 40
10.0
 40
11.0
 40
11.0
 40
11.0
 40
12.0
 40
12.0
 40
12.0
 40
13.0
 40
13.0
 40
13.0
 40
14.0
 40
14.0
 40
14.0
 40
15.0
 40
15.0
 40
15.0
 40
16.0
 40
16.0
 40
16.0
 40
17.0
 40
17.0
 40
17.0
 40
18.0
 40
18.0
 40
18.0
 40
19.0
 40
19.0
 40
19.0
 40
20.0
 40
20.0
 40
20.0
 40
21.0
 40
21.0
 40
21.0
 40
22.0
 40
22.0
 40
22.0
 40
23.0
 40
23.0
 40
23.0
 40
24.0
 40
24.0
 40
24.0
 40
25.0
 40
25.0
 40
25.0
 40
26.0
 40
26.0
 40
26.0
 40
27.0
 40
27.0
 40
27.0
 40
28.0
 40
28.0
 40
28.0
 40
29.0
 40
29.0
 40
29.0
 40
30.0
 40
30.0
 40
30.0
 40
31.0
 40
31.0
 40
31.0
 40
32.0
 40
32.0
 40
32.0
 40
32.0
 10
290.7947178431542
 20
124.3541690091773
 30
0.0
 10
290.7947178431542
 20
124.3541690091773
 30
0.0
 10
122.202220038487
 20
124.3541690091773
 30
0.0
 10
122.202220038487
 20
124.3541690091773
 30
0.0
 10
121.3908354561703
 20
124.3541690091773
 30
0.0
 10
120.6147200388839
 20
124.7069467868669
 30
0.0
 10
120.0855533723495
 20
125.3066733153085
 30
0.0
 10
120.0855533723495
 20
125.3066733153085
 30
0.0
 10
116.7694444152521
 20
129.0461199120028
 30
0.0
 10
116.7694444152521
 20
129.0461199120028
 30
0.0
 10
116.2402777487177
 20
129.6458464404445
 30
0.0
 10
115.4641623314313
 20
129.998624218134
 30
0.0
 10
114.6527777491146
 20
129.998624218134
 30
0.0
 10
114.6527777491146
 20
129.998624218134
 30
0.0
 10
102.8347221965136
 20
129.998624218134
 30
0.0
 10
102.8347221965136
 20
129.998624218134
 30
0.0
 10
102.0938867101807
 20
129.998624218134
 30
0.0
 10
101.3883311548016
 20
130.2808421339164
 30
0.0
 10
100.8591644882672
 20
130.7747396354205
 30
0.0
 10
100.8591644882672
 20
130.7747396354205
 30
0.0
 10
100.471106779624
 20
131.1275174131101
 30
0.0
 10
100.471106779624
 20
131.1275174131101
 30
0.0
 10
99.9419401130896
 20
131.6214041486908
 30
0.0
 10
99.27166448866407
 20
131.9036328303965
 30
0.0
 10
98.56610893328491
 20
131.9036328303965
 30
0.0
 10
98.56610893328491
 20
131.9036328303965
 30
0.0
 10
87.34777452616382
 20
132.0800217192413
 30
0.0
 10
87.34777452616382
 20
132.0800217192413
 30
0.0
 10
87.06555122741982
 20
132.0800217192413
 30
0.0
 10
86.81860785962944
 20
132.0447417882877
 30
0.0
 10
86.57166449183907
 20
131.9741926923038
 30
0.0
 10
86.57166449183907
 20
131.9741926923038
 30
0.0
 10
62.08888887336667
 20
125.3419424803388
 30
0.0
 10
62.08888887336667
 20
125.3419424803388
 30
0.0
 10
61.27749890808829
 20
125.1302736605404
 30
0.0
 10
60.60722328366276
 20
124.5658270630524
 30
0.0
 10
60.25444550597317
 20
123.7897224116893
 30
0.0
 10
60.25444550597317
 20
123.7897224116893
 30
0.0
 10
59.97222220722917
 20
123.1899958832477
 30
0.0
 10
59.97222220722917
 20
123.1899958832477
 30
0.0
 10
59.7252788394388
 20
122.6608292167133
 30
0.0
 10
59.33722113079558
 20
122.2374915771164
 30
0.0
 10
58.84333439521484
 20
121.9199937303805
 30
0.0
 10
58.84333439521484
 20
121.9199937303805
 30
0.0
 10
27.55194659074114
 20
103.3991604016773
 30
0.0
 10
27.55194659074114
 20
103.3991604016773
 30
0.0
 10
26.21138995892838
 20
102.5877758193607
 30
0.0
 10
24.44750107048047
 20
103.0463826239878
 30
0.0
 10
23.67139103615572
 20
104.3869338728388
 30
0.0
 10
23.67139103615572
 20
104.3869338728388
 30
0.0
 10
0.4233333500492553
 20
144.1097191768323
 30
0.0
 10
0.4233333500492553
 20
144.1097191768323
 30
0.0
 10
0.1763889098719858
 20
144.5330514334674
 30
0.0
 10
0.035277786179836
 20
145.0269435520099
 30
0.0
 10
0.035277786179836
 20
145.5561102185443
 30
0.0
 10
0.035277786179836
 20
145.5561102185443
 30
0.0
 10
0.035277786179836
 20
211.5255546464963
 30
0.0
 10
0.035277786179836
 20
211.5255546464963
 30
0.0
 10
0.035277786179836
 20
220.3097218492631
 30
0.0
 10
0.035277786179836
 20
228.3530549114376
 30
0.0
 10
0.035277786179836
 20
229.3761096592931
 30
0.0
 10
0.035277786179836
 20
229.3761096592931
 30
0.0
 10
0.035277786179836
 20
229.3761096592931
 30
0.0
 10
0.035277786179836
 20
229.3761096592931
 30
0.0
 10
0.035277786179836
 20
230.9283319147708
 30
0.0
 10
1.305277710164437
 20
232.1983318808097
 30
0.0
 10
2.857500133859668
 20
232.1983318808097
 30
0.0
 10
2.857500133859668
 20
232.1983318808097
 30
0.0
 10
244.404440076974
 20
232.1983318808097
 30
0.0
 10
244.404440076974
 20
232.1983318808097
 30
0.0
 10
245.1452647973834
 20
232.1983318808097
 30
0.0
 10
245.8861110496396
 20
231.9161096544526
 30
0.0
 10
246.415277716174
 20
231.3869430089455
 30
0.0
 10
246.415277716174
 20
231.3869430089455
 30
0.0
 10
252.2361110480521
 20
225.5308313441805
 30
0.0
 10
252.2361110480521
 20
225.5308313441805
 30
0.0
 10
252.7652777145865
 20
225.0016646776461
 30
0.0
 10
253.4708332699656
 20
224.7194427246425
 30
0.0
 10
254.2469486872521
 20
224.7194427246425
 30
0.0
 10
254.2469486872521
 20
224.7194427246425
 30
0.0
 10
283.4569443735802
 20
224.7194427246425
 30
0.0
 10
283.4569443735802
 20
224.7194427246425
 30
0.0
 10
284.1624999289594
 20
224.7194427246425
 30
0.0
 10
284.8327863193083
 20
224.4372207716389
 30
0.0
 10
285.3619529858427
 20
223.9786092569204
 30
0.0
 10
285.3619529858427
 20
223.9786092569204
 30
0.0
 10
292.7350171522937
 20
217.2405535684753
 30
0.0
 10
292.7350171522937
 20
217.2405535684753
 30
0.0
 10
293.3347436807354
 20
216.7113869019409
 30
0.0
 10
293.6522307615479
 20
215.9352755218757
 30
0.0
 10
293.6522307615479
 20
215.1591641418105
 30
0.0
 10
293.6522307615479
 20
215.1591641418105
 30
0.0
 10
293.6522307615479
 20
127.2116603957242
 30
0.0
 10
293.6522307615479
 20
127.2116603957242
 30
0.0
 10
293.6169400646709
 20
125.6241603961211
 30
0.0
 10
292.3469486777271
 20
124.3541690091773
 30
0.0
 10
290.7947178431542
 20
124.3541690091773
 30
0.0
  0
ENDBLK
  5
9D
330
9A
100
AcDbEntity
  8
0
100
AcDbBlockEnd
  0
BLOCK
  5
A3
330
A1
100
AcDbEntity
  8
0
100
AcDbBlockBegin
  2
block 22
 70
     0
 10
0.0
 20
0.0
 30
0.0
  3
block 22
  1

  0
ENDBLK
  5
A4
330
A1
100
AcDbEntity
  8
0
100
AcDbBlockEnd
  0
BLOCK
  5
A8
330
A6
100
AcDbEntity
  8
0
100
AcDbBlockBegin
  2
block 23
 70
     0
 10
0.0
 20
0.0
 30
0.0
  3
block 23
  1

  0
INSERT
  5
AB
330
A6
100
AcDbEntity
  8
Layer 1
100
AcDbBlockReference
  2
block 24
 10
0.0
 20
0.0
 30
0.0
  0
ENDBLK
  5
A9
330
A6
100
AcDbEntity
  8
0
100
AcDbBlockEnd
  0
BLOCK
  5
AC
330
AA
100
AcDbEntity
  8
0
100
AcDbBlockBegin
  2
block 24
 70
     0
 10
0.0
 20
0.0
 30
0.0
  3
block 24
  1

  0
SPLINE
  5
AE
330
AA
100
AcDbEntity
  8
Layer 1
 62
     7
420
 16777215
370
     9
100
AcDbSpline
210
0.0
220
0.0
230
1.0
 70
    11
 71
     3
 72
    17
 73
    13
 74
     0
 42
0.0000000001
 43
0.0000000001
 12
1.0
 22
0.0
 32
0.0
 13
1.0
 23
0.0
 33
0.0
 40
0.0
 40
0.0
 40
0.0
 40
0.0
 40
1.0
 40
1.0
 40
1.0
 40
2.0
 40
2.0
 40
2.0
 40
3.0
 40
3.0
 40
3.0
 40
4.0
 40
4.0
 40
4.0
 40
4.0
 10
184.7144357855271
 20
6.98499806548358
 30
0.0
 10
185.2794529769549
 20
6.98499806548358
 30
0.0
 10
185.7374999535656
 20
6.526951088872831
 30
0.0
 10
185.7374999535656
 20
5.961933897445075
 30
0.0
 10
185.7374999535656
 20
5.396916706017319
 30
0.0
 10
185.2794529769549
 20
4.93886972940657
 30
0.0
 10
184.7144357855271
 20
4.93886972940657
 30
0.0
 10
184.1494185940994
 20
4.93886972940657
 30
0.0
 10
183.6913716174886
 20
5.396916706017319
 30
0.0
 10
183.6913716174886
 20
5.961933897445075
 30
0.0
 10
183.6913716174886
 20
6.526951088872831
 30
0.0
 10
184.1494185940994
 20
6.98499806548358
 30
0.0
 10
184.7144357855271
 20
6.98499806548358
 30
0.0
  0
ENDBLK
  5
AD
330
AA
100
AcDbEntity
  8
0
100
AcDbBlockEnd
  0
ENDSEC
  0
SECTION
  2
ENTITIES
  0
INSERT
  5
42
330
1F
100
AcDbEntity
  8
Layer 1
100
AcDbBlockReference
  2
block 2
 10
0.0
 20
0.0
 30
0.0
  0
INSERT
  5
A7
330
1F
100
AcDbEntity
  8
Layer 1
100
AcDbBlockReference
  2
block 23
 10
0.0
 20
0.0
 30
0.0
  0
ENDSEC
  0
SECTION
  2
OBJECTS
  0
DICTIONARY
  5
C
330
0
100
AcDbDictionary
281
     1
  3
ACAD_GROUP
350
D
  3
ACAD_LAYOUT
350
1A
  3
ACAD_MATERIAL
350
3B
  3
ACAD_MLEADERSTYLE
350
B0
  3
ACAD_MLINESTYLE
350
17
  3
ACAD_PLOTSETTINGS
350
19
  3
ACAD_PLOTSTYLENAME
350
E
  3
ACAD_TABLESTYLE
350
AF
  3
ACAD_VISUALSTYLE
350
2A
  0
SUN
  5
3F
330
29
100
AcDbSun
 90
        1
290
     0
 63
     7
421
 16777215
 40
1.0
291
     1
 91
  2455826
 92
 54000000
292
     0
 70
     2
 71
   256
280
     1
  0
DICTIONARY
  5
D
102
{ACAD_REACTORS
330
C
102
}
330
C
100
AcDbDictionary
281
     1
  0
DICTIONARY
  5
1A
102
{ACAD_REACTORS
330
C
102
}
330
C
100
AcDbDictionary
281
     1
  3
Layout1
350
1E
  3
Layout2
350
26
  3
Model
350
22
  0
DICTIONARY
  5
3B
102
{ACAD_REACTORS
330
C
102
}
330
C
100
AcDbDictionary
281
     1
  3
ByBlock
350
3D
  3
ByLayer
350
3C
  3
Global
350
3E
  0
DICTIONARY
  5
B0
102
{ACAD_REACTORS
330
C
102
}
330
C
100
AcDbDictionary
281
     1
  0
DICTIONARY
  5
17
102
{ACAD_REACTORS
330
C
102
}
330
C
100
AcDbDictionary
281
     1
  3
Standard
350
18
  0
DICTIONARY
  5
19
102
{ACAD_REACTORS
330
C
102
}
330
C
100
AcDbDictionary
281
     1
  0
ACDBDICTIONARYWDFLT
  5
E
102
{ACAD_REACTORS
330
C
102
}
330
C
100
AcDbDictionary
281
     1
  3
Normal
350
F
100
AcDbDictionaryWithDefault
340
F
  0
DICTIONARY
  5
AF
102
{ACAD_REACTORS
330
C
102
}
330
C
100
AcDbDictionary
281
     1
  0
DICTIONARY
  5
2A
102
{ACAD_REACTORS
330
C
102
}
330
C
100
AcDbDictionary
281
     1
  3
2dWireframe
350
2F
  3
3D Hidden
350
31
  3
3dWireframe
350
30
  3
Basic
350
32
  3
Brighten
350
36
  3
ColorChange
350
3A
  3
Conceptual
350
34
  3
Dim
350
35
  3
Facepattern
350
39
  3
Flat
350
2B
  3
FlatWithEdges
350
2C
  3
Gouraud
350
2D
  3
GouraudWithEdges
350
2E
  3
Linepattern
350
38
  3
Realistic
350
33
  3
Thicken
350
37
  0
LAYOUT
  5
1E
102
{ACAD_REACTORS
330
1A
102
}
330
1A
100
AcDbPlotSettings
  1

  2
none_device
  4

  6

 40
0.0
 41
0.0
 42
0.0
 43
0.0
 44
0.0
 45
0.0
 46
0.0
 47
0.0
 48
0.0
 49
0.0
140
0.0
141
0.0
142
1.0
143
1.0
 70
   688
 72
     0
 73
     0
 74
     5
  7

 75
    16
 76
     0
 77
     2
 78
   300
147
1.0
148
0.0
149
0.0
100
AcDbLayout
  1
Layout1
 70
     1
 71
     1
 10
0.0
 20
0.0
 11
12.0
 21
9.0
 12
0.0
 22
0.0
 32
0.0
 14
1.000000000000000E+20
 24
1.000000000000000E+20
 34
1.000000000000000E+20
 15
-1.000000000000000E+20
 25
-1.000000000000000E+20
 35
-1.000000000000000E+20
146
0.0
 13
0.0
 23
0.0
 33
0.0
 16
1.0
 26
0.0
 36
0.0
 17
0.0
 27
1.0
 37
0.0
 76
     0
330
1B
  0
LAYOUT
  5
26
102
{ACAD_REACTORS
330
1A
102
}
330
1A
100
AcDbPlotSettings
  1

  2
none_device
  4

  6

 40
0.0
 41
0.0
 42
0.0
 43
0.0
 44
0.0
 45
0.0
 46
0.0
 47
0.0
 48
0.0
 49
0.0
140
0.0
141
0.0
142
1.0
143
1.0
 70
   688
 72
     0
 73
     0
 74
     5
  7

 75
    16
 76
     0
 77
     2
 78
   300
147
1.0
148
0.0
149
0.0
100
AcDbLayout
  1
Layout2
 70
     1
 71
     2
 10
0.0
 20
0.0
 11
0.0
 21
0.0
 12
0.0
 22
0.0
 32
0.0
 14
0.0
 24
0.0
 34
0.0
 15
0.0
 25
0.0
 35
0.0
146
0.0
 13
0.0
 23
0.0
 33
0.0
 16
1.0
 26
0.0
 36
0.0
 17
0.0
 27
1.0
 37
0.0
 76
     0
330
23
  0
LAYOUT
  5
22
102
{ACAD_REACTORS
330
1A
102
}
330
1A
100
AcDbPlotSettings
  1

  2
none_device
  4

  6

 40
0.0
 41
0.0
 42
0.0
 43
0.0
 44
0.0
 45
0.0
 46
0.0
 47
0.0
 48
0.0
 49
0.0
140
0.0
141
0.0
142
1.0
143
1.0
 70
  1712
 72
     0
 73
     0
 74
     0
  7

 75
     0
 76
     0
 77
     2
 78
   300
147
1.0
148
0.0
149
0.0
100
AcDbLayout
  1
Model
 70
     1
 71
     0
 10
0.0
 20
0.0
 11
12.0
 21
9.0
 12
0.0
 22
0.0
 32
0.0
 14
1.000000000000000E+20
 24
1.000000000000000E+20
 34
1.000000000000000E+20
 15
-1.000000000000000E+20
 25
-1.000000000000000E+20
 35
-1.000000000000000E+20
146
0.0
 13
0.0
 23
0.0
 33
0.0
 16
1.0
 26
0.0
 36
0.0
 17
0.0
 27
1.0
 37
0.0
 76
     0
330
1F
331
29
  0
MATERIAL
  5
3D
102
{ACAD_REACTORS
330
3B
102
}
330
3B
100
AcDbMaterial
  1
ByBlock
 72
     1
 94
      127
  0
MATERIAL
  5
3C
102
{ACAD_REACTORS
330
3B
102
}
330
3B
100
AcDbMaterial
  1
ByLayer
 72
     1
 94
      127
  0
MATERIAL
  5
3E
102
{ACAD_REACTORS
330
3B
102
}
330
3B
100
AcDbMaterial
  1
Global
 72
     1
 94
      127
  0
MLINESTYLE
  5
18
102
{ACAD_REACTORS
330
17
102
}
330
17
100
AcDbMlineStyle
  2
Standard
 70
     0
  3

 62
   256
 51
90.0
 52
90.0
 71
     2
 49
0.5
 62
   256
  6
BYLAYER
 49
-0.5
 62
   256
  6
BYLAYER
  0
ACDBPLACEHOLDER
  5
F
102
{ACAD_REACTORS
330
E
102
}
330
E
  0
VISUALSTYLE
  5
2F
102
{ACAD_REACTORS
330
2A
102
}
330
2A
100
AcDbVisualStyle
  2
2dWireframe
 70
     4
177
     2
291
     0
 71
     0
176
     1
 72
     2
176
     1
 73
     0
176
     1
 90
        0
176
     1
 40
-0.6
176
     1
 41
-30.0
176
     1
 62
     5
 63
     7
421
 16777215
176
     1
 74
     1
176
     1
 91
        4
176
     1
 64
     7
176
     1
 65
   257
176
     1
 75
     1
176
     1
175
     1
176
     1
 42
1.0
176
     1
 92
        0
176
     1
 66
   257
176
     1
 43
1.0
176
     1
 76
     1
176
     1
 77
     6
176
     1
 78
     2
176
     1
 67
     7
176
     1
 79
     5
176
     1
170
     0
176
     1
171
     0
176
     1
290
     0
176
     1
 93
        1
176
     1
 44
0.0
176
     1
173
     0
176
     1
  0
VISUALSTYLE
  5
31
102
{ACAD_REACTORS
330
2A
102
}
330
2A
100
AcDbVisualStyle
  2
3D Hidden
 70
     6
177
     2
291
     0
 71
     1
176
     1
 72
     2
176
     1
 73
     2
176
     1
 90
        0
176
     1
 40
-0.6
176
     1
 41
-30.0
176
     1
 62
     5
 63
     7
421
 16777215
176
     1
 74
     2
176
     1
 91
        2
176
     1
 64
     7
176
     1
 65
   257
176
     1
 75
     2
176
     1
175
     1
176
     1
 42
40.0
176
     1
 92
        0
176
     1
 66
   257
176
     1
 43
1.0
176
     1
 76
     1
176
     1
 77
     6
176
     1
 78
     2
176
     1
 67
     7
176
     1
 79
     3
176
     1
170
     0
176
     1
171
     0
176
     1
290
     0
176
     1
 93
        1
176
     1
 44
0.0
176
     1
173
     0
176
     1
  0
VISUALSTYLE
  5
30
102
{ACAD_REACTORS
330
2A
102
}
330
2A
100
AcDbVisualStyle
  2
3dWireframe
 70
     5
177
     2
291
     0
 71
     0
176
     1
 72
     2
176
     1
 73
     0
176
     1
 90
        0
176
     1
 40
-0.6
176
     1
 41
-30.0
176
     1
 62
     5
 63
     7
421
 16777215
176
     1
 74
     1
176
     1
 91
        4
176
     1
 64
     7
176
     1
 65
   257
176
     1
 75
     1
176
     1
175
     1
176
     1
 42
1.0
176
     1
 92
        0
176
     1
 66
   257
176
     1
 43
1.0
176
     1
 76
     1
176
     1
 77
     6
176
     1
 78
     2
176
     1
 67
     7
176
     1
 79
     5
176
     1
170
     0
176
     1
171
     0
176
     1
290
     0
176
     1
 93
        1
176
     1
 44
0.0
176
     1
173
     0
176
     1
  0
VISUALSTYLE
  5
32
102
{ACAD_REACTORS
330
2A
102
}
330
2A
100
AcDbVisualStyle
  2
Basic
 70
     7
177
     2
291
     1
 71
     1
176
     1
 72
     0
176
     1
 73
     1
176
     1
 90
        0
176
     1
 40
-0.6
176
     1
 41
-30.0
176
     1
 62
     5
 63
     7
421
 16777215
176
     1
 74
     0
176
     1
 91
        4
176
     1
 64
     7
176
     1
 65
   257
176
     1
 75
     1
176
     1
175
     1
176
     1
 42
1.0
176
     1
 92
        8
176
     1
 66
     7
176
     1
 43
1.0
176
     1
 76
     1
176
     1
 77
     6
176
     1
 78
     2
176
     1
 67
     7
176
     1
 79
     5
176
     1
170
     0
176
     1
171
     0
176
     1
290
     0
176
     1
 93
        1
176
     1
 44
0.0
176
     1
173
     0
176
     1
  0
VISUALSTYLE
  5
36
102
{ACAD_REACTORS
330
2A
102
}
330
2A
100
AcDbVisualStyle
  2
Brighten
 70
    12
177
     2
291
     1
 71
     2
176
     1
 72
     2
176
     1
 73
     0
176
     1
 90
        0
176
     1
 40
-0.6
176
     1
 41
-30.0
176
     1
 62
     5
 63
     7
421
 16777215
176
     1
 74
     1
176
     1
 91
        4
176
     1
 64
     7
176
     1
 65
   257
176
     1
 75
     1
176
     1
175
     1
176
     1
 42
1.0
176
     1
 92
        8
176
     1
 66
     7
176
     1
 43
1.0
176
     1
 76
     1
176
     1
 77
     6
176
     1
 78
     2
176
     1
 67
     7
176
     1
 79
     5
176
     1
170
     0
176
     1
171
     0
176
     1
290
     0
176
     1
 93
        1
176
     1
 44
50.0
176
     1
173
     0
176
     1
  0
VISUALSTYLE
  5
3A
102
{ACAD_REACTORS
330
2A
102
}
330
2A
100
AcDbVisualStyle
  2
ColorChange
 70
    16
177
     2
291
     1
 71
     2
176
     1
 72
     2
176
     1
 73
     3
176
     1
 90
        0
176
     1
 40
-0.6
176
     1
 41
-30.0
176
     1
 62
     5
 63
     8
421
  8421504
176
     1
 74
     1
176
     1
 91
        4
176
     1
 64
     7
176
     1
 65
   257
176
     1
 75
     1
176
     1
175
     1
176
     1
 42
1.0
176
     1
 92
        8
176
     1
 66
     8
424
  8421504
176
     1
 43
1.0
176
     1
 76
     1
176
     1
 77
     6
176
     1
 78
     2
176
     1
 67
     7
176
     1
 79
     5
176
     1
170
     0
176
     1
171
     0
176
     1
290
     0
176
     1
 93
        1
176
     1
 44
0.0
176
     1
173
     0
176
     1
  0
VISUALSTYLE
  5
34
102
{ACAD_REACTORS
330
2A
102
}
330
2A
100
AcDbVisualStyle
  2
Conceptual
 70
     9
177
     2
291
     0
 71
     3
176
     1
 72
     2
176
     1
 73
     0
176
     1
 90
        0
176
     1
 40
-0.6
176
     1
 41
-30.0
176
     1
 62
     5
 63
     7
421
 16777215
176
     1
 74
     2
176
     1
 91
        2
176
     1
 64
     7
176
     1
 65
   257
176
     1
 75
     1
176
     1
175
     1
176
     1
 42
40.0
176
     1
 92
        8
176
     1
 66
     7
176
     1
 43
1.0
176
     1
 76
     1
176
     1
 77
     6
176
     1
 78
     2
176
     1
 67
     7
176
     1
 79
     3
176
     1
170
     0
176
     1
171
     0
176
     1
290
     0
176
     1
 93
        1
176
     1
 44
0.0
176
     1
173
     0
176
     1
  0
VISUALSTYLE
  5
35
102
{ACAD_REACTORS
330
2A
102
}
330
2A
100
AcDbVisualStyle
  2
Dim
 70
    11
177
     2
291
     1
 71
     2
176
     1
 72
     2
176
     1
 73
     0
176
     1
 90
        0
176
     1
 40
-0.6
176
     1
 41
-30.0
176
     1
 62
     5
 63
     7
421
 16777215
176
     1
 74
     1
176
     1
 91
        4
176
     1
 64
     7
176
     1
 65
   257
176
     1
 75
     1
176
     1
175
     1
176
     1
 42
1.0
176
     1
 92
        8
176
     1
 66
     7
176
     1
 43
1.0
176
     1
 76
     1
176
     1
 77
     6
176
     1
 78
     2
176
     1
 67
     7
176
     1
 79
     5
176
     1
170
     0
176
     1
171
     0
176
     1
290
     0
176
     1
 93
        1
176
     1
 44
-50.0
176
     1
173
     0
176
     1
  0
VISUALSTYLE
  5
39
102
{ACAD_REACTORS
330
2A
102
}
330
2A
100
AcDbVisualStyle
  2
Facepattern
 70
    15
177
     2
291
     1
 71
     2
176
     1
 72
     2
176
     1
 73
     0
176
     1
 90
        0
176
     1
 40
-0.6
176
     1
 41
-30.0
176
     1
 62
     5
 63
     7
421
 16777215
176
     1
 74
     1
176
     1
 91
        4
176
     1
 64
     7
176
     1
 65
   257
176
     1
 75
     1
176
     1
175
     1
176
     1
 42
1.0
176
     1
 92
        8
176
     1
 66
     7
176
     1
 43
1.0
176
     1
 76
     1
176
     1
 77
     6
176
     1
 78
     2
176
     1
 67
     7
176
     1
 79
     5
176
     1
170
     0
176
     1
171
     0
176
     1
290
     0
176
     1
 93
        1
176
     1
 44
0.0
176
     1
173
     0
176
     1
  0
VISUALSTYLE
  5
2B
102
{ACAD_REACTORS
330
2A
102
}
330
2A
100
AcDbVisualStyle
  2
Flat
 70
     0
177
     2
291
     1
 71
     2
176
     1
 72
     1
176
     1
 73
     1
176
     1
 90
        2
176
     1
 40
-0.6
176
     1
 41
30.0
176
     1
 62
     5
 63
     7
421
 16777215
176
     1
 74
     0
176
     1
 91
        4
176
     1
 64
     7
176
     1
 65
   257
176
     1
 75
     1
176
     1
175
     1
176
     1
 42
1.0
176
     1
 92
        8
176
     1
 66
     7
176
     1
 43
1.0
176
     1
 76
     1
176
     1
 77
     6
176
     1
 78
     2
176
     1
 67
     7
176
     1
 79
     5
176
     1
170
     0
176
     1
171
     0
176
     1
290
     0
176
     1
 93
       13
176
     1
 44
0.0
176
     1
173
     0
176
     1
  0
VISUALSTYLE
  5
2C
102
{ACAD_REACTORS
330
2A
102
}
330
2A
100
AcDbVisualStyle
  2
FlatWithEdges
 70
     1
177
     2
291
     1
 71
     2
176
     1
 72
     1
176
     1
 73
     1
176
     1
 90
        2
176
     1
 40
-0.6
176
     1
 41
30.0
176
     1
 62
     5
 63
     7
421
 16777215
176
     1
 74
     1
176
     1
 91
        4
176
     1
 64
     7
176
     1
 65
   257
176
     1
 75
     1
176
     1
175
     1
176
     1
 42
1.0
176
     1
 92
        0
176
     1
 66
   257
176
     1
 43
1.0
176
     1
 76
     1
176
     1
 77
     6
176
     1
 78
     2
176
     1
 67
     7
176
     1
 79
     5
176
     1
170
     0
176
     1
171
     0
176
     1
290
     0
176
     1
 93
       13
176
     1
 44
0.0
176
     1
173
     0
176
     1
  0
VISUALSTYLE
  5
2D
102
{ACAD_REACTORS
330
2A
102
}
330
2A
100
AcDbVisualStyle
  2
Gouraud
 70
     2
177
     2
291
     1
 71
     2
176
     1
 72
     2
176
     1
 73
     1
176
     1
 90
        2
176
     1
 40
-0.6
176
     1
 41
30.0
176
     1
 62
     5
 63
     7
421
 16777215
176
     1
 74
     0
176
     1
 91
        4
176
     1
 64
     7
176
     1
 65
   257
176
     1
 75
     1
176
     1
175
     1
176
     1
 42
1.0
176
     1
 92
        0
176
     1
 66
     7
176
     1
 43
1.0
176
     1
 76
     1
176
     1
 77
     6
176
     1
 78
     2
176
     1
 67
     7
176
     1
 79
     5
176
     1
170
     0
176
     1
171
     0
176
     1
290
     0
176
     1
 93
       13
176
     1
 44
0.0
176
     1
173
     0
176
     1
  0
VISUALSTYLE
  5
2E
102
{ACAD_REACTORS
330
2A
102
}
330
2A
100
AcDbVisualStyle
  2
GouraudWithEdges
 70
     3
177
     2
291
     1
 71
     2
176
     1
 72
     2
176
     1
 73
     1
176
     1
 90
        2
176
     1
 40
-0.6
176
     1
 41
30.0
176
     1
 62
     5
 63
     7
421
 16777215
176
     1
 74
     1
176
     1
 91
        4
176
     1
 64
     7
176
     1
 65
   257
176
     1
 75
     1
176
     1
175
     1
176
     1
 42
1.0
176
     1
 92
        0
176
     1
 66
   257
176
     1
 43
1.0
176
     1
 76
     1
176
     1
 77
     6
176
     1
 78
     2
176
     1
 67
     7
176
     1
 79
     5
176
     1
170
     0
176
     1
171
     0
176
     1
290
     0
176
     1
 93
       13
176
     1
 44
0.0
176
     1
173
     0
176
     1
  0
VISUALSTYLE
  5
38
102
{ACAD_REACTORS
330
2A
102
}
330
2A
100
AcDbVisualStyle
  2
Linepattern
 70
    14
177
     2
291
     1
 71
     2
176
     1
 72
     2
176
     1
 73
     0
176
     1
 90
        0
176
     1
 40
-0.6
176
     1
 41
-30.0
176
     1
 62
     5
 63
     7
421
 16777215
176
     1
 74
     1
176
     1
 91
        4
176
     1
 64
     7
176
     1
 65
   257
176
     1
 75
     7
176
     1
175
     7
176
     1
 42
1.0
176
     1
 92
        8
176
     1
 66
     7
176
     1
 43
1.0
176
     1
 76
     1
176
     1
 77
     6
176
     1
 78
     2
176
     1
 67
     7
176
     1
 79
     5
176
     1
170
     0
176
     1
171
     0
176
     1
290
     0
176
     1
 93
        1
176
     1
 44
0.0
176
     1
173
     0
176
     1
  0
VISUALSTYLE
  5
33
102
{ACAD_REACTORS
330
2A
102
}
330
2A
100
AcDbVisualStyle
  2
Realistic
 70
     8
177
     2
291
     0
 71
     2
176
     1
 72
     2
176
     1
 73
     0
176
     1
 90
        0
176
     1
 40
-0.6
176
     1
 41
-30.0
176
     1
 62
     5
 63
     7
421
 16777215
176
     1
 74
     1
176
     1
 91
        0
176
     1
 64
     7
176
     1
 65
   257
176
     1
 75
     1
176
     1
175
     1
176
     1
 42
1.0
176
     1
 92
        8
176
     1
 66
     8
424
  7895160
176
     1
 43
1.0
176
     1
 76
     1
176
     1
 77
     6
176
     1
 78
     2
176
     1
 67
     7
176
     1
 79
     5
176
     1
170
     0
176
     1
171
     0
176
     1
290
     0
176
     1
 93
       13
176
     1
 44
0.0
176
     1
173
     0
176
     1
  0
VISUALSTYLE
  5
37
102
{ACAD_REACTORS
330
2A
102
}
330
2A
100
AcDbVisualStyle
  2
Thicken
 70
    13
177
     2
291
     1
 71
     2
176
     1
 72
     2
176
     1
 73
     0
176
     1
 90
        0
176
     1
 40
-0.6
176
     1
 41
-30.0
176
     1
 62
     5
 63
     7
421
 16777215
176
     1
 74
     1
176
     1
 91
        4
176
     1
 64
     7
176
     1
 65
   257
176
     1
 75
     1
176
     1
175
     1
176
     1
 42
1.0
176
     1
 92
       12
176
     1
 66
     7
176
     1
 43
1.0
176
     1
 76
     1
176
     1
 77
     6
176
     1
 78
     2
176
     1
 67
     7
176
     1
 79
     5
176
     1
170
     0
176
     1
171
     0
176
     1
290
     0
176
     1
 93
        1
176
     1
 44
0.0
176
     1
173
     0
176
     1
  0
ENDSEC
  0
EOF
