<?xml version="1.0" encoding="utf-8"?>
<!-- Generator: Adobe Illustrator 24.2.3, SVG Export Plug-In . SVG Version: 6.00 Build 0)  -->
<svg version="1.1" xmlns="http://www.w3.org/2000/svg" xmlns:xlink="http://www.w3.org/1999/xlink" x="0px" y="0px"
	 viewBox="0 0 832.4 658.3" style="enable-background:new 0 0 832.4 658.3;" xml:space="preserve">
<style type="text/css">
	.st0{fill:none;stroke:#000000;stroke-width:0.25;stroke-miterlimit:10;}
	.st1{fill:none;stroke:#000000;stroke-width:0.25;stroke-linecap:round;stroke-linejoin:round;stroke-miterlimit:10;}
	
		.st2{fill:#C2C200;fill-opacity:0;stroke:#000000;stroke-width:0.25;stroke-linecap:round;stroke-linejoin:round;stroke-miterlimit:10;}
	.st3{opacity:0;fill:#C2C200;}
</style>
<g id="Layer_1" xmlns:svg="http://www.w3.org/2000/svg">
	<desc>Picture generated by PCBNEW</desc>
	<g transform="translate(0 0) scale(1 1)">
	</g>
	<g>
		<g>
			<circle class="st0" cx="253.3" cy="383.7" r="5.7"/>
		</g>
		<g>
			<circle class="st0" cx="615.1" cy="639.6" r="5.7"/>
		</g>
		<g>
			<circle class="st0" cx="566.5" cy="427.2" r="5.7"/>
		</g>
		<g>
			<circle class="st0" cx="301.9" cy="645" r="5.7"/>
		</g>
		<path class="st1" d="M287.9,591v-14.2h2.8c0.2,0,0.3-0.1,0.3-0.3v-9.3c0-0.2-0.1-0.3-0.3-0.3h-2.8v-0.4c0-1.4-1.1-2.5-2.5-2.5
			h-34.8c-1.4,0-2.5,1.1-2.5,2.5v0.4h-2.8c-0.2,0-0.3,0.1-0.3,0.3v9.3c0,0.2,0.1,0.3,0.3,0.3h2.8V591h-2.8c-0.2,0-0.3,0.1-0.3,0.3
			v9.3c0,0.2,0.1,0.3,0.3,0.3h2.8v0.4c0,1.4,1.1,2.5,2.5,2.5h34.8c1.4,0,2.5-1.1,2.5-2.5v-0.4h2.8c0.2,0,0.3-0.1,0.3-0.3v-9.3
			c0-0.2-0.1-0.3-0.3-0.3H287.9z"/>
		<path class="st1" d="M341.6,618v-14.2h2.8c0.2,0,0.3-0.1,0.3-0.3v-9.3c0-0.2-0.1-0.3-0.3-0.3h-2.8v-0.4c0-1.4-1.1-2.5-2.5-2.5
			h-34.8c-1.4,0-2.5,1.1-2.5,2.5v0.4H299c-0.2,0-0.3,0.1-0.3,0.3v9.3c0,0.2,0.1,0.3,0.3,0.3h2.8V618H299c-0.2,0-0.3,0.1-0.3,0.3v9.3
			c0,0.2,0.1,0.3,0.3,0.3h2.8v0.4c0,1.4,1.1,2.5,2.5,2.5h34.8c1.4,0,2.5-1.1,2.5-2.5v-0.4h2.8c0.2,0,0.3-0.1,0.3-0.3v-9.3
			c0-0.2-0.1-0.3-0.3-0.3H341.6z"/>
		<path class="st1" d="M341.6,564.2v-14.2h2.8c0.2,0,0.3-0.1,0.3-0.3v-9.3c0-0.2-0.1-0.3-0.3-0.3h-2.8v-0.4c0-1.4-1.1-2.5-2.5-2.5
			h-34.8c-1.4,0-2.5,1.1-2.5,2.5v0.4H299c-0.2,0-0.3,0.1-0.3,0.3v9.3c0,0.2,0.1,0.3,0.3,0.3h2.8v14.2H299c-0.2,0-0.3,0.1-0.3,0.3
			v9.3c0,0.2,0.1,0.3,0.3,0.3h2.8v0.4c0,1.4,1.1,2.5,2.5,2.5h34.8c1.4,0,2.5-1.1,2.5-2.5V574h2.8c0.2,0,0.3-0.1,0.3-0.3v-9.3
			c0-0.2-0.1-0.3-0.3-0.3H341.6z"/>
		<path class="st1" d="M395.6,623.4v-14.2h2.8c0.2,0,0.3-0.1,0.3-0.3v-9.3c0-0.2-0.1-0.3-0.3-0.3h-2.8v-0.4c0-1.4-1.1-2.5-2.5-2.5
			h-34.8c-1.4,0-2.5,1.1-2.5,2.5v0.4H353c-0.2,0-0.3,0.1-0.3,0.3v9.3c0,0.2,0.1,0.3,0.3,0.3h2.8v14.2H353c-0.2,0-0.3,0.1-0.3,0.3
			v9.3c0,0.2,0.1,0.3,0.3,0.3h2.8v0.4c0,1.4,1.1,2.5,2.5,2.5h34.8c1.4,0,2.5-1.1,2.5-2.5v-0.4h2.8c0.2,0,0.3-0.1,0.3-0.3v-9.3
			c0-0.2-0.1-0.3-0.3-0.3H395.6z"/>
		<path class="st1" d="M395.8,569.4v-14.2h2.8c0.2,0,0.3-0.1,0.3-0.3v-9.3c0-0.2-0.1-0.3-0.3-0.3h-2.8v-0.4c0-1.4-1.1-2.5-2.5-2.5
			h-34.8c-1.4,0-2.5,1.1-2.5,2.5v0.4h-2.8c-0.2,0-0.3,0.1-0.3,0.3v9.3c0,0.2,0.1,0.3,0.3,0.3h2.8v14.2h-2.8c-0.2,0-0.3,0.1-0.3,0.3
			v9.3c0,0.2,0.1,0.3,0.3,0.3h2.8v0.4c0,1.4,1.1,2.5,2.5,2.5h34.8c1.4,0,2.5-1.1,2.5-2.5v-0.4h2.8c0.2,0,0.3-0.1,0.3-0.3v-9.3
			c0-0.2-0.1-0.3-0.3-0.3H395.8z"/>
		<path class="st1" d="M395.6,461.4v-14.2h2.8c0.2,0,0.3-0.1,0.3-0.3v-9.3c0-0.2-0.1-0.3-0.3-0.3h-2.8v-0.4c0-1.4-1.1-2.5-2.5-2.5
			h-34.8c-1.4,0-2.5,1.1-2.5,2.5v0.4H353c-0.2,0-0.3,0.1-0.3,0.3v9.3c0,0.2,0.1,0.3,0.3,0.3h2.8v14.2H353c-0.2,0-0.3,0.1-0.3,0.3
			v9.3c0,0.2,0.1,0.3,0.3,0.3h2.8v0.4c0,1.4,1.1,2.5,2.5,2.5h34.8c1.4,0,2.5-1.1,2.5-2.5v-0.4h2.8c0.2,0,0.3-0.1,0.3-0.3v-9.3
			c0-0.2-0.1-0.3-0.3-0.3H395.6z"/>
		<path class="st1" d="M341.6,510v-14.2h2.8c0.2,0,0.3-0.1,0.3-0.3v-9.3c0-0.2-0.1-0.3-0.3-0.3h-2.8v-0.4c0-1.4-1.1-2.5-2.5-2.5
			h-34.8c-1.4,0-2.5,1.1-2.5,2.5v0.4H299c-0.2,0-0.3,0.1-0.3,0.3v9.3c0,0.2,0.1,0.3,0.3,0.3h2.8V510H299c-0.2,0-0.3,0.1-0.3,0.3v9.3
			c0,0.2,0.1,0.3,0.3,0.3h2.8v0.4c0,1.4,1.1,2.5,2.5,2.5h34.8c1.4,0,2.5-1.1,2.5-2.5v-0.4h2.8c0.2,0,0.3-0.1,0.3-0.3v-9.3
			c0-0.2-0.1-0.3-0.3-0.3H341.6z"/>
		<path class="st1" d="M341.6,456v-14.2h2.8c0.2,0,0.3-0.1,0.3-0.3v-9.3c0-0.2-0.1-0.3-0.3-0.3h-2.8v-0.4c0-1.4-1.1-2.5-2.5-2.5
			h-34.8c-1.4,0-2.5,1.1-2.5,2.5v0.4H299c-0.2,0-0.3,0.1-0.3,0.3v9.3c0,0.2,0.1,0.3,0.3,0.3h2.8V456H299c-0.2,0-0.3,0.1-0.3,0.3v9.3
			c0,0.2,0.1,0.3,0.3,0.3h2.8v0.4c0,1.4,1.1,2.5,2.5,2.5h34.8c1.4,0,2.5-1.1,2.5-2.5v-0.4h2.8c0.2,0,0.3-0.1,0.3-0.3v-9.3
			c0-0.2-0.1-0.3-0.3-0.3H341.6z"/>
		<path class="st1" d="M449.6,630.7v-14.2h2.8c0.2,0,0.3-0.1,0.3-0.3v-9.3c0-0.2-0.1-0.3-0.3-0.3h-2.8v-0.4c0-1.4-1.1-2.5-2.5-2.5
			h-34.8c-1.4,0-2.5,1.1-2.5,2.5v0.4H407c-0.2,0-0.3,0.1-0.3,0.3v9.3c0,0.2,0.1,0.3,0.3,0.3h2.8v14.2H407c-0.2,0-0.3,0.1-0.3,0.3
			v9.3c0,0.2,0.1,0.3,0.3,0.3h2.8v0.4c0,1.4,1.1,2.5,2.5,2.5h34.8c1.4,0,2.5-1.1,2.5-2.5v-0.4h2.8c0.2,0,0.3-0.1,0.3-0.3V631
			c0-0.2-0.1-0.3-0.3-0.3H449.6z"/>
		<path class="st1" d="M449.6,576.7v-14.2h2.8c0.2,0,0.3-0.1,0.3-0.3v-9.3c0-0.2-0.1-0.3-0.3-0.3h-2.8v-0.4c0-1.4-1.1-2.5-2.5-2.5
			h-34.8c-1.4,0-2.5,1.1-2.5,2.5v0.4H407c-0.2,0-0.3,0.1-0.3,0.3v9.3c0,0.2,0.1,0.3,0.3,0.3h2.8v14.2H407c-0.2,0-0.3,0.1-0.3,0.3
			v9.3c0,0.2,0.1,0.3,0.3,0.3h2.8v0.4c0,1.4,1.1,2.5,2.5,2.5h34.8c1.4,0,2.5-1.1,2.5-2.5v-0.4h2.8c0.2,0,0.3-0.1,0.3-0.3V577
			c0-0.2-0.1-0.3-0.3-0.3H449.6z"/>
		<path class="st1" d="M450.1,522.6v-14.2h2.8c0.2,0,0.3-0.1,0.3-0.3v-9.3c0-0.2-0.1-0.3-0.3-0.3h-2.8V498c0-1.4-1.1-2.5-2.5-2.5
			h-34.8c-1.4,0-2.5,1.1-2.5,2.5v0.4h-2.8c-0.2,0-0.3,0.1-0.3,0.3v9.3c0,0.2,0.1,0.3,0.3,0.3h2.8v14.2h-2.8c-0.2,0-0.3,0.1-0.3,0.3
			v9.3c0,0.2,0.1,0.3,0.3,0.3h2.8v0.4c0,1.4,1.1,2.5,2.5,2.5h34.8c1.4,0,2.5-1.1,2.5-2.5v-0.4h2.8c0.2,0,0.3-0.1,0.3-0.3v-9.3
			c0-0.2-0.1-0.3-0.3-0.3H450.1z"/>
		<path class="st1" d="M449.6,468.6v-14.2h2.8c0.2,0,0.3-0.1,0.3-0.3v-9.3c0-0.2-0.1-0.3-0.3-0.3h-2.8V444c0-1.4-1.1-2.5-2.5-2.5
			h-34.8c-1.4,0-2.5,1.1-2.5,2.5v0.4H407c-0.2,0-0.3,0.1-0.3,0.3v9.3c0,0.2,0.1,0.3,0.3,0.3h2.8v14.2H407c-0.2,0-0.3,0.1-0.3,0.3
			v9.3c0,0.2,0.1,0.3,0.3,0.3h2.8v0.4c0,1.4,1.1,2.5,2.5,2.5h34.8c1.4,0,2.5-1.1,2.5-2.5v-0.4h2.8c0.2,0,0.3-0.1,0.3-0.3v-9.3
			c0-0.2-0.1-0.3-0.3-0.3H449.6z"/>
		<path class="st1" d="M503.6,623.4v-14.2h2.8c0.2,0,0.3-0.1,0.3-0.3v-9.3c0-0.2-0.1-0.3-0.3-0.3h-2.8v-0.4c0-1.4-1.1-2.5-2.5-2.5
			h-34.8c-1.4,0-2.5,1.1-2.5,2.5v0.4H461c-0.2,0-0.3,0.1-0.3,0.3v9.3c0,0.2,0.1,0.3,0.3,0.3h2.8v14.2H461c-0.2,0-0.3,0.1-0.3,0.3
			v9.3c0,0.2,0.1,0.3,0.3,0.3h2.8v0.4c0,1.4,1.1,2.5,2.5,2.5h34.8c1.4,0,2.5-1.1,2.5-2.5v-0.4h2.8c0.2,0,0.3-0.1,0.3-0.3v-9.3
			c0-0.2-0.1-0.3-0.3-0.3H503.6z"/>
		<path class="st1" d="M503.5,569.7v-14.2h2.8c0.2,0,0.3-0.1,0.3-0.3v-9.3c0-0.2-0.1-0.3-0.3-0.3h-2.8v-0.4c0-1.4-1.1-2.5-2.5-2.5
			h-34.8c-1.4,0-2.5,1.1-2.5,2.5v0.4h-2.8c-0.2,0-0.3,0.1-0.3,0.3v9.3c0,0.2,0.1,0.3,0.3,0.3h2.8v14.2h-2.8c-0.2,0-0.3,0.1-0.3,0.3
			v9.3c0,0.2,0.1,0.3,0.3,0.3h2.8v0.4c0,1.4,1.1,2.5,2.5,2.5H501c1.4,0,2.5-1.1,2.5-2.5v-0.4h2.8c0.2,0,0.3-0.1,0.3-0.3V570
			c0-0.2-0.1-0.3-0.3-0.3H503.5z"/>
		<path class="st1" d="M503.6,515.4v-14.2h2.8c0.2,0,0.3-0.1,0.3-0.3v-9.3c0-0.2-0.1-0.3-0.3-0.3h-2.8v-0.4c0-1.4-1.1-2.5-2.5-2.5
			h-34.8c-1.4,0-2.5,1.1-2.5,2.5v0.4H461c-0.2,0-0.3,0.1-0.3,0.3v9.3c0,0.2,0.1,0.3,0.3,0.3h2.8v14.2H461c-0.2,0-0.3,0.1-0.3,0.3
			v9.3c0,0.2,0.1,0.3,0.3,0.3h2.8v0.4c0,1.4,1.1,2.5,2.5,2.5h34.8c1.4,0,2.5-1.1,2.5-2.5v-0.4h2.8c0.2,0,0.3-0.1,0.3-0.3v-9.3
			c0-0.2-0.1-0.3-0.3-0.3H503.6z"/>
		<path class="st1" d="M503.6,461.4v-14.2h2.8c0.2,0,0.3-0.1,0.3-0.3v-9.3c0-0.2-0.1-0.3-0.3-0.3h-2.8v-0.4c0-1.4-1.1-2.5-2.5-2.5
			h-34.8c-1.4,0-2.5,1.1-2.5,2.5v0.4H461c-0.2,0-0.3,0.1-0.3,0.3v9.3c0,0.2,0.1,0.3,0.3,0.3h2.8v14.2H461c-0.2,0-0.3,0.1-0.3,0.3
			v9.3c0,0.2,0.1,0.3,0.3,0.3h2.8v0.4c0,1.4,1.1,2.5,2.5,2.5h34.8c1.4,0,2.5-1.1,2.5-2.5v-0.4h2.8c0.2,0,0.3-0.1,0.3-0.3v-9.3
			c0-0.2-0.1-0.3-0.3-0.3H503.6z"/>
		<path class="st1" d="M557.6,610.8v-14.2h2.8c0.2,0,0.3-0.1,0.3-0.3V587c0-0.2-0.1-0.3-0.3-0.3h-2.8v-0.4c0-1.4-1.1-2.5-2.5-2.5
			h-34.8c-1.4,0-2.5,1.1-2.5,2.5v0.4H515c-0.2,0-0.3,0.1-0.3,0.3v9.3c0,0.2,0.1,0.3,0.3,0.3h2.8v14.2H515c-0.2,0-0.3,0.1-0.3,0.3
			v9.3c0,0.2,0.1,0.3,0.3,0.3h2.8v0.4c0,1.4,1.1,2.5,2.5,2.5h34.8c1.4,0,2.5-1.1,2.5-2.5v-0.4h2.8c0.2,0,0.3-0.1,0.3-0.3v-9.3
			c0-0.2-0.1-0.3-0.3-0.3H557.6z"/>
		<path class="st1" d="M557.6,556.8v-14.2h2.8c0.2,0,0.3-0.1,0.3-0.3V533c0-0.2-0.1-0.3-0.3-0.3h-2.8v-0.4c0-1.4-1.1-2.5-2.5-2.5
			h-34.8c-1.4,0-2.5,1.1-2.5,2.5v0.4H515c-0.2,0-0.3,0.1-0.3,0.3v9.3c0,0.2,0.1,0.3,0.3,0.3h2.8v14.2H515c-0.2,0-0.3,0.1-0.3,0.3
			v9.3c0,0.2,0.1,0.3,0.3,0.3h2.8v0.4c0,1.4,1.1,2.5,2.5,2.5h34.8c1.4,0,2.5-1.1,2.5-2.5v-0.4h2.8c0.2,0,0.3-0.1,0.3-0.3v-9.3
			c0-0.2-0.1-0.3-0.3-0.3H557.6z"/>
		<path class="st1" d="M557.6,502.8v-14.2h2.8c0.2,0,0.3-0.1,0.3-0.3V479c0-0.2-0.1-0.3-0.3-0.3h-2.8v-0.4c0-1.4-1.1-2.5-2.5-2.5
			h-34.8c-1.4,0-2.5,1.1-2.5,2.5v0.4H515c-0.2,0-0.3,0.1-0.3,0.3v9.3c0,0.2,0.1,0.3,0.3,0.3h2.8v14.2H515c-0.2,0-0.3,0.1-0.3,0.3
			v9.3c0,0.2,0.1,0.3,0.3,0.3h2.8v0.4c0,1.4,1.1,2.5,2.5,2.5h34.8c1.4,0,2.5-1.1,2.5-2.5v-0.4h2.8c0.2,0,0.3-0.1,0.3-0.3v-9.3
			c0-0.2-0.1-0.3-0.3-0.3H557.6z"/>
		<path class="st1" d="M557.6,448.8v-14.2l1.4,0c0.2,0,0.3-0.1,0.3-0.3V425c0-0.2-0.1-0.3-0.3-0.3l-1.4,0v-0.4
			c0-1.4-1.1-2.5-2.5-2.5h-34.8c-1.4,0-2.5,1.1-2.5,2.5v0.4H515c-0.2,0-0.3,0.1-0.3,0.3v9.3c0,0.2,0.1,0.3,0.3,0.3h2.8v14.2H515
			c-0.2,0-0.3,0.1-0.3,0.3v9.3c0,0.2,0.1,0.3,0.3,0.3h2.8v0.4c0,1.4,1.1,2.5,2.5,2.5h34.8c1.4,0,2.5-1.1,2.5-2.5v-0.4h2.8
			c0.2,0,0.3-0.1,0.3-0.3v-9.3c0-0.2-0.1-0.3-0.3-0.3H557.6z"/>
		<path class="st1" d="M618.8,610.8v-14.2h2.8c0.2,0,0.3-0.1,0.3-0.3V587c0-0.2-0.1-0.3-0.3-0.3h-2.8v-0.4c0-1.4-1.1-2.5-2.5-2.5
			h-34.8c-1.4,0-2.5,1.1-2.5,2.5v0.4h-2.8c-0.2,0-0.3,0.1-0.3,0.3v9.3c0,0.2,0.1,0.3,0.3,0.3h2.8v14.2h-2.8c-0.2,0-0.3,0.1-0.3,0.3
			v9.3c0,0.2,0.1,0.3,0.3,0.3h2.8v0.4c0,1.4,1.1,2.5,2.5,2.5h34.8c1.4,0,2.5-1.1,2.5-2.5v-0.4h2.8c0.2,0,0.3-0.1,0.3-0.3v-9.3
			c0-0.2-0.1-0.3-0.3-0.3H618.8z"/>
		<path class="st1" d="M619,556.8v-14.2h2.8c0.2,0,0.3-0.1,0.3-0.3V533c0-0.2-0.1-0.3-0.3-0.3H619v-0.4c0-1.4-1.1-2.5-2.5-2.5h-34.8
			c-1.4,0-2.5,1.1-2.5,2.5v0.4h-2.8c-0.2,0-0.3,0.1-0.3,0.3v9.3c0,0.2,0.1,0.3,0.3,0.3h2.8v14.2h-2.8c-0.2,0-0.3,0.1-0.3,0.3v9.3
			c0,0.2,0.1,0.3,0.3,0.3h2.8v0.4c0,1.4,1.1,2.5,2.5,2.5h34.8c1.4,0,2.5-1.1,2.5-2.5v-0.4h2.8c0.2,0,0.3-0.1,0.3-0.3v-9.3
			c0-0.2-0.1-0.3-0.3-0.3H619z"/>
		<path class="st1" d="M619,502.8v-14.2h2.8c0.2,0,0.3-0.1,0.3-0.3V479c0-0.2-0.1-0.3-0.3-0.3H619v-0.4c0-1.4-1.1-2.5-2.5-2.5h-34.8
			c-1.4,0-2.5,1.1-2.5,2.5v0.4h-2.8c-0.2,0-0.3,0.1-0.3,0.3v9.3c0,0.2,0.1,0.3,0.3,0.3h2.8v14.2h-2.8c-0.2,0-0.3,0.1-0.3,0.3v9.3
			c0,0.2,0.1,0.3,0.3,0.3h2.8v0.4c0,1.4,1.1,2.5,2.5,2.5h34.8c1.4,0,2.5-1.1,2.5-2.5v-0.4h2.8c0.2,0,0.3-0.1,0.3-0.3v-9.3
			c0-0.2-0.1-0.3-0.3-0.3H619z"/>
		<path class="st1" d="M619,448.5v-14.2h2.8c0.2,0,0.3-0.1,0.3-0.3v-9.3c0-0.2-0.1-0.3-0.3-0.3H619v-0.4c0-1.4-1.1-2.5-2.5-2.5
			h-34.8c-1.4,0-2.5,1.1-2.5,2.5v0.4h-2.8c-0.2,0-0.3,0.1-0.3,0.3v9.3c0,0.2,0.1,0.3,0.3,0.3h2.8v14.2h-2.8c-0.2,0-0.3,0.1-0.3,0.3
			v9.3c0,0.2,0.1,0.3,0.3,0.3h2.8v0.4c0,1.4,1.1,2.5,2.5,2.5h34.8c1.4,0,2.5-1.1,2.5-2.5v-0.4h2.8c0.2,0,0.3-0.1,0.3-0.3v-9.3
			c0-0.2-0.1-0.3-0.3-0.3H619z"/>
		<path class="st1" d="M557.6,394.8v-14.2h2.8c0.2,0,0.3-0.1,0.3-0.3V371c0-0.2-0.1-0.3-0.3-0.3h-2.8v-0.4c0-1.4-1.1-2.5-2.5-2.5
			h-34.8c-1.4,0-2.5,1.1-2.5,2.5v0.4H515c-0.2,0-0.3,0.1-0.3,0.3v9.3c0,0.2,0.1,0.3,0.3,0.3h2.8v14.2H515c-0.2,0-0.3,0.1-0.3,0.3
			v9.3c0,0.2,0.1,0.3,0.3,0.3h2.8v0.4c0,1.4,1.1,2.5,2.5,2.5h34.8c1.4,0,2.5-1.1,2.5-2.5v-0.4h2.8c0.2,0,0.3-0.1,0.3-0.3v-9.3
			c0-0.2-0.1-0.3-0.3-0.3H557.6z"/>
		<path class="st1" d="M611.6,394.7v-14.2h2.8c0.2,0,0.3-0.1,0.3-0.3v-9.3c0-0.2-0.1-0.3-0.3-0.3h-2.8v-0.4c0-1.4-1.1-2.5-2.5-2.5
			h-34.8c-1.4,0-2.5,1.1-2.5,2.5v0.4H569c-0.2,0-0.3,0.1-0.3,0.3v9.3c0,0.2,0.1,0.3,0.3,0.3h2.8v14.2H569c-0.2,0-0.3,0.1-0.3,0.3
			v9.3c0,0.2,0.1,0.3,0.3,0.3h2.8v0.4c0,1.4,1.1,2.5,2.5,2.5h34.8c1.4,0,2.5-1.1,2.5-2.5v-0.4h2.8c0.2,0,0.3-0.1,0.3-0.3V395
			c0-0.2-0.1-0.3-0.3-0.3H611.6z"/>
		<path class="st1" d="M274.8,496h-14.2v-2.8c0-0.2-0.1-0.3-0.3-0.3H251c-0.2,0-0.3,0.1-0.3,0.3v2.8h-0.4c-1.4,0-2.5,1.1-2.5,2.5
			v34.8c0,1.4,1.1,2.5,2.5,2.5h0.4v2.8c0,0.2,0.1,0.3,0.3,0.3h9.3c0.2,0,0.3-0.1,0.3-0.3v-2.8h14.2v2.8c0,0.2,0.1,0.3,0.3,0.3h9.3
			c0.2,0,0.3-0.1,0.3-0.3v-2.8h0.4c1.4,0,2.5-1.1,2.5-2.5v-34.8c0-1.4-1.1-2.5-2.5-2.5h-0.4v-2.8c0-0.2-0.1-0.3-0.3-0.3h-9.3
			c-0.2,0-0.3,0.1-0.3,0.3V496z"/>
		<path class="st1" d="M450.1,414.6v-14.2h2.8c0.2,0,0.3-0.1,0.3-0.3v-9.3c0-0.2-0.1-0.3-0.3-0.3h-2.8V390c0-1.4-1.1-2.5-2.5-2.5
			h-34.8c-1.4,0-2.5,1.1-2.5,2.5v0.4h-2.8c-0.2,0-0.3,0.1-0.3,0.3v9.3c0,0.2,0.1,0.3,0.3,0.3h2.8v14.2h-2.8c-0.2,0-0.3,0.1-0.3,0.3
			v9.3c0,0.2,0.1,0.3,0.3,0.3h2.8v0.4c0,1.4,1.1,2.5,2.5,2.5h34.8c1.4,0,2.5-1.1,2.5-2.5v-0.4h2.8c0.2,0,0.3-0.1,0.3-0.3v-9.3
			c0-0.2-0.1-0.3-0.3-0.3H450.1z"/>
		<path class="st1" d="M503.6,407.5v-14.2h2.8c0.2,0,0.3-0.1,0.3-0.3v-9.3c0-0.2-0.1-0.3-0.3-0.3h-2.8V383c0-1.4-1.1-2.5-2.5-2.5
			h-34.8c-1.4,0-2.5,1.1-2.5,2.5v0.4H461c-0.2,0-0.3,0.1-0.3,0.3v9.3c0,0.2,0.1,0.3,0.3,0.3h2.8v14.2H461c-0.2,0-0.3,0.1-0.3,0.3
			v9.3c0,0.2,0.1,0.3,0.3,0.3h2.8v0.4c0,1.4,1.1,2.5,2.5,2.5h34.8c1.4,0,2.5-1.1,2.5-2.5v-0.4h2.8c0.2,0,0.3-0.1,0.3-0.3v-9.3
			c0-0.2-0.1-0.3-0.3-0.3H503.6z"/>
		<path class="st1" d="M395.8,515.4v-14.2h2.8c0.2,0,0.3-0.1,0.3-0.3v-9.3c0-0.2-0.1-0.3-0.3-0.3h-2.8v-0.4c0-1.4-1.1-2.5-2.5-2.5
			h-34.8c-1.4,0-2.5,1.1-2.5,2.5v0.4h-2.8c-0.2,0-0.3,0.1-0.3,0.3v9.3c0,0.2,0.1,0.3,0.3,0.3h2.8v14.2h-2.8c-0.2,0-0.3,0.1-0.3,0.3
			v9.3c0,0.2,0.1,0.3,0.3,0.3h2.8v0.4c0,1.4,1.1,2.5,2.5,2.5h34.8c1.4,0,2.5-1.1,2.5-2.5v-0.4h2.8c0.2,0,0.3-0.1,0.3-0.3v-9.3
			c0-0.2-0.1-0.3-0.3-0.3H395.8z"/>
		<path class="st1" d="M260.6,330.6l-12.3-7.2l1.4-2.4c0.1-0.1,0-0.3-0.1-0.4l-8-4.7c-0.1-0.1-0.3,0-0.4,0.1l-1.4,2.4l-0.4-0.2
			c-1.2-0.7-2.7-0.3-3.4,0.9l-17.6,30.1c-0.7,1.2-0.3,2.7,0.9,3.4l0.4,0.2l-1.4,2.4c-0.1,0.1,0,0.3,0.1,0.4l8,4.7
			c0.1,0.1,0.3,0,0.4-0.1l1.4-2.4l12.3,7.2l-1.4,2.4c-0.1,0.1,0,0.3,0.1,0.4l8,4.7c0.1,0.1,0.3,0,0.4-0.1l1.4-2.4l0.4,0.2
			c1.2,0.7,2.7,0.3,3.4-0.9l17.6-30.1c0.7-1.2,0.3-2.7-0.9-3.4l-0.4-0.2l1.4-2.4c0.1-0.1,0-0.3-0.1-0.4l-8-4.7
			c-0.1-0.1-0.3,0-0.4,0.1L260.6,330.6z"/>
		<path class="st1" d="M223.4,420.2l7.2-12.3l2.4,1.4c0.1,0.1,0.3,0,0.4-0.1l4.7-8c0.1-0.1,0-0.3-0.1-0.4l-2.4-1.4l0.2-0.4
			c0.7-1.2,0.3-2.7-0.9-3.4L205,378c-1.2-0.7-2.7-0.3-3.4,0.9l-0.2,0.4l-2.4-1.4c-0.1-0.1-0.3,0-0.4,0.1l-4.7,8
			c-0.1,0.1,0,0.3,0.1,0.4l2.4,1.4l-7.2,12.3l-2.4-1.4c-0.1-0.1-0.3,0-0.4,0.1l-4.7,8c-0.1,0.1,0,0.3,0.1,0.4l2.4,1.4l-0.2,0.4
			c-0.7,1.2-0.3,2.7,0.9,3.4l30,17.7c1.2,0.7,2.7,0.3,3.4-0.9l0.2-0.4l2.4,1.4c0.1,0.1,0.3,0,0.4-0.1l4.7-8c0.1-0.1,0-0.3-0.1-0.4
			L223.4,420.2z"/>
		<path class="st1" d="M307.3,357.6l-12.3-7.2l1.4-2.4c0.1-0.1,0-0.3-0.1-0.4l-8-4.7c-0.1-0.1-0.3,0-0.4,0.1l-1.4,2.4l-0.4-0.2
			c-1.2-0.7-2.7-0.3-3.4,0.9l-17.6,30.1c-0.7,1.2-0.3,2.7,0.9,3.4l0.4,0.2l-1.4,2.4c-0.1,0.1,0,0.3,0.1,0.4l8,4.7
			c0.1,0.1,0.3,0,0.4-0.1l1.4-2.4l12.3,7.2l-1.4,2.4c-0.1,0.1,0,0.3,0.1,0.4l8,4.7c0.1,0.1,0.3,0,0.4-0.1l1.4-2.4l0.4,0.2
			c1.2,0.7,2.7,0.3,3.4-0.9l17.6-30.1c0.7-1.2,0.3-2.7-0.9-3.4l-0.4-0.2l1.4-2.4c0.1-0.1,0-0.3-0.1-0.4l-8-4.7
			c-0.1-0.1-0.3,0-0.4,0.1L307.3,357.6z"/>
		<path class="st1" d="M270.7,447.1l7.2-12.3l2.4,1.4c0.1,0.1,0.3,0,0.4-0.1l4.7-8c0.1-0.1,0-0.3-0.1-0.4l-2.4-1.4l0.2-0.4
			c0.7-1.2,0.3-2.7-0.9-3.4l-30-17.7c-1.2-0.7-2.7-0.3-3.4,0.9l-0.2,0.4l-2.4-1.4c-0.1-0.1-0.3,0-0.4,0.1l-4.7,8
			c-0.1,0.1,0,0.3,0.1,0.4l2.4,1.4l-7.2,12.3l-2.4-1.4c-0.1-0.1-0.3,0-0.4,0.1l-4.7,8c-0.1,0.1,0,0.3,0.1,0.4l2.4,1.4l-0.2,0.4
			c-0.7,1.2-0.3,2.7,0.9,3.4l30,17.7c1.2,0.7,2.7,0.3,3.4-0.9l0.2-0.4l2.4,1.4c0.1,0.1,0.3,0,0.4-0.1l4.7-8c0.1-0.1,0-0.3-0.1-0.4
			L270.7,447.1z"/>
		<path class="st1" d="M375.1,403.4l3.7-13.8l2.7,0.7c0.2,0,0.3,0,0.4-0.2l2.4-8.9c0-0.2,0-0.3-0.2-0.4l-2.7-0.7l0.1-0.4
			c0.4-1.3-0.4-2.7-1.8-3l-33.7-9c-1.3-0.4-2.7,0.4-3,1.8l-0.1,0.4l-2.7-0.7c-0.2,0-0.3,0.1-0.4,0.2l-2.4,8.9c0,0.2,0.1,0.3,0.2,0.4
			l2.7,0.7l-3.7,13.8l-2.7-0.7c-0.2,0-0.3,0-0.4,0.2l-2.4,8.9c0,0.2,0.1,0.3,0.2,0.4l2.7,0.7l-0.1,0.4c-0.4,1.3,0.4,2.7,1.8,3
			l33.7,9c1.3,0.4,2.7-0.4,3-1.8l0.1-0.4l2.7,0.7c0.2,0,0.3-0.1,0.4-0.2l2.4-8.9c0-0.2,0-0.3-0.2-0.4L375.1,403.4z"/>
		<path class="st2" d="M636.3,364.3c-0.3-0.5,1.4-7-4.2-7.4c-0.6,0-97.4-0.4-119.2,0c-5.4,0.1-7.3,2.3-7.5,2.4
			c-2.9,2-7.2,8.5-7.2,8.5c-1.5,1.7-4.6,2.7-6.9,2.7l-34.1-0.1c-2.1,0-3.6,0.4-5.1,1.9l0,0c-1.5,1.4-2.6,4.6-4.7,4.7
			c0,0-17.8,0.3-25.3,0.2c-0.5,0-5.2-0.7-6.4-1.3c-0.7-0.3-54.8-16-55.5-16.2l-113.8-64.6c-3.8-2.3-8.8-1-11,2.8l-65.9,112.6
			c-0.7,1.2-1.1,2.6-1.1,4.1v232.4v5.2c0,4.4,0.1,5.9,4.5,5.9l458.4-0.1c2.1,0,5.7,0.5,5.7-3.7L636.3,364.3z"/>
	</g>
	<g>
		<path class="st1" d="M119.7,69v14.2h2.8c0.2,0,0.3,0.1,0.3,0.3v9.3c0,0.2-0.1,0.3-0.3,0.3h-2.8v0.4c0,1.4-1.1,2.5-2.5,2.5H82.3
			c-1.4,0-2.5-1.1-2.5-2.5v-0.4h-2.8c-0.2,0-0.3-0.1-0.3-0.3v-9.3c0-0.2,0.1-0.3,0.3-0.3h2.8V69h-2.8c-0.2,0-0.3-0.1-0.3-0.3v-9.3
			c0-0.2,0.1-0.3,0.3-0.3h2.8v-0.4c0-1.4,1.1-2.5,2.5-2.5h34.8c1.4,0,2.5,1.1,2.5,2.5v0.4h2.8c0.2,0,0.3,0.1,0.3,0.3v9.3
			c0,0.2-0.1,0.3-0.3,0.3H119.7z"/>
		<path class="st1" d="M174.4,40.8v14.2h2.8c0.2,0,0.3,0.1,0.3,0.3v9.3c0,0.2-0.1,0.3-0.3,0.3h-2.8v0.4c0,1.4-1.1,2.5-2.5,2.5H137
			c-1.4,0-2.5-1.1-2.5-2.5v-0.4h-2.8c-0.2,0-0.3-0.1-0.3-0.3v-9.3c0-0.2,0.1-0.3,0.3-0.3h2.8V40.8h-2.8c-0.2,0-0.3-0.1-0.3-0.3v-9.3
			c0-0.2,0.1-0.3,0.3-0.3h2.8v-0.4c0-1.4,1.1-2.5,2.5-2.5h34.8c1.4,0,2.5,1.1,2.5,2.5V31h2.8c0.2,0,0.3,0.1,0.3,0.3v9.3
			c0,0.2-0.1,0.3-0.3,0.3H174.4z"/>
		<path class="st1" d="M174.4,94.8v14.2h2.8c0.2,0,0.3,0.1,0.3,0.3v9.3c0,0.2-0.1,0.3-0.3,0.3h-2.8v0.4c0,1.4-1.1,2.5-2.5,2.5H137
			c-1.4,0-2.5-1.1-2.5-2.5v-0.4h-2.8c-0.2,0-0.3-0.1-0.3-0.3v-9.3c0-0.2,0.1-0.3,0.3-0.3h2.8V94.8h-2.8c-0.2,0-0.3-0.1-0.3-0.3v-9.3
			c0-0.2,0.1-0.3,0.3-0.3h2.8v-0.4c0-1.4,1.1-2.5,2.5-2.5h34.8c1.4,0,2.5,1.1,2.5,2.5V85h2.8c0.2,0,0.3,0.1,0.3,0.3v9.3
			c0,0.2-0.1,0.3-0.3,0.3H174.4z"/>
		<path class="st1" d="M228.4,36.1v14.2h2.8c0.2,0,0.3,0.1,0.3,0.3v9.3c0,0.2-0.1,0.3-0.3,0.3h-2.8v0.4c0,1.4-1.1,2.5-2.5,2.5H191
			c-1.4,0-2.5-1.1-2.5-2.5v-0.4h-2.8c-0.2,0-0.3-0.1-0.3-0.3v-9.3c0-0.2,0.1-0.3,0.3-0.3h2.8V36.1h-2.8c-0.2,0-0.3-0.1-0.3-0.3v-9.3
			c0-0.2,0.1-0.3,0.3-0.3h2.8v-0.4c0-1.4,1.1-2.5,2.5-2.5h34.8c1.4,0,2.5,1.1,2.5,2.5v0.4h2.8c0.2,0,0.3,0.1,0.3,0.3v9.3
			c0,0.2-0.1,0.3-0.3,0.3H228.4z"/>
		<path class="st1" d="M228.4,89.9v14.2h2.8c0.2,0,0.3,0.1,0.3,0.3v9.3c0,0.2-0.1,0.3-0.3,0.3h-2.8v0.4c0,1.4-1.1,2.5-2.5,2.5H191
			c-1.4,0-2.5-1.1-2.5-2.5V114h-2.8c-0.2,0-0.3-0.1-0.3-0.3v-9.3c0-0.2,0.1-0.3,0.3-0.3h2.8V89.9h-2.8c-0.2,0-0.3-0.1-0.3-0.3v-9.3
			c0-0.2,0.1-0.3,0.3-0.3h2.8v-0.4c0-1.4,1.1-2.5,2.5-2.5h34.8c1.4,0,2.5,1.1,2.5,2.5V80h2.8c0.2,0,0.3,0.1,0.3,0.3v9.3
			c0,0.2-0.1,0.3-0.3,0.3H228.4z"/>
		<path class="st1" d="M228.4,198.1v14.2h2.8c0.2,0,0.3,0.1,0.3,0.3v9.3c0,0.2-0.1,0.3-0.3,0.3h-2.8v0.4c0,1.4-1.1,2.5-2.5,2.5H191
			c-1.4,0-2.5-1.1-2.5-2.5v-0.4h-2.8c-0.2,0-0.3-0.1-0.3-0.3v-9.3c0-0.2,0.1-0.3,0.3-0.3h2.8v-14.2h-2.8c-0.2,0-0.3-0.1-0.3-0.3
			v-9.3c0-0.2,0.1-0.3,0.3-0.3h2.8v-0.4c0-1.4,1.1-2.5,2.5-2.5h34.8c1.4,0,2.5,1.1,2.5,2.5v0.4h2.8c0.2,0,0.3,0.1,0.3,0.3v9.3
			c0,0.2-0.1,0.3-0.3,0.3H228.4z"/>
		<path class="st1" d="M174.4,148.8v14.2h2.8c0.2,0,0.3,0.1,0.3,0.3v9.3c0,0.2-0.1,0.3-0.3,0.3h-2.8v0.4c0,1.4-1.1,2.5-2.5,2.5H137
			c-1.4,0-2.5-1.1-2.5-2.5v-0.4h-2.8c-0.2,0-0.3-0.1-0.3-0.3v-9.3c0-0.2,0.1-0.3,0.3-0.3h2.8v-14.2h-2.8c-0.2,0-0.3-0.1-0.3-0.3
			v-9.3c0-0.2,0.1-0.3,0.3-0.3h2.8v-0.4c0-1.4,1.1-2.5,2.5-2.5h34.8c1.4,0,2.5,1.1,2.5,2.5v0.4h2.8c0.2,0,0.3,0.1,0.3,0.3v9.3
			c0,0.2-0.1,0.3-0.3,0.3H174.4z"/>
		<path class="st1" d="M174.4,202.8v14.2h2.8c0.2,0,0.3,0.1,0.3,0.3v9.3c0,0.2-0.1,0.3-0.3,0.3h-2.8v0.4c0,1.4-1.1,2.5-2.5,2.5H137
			c-1.4,0-2.5-1.1-2.5-2.5v-0.4h-2.8c-0.2,0-0.3-0.1-0.3-0.3v-9.3c0-0.2,0.1-0.3,0.3-0.3h2.8v-14.2h-2.8c-0.2,0-0.3-0.1-0.3-0.3
			v-9.3c0-0.2,0.1-0.3,0.3-0.3h2.8v-0.4c0-1.4,1.1-2.5,2.5-2.5h34.8c1.4,0,2.5,1.1,2.5,2.5v0.4h2.8c0.2,0,0.3,0.1,0.3,0.3v9.3
			c0,0.2-0.1,0.3-0.3,0.3H174.4z"/>
		<path class="st1" d="M282.4,31v14.2h2.8c0.2,0,0.3,0.1,0.3,0.3v9.3c0,0.2-0.1,0.3-0.3,0.3h-2.8v0.4c0,1.4-1.1,2.5-2.5,2.5H245
			c-1.4,0-2.5-1.1-2.5-2.5v-0.4h-2.8c-0.2,0-0.3-0.1-0.3-0.3v-9.3c0-0.2,0.1-0.3,0.3-0.3h2.8V31h-2.8c-0.2,0-0.3-0.1-0.3-0.3v-9.3
			c0-0.2,0.1-0.3,0.3-0.3h2.8v-0.4c0-1.4,1.1-2.5,2.5-2.5h34.8c1.4,0,2.5,1.1,2.5,2.5v0.4h2.8c0.2,0,0.3,0.1,0.3,0.3v9.3
			c0,0.2-0.1,0.3-0.3,0.3H282.4z"/>
		<path class="st1" d="M282.4,85v14.2h2.8c0.2,0,0.3,0.1,0.3,0.3v9.3c0,0.2-0.1,0.3-0.3,0.3h-2.8v0.4c0,1.4-1.1,2.5-2.5,2.5H245
			c-1.4,0-2.5-1.1-2.5-2.5v-0.4h-2.8c-0.2,0-0.3-0.1-0.3-0.3v-9.3c0-0.2,0.1-0.3,0.3-0.3h2.8V85h-2.8c-0.2,0-0.3-0.1-0.3-0.3v-9.3
			c0-0.2,0.1-0.3,0.3-0.3h2.8v-0.4c0-1.4,1.1-2.5,2.5-2.5h34.8c1.4,0,2.5,1.1,2.5,2.5v0.4h2.8c0.2,0,0.3,0.1,0.3,0.3v9.3
			c0,0.2-0.1,0.3-0.3,0.3H282.4z"/>
		<path class="st1" d="M282.4,139v14.2h2.8c0.2,0,0.3,0.1,0.3,0.3v9.3c0,0.2-0.1,0.3-0.3,0.3h-2.8v0.4c0,1.4-1.1,2.5-2.5,2.5H245
			c-1.4,0-2.5-1.1-2.5-2.5v-0.4h-2.8c-0.2,0-0.3-0.1-0.3-0.3v-9.3c0-0.2,0.1-0.3,0.3-0.3h2.8V139h-2.8c-0.2,0-0.3-0.1-0.3-0.3v-9.3
			c0-0.2,0.1-0.3,0.3-0.3h2.8v-0.4c0-1.4,1.1-2.5,2.5-2.5h34.8c1.4,0,2.5,1.1,2.5,2.5v0.4h2.8c0.2,0,0.3,0.1,0.3,0.3v9.3
			c0,0.2-0.1,0.3-0.3,0.3H282.4z"/>
		<path class="st1" d="M282.4,193v14.2h2.8c0.2,0,0.3,0.1,0.3,0.3v9.3c0,0.2-0.1,0.3-0.3,0.3h-2.8v0.4c0,1.4-1.1,2.5-2.5,2.5H245
			c-1.4,0-2.5-1.1-2.5-2.5v-0.4h-2.8c-0.2,0-0.3-0.1-0.3-0.3v-9.3c0-0.2,0.1-0.3,0.3-0.3h2.8V193h-2.8c-0.2,0-0.3-0.1-0.3-0.3v-9.3
			c0-0.2,0.1-0.3,0.3-0.3h2.8v-0.4c0-1.4,1.1-2.5,2.5-2.5h34.8c1.4,0,2.5,1.1,2.5,2.5v0.4h2.8c0.2,0,0.3,0.1,0.3,0.3v9.3
			c0,0.2-0.1,0.3-0.3,0.3H282.4z"/>
		<path class="st1" d="M336.5,36.1v14.2h2.8c0.2,0,0.3,0.1,0.3,0.3v9.3c0,0.2-0.1,0.3-0.3,0.3h-2.8v0.4c0,1.4-1.1,2.5-2.5,2.5h-34.8
			c-1.4,0-2.5-1.1-2.5-2.5v-0.4h-2.8c-0.2,0-0.3-0.1-0.3-0.3v-9.3c0-0.2,0.1-0.3,0.3-0.3h2.8V36.1h-2.8c-0.2,0-0.3-0.1-0.3-0.3v-9.3
			c0-0.2,0.1-0.3,0.3-0.3h2.8v-0.4c0-1.4,1.1-2.5,2.5-2.5H334c1.4,0,2.5,1.1,2.5,2.5v0.4h2.8c0.2,0,0.3,0.1,0.3,0.3v9.3
			c0,0.2-0.1,0.3-0.3,0.3H336.5z"/>
		<path class="st1" d="M336.5,90.1v14.2h2.8c0.2,0,0.3,0.1,0.3,0.3v9.3c0,0.2-0.1,0.3-0.3,0.3h-2.8v0.4c0,1.4-1.1,2.5-2.5,2.5h-34.8
			c-1.4,0-2.5-1.1-2.5-2.5v-0.4h-2.8c-0.2,0-0.3-0.1-0.3-0.3v-9.3c0-0.2,0.1-0.3,0.3-0.3h2.8V90.1h-2.8c-0.2,0-0.3-0.1-0.3-0.3v-9.3
			c0-0.2,0.1-0.3,0.3-0.3h2.8v-0.4c0-1.4,1.1-2.5,2.5-2.5H334c1.4,0,2.5,1.1,2.5,2.5v0.4h2.8c0.2,0,0.3,0.1,0.3,0.3v9.3
			c0,0.2-0.1,0.3-0.3,0.3H336.5z"/>
		<path class="st1" d="M336.5,144.1v14.2h2.8c0.2,0,0.3,0.1,0.3,0.3v9.3c0,0.2-0.1,0.3-0.3,0.3h-2.8v0.4c0,1.4-1.1,2.5-2.5,2.5
			h-34.8c-1.4,0-2.5-1.1-2.5-2.5v-0.4h-2.8c-0.2,0-0.3-0.1-0.3-0.3v-9.3c0-0.2,0.1-0.3,0.3-0.3h2.8v-14.2h-2.8
			c-0.2,0-0.3-0.1-0.3-0.3v-9.3c0-0.2,0.1-0.3,0.3-0.3h2.8v-0.4c0-1.4,1.1-2.5,2.5-2.5H334c1.4,0,2.5,1.1,2.5,2.5v0.4h2.8
			c0.2,0,0.3,0.1,0.3,0.3v9.3c0,0.2-0.1,0.3-0.3,0.3H336.5z"/>
		<path class="st1" d="M336.5,198.1v14.2h2.8c0.2,0,0.3,0.1,0.3,0.3v9.3c0,0.2-0.1,0.3-0.3,0.3h-2.8v0.4c0,1.4-1.1,2.5-2.5,2.5
			h-34.8c-1.4,0-2.5-1.1-2.5-2.5v-0.4h-2.8c-0.2,0-0.3-0.1-0.3-0.3v-9.3c0-0.2,0.1-0.3,0.3-0.3h2.8v-14.2h-2.8
			c-0.2,0-0.3-0.1-0.3-0.3v-9.3c0-0.2,0.1-0.3,0.3-0.3h2.8v-0.4c0-1.4,1.1-2.5,2.5-2.5H334c1.4,0,2.5,1.1,2.5,2.5v0.4h2.8
			c0.2,0,0.3,0.1,0.3,0.3v9.3c0,0.2-0.1,0.3-0.3,0.3H336.5z"/>
		<path class="st1" d="M391.6,50.9v14.2h2.8c0.2,0,0.3,0.1,0.3,0.3v9.3c0,0.2-0.1,0.3-0.3,0.3h-2.8v0.4c0,1.4-1.1,2.5-2.5,2.5h-34.8
			c-1.4,0-2.5-1.1-2.5-2.5V75H349c-0.2,0-0.3-0.1-0.3-0.3v-9.3c0-0.2,0.1-0.3,0.3-0.3h2.8V50.9H349c-0.2,0-0.3-0.1-0.3-0.3v-9.3
			c0-0.2,0.1-0.3,0.3-0.3h2.8v-0.4c0-1.4,1.1-2.5,2.5-2.5h34.8c1.4,0,2.5,1.1,2.5,2.5V41h2.8c0.2,0,0.3,0.1,0.3,0.3v9.3
			c0,0.2-0.1,0.3-0.3,0.3H391.6z"/>
		<path class="st1" d="M391.6,104.9v14.2h2.8c0.2,0,0.3,0.1,0.3,0.3v9.3c0,0.2-0.1,0.3-0.3,0.3h-2.8v0.4c0,1.4-1.1,2.5-2.5,2.5
			h-34.8c-1.4,0-2.5-1.1-2.5-2.5V129H349c-0.2,0-0.3-0.1-0.3-0.3v-9.3c0-0.2,0.1-0.3,0.3-0.3h2.8v-14.2H349c-0.2,0-0.3-0.1-0.3-0.3
			v-9.3c0-0.2,0.1-0.3,0.3-0.3h2.8v-0.4c0-1.4,1.1-2.5,2.5-2.5h34.8c1.4,0,2.5,1.1,2.5,2.5V95h2.8c0.2,0,0.3,0.1,0.3,0.3v9.3
			c0,0.2-0.1,0.3-0.3,0.3H391.6z"/>
		<path class="st1" d="M391.6,158.9v14.2h2.8c0.2,0,0.3,0.1,0.3,0.3v9.3c0,0.2-0.1,0.3-0.3,0.3h-2.8v0.4c0,1.4-1.1,2.5-2.5,2.5
			h-34.8c-1.4,0-2.5-1.1-2.5-2.5V183H349c-0.2,0-0.3-0.1-0.3-0.3v-9.3c0-0.2,0.1-0.3,0.3-0.3h2.8v-14.2H349c-0.2,0-0.3-0.1-0.3-0.3
			v-9.3c0-0.2,0.1-0.3,0.3-0.3h2.8v-0.4c0-1.4,1.1-2.5,2.5-2.5h34.8c1.4,0,2.5,1.1,2.5,2.5v0.4h2.8c0.2,0,0.3,0.1,0.3,0.3v9.3
			c0,0.2-0.1,0.3-0.3,0.3H391.6z"/>
		<path class="st1" d="M391.6,212.9v14.2h2.8c0.2,0,0.3,0.1,0.3,0.3v9.3c0,0.2-0.1,0.3-0.3,0.3h-2.8v0.4c0,1.4-1.1,2.5-2.5,2.5
			h-34.8c-1.4,0-2.5-1.1-2.5-2.5V237H349c-0.2,0-0.3-0.1-0.3-0.3v-9.3c0-0.2,0.1-0.3,0.3-0.3h2.8v-14.2H349c-0.2,0-0.3-0.1-0.3-0.3
			v-9.3c0-0.2,0.1-0.3,0.3-0.3h2.8v-0.4c0-1.4,1.1-2.5,2.5-2.5h34.8c1.4,0,2.5,1.1,2.5,2.5v0.4h2.8c0.2,0,0.3,0.1,0.3,0.3v9.3
			c0,0.2-0.1,0.3-0.3,0.3H391.6z"/>
		<path class="st1" d="M445.6,51v14.2h2.8c0.2,0,0.3,0.1,0.3,0.3v9.3c0,0.2-0.1,0.3-0.3,0.3h-2.8v0.4c0,1.4-1.1,2.5-2.5,2.5h-34.8
			c-1.4,0-2.5-1.1-2.5-2.5v-0.4H403c-0.2,0-0.3-0.1-0.3-0.3v-9.3c0-0.2,0.1-0.3,0.3-0.3h2.8V51H403c-0.2,0-0.3-0.1-0.3-0.3v-9.3
			c0-0.2,0.1-0.3,0.3-0.3h2.8v-0.4c0-1.4,1.1-2.5,2.5-2.5h34.8c1.4,0,2.5,1.1,2.5,2.5v0.4h2.8c0.2,0,0.3,0.1,0.3,0.3v9.3
			c0,0.2-0.1,0.3-0.3,0.3H445.6z"/>
		<path class="st1" d="M445.6,104.9v14.2h2.8c0.2,0,0.3,0.1,0.3,0.3v9.3c0,0.2-0.1,0.3-0.3,0.3h-2.8v0.4c0,1.4-1.1,2.5-2.5,2.5
			h-34.8c-1.4,0-2.5-1.1-2.5-2.5V129H403c-0.2,0-0.3-0.1-0.3-0.3v-9.3c0-0.2,0.1-0.3,0.3-0.3h2.8v-14.2H403c-0.2,0-0.3-0.1-0.3-0.3
			v-9.3c0-0.2,0.1-0.3,0.3-0.3h2.8v-0.4c0-1.4,1.1-2.5,2.5-2.5h34.8c1.4,0,2.5,1.1,2.5,2.5V95h2.8c0.2,0,0.3,0.1,0.3,0.3v9.3
			c0,0.2-0.1,0.3-0.3,0.3H445.6z"/>
		<path class="st1" d="M452.7,158.8V173h2.8c0.2,0,0.3,0.1,0.3,0.3v9.3c0,0.2-0.1,0.3-0.3,0.3h-2.8v0.4c0,1.4-1.1,2.5-2.5,2.5h-34.8
			c-1.4,0-2.5-1.1-2.5-2.5v-0.4h-2.8c-0.2,0-0.3-0.1-0.3-0.3v-9.3c0-0.2,0.1-0.3,0.3-0.3h2.8v-14.2h-2.8c-0.2,0-0.3-0.1-0.3-0.3
			v-9.3c0-0.2,0.1-0.3,0.3-0.3h2.8v-0.4c0-1.4,1.1-2.5,2.5-2.5h34.8c1.4,0,2.5,1.1,2.5,2.5v0.4h2.8c0.2,0,0.3,0.1,0.3,0.3v9.3
			c0,0.2-0.1,0.3-0.3,0.3H452.7z"/>
		<path class="st1" d="M452.7,212.8V227h2.8c0.2,0,0.3,0.1,0.3,0.3v9.3c0,0.2-0.1,0.3-0.3,0.3h-2.8v0.4c0,1.4-1.1,2.5-2.5,2.5h-34.8
			c-1.4,0-2.5-1.1-2.5-2.5v-0.4h-2.8c-0.2,0-0.3-0.1-0.3-0.3v-9.3c0-0.2,0.1-0.3,0.3-0.3h2.8v-14.2h-2.8c-0.2,0-0.3-0.1-0.3-0.3
			v-9.3c0-0.2,0.1-0.3,0.3-0.3h2.8v-0.4c0-1.4,1.1-2.5,2.5-2.5h34.8c1.4,0,2.5,1.1,2.5,2.5v0.4h2.8c0.2,0,0.3,0.1,0.3,0.3v9.3
			c0,0.2-0.1,0.3-0.3,0.3H452.7z"/>
		<path class="st1" d="M644.7,63v14.2h2.8c0.2,0,0.3,0.1,0.3,0.3v9.3c0,0.2-0.1,0.3-0.3,0.3h-2.8v0.4c0,1.4-1.1,2.5-2.5,2.5h-34.8
			c-1.4,0-2.5-1.1-2.5-2.5v-0.4h-2.8c-0.2,0-0.3-0.1-0.3-0.3v-9.3c0-0.2,0.1-0.3,0.3-0.3h2.8V63h-2.8c-0.2,0-0.3-0.1-0.3-0.3v-9.3
			c0-0.2,0.1-0.3,0.3-0.3h2.8v-0.4c0-1.4,1.1-2.5,2.5-2.5h34.8c1.4,0,2.5,1.1,2.5,2.5v0.4h2.8c0.2,0,0.3,0.1,0.3,0.3v9.3
			c0,0.2-0.1,0.3-0.3,0.3H644.7z"/>
		<path class="st1" d="M589.8,63.2v14.2h2.8c0.2,0,0.3,0.1,0.3,0.3V87c0,0.2-0.1,0.3-0.3,0.3h-2.8v0.4c0,1.4-1.1,2.5-2.5,2.5h-34.8
			c-1.4,0-2.5-1.1-2.5-2.5v-0.4h-2.8c-0.2,0-0.3-0.1-0.3-0.3v-9.3c0-0.2,0.1-0.3,0.3-0.3h2.8V63.2h-2.8c-0.2,0-0.3-0.1-0.3-0.3v-9.3
			c0-0.2,0.1-0.3,0.3-0.3h2.8v-0.4c0-1.4,1.1-2.5,2.5-2.5h34.8c1.4,0,2.5,1.1,2.5,2.5v0.4h2.8c0.2,0,0.3,0.1,0.3,0.3v9.3
			c0,0.2-0.1,0.3-0.3,0.3H589.8z"/>
		<path class="st1" d="M589.8,117.2v14.2h2.8c0.2,0,0.3,0.1,0.3,0.3v9.3c0,0.2-0.1,0.3-0.3,0.3h-2.8v0.4c0,1.4-1.1,2.5-2.5,2.5
			h-34.8c-1.4,0-2.5-1.1-2.5-2.5v-0.4h-2.8c-0.2,0-0.3-0.1-0.3-0.3v-9.3c0-0.2,0.1-0.3,0.3-0.3h2.8v-14.2h-2.8
			c-0.2,0-0.3-0.1-0.3-0.3v-9.3c0-0.2,0.1-0.3,0.3-0.3h2.8v-0.4c0-1.4,1.1-2.5,2.5-2.5h34.8c1.4,0,2.5,1.1,2.5,2.5v0.4h2.8
			c0.2,0,0.3,0.1,0.3,0.3v9.3c0,0.2-0.1,0.3-0.3,0.3H589.8z"/>
		<path class="st1" d="M589.8,171.2v14.2h2.8c0.2,0,0.3,0.1,0.3,0.3v9.3c0,0.2-0.1,0.3-0.3,0.3h-2.8v0.4c0,1.4-1.1,2.5-2.5,2.5
			h-34.8c-1.4,0-2.5-1.1-2.5-2.5v-0.4h-2.8c-0.2,0-0.3-0.1-0.3-0.3v-9.3c0-0.2,0.1-0.3,0.3-0.3h2.8v-14.2h-2.8
			c-0.2,0-0.3-0.1-0.3-0.3v-9.3c0-0.2,0.1-0.3,0.3-0.3h2.8v-0.4c0-1.4,1.1-2.5,2.5-2.5h34.8c1.4,0,2.5,1.1,2.5,2.5v0.4h2.8
			c0.2,0,0.3,0.1,0.3,0.3v9.3c0,0.2-0.1,0.3-0.3,0.3H589.8z"/>
		<path class="st1" d="M644.5,116v14.2h2.8c0.2,0,0.3,0.1,0.3,0.3v9.3c0,0.2-0.1,0.3-0.3,0.3h-2.8v0.4c0,1.4-1.1,2.5-2.5,2.5h-34.8
			c-1.4,0-2.5-1.1-2.5-2.5v-0.4h-2.8c-0.2,0-0.3-0.1-0.3-0.3v-9.3c0-0.2,0.1-0.3,0.3-0.3h2.8V116h-2.8c-0.2,0-0.3-0.1-0.3-0.3v-9.3
			c0-0.2,0.1-0.3,0.3-0.3h2.8v-0.4c0-1.4,1.1-2.5,2.5-2.5H642c1.4,0,2.5,1.1,2.5,2.5v0.4h2.8c0.2,0,0.3,0.1,0.3,0.3v9.3
			c0,0.2-0.1,0.3-0.3,0.3H644.5z"/>
		<path class="st1" d="M644.5,170v14.2h2.8c0.2,0,0.3,0.1,0.3,0.3v9.3c0,0.2-0.1,0.3-0.3,0.3h-2.8v0.4c0,1.4-1.1,2.5-2.5,2.5h-34.8
			c-1.4,0-2.5-1.1-2.5-2.5v-0.4h-2.8c-0.2,0-0.3-0.1-0.3-0.3v-9.3c0-0.2,0.1-0.3,0.3-0.3h2.8V170h-2.8c-0.2,0-0.3-0.1-0.3-0.3v-9.3
			c0-0.2,0.1-0.3,0.3-0.3h2.8v-0.4c0-1.4,1.1-2.5,2.5-2.5H642c1.4,0,2.5,1.1,2.5,2.5v0.4h2.8c0.2,0,0.3,0.1,0.3,0.3v9.3
			c0,0.2-0.1,0.3-0.3,0.3H644.5z"/>
		<path class="st1" d="M391.6,266.9v14.2h2.8c0.2,0,0.3,0.1,0.3,0.3v9.3c0,0.2-0.1,0.3-0.3,0.3h-2.8v0.4c0,1.4-1.1,2.5-2.5,2.5
			h-34.8c-1.4,0-2.5-1.1-2.5-2.5V291H349c-0.2,0-0.3-0.1-0.3-0.3v-9.3c0-0.2,0.1-0.3,0.3-0.3h2.8v-14.2H349c-0.2,0-0.3-0.1-0.3-0.3
			v-9.3c0-0.2,0.1-0.3,0.3-0.3h2.8v-0.4c0-1.4,1.1-2.5,2.5-2.5h34.8c1.4,0,2.5,1.1,2.5,2.5v0.4h2.8c0.2,0,0.3,0.1,0.3,0.3v9.3
			c0,0.2-0.1,0.3-0.3,0.3H391.6z"/>
		<path class="st1" d="M452.7,266.8v14.2h2.8c0.2,0,0.3,0.1,0.3,0.3v9.3c0,0.2-0.1,0.3-0.3,0.3h-2.8v0.4c0,1.4-1.1,2.5-2.5,2.5
			h-34.8c-1.4,0-2.5-1.1-2.5-2.5v-0.4h-2.8c-0.2,0-0.3-0.1-0.3-0.3v-9.3c0-0.2,0.1-0.3,0.3-0.3h2.8v-14.2h-2.8
			c-0.2,0-0.3-0.1-0.3-0.3v-9.3c0-0.2,0.1-0.3,0.3-0.3h2.8v-0.4c0-1.4,1.1-2.5,2.5-2.5h34.8c1.4,0,2.5,1.1,2.5,2.5v0.4h2.8
			c0.2,0,0.3,0.1,0.3,0.3v9.3c0,0.2-0.1,0.3-0.3,0.3H452.7z"/>
		<path class="st1" d="M523.2,126.9h-14.2v2.8c0,0.2-0.1,0.3-0.3,0.3h-9.3c-0.2,0-0.3-0.1-0.3-0.3v-2.8h-0.4c-1.4,0-2.5-1.1-2.5-2.5
			V89.6c0-1.4,1.1-2.5,2.5-2.5h0.4v-2.8c0-0.2,0.1-0.3,0.3-0.3h9.3c0.2,0,0.3,0.1,0.3,0.3v2.8h14.2v-2.8c0-0.2,0.1-0.3,0.3-0.3h9.3
			c0.2,0,0.3,0.1,0.3,0.3v2.8h0.4c1.4,0,2.5,1.1,2.5,2.5v34.8c0,1.4-1.1,2.5-2.5,2.5H533v2.8c0,0.2-0.1,0.3-0.3,0.3h-9.3
			c-0.2,0-0.3-0.1-0.3-0.3V126.9z"/>
		<path class="st1" d="M106.9,164.4H92.6v2.8c0,0.2-0.1,0.3-0.3,0.3h-9.3c-0.2,0-0.3-0.1-0.3-0.3v-2.8h-0.4c-1.4,0-2.5-1.1-2.5-2.5
			v-34.8c0-1.4,1.1-2.5,2.5-2.5h0.4v-2.8c0-0.2,0.1-0.3,0.3-0.3h9.3c0.2,0,0.3,0.1,0.3,0.3v2.8h14.2v-2.8c0-0.2,0.1-0.3,0.3-0.3h9.3
			c0.2,0,0.3,0.1,0.3,0.3v2.8h0.4c1.4,0,2.5,1.1,2.5,2.5v34.8c0,1.4-1.1,2.5-2.5,2.5h-0.4v2.8c0,0.2-0.1,0.3-0.3,0.3h-9.3
			c-0.2,0-0.3-0.1-0.3-0.3V164.4z"/>
		<path class="st1" d="M554.7,266.1l-12.3,7.2l1.4,2.4c0.1,0.1,0,0.3-0.1,0.4l-8,4.7c-0.1,0.1-0.3,0-0.4-0.1l-1.4-2.4l-0.4,0.2
			c-1.2,0.7-2.7,0.3-3.4-0.9l-17.6-30.1c-0.7-1.2-0.3-2.7,0.9-3.4l0.4-0.2l-1.4-2.4c-0.1-0.1,0-0.3,0.1-0.4l8-4.7
			c0.1-0.1,0.3,0,0.4,0.1l1.4,2.4l12.3-7.2l-1.4-2.4c-0.1-0.1,0-0.3,0.1-0.4l8-4.7c0.1-0.1,0.3,0,0.4,0.1l1.4,2.4l0.4-0.2
			c1.2-0.7,2.7-0.3,3.4,0.9l17.6,30.1c0.7,1.2,0.3,2.7-0.9,3.4l-0.4,0.2l1.4,2.4c0.1,0.1,0,0.3-0.1,0.4l-8,4.7
			c-0.1,0.1-0.3,0-0.4-0.1L554.7,266.1z"/>
		<path class="st1" d="M518.1,177.8l7.2,12.3l2.4-1.4c0.1-0.1,0.3,0,0.4,0.1l4.7,8c0.1,0.1,0,0.3-0.1,0.4l-2.4,1.4l0.2,0.4
			c0.7,1.2,0.3,2.7-0.9,3.4l-30,17.7c-1.2,0.7-2.7,0.3-3.4-0.9l-0.2-0.4l-2.4,1.4c-0.1,0.1-0.3,0-0.4-0.1l-4.7-8
			c-0.1-0.1,0-0.3,0.1-0.4l2.4-1.4l-7.2-12.3l-2.4,1.4c-0.1,0.1-0.3,0-0.4-0.1l-4.7-8c-0.1-0.1,0-0.3,0.1-0.4l2.4-1.4l-0.2-0.4
			c-0.7-1.2-0.3-2.7,0.9-3.4l30-17.7c1.2-0.7,2.7-0.3,3.4,0.9l0.2,0.4l2.4-1.4c0.1-0.1,0.3,0,0.4,0.1l4.7,8c0.1,0.1,0,0.3-0.1,0.4
			L518.1,177.8z"/>
		<path class="st1" d="M698.6,50.6v14.2h2.8c0.2,0,0.3,0.1,0.3,0.3v9.3c0,0.2-0.1,0.3-0.3,0.3h-2.8v0.4c0,1.4-1.1,2.5-2.5,2.5h-34.8
			c-1.4,0-2.5-1.1-2.5-2.5v-0.4H656c-0.2,0-0.3-0.1-0.3-0.3v-9.3c0-0.2,0.1-0.3,0.3-0.3h2.8V50.6H656c-0.2,0-0.3-0.1-0.3-0.3v-9.3
			c0-0.2,0.1-0.3,0.3-0.3h2.8v-0.4c0-1.4,1.1-2.5,2.5-2.5h34.8c1.4,0,2.5,1.1,2.5,2.5v0.4h2.8c0.2,0,0.3,0.1,0.3,0.3v9.3
			c0,0.2-0.1,0.3-0.3,0.3H698.6z"/>
		<path class="st1" d="M698.3,103.6v14.2h2.8c0.2,0,0.3,0.1,0.3,0.3v9.3c0,0.2-0.1,0.3-0.3,0.3h-2.8v0.4c0,1.4-1.1,2.5-2.5,2.5H661
			c-1.4,0-2.5-1.1-2.5-2.5v-0.4h-2.8c-0.2,0-0.3-0.1-0.3-0.3v-9.3c0-0.2,0.1-0.3,0.3-0.3h2.8v-14.2h-2.8c-0.2,0-0.3-0.1-0.3-0.3
			v-9.3c0-0.2,0.1-0.3,0.3-0.3h2.8v-0.4c0-1.4,1.1-2.5,2.5-2.5h34.8c1.4,0,2.5,1.1,2.5,2.5v0.4h2.8c0.2,0,0.3,0.1,0.3,0.3v9.3
			c0,0.2-0.1,0.3-0.3,0.3H698.3z"/>
		<path class="st1" d="M698.3,157.6v14.2h2.8c0.2,0,0.3,0.1,0.3,0.3v9.3c0,0.2-0.1,0.3-0.3,0.3h-2.8v0.4c0,1.4-1.1,2.5-2.5,2.5H661
			c-1.4,0-2.5-1.1-2.5-2.5v-0.4h-2.8c-0.2,0-0.3-0.1-0.3-0.3v-9.3c0-0.2,0.1-0.3,0.3-0.3h2.8v-14.2h-2.8c-0.2,0-0.3-0.1-0.3-0.3
			v-9.3c0-0.2,0.1-0.3,0.3-0.3h2.8v-0.4c0-1.4,1.1-2.5,2.5-2.5h34.8c1.4,0,2.5,1.1,2.5,2.5v0.4h2.8c0.2,0,0.3,0.1,0.3,0.3v9.3
			c0,0.2-0.1,0.3-0.3,0.3H698.3z"/>
		<path class="st1" d="M759,72.5v14.2h2.8c0.2,0,0.3,0.1,0.3,0.3v9.3c0,0.2-0.1,0.3-0.3,0.3H759V97c0,1.4-1.1,2.5-2.5,2.5h-34.8
			c-1.4,0-2.5-1.1-2.5-2.5v-0.4h-2.8c-0.2,0-0.3-0.1-0.3-0.3V87c0-0.2,0.1-0.3,0.3-0.3h2.8V72.5h-2.8c-0.2,0-0.3-0.1-0.3-0.3v-9.3
			c0-0.2,0.1-0.3,0.3-0.3h2.8v-0.4c0-1.4,1.1-2.5,2.5-2.5h34.8c1.4,0,2.5,1.1,2.5,2.5v0.4h2.8c0.2,0,0.3,0.1,0.3,0.3v9.3
			c0,0.2-0.1,0.3-0.3,0.3H759z"/>
		<path class="st1" d="M759,126.5v14.2h2.8c0.2,0,0.3,0.1,0.3,0.3v9.3c0,0.2-0.1,0.3-0.3,0.3H759v0.4c0,1.4-1.1,2.5-2.5,2.5h-34.8
			c-1.4,0-2.5-1.1-2.5-2.5v-0.4h-2.8c-0.2,0-0.3-0.1-0.3-0.3V141c0-0.2,0.1-0.3,0.3-0.3h2.8v-14.2h-2.8c-0.2,0-0.3-0.1-0.3-0.3v-9.3
			c0-0.2,0.1-0.3,0.3-0.3h2.8v-0.4c0-1.4,1.1-2.5,2.5-2.5h34.8c1.4,0,2.5,1.1,2.5,2.5v0.4h2.8c0.2,0,0.3,0.1,0.3,0.3v9.3
			c0,0.2-0.1,0.3-0.3,0.3H759z"/>
		<path class="st1" d="M763.1,203.1v14.2h2.8c0.2,0,0.3,0.1,0.3,0.3v9.3c0,0.2-0.1,0.3-0.3,0.3h-2.8v0.4c0,1.4-1.1,2.5-2.5,2.5
			h-34.8c-1.4,0-2.5-1.1-2.5-2.5v-0.4h-2.8c-0.2,0-0.3-0.1-0.3-0.3v-9.3c0-0.2,0.1-0.3,0.3-0.3h2.8v-14.2h-2.8
			c-0.2,0-0.3-0.1-0.3-0.3v-9.3c0-0.2,0.1-0.3,0.3-0.3h2.8v-0.4c0-1.4,1.1-2.5,2.5-2.5h34.8c1.4,0,2.5,1.1,2.5,2.5v0.4h2.8
			c0.2,0,0.3,0.1,0.3,0.3v9.3c0,0.2-0.1,0.3-0.3,0.3H763.1z"/>
		<path class="st1" d="M709,240.2v14.2h2.8c0.2,0,0.3,0.1,0.3,0.3v9.3c0,0.2-0.1,0.3-0.3,0.3H709v0.4c0,1.4-1.1,2.5-2.5,2.5h-34.8
			c-1.4,0-2.5-1.1-2.5-2.5v-0.4h-2.8c-0.2,0-0.3-0.1-0.3-0.3v-9.3c0-0.2,0.1-0.3,0.3-0.3h2.8v-14.2h-2.8c-0.2,0-0.3-0.1-0.3-0.3
			v-9.3c0-0.2,0.1-0.3,0.3-0.3h2.8v-0.4c0-1.4,1.1-2.5,2.5-2.5h34.8c1.4,0,2.5,1.1,2.5,2.5v0.4h2.8c0.2,0,0.3,0.1,0.3,0.3v9.3
			c0,0.2-0.1,0.3-0.3,0.3H709z"/>
		<path class="st1" d="M763.3,257.3v14.2h2.8c0.2,0,0.3,0.1,0.3,0.3v9.3c0,0.2-0.1,0.3-0.3,0.3h-2.8v0.4c0,1.4-1.1,2.5-2.5,2.5H726
			c-1.4,0-2.5-1.1-2.5-2.5v-0.4h-2.8c-0.2,0-0.3-0.1-0.3-0.3v-9.3c0-0.2,0.1-0.3,0.3-0.3h2.8v-14.2h-2.8c-0.2,0-0.3-0.1-0.3-0.3
			v-9.3c0-0.2,0.1-0.3,0.3-0.3h2.8V247c0-1.4,1.1-2.5,2.5-2.5h34.8c1.4,0,2.5,1.1,2.5,2.5v0.4h2.8c0.2,0,0.3,0.1,0.3,0.3v9.3
			c0,0.2-0.1,0.3-0.3,0.3H763.3z"/>
		<path class="st1" d="M817.1,242.7V257h2.8c0.2,0,0.3,0.1,0.3,0.3v9.3c0,0.2-0.1,0.3-0.3,0.3h-2.8v0.4c0,1.4-1.1,2.5-2.5,2.5h-34.8
			c-1.4,0-2.5-1.1-2.5-2.5v-0.4h-2.8c-0.2,0-0.3-0.1-0.3-0.3v-9.3c0-0.2,0.1-0.3,0.3-0.3h2.8v-14.2h-2.8c-0.2,0-0.3-0.1-0.3-0.3
			v-9.3c0-0.2,0.1-0.3,0.3-0.3h2.8v-0.4c0-1.4,1.1-2.5,2.5-2.5h34.8c1.4,0,2.5,1.1,2.5,2.5v0.4h2.8c0.2,0,0.3,0.1,0.3,0.3v9.3
			c0,0.2-0.1,0.3-0.3,0.3H817.1z"/>
		<path class="st1" d="M624.2,227.4v14.2h2.8c0.2,0,0.3,0.1,0.3,0.3v9.3c0,0.2-0.1,0.3-0.3,0.3h-2.8v0.4c0,1.4-1.1,2.5-2.5,2.5
			h-34.8c-1.4,0-2.5-1.1-2.5-2.5v-0.4h-2.8c-0.2,0-0.3-0.1-0.3-0.3V242c0-0.2,0.1-0.3,0.3-0.3h2.8v-14.2h-2.8
			c-0.2,0-0.3-0.1-0.3-0.3v-9.3c0-0.2,0.1-0.3,0.3-0.3h2.8v-0.4c0-1.4,1.1-2.5,2.5-2.5h34.8c1.4,0,2.5,1.1,2.5,2.5v0.4h2.8
			c0.2,0,0.3,0.1,0.3,0.3v9.3c0,0.2-0.1,0.3-0.3,0.3H624.2z"/>
		<path class="st1" d="M282.4,246.7v14.2h2.8c0.2,0,0.3,0.1,0.3,0.3v9.3c0,0.2-0.1,0.3-0.3,0.3h-2.8v0.4c0,1.4-1.1,2.5-2.5,2.5H245
			c-1.4,0-2.5-1.1-2.5-2.5v-0.4h-2.8c-0.2,0-0.3-0.1-0.3-0.3v-9.3c0-0.2,0.1-0.3,0.3-0.3h2.8v-14.2h-2.8c-0.2,0-0.3-0.1-0.3-0.3
			v-9.3c0-0.2,0.1-0.3,0.3-0.3h2.8v-0.4c0-1.4,1.1-2.5,2.5-2.5h34.8c1.4,0,2.5,1.1,2.5,2.5v0.4h2.8c0.2,0,0.3,0.1,0.3,0.3v9.3
			c0,0.2-0.1,0.3-0.3,0.3H282.4z"/>
		<path class="st1" d="M336.5,252.1v14.2h2.8c0.2,0,0.3,0.1,0.3,0.3v9.3c0,0.2-0.1,0.3-0.3,0.3h-2.8v0.4c0,1.4-1.1,2.5-2.5,2.5
			h-34.8c-1.4,0-2.5-1.1-2.5-2.5v-0.4h-2.8c-0.2,0-0.3-0.1-0.3-0.3v-9.3c0-0.2,0.1-0.3,0.3-0.3h2.8v-14.2h-2.8
			c-0.2,0-0.3-0.1-0.3-0.3v-9.3c0-0.2,0.1-0.3,0.3-0.3h2.8v-0.4c0-1.4,1.1-2.5,2.5-2.5H334c1.4,0,2.5,1.1,2.5,2.5v0.4h2.8
			c0.2,0,0.3,0.1,0.3,0.3v9.3c0,0.2-0.1,0.3-0.3,0.3H336.5z"/>
		<path class="st1" d="M230.3,144.5v14.2h2.8c0.2,0,0.3,0.1,0.3,0.3v9.3c0,0.2-0.1,0.3-0.3,0.3h-2.8v0.4c0,1.4-1.1,2.5-2.5,2.5
			h-34.8c-1.4,0-2.5-1.1-2.5-2.5v-0.4h-2.8c-0.2,0-0.3-0.1-0.3-0.3v-9.3c0-0.2,0.1-0.3,0.3-0.3h2.8v-14.2h-2.8
			c-0.2,0-0.3-0.1-0.3-0.3V135c0-0.2,0.1-0.3,0.3-0.3h2.8v-0.4c0-1.4,1.1-2.5,2.5-2.5h34.8c1.4,0,2.5,1.1,2.5,2.5v0.4h2.8
			c0.2,0,0.3,0.1,0.3,0.3v9.3c0,0.2-0.1,0.3-0.3,0.3H230.3z"/>
		<path class="st1" d="M92.2,327.1l-12.3,7.2l1.4,2.4c0.1,0.1,0,0.3-0.1,0.4l-8,4.7c-0.1,0.1-0.3,0-0.4-0.1l-1.4-2.4l-0.4,0.2
			c-1.2,0.7-2.7,0.3-3.4-0.9L50,308.5c-0.7-1.2-0.3-2.7,0.9-3.4l0.4-0.2l-1.4-2.4c-0.1-0.1,0-0.3,0.1-0.4l8-4.7
			c0.1-0.1,0.3,0,0.4,0.1l1.4,2.4l12.3-7.2l-1.4-2.4c-0.1-0.1,0-0.3,0.1-0.4l8-4.7c0.1-0.1,0.3,0,0.4,0.1l1.4,2.4l0.4-0.2
			c1.2-0.7,2.7-0.3,3.4,0.9l17.6,30.1c0.7,1.2,0.3,2.7-0.9,3.4l-0.4,0.2l1.4,2.4c0.1,0.1,0,0.3-0.1,0.4l-8,4.7
			c-0.1,0.1-0.3,0-0.4-0.1L92.2,327.1z"/>
		<path class="st1" d="M55.6,238.7l7.2,12.3l2.4-1.4c0.1-0.1,0.3,0,0.4,0.1l4.7,8c0.1,0.1,0,0.3-0.1,0.4l-2.4,1.4l0.2,0.4
			c0.7,1.2,0.3,2.7-0.9,3.4l-30,17.7c-1.2,0.7-2.7,0.3-3.4-0.9l-0.2-0.4l-2.4,1.4c-0.1,0.1-0.3,0-0.4-0.1l-4.7-8
			c-0.1-0.1,0-0.3,0.1-0.4l2.4-1.4l-7.2-12.3l-2.4,1.4c-0.1,0.1-0.3,0-0.4-0.1l-4.7-8c-0.1-0.1,0-0.3,0.1-0.4l2.4-1.4l-0.2-0.4
			c-0.7-1.2-0.3-2.7,0.9-3.4L47,229c1.2-0.7,2.7-0.3,3.4,0.9l0.2,0.4l2.4-1.4c0.1-0.1,0.3,0,0.4,0.1l4.7,8c0.1,0.1,0,0.3-0.1,0.4
			L55.6,238.7z"/>
		<path class="st1" d="M139,300.5l-12.3,7.2l1.4,2.4c0.1,0.1,0,0.3-0.1,0.4l-8,4.7c-0.1,0.1-0.3,0-0.4-0.1l-1.4-2.4l-0.4,0.2
			c-1.2,0.7-2.7,0.3-3.4-0.9l-17.6-30.1c-0.7-1.2-0.3-2.7,0.9-3.4l0.4-0.2l-1.4-2.4c-0.1-0.1,0-0.3,0.1-0.4l8-4.7
			c0.1-0.1,0.3,0,0.4,0.1l1.4,2.4l12.3-7.2l-1.4-2.4c-0.1-0.1,0-0.3,0.1-0.4l8-4.7c0.1-0.1,0.3,0,0.4,0.1l1.4,2.4l0.4-0.2
			c1.2-0.7,2.7-0.3,3.4,0.9l17.6,30.1c0.7,1.2,0.3,2.7-0.9,3.4l-0.4,0.2l1.4,2.4c0.1,0.1,0,0.3-0.1,0.4l-8,4.7
			c-0.1,0.1-0.3,0-0.4-0.1L139,300.5z"/>
		<path class="st1" d="M102.4,212.1l7.2,12.3l2.4-1.4c0.1-0.1,0.3,0,0.4,0.1l4.7,8c0.1,0.1,0,0.3-0.1,0.4l-2.4,1.4l0.2,0.4
			c0.7,1.2,0.3,2.7-0.9,3.4l-30,17.7c-1.2,0.7-2.7,0.3-3.4-0.9l-0.2-0.4l-2.4,1.4c-0.1,0.1-0.3,0-0.4-0.1l-4.7-8
			c-0.1-0.1,0-0.3,0.1-0.4l2.4-1.4l-7.2-12.3l-2.4,1.4c-0.1,0.1-0.3,0-0.4-0.1l-4.7-8c-0.1-0.1,0-0.3,0.1-0.4l2.4-1.4l-0.2-0.4
			c-0.7-1.2-0.3-2.7,0.9-3.4l30-17.7c1.2-0.7,2.7-0.3,3.4,0.9l0.2,0.4l2.4-1.4c0.1-0.1,0.3,0,0.4,0.1l4.7,8c0.1,0.1,0,0.3-0.1,0.4
			L102.4,212.1z"/>
		<path class="st1" d="M207.8,255.8l3.7,13.8l2.7-0.7c0.2,0,0.3,0,0.4,0.2l2.4,8.9c0,0.2,0,0.3-0.2,0.4l-2.7,0.7l0.1,0.4
			c0.4,1.3-0.4,2.7-1.8,3l-33.7,9c-1.3,0.4-2.7-0.4-3-1.8l-0.1-0.4l-2.7,0.7c-0.2,0-0.3-0.1-0.4-0.2l-2.4-8.9c0-0.2,0.1-0.3,0.2-0.4
			l2.7-0.7l-3.7-13.8l-2.7,0.7c-0.2,0-0.3,0-0.4-0.2l-2.4-8.9c0-0.2,0.1-0.3,0.2-0.4l2.7-0.7l-0.1-0.4c-0.4-1.3,0.4-2.7,1.8-3
			l33.7-9c1.3-0.4,2.7,0.4,3,1.8l0.1,0.4l2.7-0.7c0.2,0,0.3,0.1,0.4,0.2l2.4,8.9c0,0.2,0,0.3-0.2,0.4L207.8,255.8z"/>
		<g>
			<g>
				<circle class="st0" cx="488.1" cy="158.3" r="5.7"/>
			</g>
			<g>
				<circle class="st0" cx="488" cy="13.4" r="5.7"/>
			</g>
			<g>
				<circle class="st0" cx="798.8" cy="288.1" r="5.7"/>
			</g>
			<g>
				<circle class="st0" cx="488" cy="288.4" r="5.7"/>
			</g>
			<g>
				<circle class="st0" cx="797.7" cy="38.2" r="5.7"/>
			</g>
			<g>
				<circle class="st0" cx="99.7" cy="13.4" r="5.7"/>
			</g>
		</g>
		<g>
			<circle class="st0" cx="21.2" cy="223.6" r="5.7"/>
		</g>
		<g>
			<g>
				<g>
					<path class="st3" d="M824.3,305.8H346.4c-2.3,0-4.5-1-6-2.7l-9.4-10.6c-1.5-1.7-3.7-2.7-6-2.7h-33.5c-2.1,0-4.1-0.8-5.6-2.2
						l-1.1-1c-1.5-1.4-3.4-2.2-5.4-2.2l-31.8-0.5c-0.8,0-1.5,0.1-2.2,0.3L176,303c-2.3,0.6-4.2,2.2-5.2,4.4l-0.8,1.7
						c-0.7,1.5-1.8,2.7-3.2,3.6l-88.7,52.5c-3.8,2.3-8.8,1-11-2.8L1.2,249.8c-0.7-1.2-1.1-2.6-1.1-4.1V58.7c0-24.9,0-47.7,0-50.6
						l0,0c0-4.4,3.6-8,8-8h684.7c2.1,0,4.2,0.8,5.7,2.3L715,19c1.5,1.5,3.5,2.3,5.7,2.3h82.8c2,0,3.9,0.8,5.4,2.1l20.9,19.1
						c1.7,1.5,2.6,3.7,2.6,5.9v249.3C832.3,302.2,828.7,305.8,824.3,305.8z"/>
					<path class="st1" d="M824.3,305.8H346.4c-2.3,0-4.5-1-6-2.7l-9.4-10.6c-1.5-1.7-3.7-2.7-6-2.7h-33.5c-2.1,0-4.1-0.8-5.6-2.2
						l-1.1-1c-1.5-1.4-3.4-2.2-5.4-2.2l-31.8-0.5c-0.8,0-1.5,0.1-2.2,0.3L176,303c-2.3,0.6-4.2,2.2-5.2,4.4l-0.8,1.7
						c-0.7,1.5-1.8,2.7-3.2,3.6l-88.7,52.5c-3.8,2.3-8.8,1-11-2.8L1.2,249.8c-0.7-1.2-1.1-2.6-1.1-4.1V58.7c0-24.9,0-47.7,0-50.6
						l0,0c0-4.4,3.6-8,8-8h684.7c2.1,0,4.2,0.8,5.7,2.3L715,19c1.5,1.5,3.5,2.3,5.7,2.3h82.8c2,0,3.9,0.8,5.4,2.1l20.9,19.1
						c1.7,1.5,2.6,3.7,2.6,5.9v249.3C832.3,302.2,828.7,305.8,824.3,305.8z"/>
				</g>
			</g>
		</g>
	</g>
</g>
<g id="Layer_2">
</g>
</svg>
