<svg id="Layer_1" data-name="Layer 1" xmlns="http://www.w3.org/2000/svg" viewBox="0 0 468.85 364.37"><defs><style>.cls-1{fill:none;stroke-miterlimit:10;}.cls-1,.cls-2{stroke:#000;stroke-width:0.25px;}.cls-2{fill:#c2c200;fill-opacity:0;stroke-linecap:round;stroke-linejoin:round;}</style></defs><circle class="cls-1" cx="383.83" cy="274.63" r="5.67"/><circle class="cls-1" cx="22.03" cy="18.67" r="5.67"/><circle class="cls-1" cx="70.63" cy="231.07" r="5.67"/><circle class="cls-1" cx="335.23" cy="13.27" r="5.67"/><path class="cls-2" d="M.79,294c.25.52-1.41,7,4.17,7.4.55,0,97.39.44,119.21,0,5.39-.11,7.31-2.29,7.53-2.44,2.93-2,7.21-8.5,7.21-8.5,1.52-1.72,4.59-2.73,6.88-2.73l34.14.12a6.67,6.67,0,0,0,5.12-1.88h0c1.46-1.41,2.62-4.64,4.65-4.68,0,0,17.83-.28,25.26-.18.46,0,5.21.65,6.37,1.25.67.35,54.78,16,55.51,16.21l113.83,64.59a8,8,0,0,0,11-2.85l65.94-112.56a8,8,0,0,0,1.1-4.06V6.05c0-4.43-.05-5.92-4.48-5.93L5.79.21C3.67.21.12-.28.12,3.91Z"/></svg>