<?xml version="1.0" encoding="utf-8"?>
<!-- Generator: Adobe Illustrator 24.2.3, SVG Export Plug-In . SVG Version: 6.00 Build 0)  -->
<svg version="1.1" id="Layer_7" xmlns="http://www.w3.org/2000/svg" xmlns:xlink="http://www.w3.org/1999/xlink" x="0px" y="0px"
	 viewBox="0 0 118.8 165.3" style="enable-background:new 0 0 118.8 165.3;" xml:space="preserve">
<style type="text/css">
	.st0{fill:none;stroke:#000000;stroke-width:0.25;stroke-linecap:round;stroke-linejoin:round;stroke-miterlimit:10;}
	.st1{fill:none;stroke:#000000;stroke-width:0.25;stroke-miterlimit:10;}
</style>
<g>
	<path class="st0" d="M52,49.7v14.2h2.8c0.2,0,0.3,0.1,0.3,0.3v9.3c0,0.2-0.1,0.3-0.3,0.3H52v0.4c0,1.4-1.1,2.5-2.5,2.5H14.6
		c-1.4,0-2.5-1.1-2.5-2.5v-0.4H9.4c-0.2,0-0.3-0.1-0.3-0.3v-9.3c0-0.2,0.1-0.3,0.3-0.3h2.8V49.7H9.4c-0.2,0-0.3-0.1-0.3-0.3v-9.3
		c0-0.2,0.1-0.3,0.3-0.3h2.8v-0.4c0-1.4,1.1-2.5,2.5-2.5h34.8c1.4,0,2.5,1.1,2.5,2.5v0.4h2.8c0.2,0,0.3,0.1,0.3,0.3v9.3
		c0,0.2-0.1,0.3-0.3,0.3H52z"/>
	<path class="st0" d="M106.7,21.5v14.2h2.8c0.2,0,0.3,0.1,0.3,0.3v9.3c0,0.2-0.1,0.3-0.3,0.3h-2.8v0.4c0,1.4-1.1,2.5-2.5,2.5H69.3
		c-1.4,0-2.5-1.1-2.5-2.5v-0.4h-2.8c-0.2,0-0.3-0.1-0.3-0.3v-9.3c0-0.2,0.1-0.3,0.3-0.3h2.8V21.5h-2.8c-0.2,0-0.3-0.1-0.3-0.3V12
		c0-0.2,0.1-0.3,0.3-0.3h2.8v-0.4c0-1.4,1.1-2.5,2.5-2.5h34.8c1.4,0,2.5,1.1,2.5,2.5v0.4h2.8c0.2,0,0.3,0.1,0.3,0.3v9.3
		c0,0.2-0.1,0.3-0.3,0.3H106.7z"/>
	<path class="st0" d="M106.7,75.5v14.2h2.8c0.2,0,0.3,0.1,0.3,0.3v9.3c0,0.2-0.1,0.3-0.3,0.3h-2.8v0.4c0,1.4-1.1,2.5-2.5,2.5H69.3
		c-1.4,0-2.5-1.1-2.5-2.5v-0.4h-2.8c-0.2,0-0.3-0.1-0.3-0.3v-9.3c0-0.2,0.1-0.3,0.3-0.3h2.8V75.5h-2.8c-0.2,0-0.3-0.1-0.3-0.3V66
		c0-0.2,0.1-0.3,0.3-0.3h2.8v-0.4c0-1.4,1.1-2.5,2.5-2.5h34.8c1.4,0,2.5,1.1,2.5,2.5v0.4h2.8c0.2,0,0.3,0.1,0.3,0.3v9.3
		c0,0.2-0.1,0.3-0.3,0.3H106.7z"/>
	<path class="st0" d="M106.7,129.5v14.2h2.8c0.2,0,0.3,0.1,0.3,0.3v9.3c0,0.2-0.1,0.3-0.3,0.3h-2.8v0.4c0,1.4-1.1,2.5-2.5,2.5H69.3
		c-1.4,0-2.5-1.1-2.5-2.5v-0.4h-2.8c-0.2,0-0.3-0.1-0.3-0.3v-9.3c0-0.2,0.1-0.3,0.3-0.3h2.8v-14.2h-2.8c-0.2,0-0.3-0.1-0.3-0.3V120
		c0-0.2,0.1-0.3,0.3-0.3h2.8v-0.4c0-1.4,1.1-2.5,2.5-2.5h34.8c1.4,0,2.5,1.1,2.5,2.5v0.4h2.8c0.2,0,0.3,0.1,0.3,0.3v9.3
		c0,0.2-0.1,0.3-0.3,0.3H106.7z"/>
	<path class="st0" d="M39.2,145.1H24.9v2.8c0,0.2-0.1,0.3-0.3,0.3h-9.3c-0.2,0-0.3-0.1-0.3-0.3v-2.8h-0.4c-1.4,0-2.5-1.1-2.5-2.5
		v-34.8c0-1.4,1.1-2.5,2.5-2.5h0.4v-2.8c0-0.2,0.1-0.3,0.3-0.3h9.3c0.2,0,0.3,0.1,0.3,0.3v2.8h14.2v-2.8c0-0.2,0.1-0.3,0.3-0.3h9.3
		c0.2,0,0.3,0.1,0.3,0.3v2.8h0.4c1.4,0,2.5,1.1,2.5,2.5v34.8c0,1.4-1.1,2.5-2.5,2.5H49v2.8c0,0.2-0.1,0.3-0.3,0.3h-9.3
		c-0.2,0-0.3-0.1-0.3-0.3V145.1z"/>
	<g>
		<g>
			<circle class="st1" cx="32" cy="88.3" r="5.7"/>
		</g>
		<g>
			<circle class="st1" cx="32.1" cy="17.8" r="5.7"/>
		</g>
	</g>
</g>
<path class="st0" d="M106.7,165.2H12.1c-6.6,0-12-5.4-12-12V12.1c0-6.6,5.4-12,12-12h94.6c6.6,0,12,5.4,12,12v141.1
	C118.7,159.8,113.3,165.2,106.7,165.2z"/>
<g>
	<circle class="st1" cx="61.6" cy="111.2" r="5.7"/>
</g>
</svg>
