G04 #@! TF.GenerationSoftware,KiCad,Pcbnew,(5.1.10-1-10_14)*
G04 #@! TF.CreationDate,2021-08-01T21:47:45+01:00*
G04 #@! TF.ProjectId,AsymLeft,4173796d-4c65-4667-942e-6b696361645f,1.0*
G04 #@! TF.SameCoordinates,Original*
G04 #@! TF.FileFunction,Paste,Bot*
G04 #@! TF.FilePolarity,Positive*
%FSLAX46Y46*%
G04 Gerber Fmt 4.6, Leading zero omitted, Abs format (unit mm)*
G04 Created by KiCad (PCBNEW (5.1.10-1-10_14)) date 2021-08-01 21:47:45*
%MOMM*%
%LPD*%
G01*
G04 APERTURE LIST*
%ADD10R,1.200000X1.200000*%
%ADD11C,0.100000*%
G04 APERTURE END LIST*
D10*
X89865000Y-74930000D03*
X93015000Y-74930000D03*
X114605000Y-74930000D03*
X111455000Y-74930000D03*
X133655000Y-70485000D03*
X130505000Y-70485000D03*
X152705000Y-67945000D03*
X149555000Y-67945000D03*
X171755000Y-70485000D03*
X168605000Y-70485000D03*
X190805000Y-72390000D03*
X187655000Y-72390000D03*
X209855000Y-81915000D03*
X206705000Y-81915000D03*
X93015000Y-93980000D03*
X89865000Y-93980000D03*
X114605000Y-93980000D03*
X111455000Y-93980000D03*
X133655000Y-89535000D03*
X130505000Y-89535000D03*
X149555000Y-86995000D03*
X152705000Y-86995000D03*
X171755000Y-89535000D03*
X168605000Y-89535000D03*
X187655000Y-91440000D03*
X190805000Y-91440000D03*
X209855000Y-106680000D03*
X206705000Y-106680000D03*
X89865000Y-113030000D03*
X93015000Y-113030000D03*
X111455000Y-113030000D03*
X114605000Y-113030000D03*
X133655000Y-108585000D03*
X130505000Y-108585000D03*
X152705000Y-106045000D03*
X149555000Y-106045000D03*
X171755000Y-108585000D03*
X168605000Y-108585000D03*
X187655000Y-110490000D03*
X190805000Y-110490000D03*
D11*
G36*
X207100625Y-133612885D02*
G01*
X206500625Y-134652115D01*
X205461395Y-134052115D01*
X206061395Y-133012885D01*
X207100625Y-133612885D01*
G37*
G36*
X209828605Y-135187885D02*
G01*
X209228605Y-136227115D01*
X208189375Y-135627115D01*
X208789375Y-134587885D01*
X209828605Y-135187885D01*
G37*
D10*
X89865000Y-132080000D03*
X93015000Y-132080000D03*
X111455000Y-132080000D03*
X114605000Y-132080000D03*
X130505000Y-127635000D03*
X133655000Y-127635000D03*
X149555000Y-125095000D03*
X152705000Y-125095000D03*
X168605000Y-127635000D03*
X171755000Y-127635000D03*
X187655000Y-129540000D03*
X190805000Y-129540000D03*
D11*
G36*
X226338605Y-144712885D02*
G01*
X225738605Y-145752115D01*
X224699375Y-145152115D01*
X225299375Y-144112885D01*
X226338605Y-144712885D01*
G37*
G36*
X223610625Y-143137885D02*
G01*
X223010625Y-144177115D01*
X221971395Y-143577115D01*
X222571395Y-142537885D01*
X223610625Y-143137885D01*
G37*
D10*
X103505000Y-144450000D03*
X103505000Y-141300000D03*
X122555000Y-142545000D03*
X122555000Y-139395000D03*
X141605000Y-140005000D03*
X141605000Y-136855000D03*
X160655000Y-137465000D03*
X160655000Y-134315000D03*
D11*
G36*
X187943376Y-142269820D02*
G01*
X189102487Y-142580403D01*
X188791904Y-143739514D01*
X187632793Y-143428931D01*
X187943376Y-142269820D01*
G37*
G36*
X187128096Y-145312486D02*
G01*
X188287207Y-145623069D01*
X187976624Y-146782180D01*
X186817513Y-146471597D01*
X187128096Y-145312486D01*
G37*
G36*
X194781625Y-154948885D02*
G01*
X194181625Y-155988115D01*
X193142395Y-155388115D01*
X193742395Y-154348885D01*
X194781625Y-154948885D01*
G37*
G36*
X197509605Y-156523885D02*
G01*
X196909605Y-157563115D01*
X195870375Y-156963115D01*
X196470375Y-155923885D01*
X197509605Y-156523885D01*
G37*
G36*
X214273605Y-166175885D02*
G01*
X213673605Y-167215115D01*
X212634375Y-166615115D01*
X213234375Y-165575885D01*
X214273605Y-166175885D01*
G37*
G36*
X211545625Y-164600885D02*
G01*
X210945625Y-165640115D01*
X209906395Y-165040115D01*
X210506395Y-164000885D01*
X211545625Y-164600885D01*
G37*
M02*
