G04 #@! TF.GenerationSoftware,KiCad,Pcbnew,(5.1.10-1-10_14)*
G04 #@! TF.CreationDate,2021-08-01T21:47:45+01:00*
G04 #@! TF.ProjectId,AsymLeft,4173796d-4c65-4667-942e-6b696361645f,1.0*
G04 #@! TF.SameCoordinates,Original*
G04 #@! TF.FileFunction,Soldermask,Bot*
G04 #@! TF.FilePolarity,Negative*
%FSLAX46Y46*%
G04 Gerber Fmt 4.6, Leading zero omitted, Abs format (unit mm)*
G04 Created by KiCad (PCBNEW (5.1.10-1-10_14)) date 2021-08-01 21:47:45*
%MOMM*%
%LPD*%
G01*
G04 APERTURE LIST*
%ADD10C,4.000000*%
%ADD11R,1.600000X1.600000*%
%ADD12C,1.600000*%
%ADD13R,1.200000X1.200000*%
%ADD14C,0.100000*%
%ADD15O,1.700000X1.700000*%
%ADD16R,1.700000X1.700000*%
%ADD17C,2.000000*%
%ADD18O,2.200000X1.600000*%
%ADD19C,1.500000*%
%ADD20C,1.752600*%
%ADD21R,1.752600X1.752600*%
G04 APERTURE END LIST*
G36*
G01*
X212695653Y-94042619D02*
X213274309Y-94003171D01*
G75*
G02*
X214606433Y-95165257I85019J-1247105D01*
G01*
X214606433Y-95165257D01*
G75*
G02*
X213444347Y-96497381I-1247105J-85019D01*
G01*
X212865691Y-96536829D01*
G75*
G02*
X211533567Y-95374743I-85019J1247105D01*
G01*
X211533567Y-95374743D01*
G75*
G02*
X212695653Y-94042619I1247105J85019D01*
G01*
G37*
G36*
G01*
X210214034Y-100507178D02*
X211672988Y-99696802D01*
G75*
G02*
X213372699Y-100182581I606966J-1092745D01*
G01*
X213372699Y-100182581D01*
G75*
G02*
X212886920Y-101882292I-1092745J-606966D01*
G01*
X211427012Y-102693198D01*
G75*
G02*
X209727301Y-102207419I-606966J1092745D01*
G01*
X209727301Y-102207419D01*
G75*
G02*
X210213080Y-100507708I1092745J606966D01*
G01*
G37*
G36*
G01*
X211427965Y-92887332D02*
X212886920Y-93697708D01*
G75*
G02*
X213372699Y-95397419I-606966J-1092745D01*
G01*
X213372699Y-95397419D01*
G75*
G02*
X211672988Y-95883198I-1092745J606966D01*
G01*
X210213080Y-95072292D01*
G75*
G02*
X209727301Y-93372581I606966J1092745D01*
G01*
X209727301Y-93372581D01*
G75*
G02*
X211427012Y-92886802I1092745J-606966D01*
G01*
G37*
G36*
G01*
X212865691Y-99043171D02*
X213444347Y-99082619D01*
G75*
G02*
X214606433Y-100414743I-85019J-1247105D01*
G01*
X214606433Y-100414743D01*
G75*
G02*
X213274309Y-101576829I-1247105J85019D01*
G01*
X212695653Y-101537381D01*
G75*
G02*
X211533567Y-100205257I85019J1247105D01*
G01*
X211533567Y-100205257D01*
G75*
G02*
X212865691Y-99043171I1247105J-85019D01*
G01*
G37*
G36*
G01*
X174053163Y-136369914D02*
X174164825Y-135800764D01*
G75*
G02*
X175632093Y-134814800I1226616J-240652D01*
G01*
X175632093Y-134814800D01*
G75*
G02*
X176618057Y-136282068I-240652J-1226616D01*
G01*
X176506395Y-136851218D01*
G75*
G02*
X175039127Y-137837182I-1226616J240652D01*
G01*
X175039127Y-137837182D01*
G75*
G02*
X174053163Y-136369914I240652J1226616D01*
G01*
G37*
G36*
G01*
X179655688Y-140442240D02*
X179249999Y-138821142D01*
G75*
G02*
X180159143Y-137305076I1212605J303461D01*
G01*
X180159143Y-137305076D01*
G75*
G02*
X181675209Y-138214220I303461J-1212605D01*
G01*
X182080633Y-139834260D01*
G75*
G02*
X181171489Y-141350326I-1212605J-303461D01*
G01*
X181171489Y-141350326D01*
G75*
G02*
X179655423Y-140441182I-303461J1212605D01*
G01*
G37*
G36*
G01*
X172609139Y-137295395D02*
X173769508Y-136095895D01*
G75*
G02*
X175537032Y-136066585I898417J-869107D01*
G01*
X175537032Y-136066585D01*
G75*
G02*
X175566342Y-137834109I-869107J-898417D01*
G01*
X174405214Y-139034393D01*
G75*
G02*
X172637690Y-139063703I-898417J869107D01*
G01*
X172637690Y-139063703D01*
G75*
G02*
X172608380Y-137296179I869107J898417D01*
G01*
G37*
G36*
G01*
X178927333Y-137499907D02*
X179115205Y-136951177D01*
G75*
G02*
X180702709Y-136173467I1182607J-404897D01*
G01*
X180702709Y-136173467D01*
G75*
G02*
X181480419Y-137760971I-404897J-1182607D01*
G01*
X181292547Y-138309701D01*
G75*
G02*
X179705043Y-139087411I-1182607J404897D01*
G01*
X179705043Y-139087411D01*
G75*
G02*
X178927333Y-137499907I404897J1182607D01*
G01*
G37*
G36*
G01*
X205722758Y-147552500D02*
X206243614Y-147807664D01*
G75*
G02*
X206816224Y-149480122I-549924J-1122534D01*
G01*
X206816224Y-149480122D01*
G75*
G02*
X205143766Y-150052732I-1122534J549924D01*
G01*
X204622910Y-149797568D01*
G75*
G02*
X204050300Y-148125110I549924J1122534D01*
G01*
X204050300Y-148125110D01*
G75*
G02*
X205722758Y-147552500I1122534J-549924D01*
G01*
G37*
G36*
G01*
X200341334Y-151910162D02*
X202010013Y-151937832D01*
G75*
G02*
X203239116Y-153208385I-20725J-1249828D01*
G01*
X203239116Y-153208385D01*
G75*
G02*
X201968563Y-154437488I-1249828J20725D01*
G01*
X200298793Y-154409800D01*
G75*
G02*
X199069690Y-153139247I20725J1249828D01*
G01*
X199069690Y-153139247D01*
G75*
G02*
X200340243Y-151910144I1249828J-20725D01*
G01*
G37*
G36*
G01*
X205202552Y-145918147D02*
X206060856Y-147349432D01*
G75*
G02*
X205631697Y-149064315I-1072021J-642862D01*
G01*
X205631697Y-149064315D01*
G75*
G02*
X203916814Y-148635156I-642862J1072021D01*
G01*
X203057950Y-147202936D01*
G75*
G02*
X203487109Y-145488053I1072021J642862D01*
G01*
X203487109Y-145488053D01*
G75*
G02*
X205201992Y-145917212I642862J-1072021D01*
G01*
G37*
G36*
G01*
X203369739Y-151968123D02*
X203851147Y-152291615D01*
G75*
G02*
X204191481Y-154026311I-697181J-1037515D01*
G01*
X204191481Y-154026311D01*
G75*
G02*
X202456785Y-154366645I-1037515J697181D01*
G01*
X201975377Y-154043153D01*
G75*
G02*
X201635043Y-152308457I697181J1037515D01*
G01*
X201635043Y-152308457D01*
G75*
G02*
X203369739Y-151968123I1037515J-697181D01*
G01*
G37*
G36*
G01*
X222232758Y-157077500D02*
X222753614Y-157332664D01*
G75*
G02*
X223326224Y-159005122I-549924J-1122534D01*
G01*
X223326224Y-159005122D01*
G75*
G02*
X221653766Y-159577732I-1122534J549924D01*
G01*
X221132910Y-159322568D01*
G75*
G02*
X220560300Y-157650110I549924J1122534D01*
G01*
X220560300Y-157650110D01*
G75*
G02*
X222232758Y-157077500I1122534J-549924D01*
G01*
G37*
G36*
G01*
X216851334Y-161435162D02*
X218520013Y-161462832D01*
G75*
G02*
X219749116Y-162733385I-20725J-1249828D01*
G01*
X219749116Y-162733385D01*
G75*
G02*
X218478563Y-163962488I-1249828J20725D01*
G01*
X216808793Y-163934800D01*
G75*
G02*
X215579690Y-162664247I20725J1249828D01*
G01*
X215579690Y-162664247D01*
G75*
G02*
X216850243Y-161435144I1249828J-20725D01*
G01*
G37*
G36*
G01*
X221712552Y-155443147D02*
X222570856Y-156874432D01*
G75*
G02*
X222141697Y-158589315I-1072021J-642862D01*
G01*
X222141697Y-158589315D01*
G75*
G02*
X220426814Y-158160156I-642862J1072021D01*
G01*
X219567950Y-156727936D01*
G75*
G02*
X219997109Y-155013053I1072021J642862D01*
G01*
X219997109Y-155013053D01*
G75*
G02*
X221711992Y-155442212I642862J-1072021D01*
G01*
G37*
G36*
G01*
X219879739Y-161493123D02*
X220361147Y-161816615D01*
G75*
G02*
X220701481Y-163551311I-697181J-1037515D01*
G01*
X220701481Y-163551311D01*
G75*
G02*
X218966785Y-163891645I-1037515J697181D01*
G01*
X218485377Y-163568153D01*
G75*
G02*
X218145043Y-161833457I697181J1037515D01*
G01*
X218145043Y-161833457D01*
G75*
G02*
X219879739Y-161493123I1037515J-697181D01*
G01*
G37*
G36*
G01*
X109282619Y-62259347D02*
X109243171Y-61680691D01*
G75*
G02*
X110405257Y-60348567I1247105J85019D01*
G01*
X110405257Y-60348567D01*
G75*
G02*
X111737381Y-61510653I85019J-1247105D01*
G01*
X111776829Y-62089309D01*
G75*
G02*
X110614743Y-63421433I-1247105J-85019D01*
G01*
X110614743Y-63421433D01*
G75*
G02*
X109282619Y-62259347I-85019J1247105D01*
G01*
G37*
G36*
G01*
X115748238Y-64742873D02*
X114936802Y-63282012D01*
G75*
G02*
X115422581Y-61582301I1092745J606966D01*
G01*
X115422581Y-61582301D01*
G75*
G02*
X117122292Y-62068080I606966J-1092745D01*
G01*
X117933198Y-63527988D01*
G75*
G02*
X117447419Y-65227699I-1092745J-606966D01*
G01*
X117447419Y-65227699D01*
G75*
G02*
X115747708Y-64741920I-606966J1092745D01*
G01*
G37*
G36*
G01*
X108127332Y-63527035D02*
X108937708Y-62068080D01*
G75*
G02*
X110637419Y-61582301I1092745J-606966D01*
G01*
X110637419Y-61582301D01*
G75*
G02*
X111123198Y-63282012I-606966J-1092745D01*
G01*
X110312292Y-64741920D01*
G75*
G02*
X108612581Y-65227699I-1092745J606966D01*
G01*
X108612581Y-65227699D01*
G75*
G02*
X108126802Y-63527988I606966J1092745D01*
G01*
G37*
G36*
G01*
X114283171Y-62089309D02*
X114322619Y-61510653D01*
G75*
G02*
X115654743Y-60348567I1247105J-85019D01*
G01*
X115654743Y-60348567D01*
G75*
G02*
X116816829Y-61680691I-85019J-1247105D01*
G01*
X116777381Y-62259347D01*
G75*
G02*
X115445257Y-63421433I-1247105J85019D01*
G01*
X115445257Y-63421433D01*
G75*
G02*
X114283171Y-62089309I85019J1247105D01*
G01*
G37*
G36*
G01*
X87692619Y-62259347D02*
X87653171Y-61680691D01*
G75*
G02*
X88815257Y-60348567I1247105J85019D01*
G01*
X88815257Y-60348567D01*
G75*
G02*
X90147381Y-61510653I85019J-1247105D01*
G01*
X90186829Y-62089309D01*
G75*
G02*
X89024743Y-63421433I-1247105J-85019D01*
G01*
X89024743Y-63421433D01*
G75*
G02*
X87692619Y-62259347I-85019J1247105D01*
G01*
G37*
G36*
G01*
X94158238Y-64742873D02*
X93346802Y-63282012D01*
G75*
G02*
X93832581Y-61582301I1092745J606966D01*
G01*
X93832581Y-61582301D01*
G75*
G02*
X95532292Y-62068080I606966J-1092745D01*
G01*
X96343198Y-63527988D01*
G75*
G02*
X95857419Y-65227699I-1092745J-606966D01*
G01*
X95857419Y-65227699D01*
G75*
G02*
X94157708Y-64741920I-606966J1092745D01*
G01*
G37*
G36*
G01*
X86537332Y-63527035D02*
X87347708Y-62068080D01*
G75*
G02*
X89047419Y-61582301I1092745J-606966D01*
G01*
X89047419Y-61582301D01*
G75*
G02*
X89533198Y-63282012I-606966J-1092745D01*
G01*
X88722292Y-64741920D01*
G75*
G02*
X87022581Y-65227699I-1092745J606966D01*
G01*
X87022581Y-65227699D01*
G75*
G02*
X86536802Y-63527988I606966J1092745D01*
G01*
G37*
G36*
G01*
X92693171Y-62089309D02*
X92732619Y-61510653D01*
G75*
G02*
X94064743Y-60348567I1247105J-85019D01*
G01*
X94064743Y-60348567D01*
G75*
G02*
X95226829Y-61680691I-85019J-1247105D01*
G01*
X95187381Y-62259347D01*
G75*
G02*
X93855257Y-63421433I-1247105J85019D01*
G01*
X93855257Y-63421433D01*
G75*
G02*
X92693171Y-62089309I85019J1247105D01*
G01*
G37*
G36*
G01*
X128332619Y-57814347D02*
X128293171Y-57235691D01*
G75*
G02*
X129455257Y-55903567I1247105J85019D01*
G01*
X129455257Y-55903567D01*
G75*
G02*
X130787381Y-57065653I85019J-1247105D01*
G01*
X130826829Y-57644309D01*
G75*
G02*
X129664743Y-58976433I-1247105J-85019D01*
G01*
X129664743Y-58976433D01*
G75*
G02*
X128332619Y-57814347I-85019J1247105D01*
G01*
G37*
G36*
G01*
X134798238Y-60297873D02*
X133986802Y-58837012D01*
G75*
G02*
X134472581Y-57137301I1092745J606966D01*
G01*
X134472581Y-57137301D01*
G75*
G02*
X136172292Y-57623080I606966J-1092745D01*
G01*
X136983198Y-59082988D01*
G75*
G02*
X136497419Y-60782699I-1092745J-606966D01*
G01*
X136497419Y-60782699D01*
G75*
G02*
X134797708Y-60296920I-606966J1092745D01*
G01*
G37*
G36*
G01*
X127177332Y-59082035D02*
X127987708Y-57623080D01*
G75*
G02*
X129687419Y-57137301I1092745J-606966D01*
G01*
X129687419Y-57137301D01*
G75*
G02*
X130173198Y-58837012I-606966J-1092745D01*
G01*
X129362292Y-60296920D01*
G75*
G02*
X127662581Y-60782699I-1092745J606966D01*
G01*
X127662581Y-60782699D01*
G75*
G02*
X127176802Y-59082988I606966J1092745D01*
G01*
G37*
G36*
G01*
X133333171Y-57644309D02*
X133372619Y-57065653D01*
G75*
G02*
X134704743Y-55903567I1247105J-85019D01*
G01*
X134704743Y-55903567D01*
G75*
G02*
X135866829Y-57235691I-85019J-1247105D01*
G01*
X135827381Y-57814347D01*
G75*
G02*
X134495257Y-58976433I-1247105J85019D01*
G01*
X134495257Y-58976433D01*
G75*
G02*
X133333171Y-57644309I85019J1247105D01*
G01*
G37*
G36*
G01*
X147382619Y-55274347D02*
X147343171Y-54695691D01*
G75*
G02*
X148505257Y-53363567I1247105J85019D01*
G01*
X148505257Y-53363567D01*
G75*
G02*
X149837381Y-54525653I85019J-1247105D01*
G01*
X149876829Y-55104309D01*
G75*
G02*
X148714743Y-56436433I-1247105J-85019D01*
G01*
X148714743Y-56436433D01*
G75*
G02*
X147382619Y-55274347I-85019J1247105D01*
G01*
G37*
G36*
G01*
X153848238Y-57757873D02*
X153036802Y-56297012D01*
G75*
G02*
X153522581Y-54597301I1092745J606966D01*
G01*
X153522581Y-54597301D01*
G75*
G02*
X155222292Y-55083080I606966J-1092745D01*
G01*
X156033198Y-56542988D01*
G75*
G02*
X155547419Y-58242699I-1092745J-606966D01*
G01*
X155547419Y-58242699D01*
G75*
G02*
X153847708Y-57756920I-606966J1092745D01*
G01*
G37*
G36*
G01*
X146227332Y-56542035D02*
X147037708Y-55083080D01*
G75*
G02*
X148737419Y-54597301I1092745J-606966D01*
G01*
X148737419Y-54597301D01*
G75*
G02*
X149223198Y-56297012I-606966J-1092745D01*
G01*
X148412292Y-57756920D01*
G75*
G02*
X146712581Y-58242699I-1092745J606966D01*
G01*
X146712581Y-58242699D01*
G75*
G02*
X146226802Y-56542988I606966J1092745D01*
G01*
G37*
G36*
G01*
X152383171Y-55104309D02*
X152422619Y-54525653D01*
G75*
G02*
X153754743Y-53363567I1247105J-85019D01*
G01*
X153754743Y-53363567D01*
G75*
G02*
X154916829Y-54695691I-85019J-1247105D01*
G01*
X154877381Y-55274347D01*
G75*
G02*
X153545257Y-56436433I-1247105J85019D01*
G01*
X153545257Y-56436433D01*
G75*
G02*
X152383171Y-55104309I85019J1247105D01*
G01*
G37*
G36*
G01*
X166432619Y-57814347D02*
X166393171Y-57235691D01*
G75*
G02*
X167555257Y-55903567I1247105J85019D01*
G01*
X167555257Y-55903567D01*
G75*
G02*
X168887381Y-57065653I85019J-1247105D01*
G01*
X168926829Y-57644309D01*
G75*
G02*
X167764743Y-58976433I-1247105J-85019D01*
G01*
X167764743Y-58976433D01*
G75*
G02*
X166432619Y-57814347I-85019J1247105D01*
G01*
G37*
G36*
G01*
X172898238Y-60297873D02*
X172086802Y-58837012D01*
G75*
G02*
X172572581Y-57137301I1092745J606966D01*
G01*
X172572581Y-57137301D01*
G75*
G02*
X174272292Y-57623080I606966J-1092745D01*
G01*
X175083198Y-59082988D01*
G75*
G02*
X174597419Y-60782699I-1092745J-606966D01*
G01*
X174597419Y-60782699D01*
G75*
G02*
X172897708Y-60296920I-606966J1092745D01*
G01*
G37*
G36*
G01*
X165277332Y-59082035D02*
X166087708Y-57623080D01*
G75*
G02*
X167787419Y-57137301I1092745J-606966D01*
G01*
X167787419Y-57137301D01*
G75*
G02*
X168273198Y-58837012I-606966J-1092745D01*
G01*
X167462292Y-60296920D01*
G75*
G02*
X165762581Y-60782699I-1092745J606966D01*
G01*
X165762581Y-60782699D01*
G75*
G02*
X165276802Y-59082988I606966J1092745D01*
G01*
G37*
G36*
G01*
X171433171Y-57644309D02*
X171472619Y-57065653D01*
G75*
G02*
X172804743Y-55903567I1247105J-85019D01*
G01*
X172804743Y-55903567D01*
G75*
G02*
X173966829Y-57235691I-85019J-1247105D01*
G01*
X173927381Y-57814347D01*
G75*
G02*
X172595257Y-58976433I-1247105J85019D01*
G01*
X172595257Y-58976433D01*
G75*
G02*
X171433171Y-57644309I85019J1247105D01*
G01*
G37*
G36*
G01*
X185482619Y-59719347D02*
X185443171Y-59140691D01*
G75*
G02*
X186605257Y-57808567I1247105J85019D01*
G01*
X186605257Y-57808567D01*
G75*
G02*
X187937381Y-58970653I85019J-1247105D01*
G01*
X187976829Y-59549309D01*
G75*
G02*
X186814743Y-60881433I-1247105J-85019D01*
G01*
X186814743Y-60881433D01*
G75*
G02*
X185482619Y-59719347I-85019J1247105D01*
G01*
G37*
G36*
G01*
X191948238Y-62202873D02*
X191136802Y-60742012D01*
G75*
G02*
X191622581Y-59042301I1092745J606966D01*
G01*
X191622581Y-59042301D01*
G75*
G02*
X193322292Y-59528080I606966J-1092745D01*
G01*
X194133198Y-60987988D01*
G75*
G02*
X193647419Y-62687699I-1092745J-606966D01*
G01*
X193647419Y-62687699D01*
G75*
G02*
X191947708Y-62201920I-606966J1092745D01*
G01*
G37*
G36*
G01*
X184327332Y-60987035D02*
X185137708Y-59528080D01*
G75*
G02*
X186837419Y-59042301I1092745J-606966D01*
G01*
X186837419Y-59042301D01*
G75*
G02*
X187323198Y-60742012I-606966J-1092745D01*
G01*
X186512292Y-62201920D01*
G75*
G02*
X184812581Y-62687699I-1092745J606966D01*
G01*
X184812581Y-62687699D01*
G75*
G02*
X184326802Y-60987988I606966J1092745D01*
G01*
G37*
G36*
G01*
X190483171Y-59549309D02*
X190522619Y-58970653D01*
G75*
G02*
X191854743Y-57808567I1247105J-85019D01*
G01*
X191854743Y-57808567D01*
G75*
G02*
X193016829Y-59140691I-85019J-1247105D01*
G01*
X192977381Y-59719347D01*
G75*
G02*
X191645257Y-60881433I-1247105J85019D01*
G01*
X191645257Y-60881433D01*
G75*
G02*
X190483171Y-59549309I85019J1247105D01*
G01*
G37*
G36*
G01*
X204532619Y-69244347D02*
X204493171Y-68665691D01*
G75*
G02*
X205655257Y-67333567I1247105J85019D01*
G01*
X205655257Y-67333567D01*
G75*
G02*
X206987381Y-68495653I85019J-1247105D01*
G01*
X207026829Y-69074309D01*
G75*
G02*
X205864743Y-70406433I-1247105J-85019D01*
G01*
X205864743Y-70406433D01*
G75*
G02*
X204532619Y-69244347I-85019J1247105D01*
G01*
G37*
G36*
G01*
X210998238Y-71727873D02*
X210186802Y-70267012D01*
G75*
G02*
X210672581Y-68567301I1092745J606966D01*
G01*
X210672581Y-68567301D01*
G75*
G02*
X212372292Y-69053080I606966J-1092745D01*
G01*
X213183198Y-70512988D01*
G75*
G02*
X212697419Y-72212699I-1092745J-606966D01*
G01*
X212697419Y-72212699D01*
G75*
G02*
X210997708Y-71726920I-606966J1092745D01*
G01*
G37*
G36*
G01*
X203377332Y-70512035D02*
X204187708Y-69053080D01*
G75*
G02*
X205887419Y-68567301I1092745J-606966D01*
G01*
X205887419Y-68567301D01*
G75*
G02*
X206373198Y-70267012I-606966J-1092745D01*
G01*
X205562292Y-71726920D01*
G75*
G02*
X203862581Y-72212699I-1092745J606966D01*
G01*
X203862581Y-72212699D01*
G75*
G02*
X203376802Y-70512988I606966J1092745D01*
G01*
G37*
G36*
G01*
X209533171Y-69074309D02*
X209572619Y-68495653D01*
G75*
G02*
X210904743Y-67333567I1247105J-85019D01*
G01*
X210904743Y-67333567D01*
G75*
G02*
X212066829Y-68665691I-85019J-1247105D01*
G01*
X212027381Y-69244347D01*
G75*
G02*
X210695257Y-70406433I-1247105J85019D01*
G01*
X210695257Y-70406433D01*
G75*
G02*
X209533171Y-69074309I85019J1247105D01*
G01*
G37*
G36*
G01*
X87692619Y-81309347D02*
X87653171Y-80730691D01*
G75*
G02*
X88815257Y-79398567I1247105J85019D01*
G01*
X88815257Y-79398567D01*
G75*
G02*
X90147381Y-80560653I85019J-1247105D01*
G01*
X90186829Y-81139309D01*
G75*
G02*
X89024743Y-82471433I-1247105J-85019D01*
G01*
X89024743Y-82471433D01*
G75*
G02*
X87692619Y-81309347I-85019J1247105D01*
G01*
G37*
G36*
G01*
X94158238Y-83792873D02*
X93346802Y-82332012D01*
G75*
G02*
X93832581Y-80632301I1092745J606966D01*
G01*
X93832581Y-80632301D01*
G75*
G02*
X95532292Y-81118080I606966J-1092745D01*
G01*
X96343198Y-82577988D01*
G75*
G02*
X95857419Y-84277699I-1092745J-606966D01*
G01*
X95857419Y-84277699D01*
G75*
G02*
X94157708Y-83791920I-606966J1092745D01*
G01*
G37*
G36*
G01*
X86537332Y-82577035D02*
X87347708Y-81118080D01*
G75*
G02*
X89047419Y-80632301I1092745J-606966D01*
G01*
X89047419Y-80632301D01*
G75*
G02*
X89533198Y-82332012I-606966J-1092745D01*
G01*
X88722292Y-83791920D01*
G75*
G02*
X87022581Y-84277699I-1092745J606966D01*
G01*
X87022581Y-84277699D01*
G75*
G02*
X86536802Y-82577988I606966J1092745D01*
G01*
G37*
G36*
G01*
X92693171Y-81139309D02*
X92732619Y-80560653D01*
G75*
G02*
X94064743Y-79398567I1247105J-85019D01*
G01*
X94064743Y-79398567D01*
G75*
G02*
X95226829Y-80730691I-85019J-1247105D01*
G01*
X95187381Y-81309347D01*
G75*
G02*
X93855257Y-82471433I-1247105J85019D01*
G01*
X93855257Y-82471433D01*
G75*
G02*
X92693171Y-81139309I85019J1247105D01*
G01*
G37*
G36*
G01*
X109282619Y-81309347D02*
X109243171Y-80730691D01*
G75*
G02*
X110405257Y-79398567I1247105J85019D01*
G01*
X110405257Y-79398567D01*
G75*
G02*
X111737381Y-80560653I85019J-1247105D01*
G01*
X111776829Y-81139309D01*
G75*
G02*
X110614743Y-82471433I-1247105J-85019D01*
G01*
X110614743Y-82471433D01*
G75*
G02*
X109282619Y-81309347I-85019J1247105D01*
G01*
G37*
G36*
G01*
X115748238Y-83792873D02*
X114936802Y-82332012D01*
G75*
G02*
X115422581Y-80632301I1092745J606966D01*
G01*
X115422581Y-80632301D01*
G75*
G02*
X117122292Y-81118080I606966J-1092745D01*
G01*
X117933198Y-82577988D01*
G75*
G02*
X117447419Y-84277699I-1092745J-606966D01*
G01*
X117447419Y-84277699D01*
G75*
G02*
X115747708Y-83791920I-606966J1092745D01*
G01*
G37*
G36*
G01*
X108127332Y-82577035D02*
X108937708Y-81118080D01*
G75*
G02*
X110637419Y-80632301I1092745J-606966D01*
G01*
X110637419Y-80632301D01*
G75*
G02*
X111123198Y-82332012I-606966J-1092745D01*
G01*
X110312292Y-83791920D01*
G75*
G02*
X108612581Y-84277699I-1092745J606966D01*
G01*
X108612581Y-84277699D01*
G75*
G02*
X108126802Y-82577988I606966J1092745D01*
G01*
G37*
G36*
G01*
X114283171Y-81139309D02*
X114322619Y-80560653D01*
G75*
G02*
X115654743Y-79398567I1247105J-85019D01*
G01*
X115654743Y-79398567D01*
G75*
G02*
X116816829Y-80730691I-85019J-1247105D01*
G01*
X116777381Y-81309347D01*
G75*
G02*
X115445257Y-82471433I-1247105J85019D01*
G01*
X115445257Y-82471433D01*
G75*
G02*
X114283171Y-81139309I85019J1247105D01*
G01*
G37*
G36*
G01*
X128332619Y-76864347D02*
X128293171Y-76285691D01*
G75*
G02*
X129455257Y-74953567I1247105J85019D01*
G01*
X129455257Y-74953567D01*
G75*
G02*
X130787381Y-76115653I85019J-1247105D01*
G01*
X130826829Y-76694309D01*
G75*
G02*
X129664743Y-78026433I-1247105J-85019D01*
G01*
X129664743Y-78026433D01*
G75*
G02*
X128332619Y-76864347I-85019J1247105D01*
G01*
G37*
G36*
G01*
X134798238Y-79347873D02*
X133986802Y-77887012D01*
G75*
G02*
X134472581Y-76187301I1092745J606966D01*
G01*
X134472581Y-76187301D01*
G75*
G02*
X136172292Y-76673080I606966J-1092745D01*
G01*
X136983198Y-78132988D01*
G75*
G02*
X136497419Y-79832699I-1092745J-606966D01*
G01*
X136497419Y-79832699D01*
G75*
G02*
X134797708Y-79346920I-606966J1092745D01*
G01*
G37*
G36*
G01*
X127177332Y-78132035D02*
X127987708Y-76673080D01*
G75*
G02*
X129687419Y-76187301I1092745J-606966D01*
G01*
X129687419Y-76187301D01*
G75*
G02*
X130173198Y-77887012I-606966J-1092745D01*
G01*
X129362292Y-79346920D01*
G75*
G02*
X127662581Y-79832699I-1092745J606966D01*
G01*
X127662581Y-79832699D01*
G75*
G02*
X127176802Y-78132988I606966J1092745D01*
G01*
G37*
G36*
G01*
X133333171Y-76694309D02*
X133372619Y-76115653D01*
G75*
G02*
X134704743Y-74953567I1247105J-85019D01*
G01*
X134704743Y-74953567D01*
G75*
G02*
X135866829Y-76285691I-85019J-1247105D01*
G01*
X135827381Y-76864347D01*
G75*
G02*
X134495257Y-78026433I-1247105J85019D01*
G01*
X134495257Y-78026433D01*
G75*
G02*
X133333171Y-76694309I85019J1247105D01*
G01*
G37*
G36*
G01*
X147382619Y-74324347D02*
X147343171Y-73745691D01*
G75*
G02*
X148505257Y-72413567I1247105J85019D01*
G01*
X148505257Y-72413567D01*
G75*
G02*
X149837381Y-73575653I85019J-1247105D01*
G01*
X149876829Y-74154309D01*
G75*
G02*
X148714743Y-75486433I-1247105J-85019D01*
G01*
X148714743Y-75486433D01*
G75*
G02*
X147382619Y-74324347I-85019J1247105D01*
G01*
G37*
G36*
G01*
X153848238Y-76807873D02*
X153036802Y-75347012D01*
G75*
G02*
X153522581Y-73647301I1092745J606966D01*
G01*
X153522581Y-73647301D01*
G75*
G02*
X155222292Y-74133080I606966J-1092745D01*
G01*
X156033198Y-75592988D01*
G75*
G02*
X155547419Y-77292699I-1092745J-606966D01*
G01*
X155547419Y-77292699D01*
G75*
G02*
X153847708Y-76806920I-606966J1092745D01*
G01*
G37*
G36*
G01*
X146227332Y-75592035D02*
X147037708Y-74133080D01*
G75*
G02*
X148737419Y-73647301I1092745J-606966D01*
G01*
X148737419Y-73647301D01*
G75*
G02*
X149223198Y-75347012I-606966J-1092745D01*
G01*
X148412292Y-76806920D01*
G75*
G02*
X146712581Y-77292699I-1092745J606966D01*
G01*
X146712581Y-77292699D01*
G75*
G02*
X146226802Y-75592988I606966J1092745D01*
G01*
G37*
G36*
G01*
X152383171Y-74154309D02*
X152422619Y-73575653D01*
G75*
G02*
X153754743Y-72413567I1247105J-85019D01*
G01*
X153754743Y-72413567D01*
G75*
G02*
X154916829Y-73745691I-85019J-1247105D01*
G01*
X154877381Y-74324347D01*
G75*
G02*
X153545257Y-75486433I-1247105J85019D01*
G01*
X153545257Y-75486433D01*
G75*
G02*
X152383171Y-74154309I85019J1247105D01*
G01*
G37*
G36*
G01*
X166432619Y-76864347D02*
X166393171Y-76285691D01*
G75*
G02*
X167555257Y-74953567I1247105J85019D01*
G01*
X167555257Y-74953567D01*
G75*
G02*
X168887381Y-76115653I85019J-1247105D01*
G01*
X168926829Y-76694309D01*
G75*
G02*
X167764743Y-78026433I-1247105J-85019D01*
G01*
X167764743Y-78026433D01*
G75*
G02*
X166432619Y-76864347I-85019J1247105D01*
G01*
G37*
G36*
G01*
X172898238Y-79347873D02*
X172086802Y-77887012D01*
G75*
G02*
X172572581Y-76187301I1092745J606966D01*
G01*
X172572581Y-76187301D01*
G75*
G02*
X174272292Y-76673080I606966J-1092745D01*
G01*
X175083198Y-78132988D01*
G75*
G02*
X174597419Y-79832699I-1092745J-606966D01*
G01*
X174597419Y-79832699D01*
G75*
G02*
X172897708Y-79346920I-606966J1092745D01*
G01*
G37*
G36*
G01*
X165277332Y-78132035D02*
X166087708Y-76673080D01*
G75*
G02*
X167787419Y-76187301I1092745J-606966D01*
G01*
X167787419Y-76187301D01*
G75*
G02*
X168273198Y-77887012I-606966J-1092745D01*
G01*
X167462292Y-79346920D01*
G75*
G02*
X165762581Y-79832699I-1092745J606966D01*
G01*
X165762581Y-79832699D01*
G75*
G02*
X165276802Y-78132988I606966J1092745D01*
G01*
G37*
G36*
G01*
X171433171Y-76694309D02*
X171472619Y-76115653D01*
G75*
G02*
X172804743Y-74953567I1247105J-85019D01*
G01*
X172804743Y-74953567D01*
G75*
G02*
X173966829Y-76285691I-85019J-1247105D01*
G01*
X173927381Y-76864347D01*
G75*
G02*
X172595257Y-78026433I-1247105J85019D01*
G01*
X172595257Y-78026433D01*
G75*
G02*
X171433171Y-76694309I85019J1247105D01*
G01*
G37*
G36*
G01*
X185482619Y-78769347D02*
X185443171Y-78190691D01*
G75*
G02*
X186605257Y-76858567I1247105J85019D01*
G01*
X186605257Y-76858567D01*
G75*
G02*
X187937381Y-78020653I85019J-1247105D01*
G01*
X187976829Y-78599309D01*
G75*
G02*
X186814743Y-79931433I-1247105J-85019D01*
G01*
X186814743Y-79931433D01*
G75*
G02*
X185482619Y-78769347I-85019J1247105D01*
G01*
G37*
G36*
G01*
X191948238Y-81252873D02*
X191136802Y-79792012D01*
G75*
G02*
X191622581Y-78092301I1092745J606966D01*
G01*
X191622581Y-78092301D01*
G75*
G02*
X193322292Y-78578080I606966J-1092745D01*
G01*
X194133198Y-80037988D01*
G75*
G02*
X193647419Y-81737699I-1092745J-606966D01*
G01*
X193647419Y-81737699D01*
G75*
G02*
X191947708Y-81251920I-606966J1092745D01*
G01*
G37*
G36*
G01*
X184327332Y-80037035D02*
X185137708Y-78578080D01*
G75*
G02*
X186837419Y-78092301I1092745J-606966D01*
G01*
X186837419Y-78092301D01*
G75*
G02*
X187323198Y-79792012I-606966J-1092745D01*
G01*
X186512292Y-81251920D01*
G75*
G02*
X184812581Y-81737699I-1092745J606966D01*
G01*
X184812581Y-81737699D01*
G75*
G02*
X184326802Y-80037988I606966J1092745D01*
G01*
G37*
G36*
G01*
X190483171Y-78599309D02*
X190522619Y-78020653D01*
G75*
G02*
X191854743Y-76858567I1247105J-85019D01*
G01*
X191854743Y-76858567D01*
G75*
G02*
X193016829Y-78190691I-85019J-1247105D01*
G01*
X192977381Y-78769347D01*
G75*
G02*
X191645257Y-79931433I-1247105J85019D01*
G01*
X191645257Y-79931433D01*
G75*
G02*
X190483171Y-78599309I85019J1247105D01*
G01*
G37*
G36*
G01*
X87692619Y-100359347D02*
X87653171Y-99780691D01*
G75*
G02*
X88815257Y-98448567I1247105J85019D01*
G01*
X88815257Y-98448567D01*
G75*
G02*
X90147381Y-99610653I85019J-1247105D01*
G01*
X90186829Y-100189309D01*
G75*
G02*
X89024743Y-101521433I-1247105J-85019D01*
G01*
X89024743Y-101521433D01*
G75*
G02*
X87692619Y-100359347I-85019J1247105D01*
G01*
G37*
G36*
G01*
X94158238Y-102842873D02*
X93346802Y-101382012D01*
G75*
G02*
X93832581Y-99682301I1092745J606966D01*
G01*
X93832581Y-99682301D01*
G75*
G02*
X95532292Y-100168080I606966J-1092745D01*
G01*
X96343198Y-101627988D01*
G75*
G02*
X95857419Y-103327699I-1092745J-606966D01*
G01*
X95857419Y-103327699D01*
G75*
G02*
X94157708Y-102841920I-606966J1092745D01*
G01*
G37*
G36*
G01*
X86537332Y-101627035D02*
X87347708Y-100168080D01*
G75*
G02*
X89047419Y-99682301I1092745J-606966D01*
G01*
X89047419Y-99682301D01*
G75*
G02*
X89533198Y-101382012I-606966J-1092745D01*
G01*
X88722292Y-102841920D01*
G75*
G02*
X87022581Y-103327699I-1092745J606966D01*
G01*
X87022581Y-103327699D01*
G75*
G02*
X86536802Y-101627988I606966J1092745D01*
G01*
G37*
G36*
G01*
X92693171Y-100189309D02*
X92732619Y-99610653D01*
G75*
G02*
X94064743Y-98448567I1247105J-85019D01*
G01*
X94064743Y-98448567D01*
G75*
G02*
X95226829Y-99780691I-85019J-1247105D01*
G01*
X95187381Y-100359347D01*
G75*
G02*
X93855257Y-101521433I-1247105J85019D01*
G01*
X93855257Y-101521433D01*
G75*
G02*
X92693171Y-100189309I85019J1247105D01*
G01*
G37*
G36*
G01*
X109282619Y-100359347D02*
X109243171Y-99780691D01*
G75*
G02*
X110405257Y-98448567I1247105J85019D01*
G01*
X110405257Y-98448567D01*
G75*
G02*
X111737381Y-99610653I85019J-1247105D01*
G01*
X111776829Y-100189309D01*
G75*
G02*
X110614743Y-101521433I-1247105J-85019D01*
G01*
X110614743Y-101521433D01*
G75*
G02*
X109282619Y-100359347I-85019J1247105D01*
G01*
G37*
G36*
G01*
X115748238Y-102842873D02*
X114936802Y-101382012D01*
G75*
G02*
X115422581Y-99682301I1092745J606966D01*
G01*
X115422581Y-99682301D01*
G75*
G02*
X117122292Y-100168080I606966J-1092745D01*
G01*
X117933198Y-101627988D01*
G75*
G02*
X117447419Y-103327699I-1092745J-606966D01*
G01*
X117447419Y-103327699D01*
G75*
G02*
X115747708Y-102841920I-606966J1092745D01*
G01*
G37*
G36*
G01*
X108127332Y-101627035D02*
X108937708Y-100168080D01*
G75*
G02*
X110637419Y-99682301I1092745J-606966D01*
G01*
X110637419Y-99682301D01*
G75*
G02*
X111123198Y-101382012I-606966J-1092745D01*
G01*
X110312292Y-102841920D01*
G75*
G02*
X108612581Y-103327699I-1092745J606966D01*
G01*
X108612581Y-103327699D01*
G75*
G02*
X108126802Y-101627988I606966J1092745D01*
G01*
G37*
G36*
G01*
X114283171Y-100189309D02*
X114322619Y-99610653D01*
G75*
G02*
X115654743Y-98448567I1247105J-85019D01*
G01*
X115654743Y-98448567D01*
G75*
G02*
X116816829Y-99780691I-85019J-1247105D01*
G01*
X116777381Y-100359347D01*
G75*
G02*
X115445257Y-101521433I-1247105J85019D01*
G01*
X115445257Y-101521433D01*
G75*
G02*
X114283171Y-100189309I85019J1247105D01*
G01*
G37*
G36*
G01*
X128332619Y-95914347D02*
X128293171Y-95335691D01*
G75*
G02*
X129455257Y-94003567I1247105J85019D01*
G01*
X129455257Y-94003567D01*
G75*
G02*
X130787381Y-95165653I85019J-1247105D01*
G01*
X130826829Y-95744309D01*
G75*
G02*
X129664743Y-97076433I-1247105J-85019D01*
G01*
X129664743Y-97076433D01*
G75*
G02*
X128332619Y-95914347I-85019J1247105D01*
G01*
G37*
G36*
G01*
X134798238Y-98397873D02*
X133986802Y-96937012D01*
G75*
G02*
X134472581Y-95237301I1092745J606966D01*
G01*
X134472581Y-95237301D01*
G75*
G02*
X136172292Y-95723080I606966J-1092745D01*
G01*
X136983198Y-97182988D01*
G75*
G02*
X136497419Y-98882699I-1092745J-606966D01*
G01*
X136497419Y-98882699D01*
G75*
G02*
X134797708Y-98396920I-606966J1092745D01*
G01*
G37*
G36*
G01*
X127177332Y-97182035D02*
X127987708Y-95723080D01*
G75*
G02*
X129687419Y-95237301I1092745J-606966D01*
G01*
X129687419Y-95237301D01*
G75*
G02*
X130173198Y-96937012I-606966J-1092745D01*
G01*
X129362292Y-98396920D01*
G75*
G02*
X127662581Y-98882699I-1092745J606966D01*
G01*
X127662581Y-98882699D01*
G75*
G02*
X127176802Y-97182988I606966J1092745D01*
G01*
G37*
G36*
G01*
X133333171Y-95744309D02*
X133372619Y-95165653D01*
G75*
G02*
X134704743Y-94003567I1247105J-85019D01*
G01*
X134704743Y-94003567D01*
G75*
G02*
X135866829Y-95335691I-85019J-1247105D01*
G01*
X135827381Y-95914347D01*
G75*
G02*
X134495257Y-97076433I-1247105J85019D01*
G01*
X134495257Y-97076433D01*
G75*
G02*
X133333171Y-95744309I85019J1247105D01*
G01*
G37*
G36*
G01*
X147382619Y-93374347D02*
X147343171Y-92795691D01*
G75*
G02*
X148505257Y-91463567I1247105J85019D01*
G01*
X148505257Y-91463567D01*
G75*
G02*
X149837381Y-92625653I85019J-1247105D01*
G01*
X149876829Y-93204309D01*
G75*
G02*
X148714743Y-94536433I-1247105J-85019D01*
G01*
X148714743Y-94536433D01*
G75*
G02*
X147382619Y-93374347I-85019J1247105D01*
G01*
G37*
G36*
G01*
X153848238Y-95857873D02*
X153036802Y-94397012D01*
G75*
G02*
X153522581Y-92697301I1092745J606966D01*
G01*
X153522581Y-92697301D01*
G75*
G02*
X155222292Y-93183080I606966J-1092745D01*
G01*
X156033198Y-94642988D01*
G75*
G02*
X155547419Y-96342699I-1092745J-606966D01*
G01*
X155547419Y-96342699D01*
G75*
G02*
X153847708Y-95856920I-606966J1092745D01*
G01*
G37*
G36*
G01*
X146227332Y-94642035D02*
X147037708Y-93183080D01*
G75*
G02*
X148737419Y-92697301I1092745J-606966D01*
G01*
X148737419Y-92697301D01*
G75*
G02*
X149223198Y-94397012I-606966J-1092745D01*
G01*
X148412292Y-95856920D01*
G75*
G02*
X146712581Y-96342699I-1092745J606966D01*
G01*
X146712581Y-96342699D01*
G75*
G02*
X146226802Y-94642988I606966J1092745D01*
G01*
G37*
G36*
G01*
X152383171Y-93204309D02*
X152422619Y-92625653D01*
G75*
G02*
X153754743Y-91463567I1247105J-85019D01*
G01*
X153754743Y-91463567D01*
G75*
G02*
X154916829Y-92795691I-85019J-1247105D01*
G01*
X154877381Y-93374347D01*
G75*
G02*
X153545257Y-94536433I-1247105J85019D01*
G01*
X153545257Y-94536433D01*
G75*
G02*
X152383171Y-93204309I85019J1247105D01*
G01*
G37*
G36*
G01*
X166432619Y-95914347D02*
X166393171Y-95335691D01*
G75*
G02*
X167555257Y-94003567I1247105J85019D01*
G01*
X167555257Y-94003567D01*
G75*
G02*
X168887381Y-95165653I85019J-1247105D01*
G01*
X168926829Y-95744309D01*
G75*
G02*
X167764743Y-97076433I-1247105J-85019D01*
G01*
X167764743Y-97076433D01*
G75*
G02*
X166432619Y-95914347I-85019J1247105D01*
G01*
G37*
G36*
G01*
X172898238Y-98397873D02*
X172086802Y-96937012D01*
G75*
G02*
X172572581Y-95237301I1092745J606966D01*
G01*
X172572581Y-95237301D01*
G75*
G02*
X174272292Y-95723080I606966J-1092745D01*
G01*
X175083198Y-97182988D01*
G75*
G02*
X174597419Y-98882699I-1092745J-606966D01*
G01*
X174597419Y-98882699D01*
G75*
G02*
X172897708Y-98396920I-606966J1092745D01*
G01*
G37*
G36*
G01*
X165277332Y-97182035D02*
X166087708Y-95723080D01*
G75*
G02*
X167787419Y-95237301I1092745J-606966D01*
G01*
X167787419Y-95237301D01*
G75*
G02*
X168273198Y-96937012I-606966J-1092745D01*
G01*
X167462292Y-98396920D01*
G75*
G02*
X165762581Y-98882699I-1092745J606966D01*
G01*
X165762581Y-98882699D01*
G75*
G02*
X165276802Y-97182988I606966J1092745D01*
G01*
G37*
G36*
G01*
X171433171Y-95744309D02*
X171472619Y-95165653D01*
G75*
G02*
X172804743Y-94003567I1247105J-85019D01*
G01*
X172804743Y-94003567D01*
G75*
G02*
X173966829Y-95335691I-85019J-1247105D01*
G01*
X173927381Y-95914347D01*
G75*
G02*
X172595257Y-97076433I-1247105J85019D01*
G01*
X172595257Y-97076433D01*
G75*
G02*
X171433171Y-95744309I85019J1247105D01*
G01*
G37*
G36*
G01*
X185482619Y-97819347D02*
X185443171Y-97240691D01*
G75*
G02*
X186605257Y-95908567I1247105J85019D01*
G01*
X186605257Y-95908567D01*
G75*
G02*
X187937381Y-97070653I85019J-1247105D01*
G01*
X187976829Y-97649309D01*
G75*
G02*
X186814743Y-98981433I-1247105J-85019D01*
G01*
X186814743Y-98981433D01*
G75*
G02*
X185482619Y-97819347I-85019J1247105D01*
G01*
G37*
G36*
G01*
X191948238Y-100302873D02*
X191136802Y-98842012D01*
G75*
G02*
X191622581Y-97142301I1092745J606966D01*
G01*
X191622581Y-97142301D01*
G75*
G02*
X193322292Y-97628080I606966J-1092745D01*
G01*
X194133198Y-99087988D01*
G75*
G02*
X193647419Y-100787699I-1092745J-606966D01*
G01*
X193647419Y-100787699D01*
G75*
G02*
X191947708Y-100301920I-606966J1092745D01*
G01*
G37*
G36*
G01*
X184327332Y-99087035D02*
X185137708Y-97628080D01*
G75*
G02*
X186837419Y-97142301I1092745J-606966D01*
G01*
X186837419Y-97142301D01*
G75*
G02*
X187323198Y-98842012I-606966J-1092745D01*
G01*
X186512292Y-100301920D01*
G75*
G02*
X184812581Y-100787699I-1092745J606966D01*
G01*
X184812581Y-100787699D01*
G75*
G02*
X184326802Y-99087988I606966J1092745D01*
G01*
G37*
G36*
G01*
X190483171Y-97649309D02*
X190522619Y-97070653D01*
G75*
G02*
X191854743Y-95908567I1247105J-85019D01*
G01*
X191854743Y-95908567D01*
G75*
G02*
X193016829Y-97240691I-85019J-1247105D01*
G01*
X192977381Y-97819347D01*
G75*
G02*
X191645257Y-98981433I-1247105J85019D01*
G01*
X191645257Y-98981433D01*
G75*
G02*
X190483171Y-97649309I85019J1247105D01*
G01*
G37*
G36*
G01*
X211052500Y-121937242D02*
X211307664Y-121416386D01*
G75*
G02*
X212980122Y-120843776I1122534J-549924D01*
G01*
X212980122Y-120843776D01*
G75*
G02*
X213552732Y-122516234I-549924J-1122534D01*
G01*
X213297568Y-123037090D01*
G75*
G02*
X211625110Y-123609700I-1122534J549924D01*
G01*
X211625110Y-123609700D01*
G75*
G02*
X211052500Y-121937242I549924J1122534D01*
G01*
G37*
G36*
G01*
X215410162Y-127318666D02*
X215437832Y-125649987D01*
G75*
G02*
X216708385Y-124420884I1249828J-20725D01*
G01*
X216708385Y-124420884D01*
G75*
G02*
X217937488Y-125691437I-20725J-1249828D01*
G01*
X217909800Y-127361207D01*
G75*
G02*
X216639247Y-128590310I-1249828J20725D01*
G01*
X216639247Y-128590310D01*
G75*
G02*
X215410144Y-127319757I20725J1249828D01*
G01*
G37*
G36*
G01*
X209418147Y-122457448D02*
X210849432Y-121599144D01*
G75*
G02*
X212564315Y-122028303I642862J-1072021D01*
G01*
X212564315Y-122028303D01*
G75*
G02*
X212135156Y-123743186I-1072021J-642862D01*
G01*
X210702936Y-124602050D01*
G75*
G02*
X208988053Y-124172891I-642862J1072021D01*
G01*
X208988053Y-124172891D01*
G75*
G02*
X209417212Y-122458008I1072021J642862D01*
G01*
G37*
G36*
G01*
X215468123Y-124290261D02*
X215791615Y-123808853D01*
G75*
G02*
X217526311Y-123468519I1037515J-697181D01*
G01*
X217526311Y-123468519D01*
G75*
G02*
X217866645Y-125203215I-697181J-1037515D01*
G01*
X217543153Y-125684623D01*
G75*
G02*
X215808457Y-126024957I-1037515J697181D01*
G01*
X215808457Y-126024957D01*
G75*
G02*
X215468123Y-124290261I697181J1037515D01*
G01*
G37*
G36*
G01*
X87692619Y-119409347D02*
X87653171Y-118830691D01*
G75*
G02*
X88815257Y-117498567I1247105J85019D01*
G01*
X88815257Y-117498567D01*
G75*
G02*
X90147381Y-118660653I85019J-1247105D01*
G01*
X90186829Y-119239309D01*
G75*
G02*
X89024743Y-120571433I-1247105J-85019D01*
G01*
X89024743Y-120571433D01*
G75*
G02*
X87692619Y-119409347I-85019J1247105D01*
G01*
G37*
G36*
G01*
X94158238Y-121892873D02*
X93346802Y-120432012D01*
G75*
G02*
X93832581Y-118732301I1092745J606966D01*
G01*
X93832581Y-118732301D01*
G75*
G02*
X95532292Y-119218080I606966J-1092745D01*
G01*
X96343198Y-120677988D01*
G75*
G02*
X95857419Y-122377699I-1092745J-606966D01*
G01*
X95857419Y-122377699D01*
G75*
G02*
X94157708Y-121891920I-606966J1092745D01*
G01*
G37*
G36*
G01*
X86537332Y-120677035D02*
X87347708Y-119218080D01*
G75*
G02*
X89047419Y-118732301I1092745J-606966D01*
G01*
X89047419Y-118732301D01*
G75*
G02*
X89533198Y-120432012I-606966J-1092745D01*
G01*
X88722292Y-121891920D01*
G75*
G02*
X87022581Y-122377699I-1092745J606966D01*
G01*
X87022581Y-122377699D01*
G75*
G02*
X86536802Y-120677988I606966J1092745D01*
G01*
G37*
G36*
G01*
X92693171Y-119239309D02*
X92732619Y-118660653D01*
G75*
G02*
X94064743Y-117498567I1247105J-85019D01*
G01*
X94064743Y-117498567D01*
G75*
G02*
X95226829Y-118830691I-85019J-1247105D01*
G01*
X95187381Y-119409347D01*
G75*
G02*
X93855257Y-120571433I-1247105J85019D01*
G01*
X93855257Y-120571433D01*
G75*
G02*
X92693171Y-119239309I85019J1247105D01*
G01*
G37*
G36*
G01*
X109282619Y-119409347D02*
X109243171Y-118830691D01*
G75*
G02*
X110405257Y-117498567I1247105J85019D01*
G01*
X110405257Y-117498567D01*
G75*
G02*
X111737381Y-118660653I85019J-1247105D01*
G01*
X111776829Y-119239309D01*
G75*
G02*
X110614743Y-120571433I-1247105J-85019D01*
G01*
X110614743Y-120571433D01*
G75*
G02*
X109282619Y-119409347I-85019J1247105D01*
G01*
G37*
G36*
G01*
X115748238Y-121892873D02*
X114936802Y-120432012D01*
G75*
G02*
X115422581Y-118732301I1092745J606966D01*
G01*
X115422581Y-118732301D01*
G75*
G02*
X117122292Y-119218080I606966J-1092745D01*
G01*
X117933198Y-120677988D01*
G75*
G02*
X117447419Y-122377699I-1092745J-606966D01*
G01*
X117447419Y-122377699D01*
G75*
G02*
X115747708Y-121891920I-606966J1092745D01*
G01*
G37*
G36*
G01*
X108127332Y-120677035D02*
X108937708Y-119218080D01*
G75*
G02*
X110637419Y-118732301I1092745J-606966D01*
G01*
X110637419Y-118732301D01*
G75*
G02*
X111123198Y-120432012I-606966J-1092745D01*
G01*
X110312292Y-121891920D01*
G75*
G02*
X108612581Y-122377699I-1092745J606966D01*
G01*
X108612581Y-122377699D01*
G75*
G02*
X108126802Y-120677988I606966J1092745D01*
G01*
G37*
G36*
G01*
X114283171Y-119239309D02*
X114322619Y-118660653D01*
G75*
G02*
X115654743Y-117498567I1247105J-85019D01*
G01*
X115654743Y-117498567D01*
G75*
G02*
X116816829Y-118830691I-85019J-1247105D01*
G01*
X116777381Y-119409347D01*
G75*
G02*
X115445257Y-120571433I-1247105J85019D01*
G01*
X115445257Y-120571433D01*
G75*
G02*
X114283171Y-119239309I85019J1247105D01*
G01*
G37*
G36*
G01*
X128332619Y-114964347D02*
X128293171Y-114385691D01*
G75*
G02*
X129455257Y-113053567I1247105J85019D01*
G01*
X129455257Y-113053567D01*
G75*
G02*
X130787381Y-114215653I85019J-1247105D01*
G01*
X130826829Y-114794309D01*
G75*
G02*
X129664743Y-116126433I-1247105J-85019D01*
G01*
X129664743Y-116126433D01*
G75*
G02*
X128332619Y-114964347I-85019J1247105D01*
G01*
G37*
G36*
G01*
X134798238Y-117447873D02*
X133986802Y-115987012D01*
G75*
G02*
X134472581Y-114287301I1092745J606966D01*
G01*
X134472581Y-114287301D01*
G75*
G02*
X136172292Y-114773080I606966J-1092745D01*
G01*
X136983198Y-116232988D01*
G75*
G02*
X136497419Y-117932699I-1092745J-606966D01*
G01*
X136497419Y-117932699D01*
G75*
G02*
X134797708Y-117446920I-606966J1092745D01*
G01*
G37*
G36*
G01*
X127177332Y-116232035D02*
X127987708Y-114773080D01*
G75*
G02*
X129687419Y-114287301I1092745J-606966D01*
G01*
X129687419Y-114287301D01*
G75*
G02*
X130173198Y-115987012I-606966J-1092745D01*
G01*
X129362292Y-117446920D01*
G75*
G02*
X127662581Y-117932699I-1092745J606966D01*
G01*
X127662581Y-117932699D01*
G75*
G02*
X127176802Y-116232988I606966J1092745D01*
G01*
G37*
G36*
G01*
X133333171Y-114794309D02*
X133372619Y-114215653D01*
G75*
G02*
X134704743Y-113053567I1247105J-85019D01*
G01*
X134704743Y-113053567D01*
G75*
G02*
X135866829Y-114385691I-85019J-1247105D01*
G01*
X135827381Y-114964347D01*
G75*
G02*
X134495257Y-116126433I-1247105J85019D01*
G01*
X134495257Y-116126433D01*
G75*
G02*
X133333171Y-114794309I85019J1247105D01*
G01*
G37*
G36*
G01*
X147382619Y-112424347D02*
X147343171Y-111845691D01*
G75*
G02*
X148505257Y-110513567I1247105J85019D01*
G01*
X148505257Y-110513567D01*
G75*
G02*
X149837381Y-111675653I85019J-1247105D01*
G01*
X149876829Y-112254309D01*
G75*
G02*
X148714743Y-113586433I-1247105J-85019D01*
G01*
X148714743Y-113586433D01*
G75*
G02*
X147382619Y-112424347I-85019J1247105D01*
G01*
G37*
G36*
G01*
X153848238Y-114907873D02*
X153036802Y-113447012D01*
G75*
G02*
X153522581Y-111747301I1092745J606966D01*
G01*
X153522581Y-111747301D01*
G75*
G02*
X155222292Y-112233080I606966J-1092745D01*
G01*
X156033198Y-113692988D01*
G75*
G02*
X155547419Y-115392699I-1092745J-606966D01*
G01*
X155547419Y-115392699D01*
G75*
G02*
X153847708Y-114906920I-606966J1092745D01*
G01*
G37*
G36*
G01*
X146227332Y-113692035D02*
X147037708Y-112233080D01*
G75*
G02*
X148737419Y-111747301I1092745J-606966D01*
G01*
X148737419Y-111747301D01*
G75*
G02*
X149223198Y-113447012I-606966J-1092745D01*
G01*
X148412292Y-114906920D01*
G75*
G02*
X146712581Y-115392699I-1092745J606966D01*
G01*
X146712581Y-115392699D01*
G75*
G02*
X146226802Y-113692988I606966J1092745D01*
G01*
G37*
G36*
G01*
X152383171Y-112254309D02*
X152422619Y-111675653D01*
G75*
G02*
X153754743Y-110513567I1247105J-85019D01*
G01*
X153754743Y-110513567D01*
G75*
G02*
X154916829Y-111845691I-85019J-1247105D01*
G01*
X154877381Y-112424347D01*
G75*
G02*
X153545257Y-113586433I-1247105J85019D01*
G01*
X153545257Y-113586433D01*
G75*
G02*
X152383171Y-112254309I85019J1247105D01*
G01*
G37*
G36*
G01*
X166432619Y-114964347D02*
X166393171Y-114385691D01*
G75*
G02*
X167555257Y-113053567I1247105J85019D01*
G01*
X167555257Y-113053567D01*
G75*
G02*
X168887381Y-114215653I85019J-1247105D01*
G01*
X168926829Y-114794309D01*
G75*
G02*
X167764743Y-116126433I-1247105J-85019D01*
G01*
X167764743Y-116126433D01*
G75*
G02*
X166432619Y-114964347I-85019J1247105D01*
G01*
G37*
G36*
G01*
X172898238Y-117447873D02*
X172086802Y-115987012D01*
G75*
G02*
X172572581Y-114287301I1092745J606966D01*
G01*
X172572581Y-114287301D01*
G75*
G02*
X174272292Y-114773080I606966J-1092745D01*
G01*
X175083198Y-116232988D01*
G75*
G02*
X174597419Y-117932699I-1092745J-606966D01*
G01*
X174597419Y-117932699D01*
G75*
G02*
X172897708Y-117446920I-606966J1092745D01*
G01*
G37*
G36*
G01*
X165277332Y-116232035D02*
X166087708Y-114773080D01*
G75*
G02*
X167787419Y-114287301I1092745J-606966D01*
G01*
X167787419Y-114287301D01*
G75*
G02*
X168273198Y-115987012I-606966J-1092745D01*
G01*
X167462292Y-117446920D01*
G75*
G02*
X165762581Y-117932699I-1092745J606966D01*
G01*
X165762581Y-117932699D01*
G75*
G02*
X165276802Y-116232988I606966J1092745D01*
G01*
G37*
G36*
G01*
X171433171Y-114794309D02*
X171472619Y-114215653D01*
G75*
G02*
X172804743Y-113053567I1247105J-85019D01*
G01*
X172804743Y-113053567D01*
G75*
G02*
X173966829Y-114385691I-85019J-1247105D01*
G01*
X173927381Y-114964347D01*
G75*
G02*
X172595257Y-116126433I-1247105J85019D01*
G01*
X172595257Y-116126433D01*
G75*
G02*
X171433171Y-114794309I85019J1247105D01*
G01*
G37*
G36*
G01*
X185482619Y-116869347D02*
X185443171Y-116290691D01*
G75*
G02*
X186605257Y-114958567I1247105J85019D01*
G01*
X186605257Y-114958567D01*
G75*
G02*
X187937381Y-116120653I85019J-1247105D01*
G01*
X187976829Y-116699309D01*
G75*
G02*
X186814743Y-118031433I-1247105J-85019D01*
G01*
X186814743Y-118031433D01*
G75*
G02*
X185482619Y-116869347I-85019J1247105D01*
G01*
G37*
G36*
G01*
X191948238Y-119352873D02*
X191136802Y-117892012D01*
G75*
G02*
X191622581Y-116192301I1092745J606966D01*
G01*
X191622581Y-116192301D01*
G75*
G02*
X193322292Y-116678080I606966J-1092745D01*
G01*
X194133198Y-118137988D01*
G75*
G02*
X193647419Y-119837699I-1092745J-606966D01*
G01*
X193647419Y-119837699D01*
G75*
G02*
X191947708Y-119351920I-606966J1092745D01*
G01*
G37*
G36*
G01*
X184327332Y-118137035D02*
X185137708Y-116678080D01*
G75*
G02*
X186837419Y-116192301I1092745J-606966D01*
G01*
X186837419Y-116192301D01*
G75*
G02*
X187323198Y-117892012I-606966J-1092745D01*
G01*
X186512292Y-119351920D01*
G75*
G02*
X184812581Y-119837699I-1092745J606966D01*
G01*
X184812581Y-119837699D01*
G75*
G02*
X184326802Y-118137988I606966J1092745D01*
G01*
G37*
G36*
G01*
X190483171Y-116699309D02*
X190522619Y-116120653D01*
G75*
G02*
X191854743Y-114958567I1247105J-85019D01*
G01*
X191854743Y-114958567D01*
G75*
G02*
X193016829Y-116290691I-85019J-1247105D01*
G01*
X192977381Y-116869347D01*
G75*
G02*
X191645257Y-118031433I-1247105J85019D01*
G01*
X191645257Y-118031433D01*
G75*
G02*
X190483171Y-116699309I85019J1247105D01*
G01*
G37*
G36*
G01*
X227562500Y-131462242D02*
X227817664Y-130941386D01*
G75*
G02*
X229490122Y-130368776I1122534J-549924D01*
G01*
X229490122Y-130368776D01*
G75*
G02*
X230062732Y-132041234I-549924J-1122534D01*
G01*
X229807568Y-132562090D01*
G75*
G02*
X228135110Y-133134700I-1122534J549924D01*
G01*
X228135110Y-133134700D01*
G75*
G02*
X227562500Y-131462242I549924J1122534D01*
G01*
G37*
G36*
G01*
X231920162Y-136843666D02*
X231947832Y-135174987D01*
G75*
G02*
X233218385Y-133945884I1249828J-20725D01*
G01*
X233218385Y-133945884D01*
G75*
G02*
X234447488Y-135216437I-20725J-1249828D01*
G01*
X234419800Y-136886207D01*
G75*
G02*
X233149247Y-138115310I-1249828J20725D01*
G01*
X233149247Y-138115310D01*
G75*
G02*
X231920144Y-136844757I20725J1249828D01*
G01*
G37*
G36*
G01*
X225928147Y-131982448D02*
X227359432Y-131124144D01*
G75*
G02*
X229074315Y-131553303I642862J-1072021D01*
G01*
X229074315Y-131553303D01*
G75*
G02*
X228645156Y-133268186I-1072021J-642862D01*
G01*
X227212936Y-134127050D01*
G75*
G02*
X225498053Y-133697891I-642862J1072021D01*
G01*
X225498053Y-133697891D01*
G75*
G02*
X225927212Y-131983008I1072021J642862D01*
G01*
G37*
G36*
G01*
X231978123Y-133815261D02*
X232301615Y-133333853D01*
G75*
G02*
X234036311Y-132993519I1037515J-697181D01*
G01*
X234036311Y-132993519D01*
G75*
G02*
X234376645Y-134728215I-697181J-1037515D01*
G01*
X234053153Y-135209623D01*
G75*
G02*
X232318457Y-135549957I-1037515J697181D01*
G01*
X232318457Y-135549957D01*
G75*
G02*
X231978123Y-133815261I697181J1037515D01*
G01*
G37*
G36*
G01*
X90232619Y-138459347D02*
X90193171Y-137880691D01*
G75*
G02*
X91355257Y-136548567I1247105J85019D01*
G01*
X91355257Y-136548567D01*
G75*
G02*
X92687381Y-137710653I85019J-1247105D01*
G01*
X92726829Y-138289309D01*
G75*
G02*
X91564743Y-139621433I-1247105J-85019D01*
G01*
X91564743Y-139621433D01*
G75*
G02*
X90232619Y-138459347I-85019J1247105D01*
G01*
G37*
G36*
G01*
X96698238Y-140942873D02*
X95886802Y-139482012D01*
G75*
G02*
X96372581Y-137782301I1092745J606966D01*
G01*
X96372581Y-137782301D01*
G75*
G02*
X98072292Y-138268080I606966J-1092745D01*
G01*
X98883198Y-139727988D01*
G75*
G02*
X98397419Y-141427699I-1092745J-606966D01*
G01*
X98397419Y-141427699D01*
G75*
G02*
X96697708Y-140941920I-606966J1092745D01*
G01*
G37*
G36*
G01*
X89077332Y-139727035D02*
X89887708Y-138268080D01*
G75*
G02*
X91587419Y-137782301I1092745J-606966D01*
G01*
X91587419Y-137782301D01*
G75*
G02*
X92073198Y-139482012I-606966J-1092745D01*
G01*
X91262292Y-140941920D01*
G75*
G02*
X89562581Y-141427699I-1092745J606966D01*
G01*
X89562581Y-141427699D01*
G75*
G02*
X89076802Y-139727988I606966J1092745D01*
G01*
G37*
G36*
G01*
X95233171Y-138289309D02*
X95272619Y-137710653D01*
G75*
G02*
X96604743Y-136548567I1247105J-85019D01*
G01*
X96604743Y-136548567D01*
G75*
G02*
X97766829Y-137880691I-85019J-1247105D01*
G01*
X97727381Y-138459347D01*
G75*
G02*
X96395257Y-139621433I-1247105J85019D01*
G01*
X96395257Y-139621433D01*
G75*
G02*
X95233171Y-138289309I85019J1247105D01*
G01*
G37*
G36*
G01*
X109282619Y-138459347D02*
X109243171Y-137880691D01*
G75*
G02*
X110405257Y-136548567I1247105J85019D01*
G01*
X110405257Y-136548567D01*
G75*
G02*
X111737381Y-137710653I85019J-1247105D01*
G01*
X111776829Y-138289309D01*
G75*
G02*
X110614743Y-139621433I-1247105J-85019D01*
G01*
X110614743Y-139621433D01*
G75*
G02*
X109282619Y-138459347I-85019J1247105D01*
G01*
G37*
G36*
G01*
X115748238Y-140942873D02*
X114936802Y-139482012D01*
G75*
G02*
X115422581Y-137782301I1092745J606966D01*
G01*
X115422581Y-137782301D01*
G75*
G02*
X117122292Y-138268080I606966J-1092745D01*
G01*
X117933198Y-139727988D01*
G75*
G02*
X117447419Y-141427699I-1092745J-606966D01*
G01*
X117447419Y-141427699D01*
G75*
G02*
X115747708Y-140941920I-606966J1092745D01*
G01*
G37*
G36*
G01*
X108127332Y-139727035D02*
X108937708Y-138268080D01*
G75*
G02*
X110637419Y-137782301I1092745J-606966D01*
G01*
X110637419Y-137782301D01*
G75*
G02*
X111123198Y-139482012I-606966J-1092745D01*
G01*
X110312292Y-140941920D01*
G75*
G02*
X108612581Y-141427699I-1092745J606966D01*
G01*
X108612581Y-141427699D01*
G75*
G02*
X108126802Y-139727988I606966J1092745D01*
G01*
G37*
G36*
G01*
X114283171Y-138289309D02*
X114322619Y-137710653D01*
G75*
G02*
X115654743Y-136548567I1247105J-85019D01*
G01*
X115654743Y-136548567D01*
G75*
G02*
X116816829Y-137880691I-85019J-1247105D01*
G01*
X116777381Y-138459347D01*
G75*
G02*
X115445257Y-139621433I-1247105J85019D01*
G01*
X115445257Y-139621433D01*
G75*
G02*
X114283171Y-138289309I85019J1247105D01*
G01*
G37*
G36*
G01*
X128332619Y-134014347D02*
X128293171Y-133435691D01*
G75*
G02*
X129455257Y-132103567I1247105J85019D01*
G01*
X129455257Y-132103567D01*
G75*
G02*
X130787381Y-133265653I85019J-1247105D01*
G01*
X130826829Y-133844309D01*
G75*
G02*
X129664743Y-135176433I-1247105J-85019D01*
G01*
X129664743Y-135176433D01*
G75*
G02*
X128332619Y-134014347I-85019J1247105D01*
G01*
G37*
G36*
G01*
X134798238Y-136497873D02*
X133986802Y-135037012D01*
G75*
G02*
X134472581Y-133337301I1092745J606966D01*
G01*
X134472581Y-133337301D01*
G75*
G02*
X136172292Y-133823080I606966J-1092745D01*
G01*
X136983198Y-135282988D01*
G75*
G02*
X136497419Y-136982699I-1092745J-606966D01*
G01*
X136497419Y-136982699D01*
G75*
G02*
X134797708Y-136496920I-606966J1092745D01*
G01*
G37*
G36*
G01*
X127177332Y-135282035D02*
X127987708Y-133823080D01*
G75*
G02*
X129687419Y-133337301I1092745J-606966D01*
G01*
X129687419Y-133337301D01*
G75*
G02*
X130173198Y-135037012I-606966J-1092745D01*
G01*
X129362292Y-136496920D01*
G75*
G02*
X127662581Y-136982699I-1092745J606966D01*
G01*
X127662581Y-136982699D01*
G75*
G02*
X127176802Y-135282988I606966J1092745D01*
G01*
G37*
G36*
G01*
X133333171Y-133844309D02*
X133372619Y-133265653D01*
G75*
G02*
X134704743Y-132103567I1247105J-85019D01*
G01*
X134704743Y-132103567D01*
G75*
G02*
X135866829Y-133435691I-85019J-1247105D01*
G01*
X135827381Y-134014347D01*
G75*
G02*
X134495257Y-135176433I-1247105J85019D01*
G01*
X134495257Y-135176433D01*
G75*
G02*
X133333171Y-133844309I85019J1247105D01*
G01*
G37*
G36*
G01*
X147382619Y-131474347D02*
X147343171Y-130895691D01*
G75*
G02*
X148505257Y-129563567I1247105J85019D01*
G01*
X148505257Y-129563567D01*
G75*
G02*
X149837381Y-130725653I85019J-1247105D01*
G01*
X149876829Y-131304309D01*
G75*
G02*
X148714743Y-132636433I-1247105J-85019D01*
G01*
X148714743Y-132636433D01*
G75*
G02*
X147382619Y-131474347I-85019J1247105D01*
G01*
G37*
G36*
G01*
X153848238Y-133957873D02*
X153036802Y-132497012D01*
G75*
G02*
X153522581Y-130797301I1092745J606966D01*
G01*
X153522581Y-130797301D01*
G75*
G02*
X155222292Y-131283080I606966J-1092745D01*
G01*
X156033198Y-132742988D01*
G75*
G02*
X155547419Y-134442699I-1092745J-606966D01*
G01*
X155547419Y-134442699D01*
G75*
G02*
X153847708Y-133956920I-606966J1092745D01*
G01*
G37*
G36*
G01*
X146227332Y-132742035D02*
X147037708Y-131283080D01*
G75*
G02*
X148737419Y-130797301I1092745J-606966D01*
G01*
X148737419Y-130797301D01*
G75*
G02*
X149223198Y-132497012I-606966J-1092745D01*
G01*
X148412292Y-133956920D01*
G75*
G02*
X146712581Y-134442699I-1092745J606966D01*
G01*
X146712581Y-134442699D01*
G75*
G02*
X146226802Y-132742988I606966J1092745D01*
G01*
G37*
G36*
G01*
X152383171Y-131304309D02*
X152422619Y-130725653D01*
G75*
G02*
X153754743Y-129563567I1247105J-85019D01*
G01*
X153754743Y-129563567D01*
G75*
G02*
X154916829Y-130895691I-85019J-1247105D01*
G01*
X154877381Y-131474347D01*
G75*
G02*
X153545257Y-132636433I-1247105J85019D01*
G01*
X153545257Y-132636433D01*
G75*
G02*
X152383171Y-131304309I85019J1247105D01*
G01*
G37*
D10*
X213360000Y-144272000D03*
X85725000Y-53975000D03*
X102870000Y-128905000D03*
X196215000Y-52070000D03*
D11*
X87540000Y-74930000D03*
D12*
X95340000Y-74930000D03*
D13*
X89865000Y-74930000D03*
X93015000Y-74930000D03*
X114605000Y-74930000D03*
X111455000Y-74930000D03*
D12*
X116930000Y-74930000D03*
D11*
X109130000Y-74930000D03*
D13*
X133655000Y-70485000D03*
X130505000Y-70485000D03*
D12*
X135980000Y-70485000D03*
D11*
X128180000Y-70485000D03*
D13*
X152705000Y-67945000D03*
X149555000Y-67945000D03*
D12*
X155030000Y-67945000D03*
D11*
X147230000Y-67945000D03*
D13*
X171755000Y-70485000D03*
X168605000Y-70485000D03*
D12*
X174080000Y-70485000D03*
D11*
X166280000Y-70485000D03*
D13*
X190805000Y-72390000D03*
X187655000Y-72390000D03*
D12*
X193130000Y-72390000D03*
D11*
X185330000Y-72390000D03*
D13*
X209855000Y-81915000D03*
X206705000Y-81915000D03*
D12*
X212180000Y-81915000D03*
D11*
X204380000Y-81915000D03*
D13*
X93015000Y-93980000D03*
X89865000Y-93980000D03*
D12*
X95340000Y-93980000D03*
D11*
X87540000Y-93980000D03*
D13*
X114605000Y-93980000D03*
X111455000Y-93980000D03*
D12*
X116930000Y-93980000D03*
D11*
X109130000Y-93980000D03*
D13*
X133655000Y-89535000D03*
X130505000Y-89535000D03*
D12*
X135980000Y-89535000D03*
D11*
X128180000Y-89535000D03*
X147230000Y-86995000D03*
D12*
X155030000Y-86995000D03*
D13*
X149555000Y-86995000D03*
X152705000Y-86995000D03*
X171755000Y-89535000D03*
X168605000Y-89535000D03*
D12*
X174080000Y-89535000D03*
D11*
X166280000Y-89535000D03*
X185330000Y-91440000D03*
D12*
X193130000Y-91440000D03*
D13*
X187655000Y-91440000D03*
X190805000Y-91440000D03*
X209855000Y-106680000D03*
X206705000Y-106680000D03*
D12*
X212180000Y-106680000D03*
D11*
X204380000Y-106680000D03*
X87540000Y-113030000D03*
D12*
X95340000Y-113030000D03*
D13*
X89865000Y-113030000D03*
X93015000Y-113030000D03*
D11*
X109130000Y-113030000D03*
D12*
X116930000Y-113030000D03*
D13*
X111455000Y-113030000D03*
X114605000Y-113030000D03*
X133655000Y-108585000D03*
X130505000Y-108585000D03*
D12*
X135980000Y-108585000D03*
D11*
X128180000Y-108585000D03*
D13*
X152705000Y-106045000D03*
X149555000Y-106045000D03*
D12*
X155030000Y-106045000D03*
D11*
X147230000Y-106045000D03*
D13*
X171755000Y-108585000D03*
X168605000Y-108585000D03*
D12*
X174080000Y-108585000D03*
D11*
X166280000Y-108585000D03*
X185330000Y-110490000D03*
D12*
X193130000Y-110490000D03*
D13*
X187655000Y-110490000D03*
X190805000Y-110490000D03*
D14*
G36*
X205360321Y-132377180D02*
G01*
X204560321Y-133762820D01*
X203174681Y-132962820D01*
X203974681Y-131577180D01*
X205360321Y-132377180D01*
G37*
D12*
X211022499Y-136570000D03*
D14*
G36*
X207100625Y-133612885D02*
G01*
X206500625Y-134652115D01*
X205461395Y-134052115D01*
X206061395Y-133012885D01*
X207100625Y-133612885D01*
G37*
G36*
X209828605Y-135187885D02*
G01*
X209228605Y-136227115D01*
X208189375Y-135627115D01*
X208789375Y-134587885D01*
X209828605Y-135187885D01*
G37*
D11*
X87540000Y-132080000D03*
D12*
X95340000Y-132080000D03*
D13*
X89865000Y-132080000D03*
X93015000Y-132080000D03*
D11*
X109130000Y-132080000D03*
D12*
X116930000Y-132080000D03*
D13*
X111455000Y-132080000D03*
X114605000Y-132080000D03*
D11*
X128180000Y-127635000D03*
D12*
X135980000Y-127635000D03*
D13*
X130505000Y-127635000D03*
X133655000Y-127635000D03*
D11*
X147230000Y-125095000D03*
D12*
X155030000Y-125095000D03*
D13*
X149555000Y-125095000D03*
X152705000Y-125095000D03*
D11*
X166280000Y-127635000D03*
D12*
X174080000Y-127635000D03*
D13*
X168605000Y-127635000D03*
X171755000Y-127635000D03*
D11*
X185330000Y-129540000D03*
D12*
X193130000Y-129540000D03*
D13*
X187655000Y-129540000D03*
X190805000Y-129540000D03*
D14*
G36*
X226338605Y-144712885D02*
G01*
X225738605Y-145752115D01*
X224699375Y-145152115D01*
X225299375Y-144112885D01*
X226338605Y-144712885D01*
G37*
G36*
X223610625Y-143137885D02*
G01*
X223010625Y-144177115D01*
X221971395Y-143577115D01*
X222571395Y-142537885D01*
X223610625Y-143137885D01*
G37*
D12*
X227532499Y-146095000D03*
D14*
G36*
X221870321Y-141902180D02*
G01*
X221070321Y-143287820D01*
X219684681Y-142487820D01*
X220484681Y-141102180D01*
X221870321Y-141902180D01*
G37*
D11*
X103505000Y-146775000D03*
D12*
X103505000Y-138975000D03*
D13*
X103505000Y-144450000D03*
X103505000Y-141300000D03*
D11*
X122555000Y-144870000D03*
D12*
X122555000Y-137070000D03*
D13*
X122555000Y-142545000D03*
X122555000Y-139395000D03*
D11*
X141605000Y-142330000D03*
D12*
X141605000Y-134530000D03*
D13*
X141605000Y-140005000D03*
X141605000Y-136855000D03*
D11*
X160655000Y-139790000D03*
D12*
X160655000Y-131990000D03*
D13*
X160655000Y-137465000D03*
X160655000Y-134315000D03*
D14*
G36*
X187943376Y-142269820D02*
G01*
X189102487Y-142580403D01*
X188791904Y-143739514D01*
X187632793Y-143428931D01*
X187943376Y-142269820D01*
G37*
G36*
X187128096Y-145312486D02*
G01*
X188287207Y-145623069D01*
X187976624Y-146782180D01*
X186817513Y-146471597D01*
X187128096Y-145312486D01*
G37*
D12*
X188969394Y-140758889D03*
D14*
G36*
X186384921Y-147313315D02*
G01*
X187930402Y-147727426D01*
X187516291Y-149272907D01*
X185970810Y-148858796D01*
X186384921Y-147313315D01*
G37*
G36*
X193041321Y-153713180D02*
G01*
X192241321Y-155098820D01*
X190855681Y-154298820D01*
X191655681Y-152913180D01*
X193041321Y-153713180D01*
G37*
D12*
X198703499Y-157906000D03*
D14*
G36*
X194781625Y-154948885D02*
G01*
X194181625Y-155988115D01*
X193142395Y-155388115D01*
X193742395Y-154348885D01*
X194781625Y-154948885D01*
G37*
G36*
X197509605Y-156523885D02*
G01*
X196909605Y-157563115D01*
X195870375Y-156963115D01*
X196470375Y-155923885D01*
X197509605Y-156523885D01*
G37*
G36*
X214273605Y-166175885D02*
G01*
X213673605Y-167215115D01*
X212634375Y-166615115D01*
X213234375Y-165575885D01*
X214273605Y-166175885D01*
G37*
G36*
X211545625Y-164600885D02*
G01*
X210945625Y-165640115D01*
X209906395Y-165040115D01*
X210506395Y-164000885D01*
X211545625Y-164600885D01*
G37*
D12*
X215467499Y-167558000D03*
D14*
G36*
X209805321Y-163365180D02*
G01*
X209005321Y-164750820D01*
X207619681Y-163950820D01*
X208419681Y-162565180D01*
X209805321Y-163365180D01*
G37*
D12*
X200660000Y-55536000D03*
X200660000Y-63336000D03*
X214884000Y-63336000D03*
X214884000Y-55536000D03*
D15*
X198882000Y-106680000D03*
X198882000Y-104140000D03*
D16*
X198882000Y-101600000D03*
D17*
X121308000Y-51308000D03*
X121308000Y-55808000D03*
X114808000Y-51308000D03*
X114808000Y-55808000D03*
D18*
X233420000Y-95010000D03*
D19*
X238020000Y-92710000D03*
X231020000Y-92710000D03*
D18*
X236420000Y-95010000D03*
X229420000Y-95010000D03*
X228320000Y-90410000D03*
X228320000Y-99610000D03*
D19*
X238020000Y-97310000D03*
X231020000Y-97310000D03*
D20*
X237490000Y-52070000D03*
X222250000Y-80010000D03*
X237490000Y-54610000D03*
X237490000Y-57150000D03*
X237490000Y-59690000D03*
X237490000Y-62230000D03*
X237490000Y-64770000D03*
X237490000Y-67310000D03*
X237490000Y-69850000D03*
X237490000Y-72390000D03*
X237490000Y-74930000D03*
X237490000Y-77470000D03*
X237490000Y-80010000D03*
X222250000Y-77470000D03*
X222250000Y-74930000D03*
X222250000Y-72390000D03*
X222250000Y-69850000D03*
X222250000Y-67310000D03*
X222250000Y-64770000D03*
X222250000Y-62230000D03*
X222250000Y-59690000D03*
X222250000Y-57150000D03*
X222250000Y-54610000D03*
D21*
X222250000Y-52070000D03*
M02*
