G04 #@! TF.GenerationSoftware,KiCad,Pcbnew,(5.1.10-1-10_14)*
G04 #@! TF.CreationDate,2021-08-01T21:47:45+01:00*
G04 #@! TF.ProjectId,AsymLeft,4173796d-4c65-4667-942e-6b696361645f,1.0*
G04 #@! TF.SameCoordinates,Original*
G04 #@! TF.FileFunction,Legend,Bot*
G04 #@! TF.FilePolarity,Positive*
%FSLAX46Y46*%
G04 Gerber Fmt 4.6, Leading zero omitted, Abs format (unit mm)*
G04 Created by KiCad (PCBNEW (5.1.10-1-10_14)) date 2021-08-01 21:47:45*
%MOMM*%
%LPD*%
G01*
G04 APERTURE LIST*
%ADD10C,0.150000*%
%ADD11C,0.381000*%
G04 APERTURE END LIST*
D10*
X220933333Y-91733333D02*
X220933333Y-92685714D01*
X221504761Y-91542857D02*
X219504761Y-92209523D01*
X221504761Y-92876190D01*
X221409523Y-93447619D02*
X221504761Y-93638095D01*
X221504761Y-94019047D01*
X221409523Y-94209523D01*
X221219047Y-94304761D01*
X221123809Y-94304761D01*
X220933333Y-94209523D01*
X220838095Y-94019047D01*
X220838095Y-93733333D01*
X220742857Y-93542857D01*
X220552380Y-93447619D01*
X220457142Y-93447619D01*
X220266666Y-93542857D01*
X220171428Y-93733333D01*
X220171428Y-94019047D01*
X220266666Y-94209523D01*
X220171428Y-94971428D02*
X221504761Y-95447619D01*
X220171428Y-95923809D02*
X221504761Y-95447619D01*
X221980952Y-95257142D01*
X222076190Y-95161904D01*
X222171428Y-94971428D01*
X221504761Y-96685714D02*
X220171428Y-96685714D01*
X220361904Y-96685714D02*
X220266666Y-96780952D01*
X220171428Y-96971428D01*
X220171428Y-97257142D01*
X220266666Y-97447619D01*
X220457142Y-97542857D01*
X221504761Y-97542857D01*
X220457142Y-97542857D02*
X220266666Y-97638095D01*
X220171428Y-97828571D01*
X220171428Y-98114285D01*
X220266666Y-98304761D01*
X220457142Y-98400000D01*
X221504761Y-98400000D01*
X220171428Y-100685714D02*
X221504761Y-101161904D01*
X220171428Y-101638095D01*
X221504761Y-103447619D02*
X221504761Y-102304761D01*
X221504761Y-102876190D02*
X219504761Y-102876190D01*
X219790476Y-102685714D01*
X219980952Y-102495238D01*
X220076190Y-102304761D01*
X221314285Y-104304761D02*
X221409523Y-104400000D01*
X221504761Y-104304761D01*
X221409523Y-104209523D01*
X221314285Y-104304761D01*
X221504761Y-104304761D01*
X219504761Y-105638095D02*
X219504761Y-105828571D01*
X219600000Y-106019047D01*
X219695238Y-106114285D01*
X219885714Y-106209523D01*
X220266666Y-106304761D01*
X220742857Y-106304761D01*
X221123809Y-106209523D01*
X221314285Y-106114285D01*
X221409523Y-106019047D01*
X221504761Y-105828571D01*
X221504761Y-105638095D01*
X221409523Y-105447619D01*
X221314285Y-105352380D01*
X221123809Y-105257142D01*
X220742857Y-105161904D01*
X220266666Y-105161904D01*
X219885714Y-105257142D01*
X219695238Y-105352380D01*
X219600000Y-105447619D01*
X219504761Y-105638095D01*
X221504761Y-109638095D02*
X221504761Y-108685714D01*
X219504761Y-108685714D01*
X221409523Y-111066666D02*
X221504761Y-110876190D01*
X221504761Y-110495238D01*
X221409523Y-110304761D01*
X221219047Y-110209523D01*
X220457142Y-110209523D01*
X220266666Y-110304761D01*
X220171428Y-110495238D01*
X220171428Y-110876190D01*
X220266666Y-111066666D01*
X220457142Y-111161904D01*
X220647619Y-111161904D01*
X220838095Y-110209523D01*
X220171428Y-111733333D02*
X220171428Y-112495238D01*
X221504761Y-112019047D02*
X219790476Y-112019047D01*
X219600000Y-112114285D01*
X219504761Y-112304761D01*
X219504761Y-112495238D01*
X220171428Y-112876190D02*
X220171428Y-113638095D01*
X219504761Y-113161904D02*
X221219047Y-113161904D01*
X221409523Y-113257142D01*
X221504761Y-113447619D01*
X221504761Y-113638095D01*
X221504761Y-115828571D02*
X219504761Y-115828571D01*
X220457142Y-115828571D02*
X220457142Y-116971428D01*
X221504761Y-116971428D02*
X219504761Y-116971428D01*
X221504761Y-118780952D02*
X220457142Y-118780952D01*
X220266666Y-118685714D01*
X220171428Y-118495238D01*
X220171428Y-118114285D01*
X220266666Y-117923809D01*
X221409523Y-118780952D02*
X221504761Y-118590476D01*
X221504761Y-118114285D01*
X221409523Y-117923809D01*
X221219047Y-117828571D01*
X221028571Y-117828571D01*
X220838095Y-117923809D01*
X220742857Y-118114285D01*
X220742857Y-118590476D01*
X220647619Y-118780952D01*
X221504761Y-120019047D02*
X221409523Y-119828571D01*
X221219047Y-119733333D01*
X219504761Y-119733333D01*
X220171428Y-120495238D02*
X220171428Y-121257142D01*
X221504761Y-120780952D02*
X219790476Y-120780952D01*
X219600000Y-120876190D01*
X219504761Y-121066666D01*
X219504761Y-121257142D01*
D11*
X214630000Y-104140000D02*
X214630000Y-102362000D01*
X214630000Y-93218000D02*
X214630000Y-91440000D01*
X214630000Y-91440000D02*
X212852000Y-91440000D01*
X203708000Y-91440000D02*
X201930000Y-91440000D01*
X201930000Y-91440000D02*
X201930000Y-93218000D01*
X201930000Y-102362000D02*
X201930000Y-104140000D01*
X201930000Y-104140000D02*
X203708000Y-104140000D01*
X212852000Y-104140000D02*
X214630000Y-104140000D01*
X181020128Y-149382130D02*
X179302712Y-148921950D01*
X181480308Y-147664714D02*
X181020128Y-149382130D01*
X184307130Y-137114872D02*
X182589714Y-136654692D01*
X183846950Y-138832288D02*
X184307130Y-137114872D01*
X172039872Y-133827870D02*
X173757288Y-134288050D01*
X171579692Y-135545286D02*
X172039872Y-133827870D01*
X168752870Y-146095128D02*
X169213050Y-144377712D01*
X170470286Y-146555308D02*
X168752870Y-146095128D01*
X202349261Y-157264261D02*
X203238261Y-155724468D01*
X207810261Y-147805532D02*
X208699261Y-146265739D01*
X208699261Y-146265739D02*
X207159468Y-145376739D01*
X199240532Y-140804739D02*
X197700739Y-139915739D01*
X197700739Y-139915739D02*
X196811739Y-141455532D01*
X192239739Y-149374468D02*
X191350739Y-150914261D01*
X191350739Y-150914261D02*
X192890532Y-151803261D01*
X200809468Y-156375261D02*
X202349261Y-157264261D01*
X218859261Y-166789261D02*
X219748261Y-165249468D01*
X224320261Y-157330532D02*
X225209261Y-155790739D01*
X225209261Y-155790739D02*
X223669468Y-154901739D01*
X215750532Y-150329739D02*
X214210739Y-149440739D01*
X214210739Y-149440739D02*
X213321739Y-150980532D01*
X208749739Y-158899468D02*
X207860739Y-160439261D01*
X207860739Y-160439261D02*
X209400532Y-161328261D01*
X217319468Y-165900261D02*
X218859261Y-166789261D01*
X108458000Y-73025000D02*
X106680000Y-73025000D01*
X106680000Y-73025000D02*
X106680000Y-71247000D01*
X106680000Y-62103000D02*
X106680000Y-60325000D01*
X106680000Y-60325000D02*
X108458000Y-60325000D01*
X119380000Y-62103000D02*
X119380000Y-60325000D01*
X119380000Y-60325000D02*
X117602000Y-60325000D01*
X119380000Y-71247000D02*
X119380000Y-73025000D01*
X119380000Y-73025000D02*
X117602000Y-73025000D01*
X86868000Y-73025000D02*
X85090000Y-73025000D01*
X85090000Y-73025000D02*
X85090000Y-71247000D01*
X85090000Y-62103000D02*
X85090000Y-60325000D01*
X85090000Y-60325000D02*
X86868000Y-60325000D01*
X97790000Y-62103000D02*
X97790000Y-60325000D01*
X97790000Y-60325000D02*
X96012000Y-60325000D01*
X97790000Y-71247000D02*
X97790000Y-73025000D01*
X97790000Y-73025000D02*
X96012000Y-73025000D01*
X127508000Y-68580000D02*
X125730000Y-68580000D01*
X125730000Y-68580000D02*
X125730000Y-66802000D01*
X125730000Y-57658000D02*
X125730000Y-55880000D01*
X125730000Y-55880000D02*
X127508000Y-55880000D01*
X138430000Y-57658000D02*
X138430000Y-55880000D01*
X138430000Y-55880000D02*
X136652000Y-55880000D01*
X138430000Y-66802000D02*
X138430000Y-68580000D01*
X138430000Y-68580000D02*
X136652000Y-68580000D01*
X146558000Y-66040000D02*
X144780000Y-66040000D01*
X144780000Y-66040000D02*
X144780000Y-64262000D01*
X144780000Y-55118000D02*
X144780000Y-53340000D01*
X144780000Y-53340000D02*
X146558000Y-53340000D01*
X157480000Y-55118000D02*
X157480000Y-53340000D01*
X157480000Y-53340000D02*
X155702000Y-53340000D01*
X157480000Y-64262000D02*
X157480000Y-66040000D01*
X157480000Y-66040000D02*
X155702000Y-66040000D01*
X165608000Y-68580000D02*
X163830000Y-68580000D01*
X163830000Y-68580000D02*
X163830000Y-66802000D01*
X163830000Y-57658000D02*
X163830000Y-55880000D01*
X163830000Y-55880000D02*
X165608000Y-55880000D01*
X176530000Y-57658000D02*
X176530000Y-55880000D01*
X176530000Y-55880000D02*
X174752000Y-55880000D01*
X176530000Y-66802000D02*
X176530000Y-68580000D01*
X176530000Y-68580000D02*
X174752000Y-68580000D01*
X184658000Y-70485000D02*
X182880000Y-70485000D01*
X182880000Y-70485000D02*
X182880000Y-68707000D01*
X182880000Y-59563000D02*
X182880000Y-57785000D01*
X182880000Y-57785000D02*
X184658000Y-57785000D01*
X195580000Y-59563000D02*
X195580000Y-57785000D01*
X195580000Y-57785000D02*
X193802000Y-57785000D01*
X195580000Y-68707000D02*
X195580000Y-70485000D01*
X195580000Y-70485000D02*
X193802000Y-70485000D01*
X203708000Y-80010000D02*
X201930000Y-80010000D01*
X201930000Y-80010000D02*
X201930000Y-78232000D01*
X201930000Y-69088000D02*
X201930000Y-67310000D01*
X201930000Y-67310000D02*
X203708000Y-67310000D01*
X214630000Y-69088000D02*
X214630000Y-67310000D01*
X214630000Y-67310000D02*
X212852000Y-67310000D01*
X214630000Y-78232000D02*
X214630000Y-80010000D01*
X214630000Y-80010000D02*
X212852000Y-80010000D01*
X86868000Y-92075000D02*
X85090000Y-92075000D01*
X85090000Y-92075000D02*
X85090000Y-90297000D01*
X85090000Y-81153000D02*
X85090000Y-79375000D01*
X85090000Y-79375000D02*
X86868000Y-79375000D01*
X97790000Y-81153000D02*
X97790000Y-79375000D01*
X97790000Y-79375000D02*
X96012000Y-79375000D01*
X97790000Y-90297000D02*
X97790000Y-92075000D01*
X97790000Y-92075000D02*
X96012000Y-92075000D01*
X108458000Y-92075000D02*
X106680000Y-92075000D01*
X106680000Y-92075000D02*
X106680000Y-90297000D01*
X106680000Y-81153000D02*
X106680000Y-79375000D01*
X106680000Y-79375000D02*
X108458000Y-79375000D01*
X119380000Y-81153000D02*
X119380000Y-79375000D01*
X119380000Y-79375000D02*
X117602000Y-79375000D01*
X119380000Y-90297000D02*
X119380000Y-92075000D01*
X119380000Y-92075000D02*
X117602000Y-92075000D01*
X127508000Y-87630000D02*
X125730000Y-87630000D01*
X125730000Y-87630000D02*
X125730000Y-85852000D01*
X125730000Y-76708000D02*
X125730000Y-74930000D01*
X125730000Y-74930000D02*
X127508000Y-74930000D01*
X138430000Y-76708000D02*
X138430000Y-74930000D01*
X138430000Y-74930000D02*
X136652000Y-74930000D01*
X138430000Y-85852000D02*
X138430000Y-87630000D01*
X138430000Y-87630000D02*
X136652000Y-87630000D01*
X146558000Y-85090000D02*
X144780000Y-85090000D01*
X144780000Y-85090000D02*
X144780000Y-83312000D01*
X144780000Y-74168000D02*
X144780000Y-72390000D01*
X144780000Y-72390000D02*
X146558000Y-72390000D01*
X157480000Y-74168000D02*
X157480000Y-72390000D01*
X157480000Y-72390000D02*
X155702000Y-72390000D01*
X157480000Y-83312000D02*
X157480000Y-85090000D01*
X157480000Y-85090000D02*
X155702000Y-85090000D01*
X165608000Y-87630000D02*
X163830000Y-87630000D01*
X163830000Y-87630000D02*
X163830000Y-85852000D01*
X163830000Y-76708000D02*
X163830000Y-74930000D01*
X163830000Y-74930000D02*
X165608000Y-74930000D01*
X176530000Y-76708000D02*
X176530000Y-74930000D01*
X176530000Y-74930000D02*
X174752000Y-74930000D01*
X176530000Y-85852000D02*
X176530000Y-87630000D01*
X176530000Y-87630000D02*
X174752000Y-87630000D01*
X184658000Y-89535000D02*
X182880000Y-89535000D01*
X182880000Y-89535000D02*
X182880000Y-87757000D01*
X182880000Y-78613000D02*
X182880000Y-76835000D01*
X182880000Y-76835000D02*
X184658000Y-76835000D01*
X195580000Y-78613000D02*
X195580000Y-76835000D01*
X195580000Y-76835000D02*
X193802000Y-76835000D01*
X195580000Y-87757000D02*
X195580000Y-89535000D01*
X195580000Y-89535000D02*
X193802000Y-89535000D01*
X86868000Y-111125000D02*
X85090000Y-111125000D01*
X85090000Y-111125000D02*
X85090000Y-109347000D01*
X85090000Y-100203000D02*
X85090000Y-98425000D01*
X85090000Y-98425000D02*
X86868000Y-98425000D01*
X97790000Y-100203000D02*
X97790000Y-98425000D01*
X97790000Y-98425000D02*
X96012000Y-98425000D01*
X97790000Y-109347000D02*
X97790000Y-111125000D01*
X97790000Y-111125000D02*
X96012000Y-111125000D01*
X108458000Y-111125000D02*
X106680000Y-111125000D01*
X106680000Y-111125000D02*
X106680000Y-109347000D01*
X106680000Y-100203000D02*
X106680000Y-98425000D01*
X106680000Y-98425000D02*
X108458000Y-98425000D01*
X119380000Y-100203000D02*
X119380000Y-98425000D01*
X119380000Y-98425000D02*
X117602000Y-98425000D01*
X119380000Y-109347000D02*
X119380000Y-111125000D01*
X119380000Y-111125000D02*
X117602000Y-111125000D01*
X127508000Y-106680000D02*
X125730000Y-106680000D01*
X125730000Y-106680000D02*
X125730000Y-104902000D01*
X125730000Y-95758000D02*
X125730000Y-93980000D01*
X125730000Y-93980000D02*
X127508000Y-93980000D01*
X138430000Y-95758000D02*
X138430000Y-93980000D01*
X138430000Y-93980000D02*
X136652000Y-93980000D01*
X138430000Y-104902000D02*
X138430000Y-106680000D01*
X138430000Y-106680000D02*
X136652000Y-106680000D01*
X146558000Y-104140000D02*
X144780000Y-104140000D01*
X144780000Y-104140000D02*
X144780000Y-102362000D01*
X144780000Y-93218000D02*
X144780000Y-91440000D01*
X144780000Y-91440000D02*
X146558000Y-91440000D01*
X157480000Y-93218000D02*
X157480000Y-91440000D01*
X157480000Y-91440000D02*
X155702000Y-91440000D01*
X157480000Y-102362000D02*
X157480000Y-104140000D01*
X157480000Y-104140000D02*
X155702000Y-104140000D01*
X165608000Y-106680000D02*
X163830000Y-106680000D01*
X163830000Y-106680000D02*
X163830000Y-104902000D01*
X163830000Y-95758000D02*
X163830000Y-93980000D01*
X163830000Y-93980000D02*
X165608000Y-93980000D01*
X176530000Y-95758000D02*
X176530000Y-93980000D01*
X176530000Y-93980000D02*
X174752000Y-93980000D01*
X176530000Y-104902000D02*
X176530000Y-106680000D01*
X176530000Y-106680000D02*
X174752000Y-106680000D01*
X184658000Y-108585000D02*
X182880000Y-108585000D01*
X182880000Y-108585000D02*
X182880000Y-106807000D01*
X182880000Y-97663000D02*
X182880000Y-95885000D01*
X182880000Y-95885000D02*
X184658000Y-95885000D01*
X195580000Y-97663000D02*
X195580000Y-95885000D01*
X195580000Y-95885000D02*
X193802000Y-95885000D01*
X195580000Y-106807000D02*
X195580000Y-108585000D01*
X195580000Y-108585000D02*
X193802000Y-108585000D01*
X204955532Y-130848261D02*
X203415739Y-129959261D01*
X203415739Y-129959261D02*
X204304739Y-128419468D01*
X208876739Y-120500532D02*
X209765739Y-118960739D01*
X209765739Y-118960739D02*
X211305532Y-119849739D01*
X219875261Y-126850532D02*
X220764261Y-125310739D01*
X220764261Y-125310739D02*
X219224468Y-124421739D01*
X215303261Y-134769468D02*
X214414261Y-136309261D01*
X214414261Y-136309261D02*
X212874468Y-135420261D01*
X86868000Y-130175000D02*
X85090000Y-130175000D01*
X85090000Y-130175000D02*
X85090000Y-128397000D01*
X85090000Y-119253000D02*
X85090000Y-117475000D01*
X85090000Y-117475000D02*
X86868000Y-117475000D01*
X97790000Y-119253000D02*
X97790000Y-117475000D01*
X97790000Y-117475000D02*
X96012000Y-117475000D01*
X97790000Y-128397000D02*
X97790000Y-130175000D01*
X97790000Y-130175000D02*
X96012000Y-130175000D01*
X108458000Y-130175000D02*
X106680000Y-130175000D01*
X106680000Y-130175000D02*
X106680000Y-128397000D01*
X106680000Y-119253000D02*
X106680000Y-117475000D01*
X106680000Y-117475000D02*
X108458000Y-117475000D01*
X119380000Y-119253000D02*
X119380000Y-117475000D01*
X119380000Y-117475000D02*
X117602000Y-117475000D01*
X119380000Y-128397000D02*
X119380000Y-130175000D01*
X119380000Y-130175000D02*
X117602000Y-130175000D01*
X127508000Y-125730000D02*
X125730000Y-125730000D01*
X125730000Y-125730000D02*
X125730000Y-123952000D01*
X125730000Y-114808000D02*
X125730000Y-113030000D01*
X125730000Y-113030000D02*
X127508000Y-113030000D01*
X138430000Y-114808000D02*
X138430000Y-113030000D01*
X138430000Y-113030000D02*
X136652000Y-113030000D01*
X138430000Y-123952000D02*
X138430000Y-125730000D01*
X138430000Y-125730000D02*
X136652000Y-125730000D01*
X146558000Y-123190000D02*
X144780000Y-123190000D01*
X144780000Y-123190000D02*
X144780000Y-121412000D01*
X144780000Y-112268000D02*
X144780000Y-110490000D01*
X144780000Y-110490000D02*
X146558000Y-110490000D01*
X157480000Y-112268000D02*
X157480000Y-110490000D01*
X157480000Y-110490000D02*
X155702000Y-110490000D01*
X157480000Y-121412000D02*
X157480000Y-123190000D01*
X157480000Y-123190000D02*
X155702000Y-123190000D01*
X165608000Y-125730000D02*
X163830000Y-125730000D01*
X163830000Y-125730000D02*
X163830000Y-123952000D01*
X163830000Y-114808000D02*
X163830000Y-113030000D01*
X163830000Y-113030000D02*
X165608000Y-113030000D01*
X176530000Y-114808000D02*
X176530000Y-113030000D01*
X176530000Y-113030000D02*
X174752000Y-113030000D01*
X176530000Y-123952000D02*
X176530000Y-125730000D01*
X176530000Y-125730000D02*
X174752000Y-125730000D01*
X184658000Y-127635000D02*
X182880000Y-127635000D01*
X182880000Y-127635000D02*
X182880000Y-125857000D01*
X182880000Y-116713000D02*
X182880000Y-114935000D01*
X182880000Y-114935000D02*
X184658000Y-114935000D01*
X195580000Y-116713000D02*
X195580000Y-114935000D01*
X195580000Y-114935000D02*
X193802000Y-114935000D01*
X195580000Y-125857000D02*
X195580000Y-127635000D01*
X195580000Y-127635000D02*
X193802000Y-127635000D01*
X221465532Y-140373261D02*
X219925739Y-139484261D01*
X219925739Y-139484261D02*
X220814739Y-137944468D01*
X225386739Y-130025532D02*
X226275739Y-128485739D01*
X226275739Y-128485739D02*
X227815532Y-129374739D01*
X236385261Y-136375532D02*
X237274261Y-134835739D01*
X237274261Y-134835739D02*
X235734468Y-133946739D01*
X231813261Y-144294468D02*
X230924261Y-145834261D01*
X230924261Y-145834261D02*
X229384468Y-144945261D01*
X89408000Y-149225000D02*
X87630000Y-149225000D01*
X87630000Y-149225000D02*
X87630000Y-147447000D01*
X87630000Y-138303000D02*
X87630000Y-136525000D01*
X87630000Y-136525000D02*
X89408000Y-136525000D01*
X100330000Y-138303000D02*
X100330000Y-136525000D01*
X100330000Y-136525000D02*
X98552000Y-136525000D01*
X100330000Y-147447000D02*
X100330000Y-149225000D01*
X100330000Y-149225000D02*
X98552000Y-149225000D01*
X108458000Y-149225000D02*
X106680000Y-149225000D01*
X106680000Y-149225000D02*
X106680000Y-147447000D01*
X106680000Y-138303000D02*
X106680000Y-136525000D01*
X106680000Y-136525000D02*
X108458000Y-136525000D01*
X119380000Y-138303000D02*
X119380000Y-136525000D01*
X119380000Y-136525000D02*
X117602000Y-136525000D01*
X119380000Y-147447000D02*
X119380000Y-149225000D01*
X119380000Y-149225000D02*
X117602000Y-149225000D01*
X127508000Y-144780000D02*
X125730000Y-144780000D01*
X125730000Y-144780000D02*
X125730000Y-143002000D01*
X125730000Y-133858000D02*
X125730000Y-132080000D01*
X125730000Y-132080000D02*
X127508000Y-132080000D01*
X138430000Y-133858000D02*
X138430000Y-132080000D01*
X138430000Y-132080000D02*
X136652000Y-132080000D01*
X138430000Y-143002000D02*
X138430000Y-144780000D01*
X138430000Y-144780000D02*
X136652000Y-144780000D01*
X146558000Y-142240000D02*
X144780000Y-142240000D01*
X144780000Y-142240000D02*
X144780000Y-140462000D01*
X144780000Y-131318000D02*
X144780000Y-129540000D01*
X144780000Y-129540000D02*
X146558000Y-129540000D01*
X157480000Y-131318000D02*
X157480000Y-129540000D01*
X157480000Y-129540000D02*
X155702000Y-129540000D01*
X157480000Y-140462000D02*
X157480000Y-142240000D01*
X157480000Y-142240000D02*
X155702000Y-142240000D01*
D10*
X200660000Y-56642000D02*
X200660000Y-56134000D01*
X201422000Y-62230000D02*
X200660000Y-62230000D01*
X201676000Y-61976000D02*
X201422000Y-62230000D01*
X201676000Y-61722000D02*
X201676000Y-61976000D01*
X201422000Y-61468000D02*
X201676000Y-61722000D01*
X201422000Y-57404000D02*
X201422000Y-61468000D01*
X201676000Y-57150000D02*
X201422000Y-57404000D01*
X201676000Y-56896000D02*
X201676000Y-57150000D01*
X201422000Y-56642000D02*
X201676000Y-56896000D01*
X199898000Y-56642000D02*
X201422000Y-56642000D01*
X199644000Y-56896000D02*
X199898000Y-56642000D01*
X199644000Y-57150000D02*
X199644000Y-56896000D01*
X199898000Y-57404000D02*
X199644000Y-57150000D01*
X199898000Y-61468000D02*
X199898000Y-57404000D01*
X199644000Y-61722000D02*
X199898000Y-61468000D01*
X199644000Y-61976000D02*
X199644000Y-61722000D01*
X199898000Y-62230000D02*
X199644000Y-61976000D01*
X200660000Y-62230000D02*
X199898000Y-62230000D01*
X200660000Y-62738000D02*
X200660000Y-62230000D01*
X214884000Y-62738000D02*
X214884000Y-62230000D01*
X214884000Y-62230000D02*
X214122000Y-62230000D01*
X214122000Y-62230000D02*
X213868000Y-61976000D01*
X213868000Y-61976000D02*
X213868000Y-61722000D01*
X213868000Y-61722000D02*
X214122000Y-61468000D01*
X214122000Y-61468000D02*
X214122000Y-57404000D01*
X214122000Y-57404000D02*
X213868000Y-57150000D01*
X213868000Y-57150000D02*
X213868000Y-56896000D01*
X213868000Y-56896000D02*
X214122000Y-56642000D01*
X214122000Y-56642000D02*
X215646000Y-56642000D01*
X215646000Y-56642000D02*
X215900000Y-56896000D01*
X215900000Y-56896000D02*
X215900000Y-57150000D01*
X215900000Y-57150000D02*
X215646000Y-57404000D01*
X215646000Y-57404000D02*
X215646000Y-61468000D01*
X215646000Y-61468000D02*
X215900000Y-61722000D01*
X215900000Y-61722000D02*
X215900000Y-61976000D01*
X215900000Y-61976000D02*
X215646000Y-62230000D01*
X215646000Y-62230000D02*
X214884000Y-62230000D01*
X214884000Y-56642000D02*
X214884000Y-56134000D01*
X239620000Y-100110000D02*
X241620000Y-100110000D01*
X241620000Y-94510000D02*
X241620000Y-100110000D01*
X239620000Y-94510000D02*
X241620000Y-94510000D01*
X227520000Y-94260000D02*
X227520000Y-100360000D01*
X239620000Y-100360000D02*
X227520000Y-100360000D01*
X239620000Y-94260000D02*
X239620000Y-100360000D01*
X239620000Y-94260000D02*
X227520000Y-94260000D01*
D11*
X223520000Y-53340000D02*
X220980000Y-53340000D01*
X223520000Y-50800000D02*
X223520000Y-53340000D01*
D10*
X201021904Y-59302666D02*
X200640952Y-59036000D01*
X201021904Y-58845523D02*
X200221904Y-58845523D01*
X200221904Y-59150285D01*
X200260000Y-59226476D01*
X200298095Y-59264571D01*
X200374285Y-59302666D01*
X200488571Y-59302666D01*
X200564761Y-59264571D01*
X200602857Y-59226476D01*
X200640952Y-59150285D01*
X200640952Y-58845523D01*
X201021904Y-60064571D02*
X201021904Y-59607428D01*
X201021904Y-59836000D02*
X200221904Y-59836000D01*
X200336190Y-59759809D01*
X200412380Y-59683619D01*
X200450476Y-59607428D01*
X215245904Y-59302666D02*
X214864952Y-59036000D01*
X215245904Y-58845523D02*
X214445904Y-58845523D01*
X214445904Y-59150285D01*
X214484000Y-59226476D01*
X214522095Y-59264571D01*
X214598285Y-59302666D01*
X214712571Y-59302666D01*
X214788761Y-59264571D01*
X214826857Y-59226476D01*
X214864952Y-59150285D01*
X214864952Y-58845523D01*
X214522095Y-59607428D02*
X214484000Y-59645523D01*
X214445904Y-59721714D01*
X214445904Y-59912190D01*
X214484000Y-59988380D01*
X214522095Y-60026476D01*
X214598285Y-60064571D01*
X214674476Y-60064571D01*
X214788761Y-60026476D01*
X215245904Y-59569333D01*
X215245904Y-60064571D01*
X237489047Y-99462380D02*
X237489047Y-98462380D01*
X237108095Y-98462380D01*
X237012857Y-98510000D01*
X236965238Y-98557619D01*
X236917619Y-98652857D01*
X236917619Y-98795714D01*
X236965238Y-98890952D01*
X237012857Y-98938571D01*
X237108095Y-98986190D01*
X237489047Y-98986190D01*
X236203333Y-98462380D02*
X236203333Y-99176666D01*
X236250952Y-99319523D01*
X236346190Y-99414761D01*
X236489047Y-99462380D01*
X236584285Y-99462380D01*
X235727142Y-99081428D02*
X234965238Y-99081428D01*
X234584285Y-98462380D02*
X233965238Y-98462380D01*
X234298571Y-98843333D01*
X234155714Y-98843333D01*
X234060476Y-98890952D01*
X234012857Y-98938571D01*
X233965238Y-99033809D01*
X233965238Y-99271904D01*
X234012857Y-99367142D01*
X234060476Y-99414761D01*
X234155714Y-99462380D01*
X234441428Y-99462380D01*
X234536666Y-99414761D01*
X234584285Y-99367142D01*
X233584285Y-98557619D02*
X233536666Y-98510000D01*
X233441428Y-98462380D01*
X233203333Y-98462380D01*
X233108095Y-98510000D01*
X233060476Y-98557619D01*
X233012857Y-98652857D01*
X233012857Y-98748095D01*
X233060476Y-98890952D01*
X233631904Y-99462380D01*
X233012857Y-99462380D01*
X232393809Y-98462380D02*
X232298571Y-98462380D01*
X232203333Y-98510000D01*
X232155714Y-98557619D01*
X232108095Y-98652857D01*
X232060476Y-98843333D01*
X232060476Y-99081428D01*
X232108095Y-99271904D01*
X232155714Y-99367142D01*
X232203333Y-99414761D01*
X232298571Y-99462380D01*
X232393809Y-99462380D01*
X232489047Y-99414761D01*
X232536666Y-99367142D01*
X232584285Y-99271904D01*
X232631904Y-99081428D01*
X232631904Y-98843333D01*
X232584285Y-98652857D01*
X232536666Y-98557619D01*
X232489047Y-98510000D01*
X232393809Y-98462380D01*
X231679523Y-99176666D02*
X231203333Y-99176666D01*
X231774761Y-99462380D02*
X231441428Y-98462380D01*
X231108095Y-99462380D01*
X226034476Y-51631904D02*
X225577333Y-51631904D01*
X225805904Y-52431904D02*
X225805904Y-51631904D01*
X225386857Y-51631904D02*
X224853523Y-52431904D01*
X224853523Y-51631904D02*
X225386857Y-52431904D01*
X224396380Y-51631904D02*
X224320190Y-51631904D01*
X224244000Y-51670000D01*
X224205904Y-51708095D01*
X224167809Y-51784285D01*
X224129714Y-51936666D01*
X224129714Y-52127142D01*
X224167809Y-52279523D01*
X224205904Y-52355714D01*
X224244000Y-52393809D01*
X224320190Y-52431904D01*
X224396380Y-52431904D01*
X224472571Y-52393809D01*
X224510666Y-52355714D01*
X224548761Y-52279523D01*
X224586857Y-52127142D01*
X224586857Y-51936666D01*
X224548761Y-51784285D01*
X224510666Y-51708095D01*
X224472571Y-51670000D01*
X224396380Y-51631904D01*
X235654809Y-77412857D02*
X235540523Y-77450952D01*
X235502428Y-77489047D01*
X235464333Y-77565238D01*
X235464333Y-77679523D01*
X235502428Y-77755714D01*
X235540523Y-77793809D01*
X235616714Y-77831904D01*
X235921476Y-77831904D01*
X235921476Y-77031904D01*
X235654809Y-77031904D01*
X235578619Y-77070000D01*
X235540523Y-77108095D01*
X235502428Y-77184285D01*
X235502428Y-77260476D01*
X235540523Y-77336666D01*
X235578619Y-77374761D01*
X235654809Y-77412857D01*
X235921476Y-77412857D01*
X235159571Y-77108095D02*
X235121476Y-77070000D01*
X235045285Y-77031904D01*
X234854809Y-77031904D01*
X234778619Y-77070000D01*
X234740523Y-77108095D01*
X234702428Y-77184285D01*
X234702428Y-77260476D01*
X234740523Y-77374761D01*
X235197666Y-77831904D01*
X234702428Y-77831904D01*
X235597666Y-69792857D02*
X235864333Y-69792857D01*
X235864333Y-70211904D02*
X235864333Y-69411904D01*
X235483380Y-69411904D01*
X235254809Y-69411904D02*
X234721476Y-69411904D01*
X235064333Y-70211904D01*
X235597666Y-67252857D02*
X235864333Y-67252857D01*
X235864333Y-67671904D02*
X235864333Y-66871904D01*
X235483380Y-66871904D01*
X234835761Y-66871904D02*
X234988142Y-66871904D01*
X235064333Y-66910000D01*
X235102428Y-66948095D01*
X235178619Y-67062380D01*
X235216714Y-67214761D01*
X235216714Y-67519523D01*
X235178619Y-67595714D01*
X235140523Y-67633809D01*
X235064333Y-67671904D01*
X234911952Y-67671904D01*
X234835761Y-67633809D01*
X234797666Y-67595714D01*
X234759571Y-67519523D01*
X234759571Y-67329047D01*
X234797666Y-67252857D01*
X234835761Y-67214761D01*
X234911952Y-67176666D01*
X235064333Y-67176666D01*
X235140523Y-67214761D01*
X235178619Y-67252857D01*
X235216714Y-67329047D01*
X235597666Y-64712857D02*
X235864333Y-64712857D01*
X235864333Y-65131904D02*
X235864333Y-64331904D01*
X235483380Y-64331904D01*
X234797666Y-64331904D02*
X235178619Y-64331904D01*
X235216714Y-64712857D01*
X235178619Y-64674761D01*
X235102428Y-64636666D01*
X234911952Y-64636666D01*
X234835761Y-64674761D01*
X234797666Y-64712857D01*
X234759571Y-64789047D01*
X234759571Y-64979523D01*
X234797666Y-65055714D01*
X234835761Y-65093809D01*
X234911952Y-65131904D01*
X235102428Y-65131904D01*
X235178619Y-65093809D01*
X235216714Y-65055714D01*
X235883380Y-52431904D02*
X236150047Y-52050952D01*
X236340523Y-52431904D02*
X236340523Y-51631904D01*
X236035761Y-51631904D01*
X235959571Y-51670000D01*
X235921476Y-51708095D01*
X235883380Y-51784285D01*
X235883380Y-51898571D01*
X235921476Y-51974761D01*
X235959571Y-52012857D01*
X236035761Y-52050952D01*
X236340523Y-52050952D01*
X235578619Y-52203333D02*
X235197666Y-52203333D01*
X235654809Y-52431904D02*
X235388142Y-51631904D01*
X235121476Y-52431904D01*
X234931000Y-51631904D02*
X234740523Y-52431904D01*
X234588142Y-51860476D01*
X234435761Y-52431904D01*
X234245285Y-51631904D01*
X235940523Y-54210000D02*
X236016714Y-54171904D01*
X236131000Y-54171904D01*
X236245285Y-54210000D01*
X236321476Y-54286190D01*
X236359571Y-54362380D01*
X236397666Y-54514761D01*
X236397666Y-54629047D01*
X236359571Y-54781428D01*
X236321476Y-54857619D01*
X236245285Y-54933809D01*
X236131000Y-54971904D01*
X236054809Y-54971904D01*
X235940523Y-54933809D01*
X235902428Y-54895714D01*
X235902428Y-54629047D01*
X236054809Y-54629047D01*
X235559571Y-54971904D02*
X235559571Y-54171904D01*
X235102428Y-54971904D01*
X235102428Y-54171904D01*
X234721476Y-54971904D02*
X234721476Y-54171904D01*
X234531000Y-54171904D01*
X234416714Y-54210000D01*
X234340523Y-54286190D01*
X234302428Y-54362380D01*
X234264333Y-54514761D01*
X234264333Y-54629047D01*
X234302428Y-54781428D01*
X234340523Y-54857619D01*
X234416714Y-54933809D01*
X234531000Y-54971904D01*
X234721476Y-54971904D01*
X235769095Y-57511904D02*
X236035761Y-57130952D01*
X236226238Y-57511904D02*
X236226238Y-56711904D01*
X235921476Y-56711904D01*
X235845285Y-56750000D01*
X235807190Y-56788095D01*
X235769095Y-56864285D01*
X235769095Y-56978571D01*
X235807190Y-57054761D01*
X235845285Y-57092857D01*
X235921476Y-57130952D01*
X236226238Y-57130952D01*
X235464333Y-57473809D02*
X235350047Y-57511904D01*
X235159571Y-57511904D01*
X235083380Y-57473809D01*
X235045285Y-57435714D01*
X235007190Y-57359523D01*
X235007190Y-57283333D01*
X235045285Y-57207142D01*
X235083380Y-57169047D01*
X235159571Y-57130952D01*
X235311952Y-57092857D01*
X235388142Y-57054761D01*
X235426238Y-57016666D01*
X235464333Y-56940476D01*
X235464333Y-56864285D01*
X235426238Y-56788095D01*
X235388142Y-56750000D01*
X235311952Y-56711904D01*
X235121476Y-56711904D01*
X235007190Y-56750000D01*
X234778619Y-56711904D02*
X234321476Y-56711904D01*
X234550047Y-57511904D02*
X234550047Y-56711904D01*
X236397666Y-59251904D02*
X236131000Y-60051904D01*
X235864333Y-59251904D01*
X235140523Y-59975714D02*
X235178619Y-60013809D01*
X235292904Y-60051904D01*
X235369095Y-60051904D01*
X235483380Y-60013809D01*
X235559571Y-59937619D01*
X235597666Y-59861428D01*
X235635761Y-59709047D01*
X235635761Y-59594761D01*
X235597666Y-59442380D01*
X235559571Y-59366190D01*
X235483380Y-59290000D01*
X235369095Y-59251904D01*
X235292904Y-59251904D01*
X235178619Y-59290000D01*
X235140523Y-59328095D01*
X234340523Y-59975714D02*
X234378619Y-60013809D01*
X234492904Y-60051904D01*
X234569095Y-60051904D01*
X234683380Y-60013809D01*
X234759571Y-59937619D01*
X234797666Y-59861428D01*
X234835761Y-59709047D01*
X234835761Y-59594761D01*
X234797666Y-59442380D01*
X234759571Y-59366190D01*
X234683380Y-59290000D01*
X234569095Y-59251904D01*
X234492904Y-59251904D01*
X234378619Y-59290000D01*
X234340523Y-59328095D01*
X235597666Y-62172857D02*
X235864333Y-62172857D01*
X235864333Y-62591904D02*
X235864333Y-61791904D01*
X235483380Y-61791904D01*
X234835761Y-62058571D02*
X234835761Y-62591904D01*
X235026238Y-61753809D02*
X235216714Y-62325238D01*
X234721476Y-62325238D01*
X235654809Y-72332857D02*
X235540523Y-72370952D01*
X235502428Y-72409047D01*
X235464333Y-72485238D01*
X235464333Y-72599523D01*
X235502428Y-72675714D01*
X235540523Y-72713809D01*
X235616714Y-72751904D01*
X235921476Y-72751904D01*
X235921476Y-71951904D01*
X235654809Y-71951904D01*
X235578619Y-71990000D01*
X235540523Y-72028095D01*
X235502428Y-72104285D01*
X235502428Y-72180476D01*
X235540523Y-72256666D01*
X235578619Y-72294761D01*
X235654809Y-72332857D01*
X235921476Y-72332857D01*
X234702428Y-72751904D02*
X235159571Y-72751904D01*
X234931000Y-72751904D02*
X234931000Y-71951904D01*
X235007190Y-72066190D01*
X235083380Y-72142380D01*
X235159571Y-72180476D01*
X235654809Y-74872857D02*
X235540523Y-74910952D01*
X235502428Y-74949047D01*
X235464333Y-75025238D01*
X235464333Y-75139523D01*
X235502428Y-75215714D01*
X235540523Y-75253809D01*
X235616714Y-75291904D01*
X235921476Y-75291904D01*
X235921476Y-74491904D01*
X235654809Y-74491904D01*
X235578619Y-74530000D01*
X235540523Y-74568095D01*
X235502428Y-74644285D01*
X235502428Y-74720476D01*
X235540523Y-74796666D01*
X235578619Y-74834761D01*
X235654809Y-74872857D01*
X235921476Y-74872857D01*
X235197666Y-74491904D02*
X234702428Y-74491904D01*
X234969095Y-74796666D01*
X234854809Y-74796666D01*
X234778619Y-74834761D01*
X234740523Y-74872857D01*
X234702428Y-74949047D01*
X234702428Y-75139523D01*
X234740523Y-75215714D01*
X234778619Y-75253809D01*
X234854809Y-75291904D01*
X235083380Y-75291904D01*
X235159571Y-75253809D01*
X235197666Y-75215714D01*
X235654809Y-79952857D02*
X235540523Y-79990952D01*
X235502428Y-80029047D01*
X235464333Y-80105238D01*
X235464333Y-80219523D01*
X235502428Y-80295714D01*
X235540523Y-80333809D01*
X235616714Y-80371904D01*
X235921476Y-80371904D01*
X235921476Y-79571904D01*
X235654809Y-79571904D01*
X235578619Y-79610000D01*
X235540523Y-79648095D01*
X235502428Y-79724285D01*
X235502428Y-79800476D01*
X235540523Y-79876666D01*
X235578619Y-79914761D01*
X235654809Y-79952857D01*
X235921476Y-79952857D01*
X234778619Y-79571904D02*
X234931000Y-79571904D01*
X235007190Y-79610000D01*
X235045285Y-79648095D01*
X235121476Y-79762380D01*
X235159571Y-79914761D01*
X235159571Y-80219523D01*
X235121476Y-80295714D01*
X235083380Y-80333809D01*
X235007190Y-80371904D01*
X234854809Y-80371904D01*
X234778619Y-80333809D01*
X234740523Y-80295714D01*
X234702428Y-80219523D01*
X234702428Y-80029047D01*
X234740523Y-79952857D01*
X234778619Y-79914761D01*
X234854809Y-79876666D01*
X235007190Y-79876666D01*
X235083380Y-79914761D01*
X235121476Y-79952857D01*
X235159571Y-80029047D01*
X224732809Y-79952857D02*
X224618523Y-79990952D01*
X224580428Y-80029047D01*
X224542333Y-80105238D01*
X224542333Y-80219523D01*
X224580428Y-80295714D01*
X224618523Y-80333809D01*
X224694714Y-80371904D01*
X224999476Y-80371904D01*
X224999476Y-79571904D01*
X224732809Y-79571904D01*
X224656619Y-79610000D01*
X224618523Y-79648095D01*
X224580428Y-79724285D01*
X224580428Y-79800476D01*
X224618523Y-79876666D01*
X224656619Y-79914761D01*
X224732809Y-79952857D01*
X224999476Y-79952857D01*
X223818523Y-79571904D02*
X224199476Y-79571904D01*
X224237571Y-79952857D01*
X224199476Y-79914761D01*
X224123285Y-79876666D01*
X223932809Y-79876666D01*
X223856619Y-79914761D01*
X223818523Y-79952857D01*
X223780428Y-80029047D01*
X223780428Y-80219523D01*
X223818523Y-80295714D01*
X223856619Y-80333809D01*
X223932809Y-80371904D01*
X224123285Y-80371904D01*
X224199476Y-80333809D01*
X224237571Y-80295714D01*
X224732809Y-77412857D02*
X224618523Y-77450952D01*
X224580428Y-77489047D01*
X224542333Y-77565238D01*
X224542333Y-77679523D01*
X224580428Y-77755714D01*
X224618523Y-77793809D01*
X224694714Y-77831904D01*
X224999476Y-77831904D01*
X224999476Y-77031904D01*
X224732809Y-77031904D01*
X224656619Y-77070000D01*
X224618523Y-77108095D01*
X224580428Y-77184285D01*
X224580428Y-77260476D01*
X224618523Y-77336666D01*
X224656619Y-77374761D01*
X224732809Y-77412857D01*
X224999476Y-77412857D01*
X223856619Y-77298571D02*
X223856619Y-77831904D01*
X224047095Y-76993809D02*
X224237571Y-77565238D01*
X223742333Y-77565238D01*
X224961380Y-74872857D02*
X224694714Y-74872857D01*
X224580428Y-75291904D02*
X224961380Y-75291904D01*
X224961380Y-74491904D01*
X224580428Y-74491904D01*
X223894714Y-74491904D02*
X224047095Y-74491904D01*
X224123285Y-74530000D01*
X224161380Y-74568095D01*
X224237571Y-74682380D01*
X224275666Y-74834761D01*
X224275666Y-75139523D01*
X224237571Y-75215714D01*
X224199476Y-75253809D01*
X224123285Y-75291904D01*
X223970904Y-75291904D01*
X223894714Y-75253809D01*
X223856619Y-75215714D01*
X223818523Y-75139523D01*
X223818523Y-74949047D01*
X223856619Y-74872857D01*
X223894714Y-74834761D01*
X223970904Y-74796666D01*
X224123285Y-74796666D01*
X224199476Y-74834761D01*
X224237571Y-74872857D01*
X224275666Y-74949047D01*
X224999476Y-72751904D02*
X224999476Y-71951904D01*
X224809000Y-71951904D01*
X224694714Y-71990000D01*
X224618523Y-72066190D01*
X224580428Y-72142380D01*
X224542333Y-72294761D01*
X224542333Y-72409047D01*
X224580428Y-72561428D01*
X224618523Y-72637619D01*
X224694714Y-72713809D01*
X224809000Y-72751904D01*
X224999476Y-72751904D01*
X224275666Y-71951904D02*
X223742333Y-71951904D01*
X224085190Y-72751904D01*
X224542333Y-70135714D02*
X224580428Y-70173809D01*
X224694714Y-70211904D01*
X224770904Y-70211904D01*
X224885190Y-70173809D01*
X224961380Y-70097619D01*
X224999476Y-70021428D01*
X225037571Y-69869047D01*
X225037571Y-69754761D01*
X224999476Y-69602380D01*
X224961380Y-69526190D01*
X224885190Y-69450000D01*
X224770904Y-69411904D01*
X224694714Y-69411904D01*
X224580428Y-69450000D01*
X224542333Y-69488095D01*
X223856619Y-69411904D02*
X224009000Y-69411904D01*
X224085190Y-69450000D01*
X224123285Y-69488095D01*
X224199476Y-69602380D01*
X224237571Y-69754761D01*
X224237571Y-70059523D01*
X224199476Y-70135714D01*
X224161380Y-70173809D01*
X224085190Y-70211904D01*
X223932809Y-70211904D01*
X223856619Y-70173809D01*
X223818523Y-70135714D01*
X223780428Y-70059523D01*
X223780428Y-69869047D01*
X223818523Y-69792857D01*
X223856619Y-69754761D01*
X223932809Y-69716666D01*
X224085190Y-69716666D01*
X224161380Y-69754761D01*
X224199476Y-69792857D01*
X224237571Y-69869047D01*
X224999476Y-67671904D02*
X224999476Y-66871904D01*
X224809000Y-66871904D01*
X224694714Y-66910000D01*
X224618523Y-66986190D01*
X224580428Y-67062380D01*
X224542333Y-67214761D01*
X224542333Y-67329047D01*
X224580428Y-67481428D01*
X224618523Y-67557619D01*
X224694714Y-67633809D01*
X224809000Y-67671904D01*
X224999476Y-67671904D01*
X223856619Y-67138571D02*
X223856619Y-67671904D01*
X224047095Y-66833809D02*
X224237571Y-67405238D01*
X223742333Y-67405238D01*
X225018523Y-56750000D02*
X225094714Y-56711904D01*
X225209000Y-56711904D01*
X225323285Y-56750000D01*
X225399476Y-56826190D01*
X225437571Y-56902380D01*
X225475666Y-57054761D01*
X225475666Y-57169047D01*
X225437571Y-57321428D01*
X225399476Y-57397619D01*
X225323285Y-57473809D01*
X225209000Y-57511904D01*
X225132809Y-57511904D01*
X225018523Y-57473809D01*
X224980428Y-57435714D01*
X224980428Y-57169047D01*
X225132809Y-57169047D01*
X224637571Y-57511904D02*
X224637571Y-56711904D01*
X224180428Y-57511904D01*
X224180428Y-56711904D01*
X223799476Y-57511904D02*
X223799476Y-56711904D01*
X223609000Y-56711904D01*
X223494714Y-56750000D01*
X223418523Y-56826190D01*
X223380428Y-56902380D01*
X223342333Y-57054761D01*
X223342333Y-57169047D01*
X223380428Y-57321428D01*
X223418523Y-57397619D01*
X223494714Y-57473809D01*
X223609000Y-57511904D01*
X223799476Y-57511904D01*
X225018523Y-59290000D02*
X225094714Y-59251904D01*
X225209000Y-59251904D01*
X225323285Y-59290000D01*
X225399476Y-59366190D01*
X225437571Y-59442380D01*
X225475666Y-59594761D01*
X225475666Y-59709047D01*
X225437571Y-59861428D01*
X225399476Y-59937619D01*
X225323285Y-60013809D01*
X225209000Y-60051904D01*
X225132809Y-60051904D01*
X225018523Y-60013809D01*
X224980428Y-59975714D01*
X224980428Y-59709047D01*
X225132809Y-59709047D01*
X224637571Y-60051904D02*
X224637571Y-59251904D01*
X224180428Y-60051904D01*
X224180428Y-59251904D01*
X223799476Y-60051904D02*
X223799476Y-59251904D01*
X223609000Y-59251904D01*
X223494714Y-59290000D01*
X223418523Y-59366190D01*
X223380428Y-59442380D01*
X223342333Y-59594761D01*
X223342333Y-59709047D01*
X223380428Y-59861428D01*
X223418523Y-59937619D01*
X223494714Y-60013809D01*
X223609000Y-60051904D01*
X223799476Y-60051904D01*
X224999476Y-62591904D02*
X224999476Y-61791904D01*
X224809000Y-61791904D01*
X224694714Y-61830000D01*
X224618523Y-61906190D01*
X224580428Y-61982380D01*
X224542333Y-62134761D01*
X224542333Y-62249047D01*
X224580428Y-62401428D01*
X224618523Y-62477619D01*
X224694714Y-62553809D01*
X224809000Y-62591904D01*
X224999476Y-62591904D01*
X223780428Y-62591904D02*
X224237571Y-62591904D01*
X224009000Y-62591904D02*
X224009000Y-61791904D01*
X224085190Y-61906190D01*
X224161380Y-61982380D01*
X224237571Y-62020476D01*
X224999476Y-65131904D02*
X224999476Y-64331904D01*
X224809000Y-64331904D01*
X224694714Y-64370000D01*
X224618523Y-64446190D01*
X224580428Y-64522380D01*
X224542333Y-64674761D01*
X224542333Y-64789047D01*
X224580428Y-64941428D01*
X224618523Y-65017619D01*
X224694714Y-65093809D01*
X224809000Y-65131904D01*
X224999476Y-65131904D01*
X224047095Y-64331904D02*
X223970904Y-64331904D01*
X223894714Y-64370000D01*
X223856619Y-64408095D01*
X223818523Y-64484285D01*
X223780428Y-64636666D01*
X223780428Y-64827142D01*
X223818523Y-64979523D01*
X223856619Y-65055714D01*
X223894714Y-65093809D01*
X223970904Y-65131904D01*
X224047095Y-65131904D01*
X224123285Y-65093809D01*
X224161380Y-65055714D01*
X224199476Y-64979523D01*
X224237571Y-64827142D01*
X224237571Y-64636666D01*
X224199476Y-64484285D01*
X224161380Y-64408095D01*
X224123285Y-64370000D01*
X224047095Y-64331904D01*
X224999476Y-54971904D02*
X224999476Y-54171904D01*
X224809000Y-54171904D01*
X224694714Y-54210000D01*
X224618523Y-54286190D01*
X224580428Y-54362380D01*
X224542333Y-54514761D01*
X224542333Y-54629047D01*
X224580428Y-54781428D01*
X224618523Y-54857619D01*
X224694714Y-54933809D01*
X224809000Y-54971904D01*
X224999476Y-54971904D01*
X224237571Y-54248095D02*
X224199476Y-54210000D01*
X224123285Y-54171904D01*
X223932809Y-54171904D01*
X223856619Y-54210000D01*
X223818523Y-54248095D01*
X223780428Y-54324285D01*
X223780428Y-54400476D01*
X223818523Y-54514761D01*
X224275666Y-54971904D01*
X223780428Y-54971904D01*
M02*
