M48
; DRILL file {KiCad (5.1.10-1-10_14)} date Sunday, August 01, 2021 at 09:47:47 PM
; FORMAT={-:-/ absolute / inch / decimal}
; #@! TF.CreationDate,2021-08-01T21:47:47+01:00
; #@! TF.GenerationSoftware,Kicad,Pcbnew,(5.1.10-1-10_14)
; #@! TF.FileFunction,Plated,1,2,PTH
FMAT,2
INCH
T1C0.0157
T2C0.0354
T3C0.0394
T4C0.0430
T5C0.0433
T6C0.0591
T7C0.1260
%
G90
G05
T1
X7.4646Y-2.8504
X7.4646Y-2.9921
X8.481Y-3.2509
X8.4974Y-3.397
X8.507Y-3.3465
X8.5333Y-3.2567
X8.622Y-2.643
X8.6235Y-3.079
X8.6266Y-3.346
X8.6266Y-3.5497
X8.6865Y-2.6415
X8.7746Y-3.2926
X8.798Y-3.5425
X8.846Y-3.082
X8.8819Y-2.248
X8.8819Y-2.248
X9.35Y-2.75
T3
X3.4465Y-2.95
X3.4465Y-3.7
X3.4465Y-4.45
X3.4465Y-5.2
X3.7535Y-2.95
X3.7535Y-3.7
X3.7535Y-4.45
X3.7535Y-5.2
X4.075Y-5.4715
X4.075Y-5.7785
X4.2965Y-2.95
X4.2965Y-3.7
X4.2965Y-4.45
X4.2965Y-5.2
X4.6035Y-2.95
X4.6035Y-3.7
X4.6035Y-4.45
X4.6035Y-5.2
X4.825Y-5.3965
X4.825Y-5.7035
X5.0465Y-2.775
X5.0465Y-3.525
X5.0465Y-4.275
X5.0465Y-5.025
X5.3535Y-2.775
X5.3535Y-3.525
X5.3535Y-4.275
X5.3535Y-5.025
X5.575Y-5.2965
X5.575Y-5.6035
X5.7965Y-2.675
X5.7965Y-3.425
X5.7965Y-4.175
X5.7965Y-4.925
X6.1035Y-2.675
X6.1035Y-3.425
X6.1035Y-4.175
X6.1035Y-4.925
X6.325Y-5.1965
X6.325Y-5.5035
X6.5465Y-2.775
X6.5465Y-3.525
X6.5465Y-4.275
X6.5465Y-5.025
X6.8535Y-2.775
X6.8535Y-3.525
X6.8535Y-4.275
X6.8535Y-5.025
X7.2965Y-2.85
X7.2965Y-3.6
X7.2965Y-4.35
X7.2965Y-5.1
X7.3603Y-5.8383
X7.4397Y-5.5417
X7.557Y-6.0632
X7.6035Y-2.85
X7.6035Y-3.6
X7.6035Y-4.35
X7.6035Y-5.1
X7.823Y-6.2168
X7.83Y-4.0
X7.83Y-4.1
X7.83Y-4.2
X7.9Y-2.1865
X7.9Y-2.4935
X8.042Y-5.2232
X8.0465Y-3.225
X8.0465Y-4.2
X8.217Y-6.4432
X8.308Y-5.3768
X8.3535Y-3.225
X8.3535Y-4.2
X8.46Y-2.1865
X8.46Y-2.4935
X8.483Y-6.5968
X8.692Y-5.5982
X8.958Y-5.7518
T4
X8.75Y-2.05
X8.75Y-2.15
X8.75Y-2.25
X8.75Y-2.35
X8.75Y-2.45
X8.75Y-2.55
X8.75Y-2.65
X8.75Y-2.75
X8.75Y-2.85
X8.75Y-2.95
X8.75Y-3.05
X8.75Y-3.15
X9.35Y-2.05
X9.35Y-2.15
X9.35Y-2.25
X9.35Y-2.35
X9.35Y-2.45
X9.35Y-2.55
X9.35Y-2.65
X9.35Y-2.75
X9.35Y-2.85
X9.35Y-2.95
X9.35Y-3.05
X9.35Y-3.15
T5
X4.52Y-2.02
X4.52Y-2.1972
X4.7759Y-2.02
X4.7759Y-2.1972
T7
X3.375Y-2.125
X4.05Y-5.075
X7.725Y-2.05
X8.4Y-5.68
T2
G00X9.0008Y-3.5594
M15
G01X8.9772Y-3.5594
M16
G05
G00X9.0008Y-3.9217
M15
G01X8.9772Y-3.9217
M16
G05
G00X9.0441Y-3.7406
M15
G01X9.0205Y-3.7406
M16
G05
G00X9.2016Y-3.7406
M15
G01X9.178Y-3.7406
M16
G05
G00X9.3197Y-3.7406
M15
G01X9.2961Y-3.7406
M16
G05
T6
G00X3.4819Y-2.4675
M15
G01X3.45Y-2.525
M16
G05
G00X3.4819Y-3.2175
M15
G01X3.45Y-3.275
M16
G05
G00X3.4819Y-3.9675
M15
G01X3.45Y-4.025
M16
G05
G00X3.4819Y-4.7175
M15
G01X3.45Y-4.775
M16
G05
G00X3.5Y-2.425
M15
G01X3.5016Y-2.4478
M16
G05
G00X3.5Y-3.175
M15
G01X3.5016Y-3.1978
M16
G05
G00X3.5Y-3.925
M15
G01X3.5016Y-3.9478
M16
G05
G00X3.5Y-4.675
M15
G01X3.5016Y-4.6978
M16
G05
G00X3.5819Y-5.4675
M15
G01X3.55Y-5.525
M16
G05
G00X3.6Y-5.425
M15
G01X3.6016Y-5.4478
M16
G05
G00X3.7Y-2.425
M15
G01X3.6984Y-2.4478
M16
G05
G00X3.7Y-3.175
M15
G01X3.6984Y-3.1978
M16
G05
G00X3.7Y-3.925
M15
G01X3.6984Y-3.9478
M16
G05
G00X3.7Y-4.675
M15
G01X3.6984Y-4.6978
M16
G05
G00X3.7181Y-2.4675
M15
G01X3.75Y-2.525
M16
G05
G00X3.7181Y-3.2175
M15
G01X3.75Y-3.275
M16
G05
G00X3.7181Y-3.9675
M15
G01X3.75Y-4.025
M16
G05
G00X3.7181Y-4.7175
M15
G01X3.75Y-4.775
M16
G05
G00X3.8Y-5.425
M15
G01X3.7984Y-5.4478
M16
G05
G00X3.8181Y-5.4675
M15
G01X3.85Y-5.525
M16
G05
G00X4.3319Y-2.4675
M15
G01X4.3Y-2.525
M16
G05
G00X4.3319Y-3.2175
M15
G01X4.3Y-3.275
M16
G05
G00X4.3319Y-3.9675
M15
G01X4.3Y-4.025
M16
G05
G00X4.3319Y-4.7175
M15
G01X4.3Y-4.775
M16
G05
G00X4.3319Y-5.4675
M15
G01X4.3Y-5.525
M16
G05
G00X4.35Y-2.425
M15
G01X4.3516Y-2.4478
M16
G05
G00X4.35Y-3.175
M15
G01X4.3516Y-3.1978
M16
G05
G00X4.35Y-3.925
M15
G01X4.3516Y-3.9478
M16
G05
G00X4.35Y-4.675
M15
G01X4.3516Y-4.6978
M16
G05
G00X4.35Y-5.425
M15
G01X4.3516Y-5.4478
M16
G05
G00X4.55Y-2.425
M15
G01X4.5484Y-2.4478
M16
G05
G00X4.55Y-3.175
M15
G01X4.5484Y-3.1978
M16
G05
G00X4.55Y-3.925
M15
G01X4.5484Y-3.9478
M16
G05
G00X4.55Y-4.675
M15
G01X4.5484Y-4.6978
M16
G05
G00X4.55Y-5.425
M15
G01X4.5484Y-5.4478
M16
G05
G00X4.5681Y-2.4675
M15
G01X4.6Y-2.525
M16
G05
G00X4.5681Y-3.2175
M15
G01X4.6Y-3.275
M16
G05
G00X4.5681Y-3.9675
M15
G01X4.6Y-4.025
M16
G05
G00X4.5681Y-4.7175
M15
G01X4.6Y-4.775
M16
G05
G00X4.5681Y-5.4675
M15
G01X4.6Y-5.525
M16
G05
G00X5.0819Y-2.2925
M15
G01X5.05Y-2.35
M16
G05
G00X5.0819Y-3.0425
M15
G01X5.05Y-3.1
M16
G05
G00X5.0819Y-3.7925
M15
G01X5.05Y-3.85
M16
G05
G00X5.0819Y-4.5425
M15
G01X5.05Y-4.6
M16
G05
G00X5.0819Y-5.2925
M15
G01X5.05Y-5.35
M16
G05
G00X5.1Y-2.25
M15
G01X5.1016Y-2.2728
M16
G05
G00X5.1Y-3.0
M15
G01X5.1016Y-3.0228
M16
G05
G00X5.1Y-3.75
M15
G01X5.1016Y-3.7728
M16
G05
G00X5.1Y-4.5
M15
G01X5.1016Y-4.5228
M16
G05
G00X5.1Y-5.25
M15
G01X5.1016Y-5.2728
M16
G05
G00X5.3Y-2.25
M15
G01X5.2984Y-2.2728
M16
G05
G00X5.3Y-3.0
M15
G01X5.2984Y-3.0228
M16
G05
G00X5.3Y-3.75
M15
G01X5.2984Y-3.7728
M16
G05
G00X5.3Y-4.5
M15
G01X5.2984Y-4.5228
M16
G05
G00X5.3Y-5.25
M15
G01X5.2984Y-5.2728
M16
G05
G00X5.3181Y-2.2925
M15
G01X5.35Y-2.35
M16
G05
G00X5.3181Y-3.0425
M15
G01X5.35Y-3.1
M16
G05
G00X5.3181Y-3.7925
M15
G01X5.35Y-3.85
M16
G05
G00X5.3181Y-4.5425
M15
G01X5.35Y-4.6
M16
G05
G00X5.3181Y-5.2925
M15
G01X5.35Y-5.35
M16
G05
G00X5.8319Y-2.1925
M15
G01X5.8Y-2.25
M16
G05
G00X5.8319Y-2.9425
M15
G01X5.8Y-3.0
M16
G05
G00X5.8319Y-3.6925
M15
G01X5.8Y-3.75
M16
G05
G00X5.8319Y-4.4425
M15
G01X5.8Y-4.5
M16
G05
G00X5.8319Y-5.1925
M15
G01X5.8Y-5.25
M16
G05
G00X5.85Y-2.15
M15
G01X5.8516Y-2.1728
M16
G05
G00X5.85Y-2.9
M15
G01X5.8516Y-2.9228
M16
G05
G00X5.85Y-3.65
M15
G01X5.8516Y-3.6728
M16
G05
G00X5.85Y-4.4
M15
G01X5.8516Y-4.4228
M16
G05
G00X5.85Y-5.15
M15
G01X5.8516Y-5.1728
M16
G05
G00X6.05Y-2.15
M15
G01X6.0484Y-2.1728
M16
G05
G00X6.05Y-2.9
M15
G01X6.0484Y-2.9228
M16
G05
G00X6.05Y-3.65
M15
G01X6.0484Y-3.6728
M16
G05
G00X6.05Y-4.4
M15
G01X6.0484Y-4.4228
M16
G05
G00X6.05Y-5.15
M15
G01X6.0484Y-5.1728
M16
G05
G00X6.0681Y-2.1925
M15
G01X6.1Y-2.25
M16
G05
G00X6.0681Y-2.9425
M15
G01X6.1Y-3.0
M16
G05
G00X6.0681Y-3.6925
M15
G01X6.1Y-3.75
M16
G05
G00X6.0681Y-4.4425
M15
G01X6.1Y-4.5
M16
G05
G00X6.0681Y-5.1925
M15
G01X6.1Y-5.25
M16
G05
G00X6.5819Y-2.2925
M15
G01X6.55Y-2.35
M16
G05
G00X6.5819Y-3.0425
M15
G01X6.55Y-3.1
M16
G05
G00X6.5819Y-3.7925
M15
G01X6.55Y-3.85
M16
G05
G00X6.5819Y-4.5425
M15
G01X6.55Y-4.6
M16
G05
G00X6.6Y-2.25
M15
G01X6.6016Y-2.2728
M16
G05
G00X6.6Y-3.0
M15
G01X6.6016Y-3.0228
M16
G05
G00X6.6Y-3.75
M15
G01X6.6016Y-3.7728
M16
G05
G00X6.6Y-4.5
M15
G01X6.6016Y-4.5228
M16
G05
G00X6.8Y-2.25
M15
G01X6.7984Y-2.2728
M16
G05
G00X6.8Y-3.0
M15
G01X6.7984Y-3.0228
M16
G05
G00X6.8Y-3.75
M15
G01X6.7984Y-3.7728
M16
G05
G00X6.8Y-4.5
M15
G01X6.7984Y-4.5228
M16
G05
G00X6.8181Y-2.2925
M15
G01X6.85Y-2.35
M16
G05
G00X6.8181Y-3.0425
M15
G01X6.85Y-3.1
M16
G05
G00X6.8181Y-3.7925
M15
G01X6.85Y-3.85
M16
G05
G00X6.8181Y-4.5425
M15
G01X6.85Y-4.6
M16
G05
G00X6.8767Y-5.3923
M15
G01X6.831Y-5.4396
M16
G05
G00X6.9052Y-5.356
M15
G01X6.9008Y-5.3784
M16
G05
G00X7.0983Y-5.4077
M15
G01X7.0909Y-5.4293
M16
G05
G00X7.1048Y-5.4535
M15
G01X7.1208Y-5.5172
M16
G05
G00X7.3319Y-2.3675
M15
G01X7.3Y-2.425
M16
G05
G00X7.3319Y-3.1175
M15
G01X7.3Y-3.175
M16
G05
G00X7.3319Y-3.8675
M15
G01X7.3Y-3.925
M16
G05
G00X7.3319Y-4.6175
M15
G01X7.3Y-4.675
M16
G05
G00X7.35Y-2.325
M15
G01X7.3516Y-2.3478
M16
G05
G00X7.35Y-3.075
M15
G01X7.3516Y-3.0978
M16
G05
G00X7.35Y-3.825
M15
G01X7.3516Y-3.8478
M16
G05
G00X7.35Y-4.575
M15
G01X7.3516Y-4.5978
M16
G05
G00X7.55Y-2.325
M15
G01X7.5484Y-2.3478
M16
G05
G00X7.55Y-3.075
M15
G01X7.5484Y-3.0978
M16
G05
G00X7.55Y-3.825
M15
G01X7.5484Y-3.8478
M16
G05
G00X7.55Y-4.575
M15
G01X7.5484Y-4.5978
M16
G05
G00X7.5681Y-2.3675
M15
G01X7.6Y-2.425
M16
G05
G00X7.5681Y-3.1175
M15
G01X7.6Y-3.175
M16
G05
G00X7.5681Y-3.8675
M15
G01X7.6Y-3.925
M16
G05
G00X7.5681Y-4.6175
M15
G01X7.6Y-4.675
M16
G05
G00X7.9523Y-6.031
M15
G01X7.8866Y-6.0299
M16
G05
G00X7.9982Y-6.0366
M15
G01X7.9792Y-6.0238
M16
G05
G00X8.0704Y-5.8265
M15
G01X8.0366Y-5.7701
M16
G05
G00X8.0819Y-2.7425
M15
G01X8.05Y-2.8
M16
G05
G00X8.0982Y-5.8634
M15
G01X8.0777Y-5.8533
M16
G05
G00X8.1Y-2.7
M15
G01X8.1016Y-2.7228
M16
G05
G00X8.3265Y-4.8296
M15
G01X8.2701Y-4.8634
M16
G05
G00X8.3Y-2.7
M15
G01X8.2984Y-2.7228
M16
G05
G00X8.3575Y-3.7319
M15
G01X8.3Y-3.7
M16
G05
G00X8.3575Y-3.9681
M15
G01X8.3Y-4.0
M16
G05
G00X8.3181Y-2.7425
M15
G01X8.35Y-2.8
M16
G05
G00X8.3634Y-4.8018
M15
G01X8.3533Y-4.8223
M16
G05
G00X8.4Y-3.75
M15
G01X8.3772Y-3.7516
M16
G05
G00X8.4Y-3.95
M15
G01X8.3772Y-3.9484
M16
G05
G00X8.5366Y-4.9018
M15
G01X8.5238Y-4.9208
M16
G05
G00X8.531Y-4.9477
M15
G01X8.5299Y-5.0134
M16
G05
G00X8.6023Y-6.406
M15
G01X8.5366Y-6.4049
M16
G05
G00X8.6482Y-6.4116
M15
G01X8.6292Y-6.3988
M16
G05
G00X8.7204Y-6.2015
M15
G01X8.6866Y-6.1451
M16
G05
G00X8.7482Y-6.2384
M15
G01X8.7277Y-6.2283
M16
G05
G00X8.9765Y-5.2046
M15
G01X8.9201Y-5.2384
M16
G05
G00X9.0134Y-5.1768
M15
G01X9.0033Y-5.1973
M16
G05
G00X9.1866Y-5.2768
M15
G01X9.1738Y-5.2958
M16
G05
G00X9.181Y-5.3227
M15
G01X9.1799Y-5.3884
M16
G05
T0
M30
