  0
SECTION
  2
HEADER
  9
$ACADVER
  1
AC1024
  9
$ACADMAINTVER
 70
     6
  9
$DWGCODEPAGE
  3
UNDEFINED
  9
$INSBASE
 10
0.0
 20
0.0
 30
0.0
  9
$EXTMIN
 10
1.000000000000000E+20
 20
1.000000000000000E+20
 30
1.000000000000000E+20
  9
$EXTMAX
 10
-1.000000000000000E+20
 20
-1.000000000000000E+20
 30
-1.000000000000000E+20
  9
$LIMMIN
 10
0.0
 20
0.0
  9
$LIMMAX
 10
12.0
 20
9.0
  9
$ORTHOMODE
 70
     0
  9
$REGENMODE
 70
     1
  9
$FILLMODE
 70
     1
  9
$QTEXTMODE
 70
     0
  9
$MIRRTEXT
 70
     1
  9
$LTSCALE
 40
1.0
  9
$ATTMODE
 70
     1
  9
$TEXTSIZE
 40
0.2
  9
$TRACEWID
 40
0.05
  9
$TEXTSTYLE
  7
Standard
  9
$CLAYER
  8
0
  9
$CELTYPE
  6
ByLayer
  9
$CECOLOR
 62
   256
  9
$CELTSCALE
 40
1.0
  9
$DISPSILH
 70
     0
  9
$DIMSCALE
 40
1.0
  9
$DIMASZ
 40
0.18
  9
$DIMEXO
 40
0.0625
  9
$DIMDLI
 40
0.38
  9
$DIMRND
 40
0.0
  9
$DIMDLE
 40
0.0
  9
$DIMEXE
 40
0.18
  9
$DIMTP
 40
0.0
  9
$DIMTM
 40
0.0
  9
$DIMTXT
 40
0.18
  9
$DIMCEN
 40
0.09
  9
$DIMTSZ
 40
0.0
  9
$DIMTOL
 70
     0
  9
$DIMLIM
 70
     0
  9
$DIMTIH
 70
     1
  9
$DIMTOH
 70
     1
  9
$DIMSE1
 70
     0
  9
$DIMSE2
 70
     0
  9
$DIMTAD
 70
     0
  9
$DIMZIN
 70
     0
  9
$DIMBLK
  1

  9
$DIMASO
 70
     1
  9
$DIMSHO
 70
     1
  9
$DIMPOST
  1

  9
$DIMAPOST
  1

  9
$DIMALT
 70
     0
  9
$DIMALTD
 70
     2
  9
$DIMALTF
 40
25.4
  9
$DIMLFAC
 40
1.0
  9
$DIMTOFL
 70
     0
  9
$DIMTVP
 40
0.0
  9
$DIMTIX
 70
     0
  9
$DIMSOXD
 70
     0
  9
$DIMSAH
 70
     0
  9
$DIMBLK1
  1

  9
$DIMBLK2
  1

  9
$DIMSTYLE
  2
Standard
  9
$DIMCLRD
 70
     0
  9
$DIMCLRE
 70
     0
  9
$DIMCLRT
 70
     0
  9
$DIMTFAC
 40
1.0
  9
$DIMGAP
 40
0.09
  9
$DIMJUST
 70
     0
  9
$DIMSD1
 70
     0
  9
$DIMSD2
 70
     0
  9
$DIMTOLJ
 70
     1
  9
$DIMTZIN
 70
     0
  9
$DIMALTZ
 70
     0
  9
$DIMALTTZ
 70
     0
  9
$DIMUPT
 70
     0
  9
$DIMDEC
 70
     4
  9
$DIMTDEC
 70
     4
  9
$DIMALTU
 70
     2
  9
$DIMALTTD
 70
     2
  9
$DIMTXSTY
  7
Standard
  9
$DIMAUNIT
 70
     0
  9
$DIMADEC
 70
     0
  9
$DIMALTRND
 40
0.0
  9
$DIMAZIN
 70
     0
  9
$DIMDSEP
 70
    46
  9
$DIMATFIT
 70
     3
  9
$DIMFRAC
 70
     0
  9
$DIMLDRBLK
  1

  9
$DIMLUNIT
 70
     2
  9
$DIMLWD
 70
    -2
  9
$DIMLWE
 70
    -2
  9
$DIMTMOVE
 70
     0
  9
$DIMFXL
 40
1.0
  9
$DIMFXLON
 70
     0
  9
$DIMJOGANG
 40
0.7853981633974483
  9
$DIMTFILL
 70
     0
  9
$DIMTFILLCLR
 70
     0
  9
$DIMARCSYM
 70
     0
  9
$DIMLTYPE
  6

  9
$DIMLTEX1
  6

  9
$DIMLTEX2
  6

  9
$DIMTXTDIRECTION
 70
     0
  9
$LUNITS
 70
     2
  9
$LUPREC
 70
     4
  9
$SKETCHINC
 40
0.1
  9
$FILLETRAD
 40
0.5
  9
$AUNITS
 70
     0
  9
$AUPREC
 70
     0
  9
$MENU
  1
.
  9
$ELEVATION
 40
0.0
  9
$PELEVATION
 40
0.0
  9
$THICKNESS
 40
0.0
  9
$LIMCHECK
 70
     0
  9
$CHAMFERA
 40
0.5
  9
$CHAMFERB
 40
0.5
  9
$CHAMFERC
 40
1.0
  9
$CHAMFERD
 40
0.0
  9
$SKPOLY
 70
     0
  9
$TDCREATE
 40
2459653.849108785
  9
$TDUCREATE
 40
2459653.849108796
  9
$TDUPDATE
 40
2459653.849108785
  9
$TDUUPDATE
 40
2459653.849108796
  9
$TDINDWG
 40
0.0000000116
  9
$TDUSRTIMER
 40
0.0000000116
  9
$USRTIMER
 70
     1
  9
$ANGBASE
 50
0.0
  9
$ANGDIR
 70
     0
  9
$PDMODE
 70
     0
  9
$PDSIZE
 40
0.0
  9
$PLINEWID
 40
0.0
  9
$SPLFRAME
 70
     0
  9
$SPLINETYPE
 70
     6
  9
$SPLINESEGS
 70
     8
  9
$HANDSEED
  5
70
  9
$SURFTAB1
 70
     6
  9
$SURFTAB2
 70
     6
  9
$SURFTYPE
 70
     6
  9
$SURFU
 70
     6
  9
$SURFV
 70
     6
  9
$UCSBASE
  2

  9
$UCSNAME
  2

  9
$UCSORG
 10
0.0
 20
0.0
 30
0.0
  9
$UCSXDIR
 10
1.0
 20
0.0
 30
0.0
  9
$UCSYDIR
 10
0.0
 20
1.0
 30
0.0
  9
$UCSORTHOREF
  2

  9
$UCSORTHOVIEW
 70
     0
  9
$UCSORGTOP
 10
0.0
 20
0.0
 30
0.0
  9
$UCSORGBOTTOM
 10
0.0
 20
0.0
 30
0.0
  9
$UCSORGLEFT
 10
0.0
 20
0.0
 30
0.0
  9
$UCSORGRIGHT
 10
0.0
 20
0.0
 30
0.0
  9
$UCSORGFRONT
 10
0.0
 20
0.0
 30
0.0
  9
$UCSORGBACK
 10
0.0
 20
0.0
 30
0.0
  9
$PUCSBASE
  2

  9
$PUCSNAME
  2

  9
$PUCSORG
 10
0.0
 20
0.0
 30
0.0
  9
$PUCSXDIR
 10
1.0
 20
0.0
 30
0.0
  9
$PUCSYDIR
 10
0.0
 20
1.0
 30
0.0
  9
$PUCSORTHOREF
  2

  9
$PUCSORTHOVIEW
 70
     0
  9
$PUCSORGTOP
 10
0.0
 20
0.0
 30
0.0
  9
$PUCSORGBOTTOM
 10
0.0
 20
0.0
 30
0.0
  9
$PUCSORGLEFT
 10
0.0
 20
0.0
 30
0.0
  9
$PUCSORGRIGHT
 10
0.0
 20
0.0
 30
0.0
  9
$PUCSORGFRONT
 10
0.0
 20
0.0
 30
0.0
  9
$PUCSORGBACK
 10
0.0
 20
0.0
 30
0.0
  9
$USERI1
 70
     0
  9
$USERI2
 70
     0
  9
$USERI3
 70
     0
  9
$USERI4
 70
     0
  9
$USERI5
 70
     0
  9
$USERR1
 40
0.0
  9
$USERR2
 40
0.0
  9
$USERR3
 40
0.0
  9
$USERR4
 40
0.0
  9
$USERR5
 40
0.0
  9
$WORLDVIEW
 70
     1
  9
$SHADEDGE
 70
     3
  9
$SHADEDIF
 70
    70
  9
$TILEMODE
 70
     1
  9
$MAXACTVP
 70
    64
  9
$PINSBASE
 10
0.0
 20
0.0
 30
0.0
  9
$PLIMCHECK
 70
     0
  9
$PEXTMIN
 10
1.000000000000000E+20
 20
1.000000000000000E+20
 30
1.000000000000000E+20
  9
$PEXTMAX
 10
-1.000000000000000E+20
 20
-1.000000000000000E+20
 30
-1.000000000000000E+20
  9
$PLIMMIN
 10
0.0
 20
0.0
  9
$PLIMMAX
 10
12.0
 20
9.0
  9
$UNITMODE
 70
     0
  9
$VISRETAIN
 70
     1
  9
$PLINEGEN
 70
     0
  9
$PSLTSCALE
 70
     1
  9
$TREEDEPTH
 70
  3020
  9
$CMLSTYLE
  2
Standard
  9
$CMLJUST
 70
     0
  9
$CMLSCALE
 40
1.0
  9
$PROXYGRAPHICS
 70
     1
  9
$MEASUREMENT
 70
     0
  9
$CELWEIGHT
370
    -1
  9
$ENDCAPS
280
     0
  9
$JOINSTYLE
280
     0
  9
$LWDISPLAY
290
     1
  9
$INSUNITS
 70
     4
  9
$HYPERLINKBASE
  1

  9
$STYLESHEET
  1

  9
$XEDIT
290
     1
  9
$CEPSNTYPE
380
     0
  9
$PSTYLEMODE
290
     1
  9
$FINGERPRINTGUID
  2
{B9D65011-FF21-67CD-5817-20153CD206C0}
  9
$VERSIONGUID
  2
{FAEB1C32-E019-11D5-929B-00C0DF256EC4}
  9
$EXTNAMES
290
     1
  9
$PSVPSCALE
 40
0.0
  9
$OLESTARTUP
290
     0
  9
$SORTENTS
280
   127
  9
$INDEXCTL
280
     0
  9
$HIDETEXT
280
     1
  9
$XCLIPFRAME
280
     2
  9
$HALOGAP
280
     0
  9
$OBSCOLOR
 70
   257
  9
$OBSLTYPE
280
     0
  9
$INTERSECTIONDISPLAY
280
     0
  9
$INTERSECTIONCOLOR
 70
   257
  9
$DIMASSOC
280
     2
  9
$PROJECTNAME
  1

  9
$CAMERADISPLAY
290
     0
  9
$LENSLENGTH
 40
50.0
  9
$CAMERAHEIGHT
 40
0.0
  9
$STEPSPERSEC
 40
2.0
  9
$STEPSIZE
 40
6.0
  9
$3DDWFPREC
 40
2.0
  9
$PSOLWIDTH
 40
0.25
  9
$PSOLHEIGHT
 40
4.0
  9
$LOFTANG1
 40
1.570796326794897
  9
$LOFTANG2
 40
1.570796326794897
  9
$LOFTMAG1
 40
0.0
  9
$LOFTMAG2
 40
0.0
  9
$LOFTPARAM
 70
     7
  9
$LOFTNORMALS
280
     1
  9
$LATITUDE
 40
37.795
  9
$LONGITUDE
 40
-122.394
  9
$NORTHDIRECTION
 40
0.0
  9
$TIMEZONE
 70
 -8000
  9
$LIGHTGLYPHDISPLAY
280
     1
  9
$TILEMODELIGHTSYNCH
280
     1
  9
$CMATERIAL
347
3C
  9
$SOLIDHIST
280
     1
  9
$SHOWHIST
280
     1
  9
$DWFFRAME
280
     2
  9
$DGNFRAME
280
     2
  9
$REALWORLDSCALE
290
     1
  9
$INTERFERECOLOR
 62
   256
  9
$CSHADOW
280
     0
  9
$SHADOWPLANELOCATION
 40
0.0
  0
ENDSEC
  0
SECTION
  2
CLASSES
  0
CLASS
  1
ACDBDICTIONARYWDFLT
  2
AcDbDictionaryWithDefault
  3
ObjectDBX Classes
 90
        0
 91
        4
280
     0
281
     0
  0
CLASS
  1
VISUALSTYLE
  2
AcDbVisualStyle
  3
ObjectDBX Classes
 90
     4095
 91
        4
280
     0
281
     0
  0
CLASS
  1
MATERIAL
  2
AcDbMaterial
  3
ObjectDBX Classes
 90
     1153
 91
        4
280
     0
281
     0
  0
CLASS
  1
SUN
  2
AcDbSun
  3
SCENEOE
 90
     1024
 91
        4
280
     0
281
     0
  0
ENDSEC
  0
SECTION
  2
TABLES
  0
TABLE
  2
VPORT
  5
8
330
0
100
AcDbSymbolTable
 70
     1
  0
VPORT
  5
29
330
8
100
AcDbSymbolTableRecord
100
AcDbViewportTableRecord
  2
*Active
 70
     0
 10
0.0
 20
0.0
 11
1.0
 21
1.0
 12
0.0
 22
0.0
 13
0.0
 23
0.0
 14
0.5
 24
0.5
 15
0.5
 25
0.5
 16
0.0
 26
0.0
 36
1.0
 17
49.694066111539
 27
53.57088899481425
 37
0.0
 40
219.7099222496378
 41
2.360424028268548
 42
50.0
 43
0.0
 44
0.0
 50
0.0
 51
0.0
 71
     0
 72
   100
 73
     1
 74
     3
 75
     0
 76
     0
 77
     0
 78
     0
281
     0
 65
     1
110
0.0
120
0.0
130
0.0
111
1.0
121
0.0
131
0.0
112
0.0
122
1.0
132
0.0
 79
     0
146
0.0
 60
     3
 61
     5
292
     1
282
     1
141
0.0
142
0.0
 63
   250
361
3F
  0
ENDTAB
  0
TABLE
  2
LTYPE
  5
5
330
0
100
AcDbSymbolTable
 70
     1
  0
LTYPE
  5
14
330
5
100
AcDbSymbolTableRecord
100
AcDbLinetypeTableRecord
  2
ByBlock
 70
     0
  3

 72
    65
 73
     0
 40
0.0
  0
LTYPE
  5
15
330
5
100
AcDbSymbolTableRecord
100
AcDbLinetypeTableRecord
  2
ByLayer
 70
     0
  3

 72
    65
 73
     0
 40
0.0
  0
LTYPE
  5
16
330
5
100
AcDbSymbolTableRecord
100
AcDbLinetypeTableRecord
  2
Continuous
 70
     0
  3
Solid line
 72
    65
 73
     0
 40
0.0
  0
ENDTAB
  0
TABLE
  2
LAYER
  5
2
330
0
100
AcDbSymbolTable
 70
     2
  0
LAYER
  5
10
330
2
100
AcDbSymbolTableRecord
100
AcDbLayerTableRecord
  2
0
 70
     0
 62
     7
  6
Continuous
370
    -3
390
F
347
3E
  0
LAYER
  5
40
330
2
100
AcDbSymbolTableRecord
100
AcDbLayerTableRecord
  2
Layer 1
 70
     0
 62
     7
  6
Continuous
370
    -3
390
F
347
3E
  0
ENDTAB
  0
TABLE
  2
STYLE
  5
3
330
0
100
AcDbSymbolTable
 70
     1
  0
STYLE
  5
11
330
3
100
AcDbSymbolTableRecord
100
AcDbTextStyleTableRecord
  2
Standard
 70
     0
 40
0.0
 41
1.0
 50
0.0
 71
     0
 42
0.2
  3
txt
  4

  0
ENDTAB
  0
TABLE
  2
VIEW
  5
6
330
0
100
AcDbSymbolTable
 70
     0
  0
ENDTAB
  0
TABLE
  2
UCS
  5
7
330
0
100
AcDbSymbolTable
 70
     0
  0
ENDTAB
  0
TABLE
  2
APPID
  5
9
330
0
100
AcDbSymbolTable
 70
     1
  0
APPID
  5
12
330
9
100
AcDbSymbolTableRecord
100
AcDbRegAppTableRecord
  2
ACAD
 70
     0
  0
ENDTAB
  0
TABLE
  2
DIMSTYLE
  5
A
330
0
100
AcDbSymbolTable
 70
     1
100
AcDbDimStyleTable
  0
DIMSTYLE
105
27
330
A
100
AcDbSymbolTableRecord
100
AcDbDimStyleTableRecord
  2
Standard
 70
     0
178
     0
340
11
  0
ENDTAB
  0
TABLE
  2
BLOCK_RECORD
  5
1
330
0
100
AcDbSymbolTable
 70
    10
  0
BLOCK_RECORD
  5
1F
330
1
100
AcDbSymbolTableRecord
100
AcDbBlockTableRecord
  2
*Model_Space
340
22
 70
     0
280
     1
281
     0
  0
BLOCK_RECORD
  5
1B
330
1
100
AcDbSymbolTableRecord
100
AcDbBlockTableRecord
  2
*Paper_Space
340
1E
 70
     0
280
     1
281
     0
  0
BLOCK_RECORD
  5
23
330
1
100
AcDbSymbolTableRecord
100
AcDbBlockTableRecord
  2
*Paper_Space0
340
26
 70
     0
280
     1
281
     0
  0
BLOCK_RECORD
  5
41
330
1
100
AcDbSymbolTableRecord
100
AcDbBlockTableRecord
  2
block 2
340
0
102
{BLKREFS
331
42
102
}
 70
     0
280
     1
281
     0
  0
BLOCK_RECORD
  5
45
330
1
100
AcDbSymbolTableRecord
100
AcDbBlockTableRecord
  2
block 3
340
0
102
{BLKREFS
331
46
102
}
 70
     0
280
     1
281
     0
  0
BLOCK_RECORD
  5
4A
330
1
100
AcDbSymbolTableRecord
100
AcDbBlockTableRecord
  2
block 4
340
0
102
{BLKREFS
331
4B
102
}
 70
     0
280
     1
281
     0
  0
BLOCK_RECORD
  5
4E
330
1
100
AcDbSymbolTableRecord
100
AcDbBlockTableRecord
  2
block 5
340
0
102
{BLKREFS
331
4F
102
}
 70
     0
280
     1
281
     0
  0
BLOCK_RECORD
  5
52
330
1
100
AcDbSymbolTableRecord
100
AcDbBlockTableRecord
  2
block 6
340
0
102
{BLKREFS
331
53
102
}
 70
     0
280
     1
281
     0
  0
BLOCK_RECORD
  5
5A
330
1
100
AcDbSymbolTableRecord
100
AcDbBlockTableRecord
  2
block 7
340
0
102
{BLKREFS
331
5B
102
}
 70
     0
280
     1
281
     0
  0
BLOCK_RECORD
  5
5F
330
1
100
AcDbSymbolTableRecord
100
AcDbBlockTableRecord
  2
block 8
340
0
102
{BLKREFS
331
60
102
}
 70
     0
280
     1
281
     0
  0
BLOCK_RECORD
  5
64
330
1
100
AcDbSymbolTableRecord
100
AcDbBlockTableRecord
  2
block 9
340
0
102
{BLKREFS
331
65
102
}
 70
     0
280
     1
281
     0
  0
BLOCK_RECORD
  5
69
330
1
100
AcDbSymbolTableRecord
100
AcDbBlockTableRecord
  2
block 10
340
0
102
{BLKREFS
331
6A
102
}
 70
     0
280
     1
281
     0
  0
ENDTAB
  0
ENDSEC
  0
SECTION
  2
BLOCKS
  0
BLOCK
  5
20
330
1F
100
AcDbEntity
  8
0
100
AcDbBlockBegin
  2
*Model_Space
 70
     0
 10
0.0
 20
0.0
 30
0.0
  3
*Model_Space
  1

  0
ENDBLK
  5
21
330
1F
100
AcDbEntity
  8
0
100
AcDbBlockEnd
  0
BLOCK
  5
1C
330
1B
100
AcDbEntity
 67
     1
  8
0
100
AcDbBlockBegin
  2
*Paper_Space
 70
     0
 10
0.0
 20
0.0
 30
0.0
  3
*Paper_Space
  1

  0
ENDBLK
  5
1D
330
1B
100
AcDbEntity
 67
     1
  8
0
100
AcDbBlockEnd
  0
BLOCK
  5
24
330
23
100
AcDbEntity
  8
0
100
AcDbBlockBegin
  2
*Paper_Space0
 70
     0
 10
0.0
 20
0.0
 30
0.0
  3
*Paper_Space0
  1

  0
ENDBLK
  5
25
330
23
100
AcDbEntity
  8
0
100
AcDbBlockEnd
  0
BLOCK
  5
43
330
41
100
AcDbEntity
  8
0
100
AcDbBlockBegin
  2
block 2
 70
     0
 10
0.0
 20
0.0
 30
0.0
  3
block 2
  1

  0
INSERT
  5
46
330
41
100
AcDbEntity
  8
Layer 1
100
AcDbBlockReference
  2
block 3
 10
0.0
 20
0.0
 30
0.0
  0
ENDBLK
  5
44
330
41
100
AcDbEntity
  8
0
100
AcDbBlockEnd
  0
BLOCK
  5
47
330
45
100
AcDbEntity
  8
0
100
AcDbBlockBegin
  2
block 3
 70
     0
 10
0.0
 20
0.0
 30
0.0
  3
block 3
  1

  0
SPLINE
  5
49
330
45
100
AcDbEntity
  8
Layer 1
 62
   158
420
  1121832
370
    18
100
AcDbSpline
210
0.0
220
0.0
230
1.0
 70
    11
 71
     3
 72
   338
 73
   334
 74
     0
 42
0.0000000001
 43
0.0000000001
 12
1.0
 22
0.0
 32
0.0
 13
1.0
 23
0.0
 33
0.0
 40
0.0
 40
0.0
 40
0.0
 40
0.0
 40
1.0
 40
1.0
 40
1.0
 40
2.0
 40
2.0
 40
2.0
 40
3.0
 40
3.0
 40
3.0
 40
4.0
 40
4.0
 40
4.0
 40
5.0
 40
5.0
 40
5.0
 40
6.0
 40
6.0
 40
6.0
 40
7.0
 40
7.0
 40
7.0
 40
8.0
 40
8.0
 40
8.0
 40
9.0
 40
9.0
 40
9.0
 40
10.0
 40
10.0
 40
10.0
 40
11.0
 40
11.0
 40
11.0
 40
12.0
 40
12.0
 40
12.0
 40
13.0
 40
13.0
 40
13.0
 40
14.0
 40
14.0
 40
14.0
 40
15.0
 40
15.0
 40
15.0
 40
16.0
 40
16.0
 40
16.0
 40
17.0
 40
17.0
 40
17.0
 40
18.0
 40
18.0
 40
18.0
 40
19.0
 40
19.0
 40
19.0
 40
20.0
 40
20.0
 40
20.0
 40
21.0
 40
21.0
 40
21.0
 40
22.0
 40
22.0
 40
22.0
 40
23.0
 40
23.0
 40
23.0
 40
24.0
 40
24.0
 40
24.0
 40
25.0
 40
25.0
 40
25.0
 40
26.0
 40
26.0
 40
26.0
 40
27.0
 40
27.0
 40
27.0
 40
28.0
 40
28.0
 40
28.0
 40
29.0
 40
29.0
 40
29.0
 40
30.0
 40
30.0
 40
30.0
 40
31.0
 40
31.0
 40
31.0
 40
32.0
 40
32.0
 40
32.0
 40
33.0
 40
33.0
 40
33.0
 40
34.0
 40
34.0
 40
34.0
 40
35.0
 40
35.0
 40
35.0
 40
36.0
 40
36.0
 40
36.0
 40
37.0
 40
37.0
 40
37.0
 40
38.0
 40
38.0
 40
38.0
 40
39.0
 40
39.0
 40
39.0
 40
40.0
 40
40.0
 40
40.0
 40
41.0
 40
41.0
 40
41.0
 40
42.0
 40
42.0
 40
42.0
 40
43.0
 40
43.0
 40
43.0
 40
44.0
 40
44.0
 40
44.0
 40
45.0
 40
45.0
 40
45.0
 40
46.0
 40
46.0
 40
46.0
 40
47.0
 40
47.0
 40
47.0
 40
48.0
 40
48.0
 40
48.0
 40
49.0
 40
49.0
 40
49.0
 40
50.0
 40
50.0
 40
50.0
 40
51.0
 40
51.0
 40
51.0
 40
52.0
 40
52.0
 40
52.0
 40
53.0
 40
53.0
 40
53.0
 40
54.0
 40
54.0
 40
54.0
 40
55.0
 40
55.0
 40
55.0
 40
56.0
 40
56.0
 40
56.0
 40
57.0
 40
57.0
 40
57.0
 40
58.0
 40
58.0
 40
58.0
 40
59.0
 40
59.0
 40
59.0
 40
60.0
 40
60.0
 40
60.0
 40
61.0
 40
61.0
 40
61.0
 40
62.0
 40
62.0
 40
62.0
 40
63.0
 40
63.0
 40
63.0
 40
64.0
 40
64.0
 40
64.0
 40
65.0
 40
65.0
 40
65.0
 40
66.0
 40
66.0
 40
66.0
 40
67.0
 40
67.0
 40
67.0
 40
68.0
 40
68.0
 40
68.0
 40
69.0
 40
69.0
 40
69.0
 40
70.0
 40
70.0
 40
70.0
 40
71.0
 40
71.0
 40
71.0
 40
72.0
 40
72.0
 40
72.0
 40
73.0
 40
73.0
 40
73.0
 40
74.0
 40
74.0
 40
74.0
 40
75.0
 40
75.0
 40
75.0
 40
76.0
 40
76.0
 40
76.0
 40
77.0
 40
77.0
 40
77.0
 40
78.0
 40
78.0
 40
78.0
 40
79.0
 40
79.0
 40
79.0
 40
80.0
 40
80.0
 40
80.0
 40
81.0
 40
81.0
 40
81.0
 40
82.0
 40
82.0
 40
82.0
 40
83.0
 40
83.0
 40
83.0
 40
84.0
 40
84.0
 40
84.0
 40
85.0
 40
85.0
 40
85.0
 40
86.0
 40
86.0
 40
86.0
 40
87.0
 40
87.0
 40
87.0
 40
88.0
 40
88.0
 40
88.0
 40
89.0
 40
89.0
 40
89.0
 40
90.0
 40
90.0
 40
90.0
 40
91.0
 40
91.0
 40
91.0
 40
92.0
 40
92.0
 40
92.0
 40
93.0
 40
93.0
 40
93.0
 40
94.0
 40
94.0
 40
94.0
 40
95.0
 40
95.0
 40
95.0
 40
96.0
 40
96.0
 40
96.0
 40
97.0
 40
97.0
 40
97.0
 40
98.0
 40
98.0
 40
98.0
 40
99.0
 40
99.0
 40
99.0
 40
100.0
 40
100.0
 40
100.0
 40
101.0
 40
101.0
 40
101.0
 40
102.0
 40
102.0
 40
102.0
 40
103.0
 40
103.0
 40
103.0
 40
104.0
 40
104.0
 40
104.0
 40
105.0
 40
105.0
 40
105.0
 40
106.0
 40
106.0
 40
106.0
 40
107.0
 40
107.0
 40
107.0
 40
108.0
 40
108.0
 40
108.0
 40
109.0
 40
109.0
 40
109.0
 40
110.0
 40
110.0
 40
110.0
 40
111.0
 40
111.0
 40
111.0
 40
111.0
 10
-31.89816062977503
 20
130.2604598673372
 30
0.0
 10
-31.89816062977503
 20
130.2604598673372
 30
0.0
 10
-188.9971631743219
 20
130.2604598673372
 30
0.0
 10
-188.9971631743219
 20
130.2604598673372
 30
0.0
 10
-189.1100546470042
 20
130.2604598673372
 30
0.0
 10
-189.2229461196865
 20
130.2569286444649
 30
0.0
 10
-189.3358375923687
 20
130.2428252848221
 30
0.0
 10
-189.3640443116542
 20
130.2428252848221
 30
0.0
 10
-189.3887413399141
 20
130.2392940619497
 30
0.0
 10
-189.4169695910464
 20
130.2357628390774
 30
0.0
 10
-189.5016328125964
 20
130.2251691704602
 30
0.0
 10
-189.5862960341464
 20
130.2110658108175
 30
0.0
 10
-189.6709592556964
 20
130.1969624511747
 30
0.0
 10
-189.7415191176037
 20
130.1828375596852
 30
0.0
 10
-189.8156102023833
 20
130.1652029771701
 30
0.0
 10
-189.8896797553162
 20
130.1440371717826
 30
0.0
 10
-189.9426050347084
 20
130.1334650350122
 30
0.0
 10
-189.9955303141005
 20
130.1193401435227
 30
0.0
 10
-190.0449028387735
 20
130.1017055610076
 30
0.0
 10
-190.0978281181657
 20
130.0840709784924
 30
0.0
 10
-190.1542630885834
 20
130.0664363959773
 30
0.0
 10
-190.2107195908479
 20
130.0452705905898
 30
0.0
 10
-190.2636233383933
 20
130.0276144762279
 30
0.0
 10
-190.3165486177855
 20
130.0064486708404
 30
0.0
 10
-190.3694738971776
 20
129.9817516425805
 30
0.0
 10
-190.7786866452849
 20
129.8124251994805
 30
0.0
 10
-191.1596926741068
 20
129.5584355348304
 30
0.0
 10
-191.4913046464089
 20
129.2268235625284
 30
0.0
 10
-191.4913046464089
 20
129.2268235625284
 30
0.0
 10
-196.5712917260308
 20
124.1468149510597
 30
0.0
 10
-196.5712917260308
 20
124.1468149510597
 30
0.0
 10
-196.7759088660079
 20
123.9421978110826
 30
0.0
 10
-196.9522977548527
 20
123.7164363975648
 30
0.0
 10
-197.0934174786672
 20
123.4800597835831
 30
0.0
 10
-197.1110520611823
 20
123.4518530642976
 30
0.0
 10
-197.1286866436974
 20
123.4236248131654
 30
0.0
 10
-197.1427900033402
 20
123.3953965620331
 30
0.0
 10
-197.2133498652475
 20
123.2754641754528
 30
0.0
 10
-197.2733375903844
 20
123.1519790341534
 30
0.0
 10
-197.3262413379297
 20
123.0249842018284
 30
0.0
 10
-197.3509383661896
 20
122.9720589224362
 30
0.0
 10
-197.3721041715771
 20
122.9191551748909
 30
0.0
 10
-197.3897387540922
 20
122.8662298954987
 30
0.0
 10
-197.4109045594797
 20
122.8133261479534
 30
0.0
 10
-197.4285606738416
 20
122.7568696456888
 30
0.0
 10
-197.4461952563568
 20
122.7004346752711
 30
0.0
 10
-197.4638298388719
 20
122.6510406187513
 30
0.0
 10
-197.4779331985146
 20
122.5981153393592
 30
0.0
 10
-197.4885268671318
 20
122.5452115918138
 30
0.0
 10
-197.5096926725193
 20
122.4746517299065
 30
0.0
 10
-197.523796032162
 20
122.4005606451269
 30
0.0
 10
-197.5414306146772
 20
122.326491092194
 30
0.0
 10
-197.5555555061667
 20
122.2453375616696
 30
0.0
 10
-197.5696588658094
 20
122.1606743401196
 30
0.0
 10
-197.5802525344266
 20
122.0724798956972
 30
0.0
 10
-197.5837622254521
 20
122.0442516445649
 30
0.0
 10
-197.5872934483245
 20
122.0195761481518
 30
0.0
 10
-197.5872934483245
 20
121.9913478970195
 30
0.0
 10
-197.5978871169417
 20
121.8784564243372
 30
0.0
 10
-197.6049495626864
 20
121.765564951655
 30
0.0
 10
-197.6049495626864
 20
121.6526734789727
 30
0.0
 10
-197.6049495626864
 20
121.6526734789727
 30
0.0
 10
-197.6049495626864
 20
42.15067866649141
 30
0.0
 10
-197.6049495626864
 20
42.15067866649141
 30
0.0
 10
-197.6049495626864
 20
42.03778719380913
 30
0.0
 10
-197.5978871169417
 20
41.92136449825447
 30
0.0
 10
-197.5872934483245
 20
41.81200424844457
 30
0.0
 10
-197.5872934483245
 20
41.78379752915909
 30
0.0
 10
-197.5837622254521
 20
41.7591005008992
 30
0.0
 10
-197.5802525344266
 20
41.73087224976694
 30
0.0
 10
-197.5696588658094
 20
41.64267780534454
 30
0.0
 10
-197.5555555061667
 20
41.55801458379452
 30
0.0
 10
-197.5414306146772
 20
41.47688258511689
 30
0.0
 10
-197.5273272550344
 20
41.40279150033724
 30
0.0
 10
-197.5096926725193
 20
41.32870041555758
 30
0.0
 10
-197.4885268671318
 20
41.25814055365031
 30
0.0
 10
-197.4779331985146
 20
41.20523680610494
 30
0.0
 10
-197.4638298388719
 20
41.15231152671279
 30
0.0
 10
-197.4461952563568
 20
41.1029390020398
 30
0.0
 10
-197.4285606738416
 20
41.04648249977527
 30
0.0
 10
-197.4109045594797
 20
40.99355722038312
 30
0.0
 10
-197.3897387540922
 20
40.93712224996538
 30
0.0
 10
-197.3721041715771
 20
40.88419697057322
 30
0.0
 10
-197.3509383661896
 20
40.83129322302786
 30
0.0
 10
-197.3262413379297
 20
40.77836794363571
 30
0.0
 10
-197.1498524490849
 20
40.35503030403885
 30
0.0
 10
-196.8923315615625
 20
39.97757702993616
 30
0.0
 10
-196.5712917260308
 20
39.65653719440444
 30
0.0
 10
-196.5712917260308
 20
39.65653719440444
 30
0.0
 10
-192.7789306158678
 20
35.86417608424142
 30
0.0
 10
-192.7789306158678
 20
35.86417608424142
 30
0.0
 10
-192.7789306158678
 20
35.86417608424142
 30
0.0
 10
-192.7789306158678
 20
23.10067867125391
 30
0.0
 10
-192.7789306158678
 20
23.10067867125391
 30
0.0
 10
-192.7789306158678
 20
21.15333844821644
 30
0.0
 10
-191.1984930620094
 20
19.57290089435808
 30
0.0
 10
-189.2511528389719
 20
19.57290089435808
 30
0.0
 10
-189.2511528389719
 20
19.57290089435808
 30
0.0
 10
-151.1511528484969
 20
19.57290089435808
 30
0.0
 10
-151.1511528484969
 20
19.57290089435808
 30
0.0
 10
-151.0347516847891
 20
19.57290089435808
 30
0.0
 10
-150.9218602121068
 20
19.57996334010284
 30
0.0
 10
-150.8124999622969
 20
19.5905354768732
 30
0.0
 10
-150.7842717111646
 20
19.5905354768732
 30
0.0
 10
-150.7595746829047
 20
19.59406669974558
 30
0.0
 10
-150.7313464317725
 20
19.59759792261796
 30
0.0
 10
-150.6431519873501
 20
19.60817005938832
 30
0.0
 10
-150.5584887658001
 20
19.62229495087785
 30
0.0
 10
-150.4773567671224
 20
19.63639831052059
 30
0.0
 10
-150.4597221846073
 20
19.63992953339297
 30
0.0
 10
-150.4420876020922
 20
19.64346075626535
 30
0.0
 10
-150.4279627106027
 20
19.64699197913773
 30
0.0
 10
-150.3150712379204
 20
19.67168900739762
 30
0.0
 10
-150.2092422109829
 20
19.6998957266831
 30
0.0
 10
-150.1034131840453
 20
19.73165520068775
 30
0.0
 10
-150.0469566817808
 20
19.74928978320287
 30
0.0
 10
-149.990521711363
 20
19.76692436571799
 30
0.0
 10
-149.9375964319709
 20
19.78809017110549
 30
0.0
 10
-149.8846926844255
 20
19.80572475362062
 30
0.0
 10
-149.8317674050334
 20
19.82689055900812
 30
0.0
 10
-149.778863657488
 20
19.85158758726801
 30
0.0
 10
-149.7224071552235
 20
19.87275339265551
 30
0.0
 10
-149.6730130987037
 20
19.89745042091539
 30
0.0
 10
-149.6236405740307
 20
19.92214744917528
 30
0.0
 10
-149.5707152946386
 20
19.94684447743516
 30
0.0
 10
-149.5213212381188
 20
19.97154150569505
 30
0.0
 10
-149.4684174905734
 20
19.99976975682732
 30
0.0
 10
-149.2743940192135
 20
20.10559878376483
 30
0.0
 10
-149.090942684624
 20
20.22553117034509
 30
0.0
 10
-148.9251259325495
 20
20.36665089415964
 30
0.0
 10
-148.8827943217745
 20
20.39841036816429
 30
0.0
 10
-148.8439939338719
 20
20.43014831032215
 30
0.0
 10
-148.8051935459693
 20
20.46894869822478
 30
0.0
 10
-148.7522682665771
 20
20.51128030899978
 30
0.0
 10
-148.7028742100574
 20
20.55714314264717
 30
0.0
 10
-148.6570329082568
 20
20.60653719916694
 30
0.0
 10
-148.6570329082568
 20
20.60653719916694
 30
0.0
 10
-145.3726511273938
 20
23.89089744818309
 30
0.0
 10
-145.3726511273938
 20
23.89089744818309
 30
0.0
 10
-145.3726511273938
 20
23.89089744818309
 30
0.0
 10
-132.1011528532594
 20
23.89089744818309
 30
0.0
 10
-132.1011528532594
 20
23.89089744818309
 30
0.0
 10
-131.9847516895516
 20
23.89089744818309
 30
0.0
 10
-131.8718602168693
 20
23.89795989392785
 30
0.0
 10
-131.7624999670594
 20
23.90853203069821
 30
0.0
 10
-131.7342717159271
 20
23.90853203069821
 30
0.0
 10
-131.7095746876672
 20
23.9120632535706
 30
0.0
 10
-131.681346436535
 20
23.91559447644298
 30
0.0
 10
-131.5931519921126
 20
23.92618814506012
 30
0.0
 10
-131.5084887705626
 20
23.94029150470286
 30
0.0
 10
-131.4273567718849
 20
23.95439486434561
 30
0.0
 10
-131.4097221893698
 20
23.95792608721798
 30
0.0
 10
-131.3920876068547
 20
23.96145731009037
 30
0.0
 10
-131.3779627153652
 20
23.96498853296275
 30
0.0
 10
-131.2650712426829
 20
23.98968556122263
 30
0.0
 10
-131.1592422157454
 20
24.01789228050811
 30
0.0
 10
-131.0534131888078
 20
24.04965175451276
 30
0.0
 10
-130.9969566865433
 20
24.06728633702788
 30
0.0
 10
-130.9405217161255
 20
24.08492091954301
 30
0.0
 10
-130.8875964367334
 20
24.10608672493051
 30
0.0
 10
-130.834692689188
 20
24.12374283929242
 30
0.0
 10
-130.7817674097959
 20
24.14490864467992
 30
0.0
 10
-130.7288636622505
 20
24.16960567293981
 30
0.0
 10
-130.672407159986
 20
24.19077147832731
 30
0.0
 10
-130.6230131034662
 20
24.21544697474041
 30
0.0
 10
-130.5736405787932
 20
24.2401440030003
 30
0.0
 10
-130.5207152994011
 20
24.26484103126018
 30
0.0
 10
-130.4713212428813
 20
24.28953805952007
 30
0.0
 10
-130.4184174953359
 20
24.31776631065233
 30
0.0
 10
-130.3654922159438
 20
24.3459945617846
 30
0.0
 10
-130.316098159424
 20
24.37420128107008
 30
0.0
 10
-130.266725634751
 20
24.40596075507473
 30
0.0
 10
-130.2208628011036
 20
24.43418900620699
 30
0.0
 10
-130.1749999674562
 20
24.46239572549247
 30
0.0
 10
-130.1291371338089
 20
24.49415519949712
 30
0.0
 10
-130.0233081068714
 20
24.5647150614044
 30
0.0
 10
-129.9209887709594
 20
24.64231583720965
 30
0.0
 10
-129.825753412639
 20
24.72344783588728
 30
0.0
 10
-129.748131104987
 20
24.78696678389657
 30
0.0
 10
-129.6775712430797
 20
24.85397389108469
 30
0.0
 10
-129.6070329130193
 20
24.92453375299196
 30
0.0
 10
-129.6070329130193
 20
24.92453375299196
 30
0.0
 10
-129.6035016901469
 20
24.92453375299196
 30
0.0
 10
-129.6035016901469
 20
24.92453375299196
 30
0.0
 10
-129.6035016901469
 20
24.92453375299196
 30
0.0
 10
-128.1006649120938
 20
26.43090175391745
 30
0.0
 10
-128.1006649120938
 20
26.43090175391745
 30
0.0
 10
-128.1006649120938
 20
26.43090175391745
 30
0.0
 10
-119.8562499700359
 20
26.43090175391745
 30
0.0
 10
-119.8562499700359
 20
26.43090175391745
 30
0.0
 10
-119.8562499700359
 20
26.43090175391745
 30
0.0
 10
-98.78481866698132
 20
20.82878892165912
 30
0.0
 10
-98.78481866698132
 20
20.82878892165912
 30
0.0
 10
-98.78481866698132
 20
20.82878892165912
 30
0.0
 10
-57.85555554109167
 20
-2.775562709538314
 30
0.0
 10
-57.85555554109167
 20
-2.775562709538314
 30
0.0
 10
-57.85555554109167
 20
-2.775562709538314
 30
0.0
 10
-57.78852690205678
 20
-2.814363097440941
 30
0.0
 10
-57.78852690205678
 20
-2.814363097440941
 30
0.0
 10
-57.7179670401495
 20
-2.85318501719035
 30
0.0
 10
-57.65093840111462
 20
-2.891985405092976
 30
0.0
 10
-57.57684731633496
 20
-2.927254570123221
 30
0.0
 10
-57.50630898627447
 20
-2.962545267000249
 30
0.0
 10
-57.43574912436719
 20
-2.994283209158113
 30
0.0
 10
-57.36518926245992
 20
-3.022511460290379
 30
0.0
 10
-57.29109817768027
 20
-3.054270934295026
 30
0.0
 10
-57.22055984761977
 20
-3.078946430708128
 30
0.0
 10
-57.14646876284012
 20
-3.103643458968013
 30
0.0
 10
-57.07944012380523
 20
-3.128340487227898
 30
0.0
 10
-57.00888026189796
 20
-3.149506292615401
 30
0.0
 10
-56.93832039999068
 20
-3.167140875130524
 30
0.0
 10
-56.81485679053804
 20
-3.202431572007552
 30
0.0
 10
-56.6913931810854
 20
-3.227128600267437
 30
0.0
 10
-56.56437681691359
 20
-3.244763182782559
 30
0.0
 10
-56.52204520613859
 20
-3.251825628527321
 30
0.0
 10
-56.4761823724912
 20
-3.258866542425301
 30
0.0
 10
-56.43031953884381
 20
-3.262397765297682
 30
0.0
 10
-56.37388456842606
 20
-3.269460211042444
 30
0.0
 10
-56.31744959800832
 20
-3.276501124940423
 30
0.0
 10
-56.2574618728714
 20
-3.280032347812805
 30
0.0
 10
-56.2574618728714
 20
-3.280032347812805
 30
0.0
 10
-56.2574618728714
 20
-3.280032347812805
 30
0.0
 10
-56.25393064999902
 20
-3.280032347812805
 30
0.0
 10
-56.18339231993853
 20
-3.283563570685186
 30
0.0
 10
-56.10930123515887
 20
-3.287094793557567
 30
0.0
 10
-56.0387413732516
 20
-3.287094793557567
 30
0.0
 10
-56.03521015037922
 20
-3.287094793557567
 30
0.0
 10
-56.03521015037922
 20
-3.287094793557567
 30
0.0
 10
-56.03167892750684
 20
-3.287094793557567
 30
0.0
 10
-56.03167892750684
 20
-3.287094793557567
 30
0.0
 10
-56.02816923648124
 20
-3.287094793557567
 30
0.0
 10
-56.02816923648124
 20
-3.287094793557567
 30
0.0
 10
-56.00700343109374
 20
-3.287094793557567
 30
0.0
 10
-55.98934731673183
 20
-3.287094793557567
 30
0.0
 10
-55.96818151134433
 20
-3.283563570685186
 30
0.0
 10
-55.96467182031873
 20
-3.287094793557567
 30
0.0
 10
-55.96114059744635
 20
-3.287094793557567
 30
0.0
 10
-55.95760937457397
 20
-3.287094793557567
 30
0.0
 10
-55.95760937457397
 20
-3.287094793557567
 30
0.0
 10
-55.95407815170159
 20
-3.287094793557567
 30
0.0
 10
-55.9505469288292
 20
-3.283563570685186
 30
0.0
 10
-55.93644356918647
 20
-3.287094793557567
 30
0.0
 10
-55.91880898667134
 20
-3.287094793557567
 30
0.0
 10
-55.90468409518182
 20
-3.287094793557567
 30
0.0
 10
-55.90468409518182
 20
-3.287094793557567
 30
0.0
 10
-55.90115287230944
 20
-3.287094793557567
 30
0.0
 10
-55.90115287230944
 20
-3.287094793557567
 30
0.0
 10
-55.82708331937656
 20
-3.287094793557567
 30
0.0
 10
-55.74946101172453
 20
-3.283563570685186
 30
0.0
 10
-55.67539145879166
 20
-3.280032347812805
 30
0.0
 10
-55.67539145879166
 20
-3.280032347812805
 30
0.0
 10
-55.65773534442975
 20
-3.280032347812805
 30
0.0
 10
-55.65773534442975
 20
-3.280032347812805
 30
0.0
 10
-55.60483159688439
 20
-3.276501124940423
 30
0.0
 10
-55.55190631749223
 20
-3.269460211042444
 30
0.0
 10
-55.49900256994687
 20
-3.262397765297682
 30
0.0
 10
-55.40374567977971
 20
-3.25533531955292
 30
0.0
 10
-55.31202001248493
 20
-3.237700737037797
 30
0.0
 10
-55.22382556806254
 20
-3.220066154522675
 30
0.0
 10
-55.16032815190002
 20
-3.209472485905531
 30
0.0
 10
-55.10036195860989
 20
-3.19536912626279
 30
0.0
 10
-55.03686454244738
 20
-3.177734543747667
 30
0.0
 10
-54.99804262269797
 20
-3.170672098002905
 30
0.0
 10
-54.96277345766773
 20
-3.160099961232544
 30
0.0
 10
-54.92750429263749
 20
-3.149506292615401
 30
0.0
 10
-54.87811023611771
 20
-3.13540293297266
 30
0.0
 10
-54.83224740247032
 20
-3.121278041483135
 30
0.0
 10
-54.78638456882294
 20
-3.103643458968013
 30
0.0
 10
-54.72641837553281
 20
-3.08600887645289
 30
0.0
 10
-54.6629209593703
 20
-3.061311848193006
 30
0.0
 10
-54.60646445710577
 20
-3.040146042805502
 30
0.0
 10
-54.15138887535105
 20
-2.86375715396071
 30
0.0
 10
-53.74568581826931
 20
-2.592111374948761
 30
0.0
 10
-53.40703293206925
 20
-2.253458488748701
 30
0.0
 10
-53.32587940154483
 20
-2.175836181096666
 30
0.0
 10
-53.24827862573958
 20
-2.091172959546651
 30
0.0
 10
-53.17771876383231
 20
-2.002978515124255
 30
0.0
 10
-53.14244959880207
 20
-1.960646904349248
 30
0.0
 10
-53.10715890192503
 20
-1.91478407070186
 30
0.0
 10
-53.07542095976717
 20
-1.868921237054471
 30
0.0
 10
-53.0048610978599
 20
-1.780726792632075
 30
0.0
 10
-52.94136368169739
 20
-1.6854914343117
 30
0.0
 10
-52.88490717943286
 20
-1.586703321272161
 30
0.0
 10
-52.87080381979011
 20
-1.565537515884657
 30
0.0
 10
-52.85667892830059
 20
-1.540840487624773
 30
0.0
 10
-52.84257556865785
 20
-1.519674682237269
 30
0.0
 10
-52.84257556865785
 20
-1.519674682237269
 30
0.0
 10
-52.80024395788284
 20
-1.442073906432016
 30
0.0
 10
-52.80024395788284
 20
-1.442073906432016
 30
0.0
 10
-52.80024395788284
 20
-1.442073906432016
 30
0.0
 10
-28.83958332612344
 20
40.13630980441905
 30
0.0
 10
-28.83958332612344
 20
40.13630980441905
 30
0.0
 10
-28.82898965750629
 20
40.15747560980655
 30
0.0
 10
-28.81841752073593
 20
40.17513172416846
 30
0.0
 10
-28.80782385211879
 20
40.19629752955596
 30
0.0
 10
-28.79725171534843
 20
40.2104008891987
 30
0.0
 10
-28.79018926960367
 20
40.22450424884145
 30
0.0
 10
-28.78312682385891
 20
40.24216036320335
 30
0.0
 10
-28.75842979559902
 20
40.28449197397835
 30
0.0
 10
-28.73726399021152
 20
40.32682358475336
 30
0.0
 10
-28.7196294076964
 20
40.36915519552837
 30
0.0
 10
-28.69140115656413
 20
40.41854925204814
 30
0.0
 10
-28.66672566015103
 20
40.47145299959351
 30
0.0
 10
-28.64906954578912
 20
40.52437827898566
 30
0.0
 10
-28.62439404937602
 20
40.57377233550543
 30
0.0
 10
-28.60673793501412
 20
40.6266760830508
 30
0.0
 10
-28.58557212962661
 20
40.67960136244295
 30
0.0
 10
-28.58204090675423
 20
40.68313258531533
 30
0.0
 10
-28.58204090675423
 20
40.68313258531533
 30
0.0
 10
-28.58557212962661
 20
40.68664227634093
 30
0.0
 10
-28.56440632423911
 20
40.73956755573308
 30
0.0
 10
-28.54677174172399
 20
40.79249283512523
 30
0.0
 10
-28.52913715920886
 20
40.84892780554298
 30
0.0
 10
-28.50797135382136
 20
40.91948766745025
 30
0.0
 10
-28.48680554843386
 20
40.98651630648514
 30
0.0
 10
-28.46917096591873
 20
41.05707616839242
 30
0.0
 10
-28.44800516053123
 20
41.14878030384041
 30
0.0
 10
-28.43034904616932
 20
41.24050597113519
 30
0.0
 10
-28.4127144636542
 20
41.33223163842997
 30
0.0
 10
-28.40214232688384
 20
41.39926027746485
 30
0.0
 10
-28.39507988113908
 20
41.46628891649975
 30
0.0
 10
-28.38801743539432
 20
41.53684877840702
 30
0.0
 10
-28.38097652149634
 20
41.59681497169715
 30
0.0
 10
-28.37744529862396
 20
41.65678116498728
 30
0.0
 10
-28.37391407575157
 20
41.71676889012419
 30
0.0
 10
-28.37038285287919
 20
41.77673508341432
 30
0.0
 10
-28.37038285287919
 20
41.83670127670445
 30
0.0
 10
-28.37038285287919
 20
41.89668900184137
 30
0.0
 10
-28.37038285287919
 20
41.89668900184137
 30
0.0
 10
-28.37038285287919
 20
126.7326820904414
 30
0.0
 10
-28.37038285287919
 20
126.7326820904414
 30
0.0
 10
-28.37038285287919
 20
128.6800223134789
 30
0.0
 10
-29.94731071571196
 20
130.2604598673372
 30
0.0
 10
-31.89816062977503
 20
130.2604598673372
 30
0.0
  0
ENDBLK
  5
48
330
45
100
AcDbEntity
  8
0
100
AcDbBlockEnd
  0
BLOCK
  5
4C
330
4A
100
AcDbEntity
  8
0
100
AcDbBlockBegin
  2
block 4
 70
     0
 10
0.0
 20
0.0
 30
0.0
  3
block 4
  1

  0
ENDBLK
  5
4D
330
4A
100
AcDbEntity
  8
0
100
AcDbBlockEnd
  0
BLOCK
  5
50
330
4E
100
AcDbEntity
  8
0
100
AcDbBlockBegin
  2
block 5
 70
     0
 10
0.0
 20
0.0
 30
0.0
  3
block 5
  1

  0
INSERT
  5
53
330
4E
100
AcDbEntity
  8
Layer 1
100
AcDbBlockReference
  2
block 6
 10
0.0
 20
0.0
 30
0.0
  0
INSERT
  5
5B
330
4E
100
AcDbEntity
  8
Layer 1
100
AcDbBlockReference
  2
block 7
 10
0.0
 20
0.0
 30
0.0
  0
INSERT
  5
60
330
4E
100
AcDbEntity
  8
Layer 1
100
AcDbBlockReference
  2
block 8
 10
0.0
 20
0.0
 30
0.0
  0
INSERT
  5
65
330
4E
100
AcDbEntity
  8
Layer 1
100
AcDbBlockReference
  2
block 9
 10
0.0
 20
0.0
 30
0.0
  0
ENDBLK
  5
51
330
4E
100
AcDbEntity
  8
0
100
AcDbBlockEnd
  0
BLOCK
  5
54
330
52
100
AcDbEntity
  8
0
100
AcDbBlockBegin
  2
block 6
 70
     0
 10
0.0
 20
0.0
 30
0.0
  3
block 6
  1

  0
SPLINE
  5
56
330
52
100
AcDbEntity
  8
Layer 1
 62
   250
420
  3487016
370
    18
100
AcDbSpline
210
0.0
220
0.0
230
1.0
 70
    11
 71
     3
 72
   302
 73
   298
 74
     0
 42
0.0000000001
 43
0.0000000001
 12
1.0
 22
0.0
 32
0.0
 13
1.0
 23
0.0
 33
0.0
 40
0.0
 40
0.0
 40
0.0
 40
0.0
 40
1.0
 40
1.0
 40
1.0
 40
2.0
 40
2.0
 40
2.0
 40
3.0
 40
3.0
 40
3.0
 40
4.0
 40
4.0
 40
4.0
 40
5.0
 40
5.0
 40
5.0
 40
6.0
 40
6.0
 40
6.0
 40
7.0
 40
7.0
 40
7.0
 40
8.0
 40
8.0
 40
8.0
 40
9.0
 40
9.0
 40
9.0
 40
10.0
 40
10.0
 40
10.0
 40
11.0
 40
11.0
 40
11.0
 40
12.0
 40
12.0
 40
12.0
 40
13.0
 40
13.0
 40
13.0
 40
14.0
 40
14.0
 40
14.0
 40
15.0
 40
15.0
 40
15.0
 40
16.0
 40
16.0
 40
16.0
 40
17.0
 40
17.0
 40
17.0
 40
18.0
 40
18.0
 40
18.0
 40
19.0
 40
19.0
 40
19.0
 40
20.0
 40
20.0
 40
20.0
 40
21.0
 40
21.0
 40
21.0
 40
22.0
 40
22.0
 40
22.0
 40
23.0
 40
23.0
 40
23.0
 40
24.0
 40
24.0
 40
24.0
 40
25.0
 40
25.0
 40
25.0
 40
26.0
 40
26.0
 40
26.0
 40
27.0
 40
27.0
 40
27.0
 40
28.0
 40
28.0
 40
28.0
 40
29.0
 40
29.0
 40
29.0
 40
30.0
 40
30.0
 40
30.0
 40
31.0
 40
31.0
 40
31.0
 40
32.0
 40
32.0
 40
32.0
 40
33.0
 40
33.0
 40
33.0
 40
34.0
 40
34.0
 40
34.0
 40
35.0
 40
35.0
 40
35.0
 40
36.0
 40
36.0
 40
36.0
 40
37.0
 40
37.0
 40
37.0
 40
38.0
 40
38.0
 40
38.0
 40
39.0
 40
39.0
 40
39.0
 40
40.0
 40
40.0
 40
40.0
 40
41.0
 40
41.0
 40
41.0
 40
42.0
 40
42.0
 40
42.0
 40
43.0
 40
43.0
 40
43.0
 40
44.0
 40
44.0
 40
44.0
 40
45.0
 40
45.0
 40
45.0
 40
46.0
 40
46.0
 40
46.0
 40
47.0
 40
47.0
 40
47.0
 40
48.0
 40
48.0
 40
48.0
 40
49.0
 40
49.0
 40
49.0
 40
50.0
 40
50.0
 40
50.0
 40
51.0
 40
51.0
 40
51.0
 40
52.0
 40
52.0
 40
52.0
 40
53.0
 40
53.0
 40
53.0
 40
54.0
 40
54.0
 40
54.0
 40
55.0
 40
55.0
 40
55.0
 40
56.0
 40
56.0
 40
56.0
 40
57.0
 40
57.0
 40
57.0
 40
58.0
 40
58.0
 40
58.0
 40
59.0
 40
59.0
 40
59.0
 40
60.0
 40
60.0
 40
60.0
 40
61.0
 40
61.0
 40
61.0
 40
62.0
 40
62.0
 40
62.0
 40
63.0
 40
63.0
 40
63.0
 40
64.0
 40
64.0
 40
64.0
 40
65.0
 40
65.0
 40
65.0
 40
66.0
 40
66.0
 40
66.0
 40
67.0
 40
67.0
 40
67.0
 40
68.0
 40
68.0
 40
68.0
 40
69.0
 40
69.0
 40
69.0
 40
70.0
 40
70.0
 40
70.0
 40
71.0
 40
71.0
 40
71.0
 40
72.0
 40
72.0
 40
72.0
 40
73.0
 40
73.0
 40
73.0
 40
74.0
 40
74.0
 40
74.0
 40
75.0
 40
75.0
 40
75.0
 40
76.0
 40
76.0
 40
76.0
 40
77.0
 40
77.0
 40
77.0
 40
78.0
 40
78.0
 40
78.0
 40
79.0
 40
79.0
 40
79.0
 40
80.0
 40
80.0
 40
80.0
 40
81.0
 40
81.0
 40
81.0
 40
82.0
 40
82.0
 40
82.0
 40
83.0
 40
83.0
 40
83.0
 40
84.0
 40
84.0
 40
84.0
 40
85.0
 40
85.0
 40
85.0
 40
86.0
 40
86.0
 40
86.0
 40
87.0
 40
87.0
 40
87.0
 40
88.0
 40
88.0
 40
88.0
 40
89.0
 40
89.0
 40
89.0
 40
90.0
 40
90.0
 40
90.0
 40
91.0
 40
91.0
 40
91.0
 40
92.0
 40
92.0
 40
92.0
 40
93.0
 40
93.0
 40
93.0
 40
94.0
 40
94.0
 40
94.0
 40
95.0
 40
95.0
 40
95.0
 40
96.0
 40
96.0
 40
96.0
 40
97.0
 40
97.0
 40
97.0
 40
98.0
 40
98.0
 40
98.0
 40
99.0
 40
99.0
 40
99.0
 40
99.0
 10
293.7439348969959
 20
111.0446431200253
 30
0.0
 10
293.7368939830979
 20
111.1293278734221
 30
0.0
 10
293.7298315373532
 20
111.2139910949721
 30
0.0
 10
293.7192594005828
 20
111.2951230936497
 30
0.0
 10
293.7157281777104
 20
111.33039225868
 30
0.0
 10
293.712196954838
 20
111.365682955557
 30
0.0
 10
293.7051345090933
 20
111.4009521205873
 30
0.0
 10
293.6874999265781
 20
111.5173748161419
 30
0.0
 10
293.6663341211906
 20
111.6302662888242
 30
0.0
 10
293.634574647186
 20
111.7431577615065
 30
0.0
 10
293.6204712875432
 20
111.7995927319242
 30
0.0
 10
293.6063679279005
 20
111.8560492341888
 30
0.0
 10
293.5887118135386
 20
111.9124842046065
 30
0.0
 10
293.5710772310235
 20
111.9689191750243
 30
0.0
 10
293.5534426485083
 20
112.0218444544164
 30
0.0
 10
293.5322768431208
 20
112.0747697338086
 30
0.0
 10
293.5146422606057
 20
112.1312047042263
 30
0.0
 10
293.4934764552182
 20
112.1841299836185
 30
0.0
 10
293.4687794269583
 20
112.2370337311638
 30
0.0
 10
293.3347221488885
 20
112.5580735666956
 30
0.0
 10
293.1477395914266
 20
112.8614572878654
 30
0.0
 10
292.9149157321641
 20
113.1366127579029
 30
0.0
 10
292.8514183160016
 20
113.2107038426826
 30
0.0
 10
292.7843896769667
 20
113.2847949274622
 30
0.0
 10
292.7173610379318
 20
113.3518235664971
 30
0.0
 10
292.7138298150594
 20
113.3553547893695
 30
0.0
 10
292.7138298150594
 20
113.3553547893695
 30
0.0
 10
292.710298592187
 20
113.3588644803951
 30
0.0
 10
292.710298592187
 20
113.3588644803951
 30
0.0
 10
285.1573358458656
 20
120.8871517303034
 30
0.0
 10
285.1573358458656
 20
120.8871517303034
 30
0.0
 10
285.1573358458656
 20
120.8871517303034
 30
0.0
 10
285.1538046229932
 20
120.8906829531758
 30
0.0
 10
285.1538046229932
 20
120.8906829531758
 30
0.0
 10
284.8645242614662
 20
121.1799633147028
 30
0.0
 10
284.5399747349089
 20
121.4057247282206
 30
0.0
 10
284.1907281800916
 20
121.5715414802951
 30
0.0
 10
284.1413341235719
 20
121.5962385085549
 30
0.0
 10
284.0884088441798
 20
121.6209355368148
 30
0.0
 10
284.0355050966344
 20
121.6421013422023
 30
0.0
 10
283.8767507903047
 20
121.7091299812372
 30
0.0
 10
283.7144652611026
 20
121.765564951655
 30
0.0
 10
283.5451388180026
 20
121.80789656243
 30
0.0
 10
283.4992759843552
 20
121.8220214539195
 30
0.0
 10
283.4569443735802
 20
121.8325935906899
 30
0.0
 10
283.4110815399328
 20
121.8396560364346
 30
0.0
 10
283.3405216780255
 20
121.8572906189497
 30
0.0
 10
283.2699618161183
 20
121.8678627557201
 30
0.0
 10
283.1994234860578
 20
121.8784564243372
 30
0.0
 10
283.1641327891808
 20
121.885518870082
 30
0.0
 10
283.1288636241505
 20
121.8890500929544
 30
0.0
 10
283.0900632362479
 20
121.89255978398
 30
0.0
 10
283.0583037622433
 20
121.8996222297248
 30
0.0
 10
283.030075511111
 20
121.9031534525971
 30
0.0
 10
283.0018687918255
 20
121.9031534525971
 30
0.0
 10
282.8889773191432
 20
121.9137255893675
 30
0.0
 10
282.7760858464609
 20
121.9207880351123
 30
0.0
 10
282.6631943737787
 20
121.9207880351123
 30
0.0
 10
282.6631943737787
 20
121.9207880351123
 30
0.0
 10
252.176144854762
 20
121.9207880351123
 30
0.0
 10
252.176144854762
 20
121.9207880351123
 30
0.0
 10
252.176144854762
 20
121.9207880351123
 30
0.0
 10
245.53333327195
 20
128.5389025896643
 30
0.0
 10
245.53333327195
 20
128.5389025896643
 30
0.0
 10
245.2546465790401
 20
128.8175892825743
 30
0.0
 10
244.9265658296104
 20
129.0504346736836
 30
0.0
 10
244.566725606176
 20
129.223292339656
 30
0.0
 10
244.5173315496563
 20
129.2479893679159
 30
0.0
 10
244.4644062702641
 20
129.2726863961758
 30
0.0
 10
244.4115025227188
 20
129.2938522015633
 30
0.0
 10
244.2527482163891
 20
129.3608808405982
 30
0.0
 10
244.090462687187
 20
129.4173158110159
 30
0.0
 10
243.921136244087
 20
129.4596474217909
 30
0.0
 10
243.8752734104396
 20
129.4737723132804
 30
0.0
 10
243.8329417996646
 20
129.4843444500508
 30
0.0
 10
243.7870789660172
 20
129.4914068957956
 30
0.0
 10
243.7200503269823
 20
129.5090414783107
 30
0.0
 10
243.6459807740495
 20
129.519613615081
 30
0.0
 10
243.5754209121422
 20
129.5302072836982
 30
0.0
 10
243.5401302152652
 20
129.537269729443
 30
0.0
 10
243.5048610502349
 20
129.5407794204685
 30
0.0
 10
243.4660606623323
 20
129.5443106433409
 30
0.0
 10
243.4343011883276
 20
129.5513730890857
 30
0.0
 10
243.4060729371954
 20
129.5549043119581
 30
0.0
 10
243.3778662179099
 20
129.5549043119581
 30
0.0
 10
243.2685059681
 20
129.5654764487284
 30
0.0
 10
243.1520832725453
 20
129.5725388944732
 30
0.0
 10
243.039191799863
 20
129.5725388944732
 30
0.0
 10
243.039191799863
 20
129.5725388944732
 30
0.0
 10
0.0493940565197695
 20
129.5725388944732
 30
0.0
 10
0.0493940565197695
 20
129.5725388944732
 30
0.0
 10
-1.901477389390082
 20
129.5725388944732
 30
0.0
 10
-3.478383720376064
 20
127.9921013406148
 30
0.0
 10
-3.478383720376064
 20
126.0447611175774
 30
0.0
 10
-3.478383720376064
 20
126.0447611175774
 30
0.0
 10
-3.478383720376064
 20
41.09234533342266
 30
0.0
 10
-3.478383720376064
 20
41.09234533342266
 30
0.0
 10
-3.478383720376064
 20
41.02178547151539
 30
0.0
 10
-3.474852497503683
 20
40.95122560960812
 30
0.0
 10
-3.471321274631302
 20
40.88068727954762
 30
0.0
 10
-3.471321274631302
 20
40.87715605667525
 30
0.0
 10
-3.471321274631302
 20
40.87715605667525
 30
0.0
 10
-3.471321274631302
 20
40.87715605667525
 30
0.0
 10
-3.467790051758921
 20
40.81716833153833
 30
0.0
 10
-3.460749137860941
 20
40.76073336112058
 30
0.0
 10
-3.453686692116179
 20
40.70429839070283
 30
0.0
 10
-3.450155469243798
 20
40.66196677992782
 30
0.0
 10
-3.443114555345819
 20
40.61610394628044
 30
0.0
 10
-3.436052109601057
 20
40.57024111263305
 30
0.0
 10
-3.414886304213553
 20
40.42559016594612
 30
0.0
 10
-3.386658053081287
 20
40.28449197397835
 30
0.0
 10
-3.34432644230628
 20
40.14337225016381
 30
0.0
 10
-3.330223082663538
 20
40.09044697077166
 30
0.0
 10
-3.312588500148415
 20
40.03754322322629
 30
0.0
 10
-3.29493238578651
 20
39.98814916670652
 30
0.0
 10
-3.22439405572602
 20
39.76589744421435
 30
0.0
 10
-3.125605942686481
 20
39.55070816746692
 30
0.0
 10
-3.005652024259438
 20
39.34255980461749
 30
0.0
 10
-3.005652024259438
 20
39.34255980461749
 30
0.0
 10
-2.966851636356811
 20
39.27906238845497
 30
0.0
 10
-2.966851636356811
 20
39.27906238845497
 30
0.0
 10
-2.966851636356811
 20
39.27906238845497
 30
0.0
 10
20.75392269039529
 20
-1.703126016826823
 30
0.0
 10
20.75392269039529
 20
-1.703126016826823
 30
0.0
 10
20.76449482716565
 20
-1.724291822214326
 30
0.0
 10
20.77861971865517
 20
-1.74545762760183
 30
0.0
 10
20.78919185542553
 20
-1.766623432989334
 30
0.0
 10
20.78919185542553
 20
-1.770154655861715
 30
0.0
 10
20.79272307829791
 20
-1.770154655861715
 30
0.0
 10
20.79625430117029
 20
-1.773685878734096
 30
0.0
 10
20.85622049446042
 20
-1.879514905671614
 30
0.0
 10
20.92324913349532
 20
-1.981812709736752
 30
0.0
 10
20.99380899540259
 20
-2.07706959990391
 30
0.0
 10
20.99380899540259
 20
-2.07706959990391
 30
0.0
 10
20.99380899540259
 20
-2.080600822776291
 30
0.0
 10
20.99380899540259
 20
-2.080600822776291
 30
0.0
 10
21.06787854833546
 20
-2.175836181096666
 30
0.0
 10
21.13843841024273
 20
-2.267561848391443
 30
0.0
 10
21.21606071789477
 20
-2.355756292813839
 30
0.0
 10
21.26896446544014
 20
-2.415722486103969
 30
0.0
 10
21.32188974483229
 20
-2.4721789883685
 30
0.0
 10
21.37832471525004
 20
-2.525104267760651
 30
0.0
 10
21.43478121751457
 20
-2.5815392381784
 30
0.0
 10
21.49121618793232
 20
-2.634464517570551
 30
0.0
 10
21.55120391306923
 20
-2.683837042243538
 30
0.0
 10
21.66407385390473
 20
-2.779093932410695
 30
0.0
 10
21.78402777233177
 20
-2.870819599705472
 30
0.0
 10
21.91102260465679
 20
-2.955482821255487
 30
0.0
 10
22.48958332771094
 20
-3.332957627204955
 30
0.0
 10
23.16337940908546
 20
-3.534043544309632
 30
0.0
 10
23.8513003819495
 20
-3.534043544309632
 30
0.0
 10
24.18644357712396
 20
-3.534043544309632
 30
0.0
 10
24.52158677229842
 20
-3.488180710662243
 30
0.0
 10
24.84966752172812
 20
-3.389392597622704
 30
0.0
 10
24.88846790963075
 20
-3.378820460852344
 30
0.0
 10
24.93079952040576
 20
-3.364695569362819
 30
0.0
 10
24.96962144015517
 20
-3.350592209720078
 30
0.0
 10
25.04369099308804
 20
-3.325895181460193
 30
0.0
 10
25.11425085499531
 20
-3.301198153200308
 30
0.0
 10
25.18834193977496
 20
-3.269460211042444
 30
0.0
 10
25.25888026983545
 20
-3.241231959910178
 30
0.0
 10
25.33297135461511
 20
-3.209472485905531
 30
0.0
 10
25.40353121652238
 20
-3.170672098002905
 30
0.0
 10
25.47055985555727
 20
-3.138934155845041
 30
0.0
 10
25.54111971746455
 20
-3.103643458968013
 30
0.0
 10
25.60814835649944
 20
-3.064843071065387
 30
0.0
 10
25.60814835649944
 20
-3.064843071065387
 30
0.0
 10
58.63871187227609
 20
15.94633500442271
 30
0.0
 10
58.63871187227609
 20
15.94633500442271
 30
0.0
 10
58.67400256915312
 20
15.96752234165699
 30
0.0
 10
58.70927173418336
 20
15.9886881470445
 30
0.0
 10
58.74103120818801
 20
16.009853952432
 30
0.0
 10
58.74809365393277
 20
16.0133636434576
 30
0.0
 10
58.75513456783075
 20
16.01689486632998
 30
0.0
 10
58.76219701357551
 20
16.02042608920236
 30
0.0
 10
58.8292256526104
 20
16.06275769997737
 30
0.0
 10
58.8962542916453
 20
16.10862053362476
 30
0.0
 10
58.95975170780781
 20
16.15801459014452
 30
0.0
 10
59.01618667822556
 20
16.19681497804715
 30
0.0
 10
59.06911195761771
 20
16.23561536594978
 30
0.0
 10
59.11850601413747
 20
16.28147819959717
 30
0.0
 10
59.19610678994273
 20
16.34146592473408
 30
0.0
 10
59.27019787472238
 20
16.40849456376897
 30
0.0
 10
59.34075773662966
 20
16.47903289382946
 30
0.0
 10
59.38662057027705
 20
16.52136450460447
 30
0.0
 10
59.42895218105205
 20
16.56722733825186
 30
0.0
 10
59.47128379182706
 20
16.61309017189924
 30
0.0
 10
59.71470131970674
 20
16.87414228229405
 30
0.0
 10
59.9228281507094
 20
17.18105722633625
 30
0.0
 10
60.08158245703907
 20
17.52679409012785
 30
0.0
 10
60.2297430947516
 20
17.84781239381279
 30
0.0
 10
60.32853120779114
 20
18.18648681185963
 30
0.0
 10
60.37439404143852
 20
18.53573336667683
 30
0.0
 10
60.37439404143852
 20
18.53573336667683
 30
0.0
 10
60.57194873567082
 20
18.58865864606898
 30
0.0
 10
60.57194873567082
 20
18.58865864606898
 30
0.0
 10
60.57194873567082
 20
18.58865864606898
 30
0.0
 10
85.03003809180673
 20
25.25261450242166
 30
0.0
 10
85.03003809180673
 20
25.25261450242166
 30
0.0
 10
85.03003809180673
 20
25.25261450242166
 30
0.0
 10
97.18321530773545
 20
25.25261450242166
 30
0.0
 10
97.18321530773545
 20
25.25261450242166
 30
0.0
 10
97.35256328268227
 20
24.9139616162216
 30
0.0
 10
97.57481500517444
 20
24.61057789505178
 30
0.0
 10
97.83939833844163
 20
24.3459945617846
 30
0.0
 10
97.84643925233961
 20
24.33540089316745
 30
0.0
 10
97.85703292095675
 20
24.32833844742269
 30
0.0
 10
97.86407383485474
 20
24.32129753352471
 30
0.0
 10
97.90642697747653
 20
24.27896592274971
 30
0.0
 10
97.94875858825154
 20
24.23661278012791
 30
0.0
 10
97.99462142189891
 20
24.19781239222529
 30
0.0
 10
98.02635936405679
 20
24.16960567293981
 30
0.0
 10
98.05811883806143
 20
24.14137742180754
 30
0.0
 10
98.08985678021929
 20
24.11668039354765
 30
0.0
 10
98.12161625422394
 20
24.08845214241539
 30
0.0
 10
98.15688541925418
 20
24.06022389128312
 30
0.0
 10
98.19217611613121
 20
24.03554839487002
 30
0.0
 10
98.21685161254432
 20
24.01438258948252
 30
0.0
 10
98.24507986367658
 20
23.99321678409501
 30
0.0
 10
98.26977689193647
 20
23.97556066973311
 30
0.0
 10
98.31563972558385
 20
23.94029150470286
 30
0.0
 10
98.36503378210362
 20
23.90853203069821
 30
0.0
 10
98.41440630677661
 20
23.87679408854035
 30
0.0
 10
98.44616578078126
 20
23.85562828315285
 30
0.0
 10
98.4779252547859
 20
23.83799370063772
 30
0.0
 10
98.50966319694376
 20
23.81682789525022
 30
0.0
 10
98.55552603059115
 20
23.78859964411796
 30
0.0
 10
98.60138886423854
 20
23.76037139298569
 30
0.0
 10
98.65078292075832
 20
23.73567436472581
 30
0.0
 10
98.70017697727809
 20
23.70744611359354
 30
0.0
 10
98.74954950195107
 20
23.68277061718044
 30
0.0
 10
98.80247478134322
 20
23.65807358892055
 30
0.0
 10
98.851868837863
 20
23.63337656066067
 30
0.0
 10
98.90477258540837
 20
23.60867953240078
 30
0.0
 10
98.95769786480051
 20
23.58751372701328
 30
0.0
 10
99.01060161234588
 20
23.56281669875339
 30
0.0
 10
99.06352689173804
 20
23.54165089336589
 30
0.0
 10
99.11645217113018
 20
23.52401631085077
 30
0.0
 10
99.16935591867555
 20
23.50285050546326
 30
0.0
 10
99.22581242094007
 20
23.48521592294814
 30
0.0
 10
99.27871616848545
 20
23.46755980858624
 30
0.0
 10
99.32457900213284
 20
23.45345644894349
 30
0.0
 10
99.37044183578023
 20
23.43935308930075
 30
0.0
 10
99.41630466942762
 20
23.42875942068361
 30
0.0
 10
99.5503619474974
 20
23.38995903278098
 30
0.0
 10
99.69148167131195
 20
23.36173078164872
 30
0.0
 10
99.83611108615209
 20
23.34056497626121
 30
0.0
 10
99.92430553057449
 20
23.32999283949085
 30
0.0
 10
100.0124999749969
 20
23.31939917087371
 30
0.0
 10
100.1042256422917
 20
23.31233672512895
 30
0.0
 10
100.1782951952245
 20
23.30882703410335
 30
0.0
 10
100.2523862800042
 20
23.30529581123097
 30
0.0
 10
100.3264773647838
 20
23.30529581123097
 30
0.0
 10
100.3264773647838
 20
23.30529581123097
 30
0.0
 10
100.3370495015542
 20
23.30529581123097
 30
0.0
 10
100.3370495015542
 20
23.30529581123097
 30
0.0
 10
100.3370495015542
 20
23.30529581123097
 30
0.0
 10
113.0688089723838
 20
23.27000511435394
 30
0.0
 10
113.0688089723838
 20
23.27000511435394
 30
0.0
 10
113.0688089723838
 20
23.27000511435394
 30
0.0
 10
117.2210103059812
 20
19.18132272876587
 30
0.0
 10
117.2210103059812
 20
19.18132272876587
 30
0.0
 10
117.2210103059812
 20
19.18132272876587
 30
0.0
 10
117.2845077221437
 20
19.12133500362896
 30
0.0
 10
117.2845077221437
 20
19.12133500362896
 30
0.0
 10
117.5279252500234
 20
18.88144869862165
 30
0.0
 10
117.7960182743162
 20
18.68389400438936
 30
0.0
 10
118.0817674129709
 20
18.52867092093207
 30
0.0
 10
118.1311614694906
 20
18.50046420164659
 30
0.0
 10
118.1805555260104
 20
18.4757671733867
 30
0.0
 10
118.2299495825302
 20
18.4546013679992
 30
0.0
 10
118.3851726659875
 20
18.37697906034716
 30
0.0
 10
118.5474366633428
 20
18.31348164418465
 30
0.0
 10
118.7097221925448
 20
18.26408758766488
 30
0.0
 10
118.7626474719369
 20
18.24645300514976
 30
0.0
 10
118.8190824423547
 20
18.23234964550702
 30
0.0
 10
118.8755174127724
 20
18.21822475401749
 30
0.0
 10
118.9919401083271
 20
18.18648681185963
 30
0.0
 10
119.1048315810094
 20
18.16532100647213
 30
0.0
 10
119.2212542765641
 20
18.147686423957
 30
0.0
 10
119.2776892469818
 20
18.13709275533986
 30
0.0
 10
119.3376769721187
 20
18.1300303095951
 30
0.0
 10
119.3976431654088
 20
18.12298939569712
 30
0.0
 10
119.5175755519891
 20
18.11239572707997
 30
0.0
 10
119.6375294704161
 20
18.105354813182
 30
0.0
 10
119.7574618569964
 20
18.105354813182
 30
0.0
 10
119.7574618569964
 20
18.105354813182
 30
0.0
 10
290.2196883429725
 20
18.105354813182
 30
0.0
 10
290.2196883429725
 20
18.105354813182
 30
0.0
 10
292.1670285660099
 20
18.105354813182
 30
0.0
 10
293.7474661198682
 20
19.68579236704036
 30
0.0
 10
293.7474661198682
 20
21.63313259007783
 30
0.0
 10
293.7474661198682
 20
21.63313259007783
 30
0.0
 10
293.7474661198682
 20
110.8612133172825
 30
0.0
 10
293.7474661198682
 20
110.8612133172825
 30
0.0
 10
293.7474661198682
 20
110.924710733445
 30
0.0
 10
293.7439348969959
 20
110.9846769267352
 30
0.0
 10
293.7439348969959
 20
111.0446431200253
 30
0.0
  0
POLYLINE
  5
57
330
52
100
AcDbEntity
  8
Layer 1
 62
   250
420
  3487016
370
    18
100
AcDb2dPolyline
 66
     1
 10
0.0
 20
0.0
 30
0.0
  0
VERTEX
  5
58
330
57
100
AcDbEntity
  8
Layer 1
 62
   250
420
  3487016
370
    18
100
AcDbVertex
100
AcDb2dVertex
 10
26.90636799457549
 20
1.754091898161737
 30
0.0
  0
VERTEX
  5
6D
330
57
100
AcDbEntity
  8
0
100
AcDbVertex
100
AcDb2dVertex
 10
26.90636799457549
 20
1.754091898161737
 30
0.0
  0
SEQEND
  5
59
330
57
100
AcDbEntity
  8
Layer 1
 62
   250
420
  3487016
370
    18
  0
ENDBLK
  5
55
330
52
100
AcDbEntity
  8
0
100
AcDbBlockEnd
  0
BLOCK
  5
5C
330
5A
100
AcDbEntity
  8
0
100
AcDbBlockBegin
  2
block 7
 70
     0
 10
0.0
 20
0.0
 30
0.0
  3
block 7
  1

  0
SPLINE
  5
5E
330
5A
100
AcDbEntity
  8
Layer 1
 62
   250
420
  3487016
370
    18
100
AcDbSpline
210
0.0
220
0.0
230
1.0
 70
    24
 71
     3
 72
     8
 73
     4
 74
     0
 42
0.0000000001
 43
0.0000000001
 12
1.0
 22
0.0
 32
0.0
 13
1.0
 23
0.0
 33
0.0
 40
0.0
 40
0.0
 40
0.0
 40
0.0
 40
1.0
 40
1.0
 40
1.0
 40
1.0
 10
26.88167096631561
 20
1.796423508936745
 30
0.0
 10
26.88167096631561
 20
1.796423508936745
 30
0.0
 10
26.90283677170311
 20
1.7611543439065
 30
0.0
 10
26.90283677170311
 20
1.7611543439065
 30
0.0
  0
ENDBLK
  5
5D
330
5A
100
AcDbEntity
  8
0
100
AcDbBlockEnd
  0
BLOCK
  5
61
330
5F
100
AcDbEntity
  8
0
100
AcDbBlockBegin
  2
block 8
 70
     0
 10
0.0
 20
0.0
 30
0.0
  3
block 8
  1

  0
SPLINE
  5
63
330
5F
100
AcDbEntity
  8
Layer 1
 62
   250
420
  3487016
370
    18
100
AcDbSpline
210
0.0
220
0.0
230
1.0
 70
    11
 71
     3
 72
    14
 73
    10
 74
     0
 42
0.0000000001
 43
0.0000000001
 12
1.0
 22
0.0
 32
0.0
 13
1.0
 23
0.0
 33
0.0
 40
0.0
 40
0.0
 40
0.0
 40
0.0
 40
1.0
 40
1.0
 40
1.0
 40
2.0
 40
2.0
 40
2.0
 40
3.0
 40
3.0
 40
3.0
 40
3.0
 10
60.57194873567082
 20
18.58865864606898
 30
0.0
 10
60.57194873567082
 20
18.58865864606898
 30
0.0
 10
60.08158245703907
 20
17.52679409012785
 30
0.0
 10
60.08158245703907
 20
17.52679409012785
 30
0.0
 10
60.2297430947516
 20
17.84781239381279
 30
0.0
 10
60.32853120779114
 20
18.18648681185963
 30
0.0
 10
60.37439404143852
 20
18.53573336667683
 30
0.0
 10
60.37439404143852
 20
18.53573336667683
 30
0.0
 10
60.57194873567082
 20
18.58865864606898
 30
0.0
 10
60.57194873567082
 20
18.58865864606898
 30
0.0
  0
ENDBLK
  5
62
330
5F
100
AcDbEntity
  8
0
100
AcDbBlockEnd
  0
BLOCK
  5
66
330
64
100
AcDbEntity
  8
0
100
AcDbBlockBegin
  2
block 9
 70
     0
 10
0.0
 20
0.0
 30
0.0
  3
block 9
  1

  0
SPLINE
  5
68
330
64
100
AcDbEntity
  8
Layer 1
 62
   250
420
  3487016
370
    18
100
AcDbSpline
210
0.0
220
0.0
230
1.0
 70
    11
 71
     3
 72
    14
 73
    10
 74
     0
 42
0.0000000001
 43
0.0000000001
 12
1.0
 22
0.0
 32
0.0
 13
1.0
 23
0.0
 33
0.0
 40
0.0
 40
0.0
 40
0.0
 40
0.0
 40
1.0
 40
1.0
 40
1.0
 40
2.0
 40
2.0
 40
2.0
 40
3.0
 40
3.0
 40
3.0
 40
3.0
 10
97.83939833844163
 20
24.3459945617846
 30
0.0
 10
97.83939833844163
 20
24.3459945617846
 30
0.0
 10
96.91863197446827
 20
25.25261450242166
 30
0.0
 10
96.91863197446827
 20
25.25261450242166
 30
0.0
 10
96.91863197446827
 20
25.25261450242166
 30
0.0
 10
97.18321530773545
 20
25.25261450242166
 30
0.0
 10
97.18321530773545
 20
25.25261450242166
 30
0.0
 10
97.35256328268227
 20
24.9139616162216
 30
0.0
 10
97.57481500517444
 20
24.61057789505178
 30
0.0
 10
97.83939833844163
 20
24.3459945617846
 30
0.0
  0
ENDBLK
  5
67
330
64
100
AcDbEntity
  8
0
100
AcDbBlockEnd
  0
BLOCK
  5
6B
330
69
100
AcDbEntity
  8
0
100
AcDbBlockBegin
  2
block 10
 70
     0
 10
0.0
 20
0.0
 30
0.0
  3
block 10
  1

  0
ENDBLK
  5
6C
330
69
100
AcDbEntity
  8
0
100
AcDbBlockEnd
  0
ENDSEC
  0
SECTION
  2
ENTITIES
  0
INSERT
  5
42
330
1F
100
AcDbEntity
  8
Layer 1
100
AcDbBlockReference
  2
block 2
 10
0.0
 20
0.0
 30
0.0
  0
INSERT
  5
4B
330
1F
100
AcDbEntity
  8
Layer 1
100
AcDbBlockReference
  2
block 4
 10
0.0
 20
0.0
 30
0.0
  0
INSERT
  5
4F
330
1F
100
AcDbEntity
  8
Layer 1
100
AcDbBlockReference
  2
block 5
 10
0.0
 20
0.0
 30
0.0
  0
INSERT
  5
6A
330
1F
100
AcDbEntity
  8
Layer 1
100
AcDbBlockReference
  2
block 10
 10
0.0
 20
0.0
 30
0.0
  0
ENDSEC
  0
SECTION
  2
OBJECTS
  0
DICTIONARY
  5
C
330
0
100
AcDbDictionary
281
     1
  3
ACAD_GROUP
350
D
  3
ACAD_LAYOUT
350
1A
  3
ACAD_MATERIAL
350
3B
  3
ACAD_MLEADERSTYLE
350
6F
  3
ACAD_MLINESTYLE
350
17
  3
ACAD_PLOTSETTINGS
350
19
  3
ACAD_PLOTSTYLENAME
350
E
  3
ACAD_TABLESTYLE
350
6E
  3
ACAD_VISUALSTYLE
350
2A
  0
SUN
  5
3F
330
29
100
AcDbSun
 90
        1
290
     0
 63
     7
421
 16777215
 40
1.0
291
     1
 91
  2455826
 92
 54000000
292
     0
 70
     2
 71
   256
280
     1
  0
DICTIONARY
  5
D
102
{ACAD_REACTORS
330
C
102
}
330
C
100
AcDbDictionary
281
     1
  0
DICTIONARY
  5
1A
102
{ACAD_REACTORS
330
C
102
}
330
C
100
AcDbDictionary
281
     1
  3
Layout1
350
1E
  3
Layout2
350
26
  3
Model
350
22
  0
DICTIONARY
  5
3B
102
{ACAD_REACTORS
330
C
102
}
330
C
100
AcDbDictionary
281
     1
  3
ByBlock
350
3D
  3
ByLayer
350
3C
  3
Global
350
3E
  0
DICTIONARY
  5
6F
102
{ACAD_REACTORS
330
C
102
}
330
C
100
AcDbDictionary
281
     1
  0
DICTIONARY
  5
17
102
{ACAD_REACTORS
330
C
102
}
330
C
100
AcDbDictionary
281
     1
  3
Standard
350
18
  0
DICTIONARY
  5
19
102
{ACAD_REACTORS
330
C
102
}
330
C
100
AcDbDictionary
281
     1
  0
ACDBDICTIONARYWDFLT
  5
E
102
{ACAD_REACTORS
330
C
102
}
330
C
100
AcDbDictionary
281
     1
  3
Normal
350
F
100
AcDbDictionaryWithDefault
340
F
  0
DICTIONARY
  5
6E
102
{ACAD_REACTORS
330
C
102
}
330
C
100
AcDbDictionary
281
     1
  0
DICTIONARY
  5
2A
102
{ACAD_REACTORS
330
C
102
}
330
C
100
AcDbDictionary
281
     1
  3
2dWireframe
350
2F
  3
3D Hidden
350
31
  3
3dWireframe
350
30
  3
Basic
350
32
  3
Brighten
350
36
  3
ColorChange
350
3A
  3
Conceptual
350
34
  3
Dim
350
35
  3
Facepattern
350
39
  3
Flat
350
2B
  3
FlatWithEdges
350
2C
  3
Gouraud
350
2D
  3
GouraudWithEdges
350
2E
  3
Linepattern
350
38
  3
Realistic
350
33
  3
Thicken
350
37
  0
LAYOUT
  5
1E
102
{ACAD_REACTORS
330
1A
102
}
330
1A
100
AcDbPlotSettings
  1

  2
none_device
  4

  6

 40
0.0
 41
0.0
 42
0.0
 43
0.0
 44
0.0
 45
0.0
 46
0.0
 47
0.0
 48
0.0
 49
0.0
140
0.0
141
0.0
142
1.0
143
1.0
 70
   688
 72
     0
 73
     0
 74
     5
  7

 75
    16
 76
     0
 77
     2
 78
   300
147
1.0
148
0.0
149
0.0
100
AcDbLayout
  1
Layout1
 70
     1
 71
     1
 10
0.0
 20
0.0
 11
12.0
 21
9.0
 12
0.0
 22
0.0
 32
0.0
 14
1.000000000000000E+20
 24
1.000000000000000E+20
 34
1.000000000000000E+20
 15
-1.000000000000000E+20
 25
-1.000000000000000E+20
 35
-1.000000000000000E+20
146
0.0
 13
0.0
 23
0.0
 33
0.0
 16
1.0
 26
0.0
 36
0.0
 17
0.0
 27
1.0
 37
0.0
 76
     0
330
1B
  0
LAYOUT
  5
26
102
{ACAD_REACTORS
330
1A
102
}
330
1A
100
AcDbPlotSettings
  1

  2
none_device
  4

  6

 40
0.0
 41
0.0
 42
0.0
 43
0.0
 44
0.0
 45
0.0
 46
0.0
 47
0.0
 48
0.0
 49
0.0
140
0.0
141
0.0
142
1.0
143
1.0
 70
   688
 72
     0
 73
     0
 74
     5
  7

 75
    16
 76
     0
 77
     2
 78
   300
147
1.0
148
0.0
149
0.0
100
AcDbLayout
  1
Layout2
 70
     1
 71
     2
 10
0.0
 20
0.0
 11
0.0
 21
0.0
 12
0.0
 22
0.0
 32
0.0
 14
0.0
 24
0.0
 34
0.0
 15
0.0
 25
0.0
 35
0.0
146
0.0
 13
0.0
 23
0.0
 33
0.0
 16
1.0
 26
0.0
 36
0.0
 17
0.0
 27
1.0
 37
0.0
 76
     0
330
23
  0
LAYOUT
  5
22
102
{ACAD_REACTORS
330
1A
102
}
330
1A
100
AcDbPlotSettings
  1

  2
none_device
  4

  6

 40
0.0
 41
0.0
 42
0.0
 43
0.0
 44
0.0
 45
0.0
 46
0.0
 47
0.0
 48
0.0
 49
0.0
140
0.0
141
0.0
142
1.0
143
1.0
 70
  1712
 72
     0
 73
     0
 74
     0
  7

 75
     0
 76
     0
 77
     2
 78
   300
147
1.0
148
0.0
149
0.0
100
AcDbLayout
  1
Model
 70
     1
 71
     0
 10
0.0
 20
0.0
 11
12.0
 21
9.0
 12
0.0
 22
0.0
 32
0.0
 14
1.000000000000000E+20
 24
1.000000000000000E+20
 34
1.000000000000000E+20
 15
-1.000000000000000E+20
 25
-1.000000000000000E+20
 35
-1.000000000000000E+20
146
0.0
 13
0.0
 23
0.0
 33
0.0
 16
1.0
 26
0.0
 36
0.0
 17
0.0
 27
1.0
 37
0.0
 76
     0
330
1F
331
29
  0
MATERIAL
  5
3D
102
{ACAD_REACTORS
330
3B
102
}
330
3B
100
AcDbMaterial
  1
ByBlock
 72
     1
 94
      127
  0
MATERIAL
  5
3C
102
{ACAD_REACTORS
330
3B
102
}
330
3B
100
AcDbMaterial
  1
ByLayer
 72
     1
 94
      127
  0
MATERIAL
  5
3E
102
{ACAD_REACTORS
330
3B
102
}
330
3B
100
AcDbMaterial
  1
Global
 72
     1
 94
      127
  0
MLINESTYLE
  5
18
102
{ACAD_REACTORS
330
17
102
}
330
17
100
AcDbMlineStyle
  2
Standard
 70
     0
  3

 62
   256
 51
90.0
 52
90.0
 71
     2
 49
0.5
 62
   256
  6
BYLAYER
 49
-0.5
 62
   256
  6
BYLAYER
  0
ACDBPLACEHOLDER
  5
F
102
{ACAD_REACTORS
330
E
102
}
330
E
  0
VISUALSTYLE
  5
2F
102
{ACAD_REACTORS
330
2A
102
}
330
2A
100
AcDbVisualStyle
  2
2dWireframe
 70
     4
177
     2
291
     0
 71
     0
176
     1
 72
     2
176
     1
 73
     0
176
     1
 90
        0
176
     1
 40
-0.6
176
     1
 41
-30.0
176
     1
 62
     5
 63
     7
421
 16777215
176
     1
 74
     1
176
     1
 91
        4
176
     1
 64
     7
176
     1
 65
   257
176
     1
 75
     1
176
     1
175
     1
176
     1
 42
1.0
176
     1
 92
        0
176
     1
 66
   257
176
     1
 43
1.0
176
     1
 76
     1
176
     1
 77
     6
176
     1
 78
     2
176
     1
 67
     7
176
     1
 79
     5
176
     1
170
     0
176
     1
171
     0
176
     1
290
     0
176
     1
 93
        1
176
     1
 44
0.0
176
     1
173
     0
176
     1
  0
VISUALSTYLE
  5
31
102
{ACAD_REACTORS
330
2A
102
}
330
2A
100
AcDbVisualStyle
  2
3D Hidden
 70
     6
177
     2
291
     0
 71
     1
176
     1
 72
     2
176
     1
 73
     2
176
     1
 90
        0
176
     1
 40
-0.6
176
     1
 41
-30.0
176
     1
 62
     5
 63
     7
421
 16777215
176
     1
 74
     2
176
     1
 91
        2
176
     1
 64
     7
176
     1
 65
   257
176
     1
 75
     2
176
     1
175
     1
176
     1
 42
40.0
176
     1
 92
        0
176
     1
 66
   257
176
     1
 43
1.0
176
     1
 76
     1
176
     1
 77
     6
176
     1
 78
     2
176
     1
 67
     7
176
     1
 79
     3
176
     1
170
     0
176
     1
171
     0
176
     1
290
     0
176
     1
 93
        1
176
     1
 44
0.0
176
     1
173
     0
176
     1
  0
VISUALSTYLE
  5
30
102
{ACAD_REACTORS
330
2A
102
}
330
2A
100
AcDbVisualStyle
  2
3dWireframe
 70
     5
177
     2
291
     0
 71
     0
176
     1
 72
     2
176
     1
 73
     0
176
     1
 90
        0
176
     1
 40
-0.6
176
     1
 41
-30.0
176
     1
 62
     5
 63
     7
421
 16777215
176
     1
 74
     1
176
     1
 91
        4
176
     1
 64
     7
176
     1
 65
   257
176
     1
 75
     1
176
     1
175
     1
176
     1
 42
1.0
176
     1
 92
        0
176
     1
 66
   257
176
     1
 43
1.0
176
     1
 76
     1
176
     1
 77
     6
176
     1
 78
     2
176
     1
 67
     7
176
     1
 79
     5
176
     1
170
     0
176
     1
171
     0
176
     1
290
     0
176
     1
 93
        1
176
     1
 44
0.0
176
     1
173
     0
176
     1
  0
VISUALSTYLE
  5
32
102
{ACAD_REACTORS
330
2A
102
}
330
2A
100
AcDbVisualStyle
  2
Basic
 70
     7
177
     2
291
     1
 71
     1
176
     1
 72
     0
176
     1
 73
     1
176
     1
 90
        0
176
     1
 40
-0.6
176
     1
 41
-30.0
176
     1
 62
     5
 63
     7
421
 16777215
176
     1
 74
     0
176
     1
 91
        4
176
     1
 64
     7
176
     1
 65
   257
176
     1
 75
     1
176
     1
175
     1
176
     1
 42
1.0
176
     1
 92
        8
176
     1
 66
     7
176
     1
 43
1.0
176
     1
 76
     1
176
     1
 77
     6
176
     1
 78
     2
176
     1
 67
     7
176
     1
 79
     5
176
     1
170
     0
176
     1
171
     0
176
     1
290
     0
176
     1
 93
        1
176
     1
 44
0.0
176
     1
173
     0
176
     1
  0
VISUALSTYLE
  5
36
102
{ACAD_REACTORS
330
2A
102
}
330
2A
100
AcDbVisualStyle
  2
Brighten
 70
    12
177
     2
291
     1
 71
     2
176
     1
 72
     2
176
     1
 73
     0
176
     1
 90
        0
176
     1
 40
-0.6
176
     1
 41
-30.0
176
     1
 62
     5
 63
     7
421
 16777215
176
     1
 74
     1
176
     1
 91
        4
176
     1
 64
     7
176
     1
 65
   257
176
     1
 75
     1
176
     1
175
     1
176
     1
 42
1.0
176
     1
 92
        8
176
     1
 66
     7
176
     1
 43
1.0
176
     1
 76
     1
176
     1
 77
     6
176
     1
 78
     2
176
     1
 67
     7
176
     1
 79
     5
176
     1
170
     0
176
     1
171
     0
176
     1
290
     0
176
     1
 93
        1
176
     1
 44
50.0
176
     1
173
     0
176
     1
  0
VISUALSTYLE
  5
3A
102
{ACAD_REACTORS
330
2A
102
}
330
2A
100
AcDbVisualStyle
  2
ColorChange
 70
    16
177
     2
291
     1
 71
     2
176
     1
 72
     2
176
     1
 73
     3
176
     1
 90
        0
176
     1
 40
-0.6
176
     1
 41
-30.0
176
     1
 62
     5
 63
     8
421
  8421504
176
     1
 74
     1
176
     1
 91
        4
176
     1
 64
     7
176
     1
 65
   257
176
     1
 75
     1
176
     1
175
     1
176
     1
 42
1.0
176
     1
 92
        8
176
     1
 66
     8
424
  8421504
176
     1
 43
1.0
176
     1
 76
     1
176
     1
 77
     6
176
     1
 78
     2
176
     1
 67
     7
176
     1
 79
     5
176
     1
170
     0
176
     1
171
     0
176
     1
290
     0
176
     1
 93
        1
176
     1
 44
0.0
176
     1
173
     0
176
     1
  0
VISUALSTYLE
  5
34
102
{ACAD_REACTORS
330
2A
102
}
330
2A
100
AcDbVisualStyle
  2
Conceptual
 70
     9
177
     2
291
     0
 71
     3
176
     1
 72
     2
176
     1
 73
     0
176
     1
 90
        0
176
     1
 40
-0.6
176
     1
 41
-30.0
176
     1
 62
     5
 63
     7
421
 16777215
176
     1
 74
     2
176
     1
 91
        2
176
     1
 64
     7
176
     1
 65
   257
176
     1
 75
     1
176
     1
175
     1
176
     1
 42
40.0
176
     1
 92
        8
176
     1
 66
     7
176
     1
 43
1.0
176
     1
 76
     1
176
     1
 77
     6
176
     1
 78
     2
176
     1
 67
     7
176
     1
 79
     3
176
     1
170
     0
176
     1
171
     0
176
     1
290
     0
176
     1
 93
        1
176
     1
 44
0.0
176
     1
173
     0
176
     1
  0
VISUALSTYLE
  5
35
102
{ACAD_REACTORS
330
2A
102
}
330
2A
100
AcDbVisualStyle
  2
Dim
 70
    11
177
     2
291
     1
 71
     2
176
     1
 72
     2
176
     1
 73
     0
176
     1
 90
        0
176
     1
 40
-0.6
176
     1
 41
-30.0
176
     1
 62
     5
 63
     7
421
 16777215
176
     1
 74
     1
176
     1
 91
        4
176
     1
 64
     7
176
     1
 65
   257
176
     1
 75
     1
176
     1
175
     1
176
     1
 42
1.0
176
     1
 92
        8
176
     1
 66
     7
176
     1
 43
1.0
176
     1
 76
     1
176
     1
 77
     6
176
     1
 78
     2
176
     1
 67
     7
176
     1
 79
     5
176
     1
170
     0
176
     1
171
     0
176
     1
290
     0
176
     1
 93
        1
176
     1
 44
-50.0
176
     1
173
     0
176
     1
  0
VISUALSTYLE
  5
39
102
{ACAD_REACTORS
330
2A
102
}
330
2A
100
AcDbVisualStyle
  2
Facepattern
 70
    15
177
     2
291
     1
 71
     2
176
     1
 72
     2
176
     1
 73
     0
176
     1
 90
        0
176
     1
 40
-0.6
176
     1
 41
-30.0
176
     1
 62
     5
 63
     7
421
 16777215
176
     1
 74
     1
176
     1
 91
        4
176
     1
 64
     7
176
     1
 65
   257
176
     1
 75
     1
176
     1
175
     1
176
     1
 42
1.0
176
     1
 92
        8
176
     1
 66
     7
176
     1
 43
1.0
176
     1
 76
     1
176
     1
 77
     6
176
     1
 78
     2
176
     1
 67
     7
176
     1
 79
     5
176
     1
170
     0
176
     1
171
     0
176
     1
290
     0
176
     1
 93
        1
176
     1
 44
0.0
176
     1
173
     0
176
     1
  0
VISUALSTYLE
  5
2B
102
{ACAD_REACTORS
330
2A
102
}
330
2A
100
AcDbVisualStyle
  2
Flat
 70
     0
177
     2
291
     1
 71
     2
176
     1
 72
     1
176
     1
 73
     1
176
     1
 90
        2
176
     1
 40
-0.6
176
     1
 41
30.0
176
     1
 62
     5
 63
     7
421
 16777215
176
     1
 74
     0
176
     1
 91
        4
176
     1
 64
     7
176
     1
 65
   257
176
     1
 75
     1
176
     1
175
     1
176
     1
 42
1.0
176
     1
 92
        8
176
     1
 66
     7
176
     1
 43
1.0
176
     1
 76
     1
176
     1
 77
     6
176
     1
 78
     2
176
     1
 67
     7
176
     1
 79
     5
176
     1
170
     0
176
     1
171
     0
176
     1
290
     0
176
     1
 93
       13
176
     1
 44
0.0
176
     1
173
     0
176
     1
  0
VISUALSTYLE
  5
2C
102
{ACAD_REACTORS
330
2A
102
}
330
2A
100
AcDbVisualStyle
  2
FlatWithEdges
 70
     1
177
     2
291
     1
 71
     2
176
     1
 72
     1
176
     1
 73
     1
176
     1
 90
        2
176
     1
 40
-0.6
176
     1
 41
30.0
176
     1
 62
     5
 63
     7
421
 16777215
176
     1
 74
     1
176
     1
 91
        4
176
     1
 64
     7
176
     1
 65
   257
176
     1
 75
     1
176
     1
175
     1
176
     1
 42
1.0
176
     1
 92
        0
176
     1
 66
   257
176
     1
 43
1.0
176
     1
 76
     1
176
     1
 77
     6
176
     1
 78
     2
176
     1
 67
     7
176
     1
 79
     5
176
     1
170
     0
176
     1
171
     0
176
     1
290
     0
176
     1
 93
       13
176
     1
 44
0.0
176
     1
173
     0
176
     1
  0
VISUALSTYLE
  5
2D
102
{ACAD_REACTORS
330
2A
102
}
330
2A
100
AcDbVisualStyle
  2
Gouraud
 70
     2
177
     2
291
     1
 71
     2
176
     1
 72
     2
176
     1
 73
     1
176
     1
 90
        2
176
     1
 40
-0.6
176
     1
 41
30.0
176
     1
 62
     5
 63
     7
421
 16777215
176
     1
 74
     0
176
     1
 91
        4
176
     1
 64
     7
176
     1
 65
   257
176
     1
 75
     1
176
     1
175
     1
176
     1
 42
1.0
176
     1
 92
        0
176
     1
 66
     7
176
     1
 43
1.0
176
     1
 76
     1
176
     1
 77
     6
176
     1
 78
     2
176
     1
 67
     7
176
     1
 79
     5
176
     1
170
     0
176
     1
171
     0
176
     1
290
     0
176
     1
 93
       13
176
     1
 44
0.0
176
     1
173
     0
176
     1
  0
VISUALSTYLE
  5
2E
102
{ACAD_REACTORS
330
2A
102
}
330
2A
100
AcDbVisualStyle
  2
GouraudWithEdges
 70
     3
177
     2
291
     1
 71
     2
176
     1
 72
     2
176
     1
 73
     1
176
     1
 90
        2
176
     1
 40
-0.6
176
     1
 41
30.0
176
     1
 62
     5
 63
     7
421
 16777215
176
     1
 74
     1
176
     1
 91
        4
176
     1
 64
     7
176
     1
 65
   257
176
     1
 75
     1
176
     1
175
     1
176
     1
 42
1.0
176
     1
 92
        0
176
     1
 66
   257
176
     1
 43
1.0
176
     1
 76
     1
176
     1
 77
     6
176
     1
 78
     2
176
     1
 67
     7
176
     1
 79
     5
176
     1
170
     0
176
     1
171
     0
176
     1
290
     0
176
     1
 93
       13
176
     1
 44
0.0
176
     1
173
     0
176
     1
  0
VISUALSTYLE
  5
38
102
{ACAD_REACTORS
330
2A
102
}
330
2A
100
AcDbVisualStyle
  2
Linepattern
 70
    14
177
     2
291
     1
 71
     2
176
     1
 72
     2
176
     1
 73
     0
176
     1
 90
        0
176
     1
 40
-0.6
176
     1
 41
-30.0
176
     1
 62
     5
 63
     7
421
 16777215
176
     1
 74
     1
176
     1
 91
        4
176
     1
 64
     7
176
     1
 65
   257
176
     1
 75
     7
176
     1
175
     7
176
     1
 42
1.0
176
     1
 92
        8
176
     1
 66
     7
176
     1
 43
1.0
176
     1
 76
     1
176
     1
 77
     6
176
     1
 78
     2
176
     1
 67
     7
176
     1
 79
     5
176
     1
170
     0
176
     1
171
     0
176
     1
290
     0
176
     1
 93
        1
176
     1
 44
0.0
176
     1
173
     0
176
     1
  0
VISUALSTYLE
  5
33
102
{ACAD_REACTORS
330
2A
102
}
330
2A
100
AcDbVisualStyle
  2
Realistic
 70
     8
177
     2
291
     0
 71
     2
176
     1
 72
     2
176
     1
 73
     0
176
     1
 90
        0
176
     1
 40
-0.6
176
     1
 41
-30.0
176
     1
 62
     5
 63
     7
421
 16777215
176
     1
 74
     1
176
     1
 91
        0
176
     1
 64
     7
176
     1
 65
   257
176
     1
 75
     1
176
     1
175
     1
176
     1
 42
1.0
176
     1
 92
        8
176
     1
 66
     8
424
  7895160
176
     1
 43
1.0
176
     1
 76
     1
176
     1
 77
     6
176
     1
 78
     2
176
     1
 67
     7
176
     1
 79
     5
176
     1
170
     0
176
     1
171
     0
176
     1
290
     0
176
     1
 93
       13
176
     1
 44
0.0
176
     1
173
     0
176
     1
  0
VISUALSTYLE
  5
37
102
{ACAD_REACTORS
330
2A
102
}
330
2A
100
AcDbVisualStyle
  2
Thicken
 70
    13
177
     2
291
     1
 71
     2
176
     1
 72
     2
176
     1
 73
     0
176
     1
 90
        0
176
     1
 40
-0.6
176
     1
 41
-30.0
176
     1
 62
     5
 63
     7
421
 16777215
176
     1
 74
     1
176
     1
 91
        4
176
     1
 64
     7
176
     1
 65
   257
176
     1
 75
     1
176
     1
175
     1
176
     1
 42
1.0
176
     1
 92
       12
176
     1
 66
     7
176
     1
 43
1.0
176
     1
 76
     1
176
     1
 77
     6
176
     1
 78
     2
176
     1
 67
     7
176
     1
 79
     5
176
     1
170
     0
176
     1
171
     0
176
     1
290
     0
176
     1
 93
        1
176
     1
 44
0.0
176
     1
173
     0
176
     1
  0
ENDSEC
  0
EOF
