<?xml version="1.0" encoding="utf-8"?>
<!-- Generator: Adobe Illustrator 24.2.3, SVG Export Plug-In . SVG Version: 6.00 Build 0)  -->
<svg version="1.1" id="Layer_1" xmlns:svg="http://www.w3.org/2000/svg"
	 xmlns="http://www.w3.org/2000/svg" xmlns:xlink="http://www.w3.org/1999/xlink" x="0px" y="0px" width="822.7px" height="357.6px"
	 viewBox="0 0 822.7 357.6" style="enable-background:new 0 0 822.7 357.6;" xml:space="preserve">
<style type="text/css">
	
		.st0{fill:#848400;fill-opacity:0;stroke:#848400;stroke-width:7.0866;stroke-linecap:round;stroke-linejoin:round;stroke-miterlimit:10;}
	.st1{fill:#848400;}
	.st2{fill-rule:evenodd;clip-rule:evenodd;fill:#848400;}
	
		.st3{fill:#C2C200;fill-opacity:0;stroke:#C2C200;stroke-width:0.2835;stroke-linecap:round;stroke-linejoin:round;stroke-miterlimit:10;}
</style>
<desc>Picture generated by PCBNEW</desc>
<g transform="translate(0 0) scale(1 1)">
</g>
<g>
	<g>
		<path class="st0" d="M485.8,180.4l0.9,1.4"/>
		<path class="st0" d="M500.9,175.2l4.1,2.4"/>
		<path class="st0" d="M486.2,183.7l0.1,4.7"/>
		<path class="st0" d="M498.3,173.2l0.7,1.5"/>
	</g>
	<g>
		<circle class="st1" cx="482.7" cy="154.7" r="5.7"/>
	</g>
	<g>
		<circle class="st1" cx="482.5" cy="9.7" r="5.7"/>
	</g>
	<g>
		<circle class="st1" cx="793.3" cy="284.4" r="5.7"/>
	</g>
	<g>
		<circle class="st1" cx="482.5" cy="284.7" r="5.7"/>
	</g>
	<g>
		<circle class="st1" cx="792.2" cy="34.5" r="5.7"/>
	</g>
	<g>
		<circle class="st1" cx="14.3" cy="218.5" r="5.7"/>
	</g>
	<g>
		<circle class="st1" cx="94.3" cy="9.7" r="5.7"/>
	</g>
	<g>
		<circle class="st1" cx="362" cy="8.8" r="2.8"/>
	</g>
	<g>
		<circle class="st1" cx="343.6" cy="8.8" r="2.8"/>
	</g>
	<g>
		<path class="st2" d="M120.2,313"/>
	</g>
	<g>
		<path class="st2" d="M222.1,267.2l-4.4,1.2"/>
	</g>
	<g>
		<path class="st2" d="M341,268h-4.5"/>
	</g>
</g>
<g>
	<path class="st3" d="M710.7,21.8h90.6"/>
	<path class="st3" d="M688.9,0.1l21.8,21.7"/>
	<path class="st3" d="M0.1,240.9V0.1"/>
	<path class="st3" d="M0.1,240.9l67.5,116.5"/>
	<path class="st3" d="M339.5,296.1h483.2"/>
	<path class="st3" d="M0.1,0.1h688.8"/>
	<path class="st3" d="M278.8,275.8h-39.1"/>
	<path class="st3" d="M161.2,303.6l-93.6,53.9"/>
	<path class="st3" d="M164.6,296.3l75.1-20.5"/>
	<path class="st3" d="M161.2,303.6l3.3-7.3"/>
	<path class="st3" d="M284.4,281.4l-5.6-5.5"/>
	<path class="st3" d="M324.6,281.5l-40.2-0.1"/>
	<path class="st3" d="M339.5,296.1l-14.9-14.6"/>
	<path class="st3" d="M822.7,296.1V43.2"/>
	<path class="st3" d="M801.3,21.8l21.4,21.3"/>
</g>
</svg>
